<svg width="226" height="160" viewBox="0 0 226 160" fill="none" xmlns="http://www.w3.org/2000/svg">
<g clip-path="url(#clip0_1308_13089)">
<path d="M205.706 143.936C207.674 147.415 206.005 159.165 206.005 159.165C206.005 159.165 195.076 154.538 193.108 151.061C192.166 149.39 191.925 147.414 192.438 145.566C192.952 143.718 194.178 142.15 195.848 141.205C197.517 140.261 199.494 140.018 201.342 140.53C203.191 141.042 204.76 142.267 205.706 143.936Z" fill="#F1F1F1"/>
<path d="M206.168 159.149L205.936 159.198C203.699 148.574 195.89 141.369 195.812 141.298L195.971 141.122C196.051 141.194 203.915 148.448 206.168 159.149Z" fill="white"/>
<path d="M223.592 147.895C220.921 152.74 205.864 159.303 205.864 159.303C205.864 159.303 203.382 143.067 206.051 138.223C207.334 135.897 209.488 134.176 212.039 133.438C214.591 132.7 217.331 133.006 219.657 134.289C221.983 135.571 223.705 137.726 224.443 140.277C225.18 142.829 224.874 145.569 223.592 147.895Z" fill="#F1F1F1"/>
<path d="M205.996 159.48L205.77 159.241C216.665 148.894 219.486 134.462 219.513 134.317L219.836 134.378C219.808 134.524 216.971 149.057 205.996 159.48Z" fill="white"/>
<path d="M53.5605 111.211C51.8373 111.205 50.1217 110.983 48.4538 110.55L48.1251 110.459L47.8201 110.306C36.795 104.779 27.4937 97.4771 20.1745 88.6046C14.1158 81.217 9.3921 72.8292 6.21591 63.8183C2.41769 53.03 0.590368 41.6466 0.821188 30.2116C0.825846 29.9715 0.829787 29.7862 0.829787 29.6585C0.829787 24.0999 3.91525 19.2226 8.69034 17.2329C12.345 15.7101 45.5272 2.08076 47.9247 1.096C52.4399 -1.16639 57.2567 0.721933 58.0275 1.05215C59.7566 1.75907 90.4315 14.3056 97.0603 17.4621C103.892 20.7153 105.715 26.5595 105.715 29.4998C105.715 42.8117 103.409 55.2527 98.8624 66.4772C95.1903 75.5627 89.9858 83.9503 83.4756 91.2747C70.9149 105.41 58.3509 110.421 58.2297 110.465C56.7281 110.982 55.1483 111.234 53.5605 111.211ZM50.6059 103.892C51.6951 104.136 54.203 104.502 55.8375 103.906C57.914 103.149 68.4299 97.6957 78.2567 86.6371C91.8339 71.3579 98.7229 52.1507 98.733 29.549C98.7088 29.0911 98.3836 25.8252 94.0587 23.7658C87.5584 20.6703 55.6744 7.63292 55.3531 7.50151L55.265 7.46417C54.5968 7.18417 52.4703 6.59439 51.0045 7.36252L50.711 7.49935C50.3556 7.64532 15.1323 22.1124 11.3757 23.6776C8.74784 24.7725 7.81154 27.4851 7.81154 29.6585C7.81154 29.8174 7.80743 30.0484 7.80163 30.347C7.5014 45.812 11.0801 83.8665 50.6059 103.892Z" fill="#3F3D56"/>
<path d="M49.3869 4.27087C49.3869 4.27087 13.8434 18.8692 10.0352 20.4559C6.22692 22.0427 4.32281 25.851 4.32281 29.6592C4.32281 33.4675 1.46664 83.1601 49.3869 107.186C49.3869 107.186 53.7361 108.39 57.0358 107.186C60.3355 105.983 102.226 85.6723 102.226 29.5006C102.226 29.5006 102.226 23.7882 95.5616 20.6146C88.8972 17.4411 56.676 4.27087 56.676 4.27087C56.676 4.27087 52.7191 2.52542 49.3869 4.27087Z" fill="#2E6470"/>
<path opacity="0.1" d="M53.195 15.6953V93.5721C53.195 93.5721 17.3342 76.31 17.6515 30.9283L53.195 15.6953Z" fill="black"/>
<path d="M46.9285 71.6664L35.505 56.9782L42.1483 51.8114L47.5573 58.7659L65.8297 39.4766L71.9401 45.2659L46.9285 71.6664Z" fill="white"/>
<path d="M224.935 160.001H120.552C120.479 160.001 120.41 159.972 120.358 159.921C120.307 159.869 120.278 159.8 120.278 159.727C120.278 159.654 120.307 159.585 120.358 159.533C120.41 159.482 120.479 159.453 120.552 159.453H224.935C225.008 159.453 225.077 159.482 225.129 159.533C225.18 159.585 225.209 159.654 225.209 159.727C225.209 159.8 225.18 159.869 225.129 159.921C225.077 159.972 225.008 160.001 224.935 160.001Z" fill="#CACACA"/>
<path d="M150.722 155.681L154.959 155.681L156.975 139.338L150.721 139.338L150.722 155.681Z" fill="#FFB8B8"/>
<path d="M149.643 154.299L157.988 154.299H157.988C159.398 154.299 160.751 154.859 161.748 155.856C162.745 156.854 163.306 158.206 163.306 159.617V159.789L149.643 159.79L149.643 154.299Z" fill="#2F2E41"/>
<path d="M164.975 155.681L169.212 155.681L171.228 139.338L164.974 139.338L164.975 155.681Z" fill="#FFB8B8"/>
<path d="M163.887 154.299L172.232 154.299H172.232C173.642 154.299 174.995 154.859 175.992 155.856C176.989 156.854 177.55 158.206 177.55 159.617V159.789L163.887 159.79L163.887 154.299Z" fill="#2F2E41"/>
<path d="M157.386 98.2883L158.402 150.138L150.18 149.628L144.476 116.602L142.674 94.085L157.386 98.2883Z" fill="#2F2E41"/>
<path d="M171.496 89.5819L172.648 150.96L163.059 150.686L160.988 114.201L157.386 100.991L142.674 94.0853L145.076 77.5727L166.693 77.2725L171.496 89.5819Z" fill="#2F2E41"/>
<path d="M154.962 34.6395C159.023 34.6395 162.315 31.3475 162.315 27.2865C162.315 23.2256 159.023 19.9336 154.962 19.9336C150.901 19.9336 147.609 23.2256 147.609 27.2865C147.609 31.3475 150.901 34.6395 154.962 34.6395Z" fill="#FFB8B8"/>
<path d="M161.058 37.7363L162.184 39.4426L165.187 47.8489L162.785 80.5739L148.674 80.8744L146.873 43.3454L150.646 38.6287L161.058 37.7363Z" fill="#CCCCCC"/>
<path d="M141.175 44.2475L138.774 43.9473C138.774 43.9473 138.173 44.2475 137.873 46.3491C137.573 48.4507 133.97 67.065 133.97 67.065L138.774 89.8825L144.178 82.677L140.875 70.0673L144.178 57.4576L141.175 44.2475Z" fill="#2F2E41"/>
<path d="M171.794 43.9473H173.595L178.099 68.2656L173.896 87.1801L169.692 80.2749L170.893 72.7692L170.293 66.1643L168.191 62.261L171.794 43.9473Z" fill="#2F2E41"/>
<path d="M159.312 27.2852L157.975 26.951C157.975 26.951 156.972 21.2692 154.633 21.9376C152.293 22.6061 146.277 23.2745 146.277 20.6007C146.277 17.9269 151.959 15.5874 155.301 15.9216C158.643 16.2558 162.912 17.3646 163.991 22.2718C165.721 30.1384 160.422 32.1254 160.422 32.1254L160.51 31.839C160.755 31.0437 160.772 30.1958 160.561 29.3911C160.349 28.5864 159.916 27.857 159.312 27.2852Z" fill="#2F2E41"/>
<path d="M139.072 43.9462L148.679 40.0432L150.931 38.3919L157.686 68.2648L160.838 37.4912L173.298 43.9462L169.094 64.3618L168.494 72.1678L170.295 78.4726C170.295 78.4726 176.6 82.9761 174.498 87.7798C172.397 92.5834 169.995 92.8837 169.995 92.8837C169.995 92.8837 159.787 83.2763 159.187 80.8745C158.586 78.4726 157.686 74.2694 157.686 74.2694C157.686 74.2694 152.582 93.4841 146.577 93.1839C140.573 92.8837 140.573 86.5788 140.573 86.5788L142.074 79.9738L144.476 73.0685L143.275 61.6597L139.072 43.9462Z" fill="#2F2E41"/>
</g>
<defs>
<clipPath id="clip0_1308_13089">
<rect width="224.401" height="160" fill="white" transform="translate(0.799316)"/>
</clipPath>
</defs>
</svg>
