<svg width="296" height="160" viewBox="0 0 296 160" fill="none" xmlns="http://www.w3.org/2000/svg">
<g clip-path="url(#clip0_1308_13160)">
<path d="M228.597 104.472C226.194 101.333 222.032 95.8946 214.874 94.2592C201.387 91.178 189.798 104.458 188.704 105.748C177.791 118.619 176.102 140.881 187.108 151.705C192.75 157.253 200.416 158.508 203.704 159.046C207.566 159.678 216.55 161.148 224.129 155.854C228.198 153.012 230.15 149.416 231.469 146.918C237.657 135.203 238.46 117.358 228.597 104.472ZM211.845 153.273C203.938 154.09 196.445 146.671 193.367 139.723C191.65 135.77 191.048 131.422 191.627 127.152C192.206 122.881 193.944 118.85 196.652 115.497C197.794 114.114 203.866 106.754 212.255 107.696C220.507 108.622 225.42 116.952 227.037 122.478C230.698 134.991 223.009 152.12 211.845 153.273Z" fill="#2E6470"/>
<path d="M161.979 154.885H157.822L155.844 138.847H161.98L161.979 154.885Z" fill="#FFB6B6"/>
<path d="M161.862 153.529L157.423 151.723L157.295 151.671L154.844 153.529C153.46 153.529 152.133 154.079 151.155 155.058C150.176 156.036 149.626 157.363 149.626 158.747V158.917H163.032V153.529H161.862Z" fill="#2F2E41"/>
<path d="M214.044 122.904L213.106 126.955L197.035 125.265L198.419 119.286L214.044 122.904Z" fill="#FFB6B6"/>
<path d="M212.965 121.562L212.723 122.596L212.699 122.703L209.946 126.618L209.862 126.735L211.118 129.541C210.963 130.209 210.941 130.9 211.054 131.576C211.167 132.252 211.412 132.899 211.775 133.481C212.138 134.062 212.612 134.566 213.17 134.964C213.727 135.362 214.358 135.646 215.026 135.8L215.189 135.838L218.214 122.779L212.965 121.562Z" fill="#2F2E41"/>
<path d="M159.165 68.6846L182.093 69.487L182.253 69.2549C182.253 69.2549 184.208 73.8182 184.208 77.7295C184.208 79.03 183.304 87.5357 183.764 89.1449C183.821 89.3451 183.427 89.8355 183.556 90.7675C183.64 91.3722 184.102 90.9071 184.208 91.7453C184.284 92.347 183.471 92.6791 183.556 93.3751C183.649 94.1354 184.768 96.5983 184.868 97.4441C185.94 106.449 184.196 108.789 184.196 108.789C184.196 108.789 203.805 117.006 205.017 117.255C207.053 117.674 208.427 121.375 207.299 122.144C206.762 122.511 204.974 129.338 204.974 129.338C204.593 129.407 203.4 128.808 204.16 127.393C204.3 127.132 203.465 127.795 203.327 127.483C203.179 127.152 201.09 128.607 200.921 128.239C199.404 124.933 180.423 120.351 178.216 117.998C174.954 114.523 172.889 110.095 172.321 105.363L170.43 87.9955L168.695 95.8677L167.259 97.2865L167.653 100.595L167.585 103.805L163.999 117.169C163.999 117.169 163.462 142.127 164.325 142.919C164.793 143.349 166.778 148.636 163.022 149.112L156.197 148.586C156.197 148.586 155.277 146.648 155.737 145.958C156.197 145.269 156.169 145.457 155.608 144.328C155.047 143.2 155.277 141.287 155.277 141.287C154.383 132.299 154.031 123.266 154.221 114.236C154.563 99.4042 156.636 82.3655 156.636 82.0183C156.654 81.6634 156.588 81.3094 156.445 80.9841V80.0479L157.326 76.7308L159.165 68.6846Z" fill="#2F2E41"/>
<path d="M184.144 74.0467C178.355 75.048 174.473 74.6667 172.084 71.1132C168.967 67.1445 163.3 71.8307 158.517 73.573L157.95 72.9602L156.985 71.9204L157.872 70.9165L156.985 68.9804L157.725 66.5912L158.67 66.4184L158.416 64.3617L158.019 63.1589L159.185 61.8779L160.176 58.6804L159.463 51.9886C158.486 42.8162 160.378 33.5665 164.88 25.5151L167.588 23.0835L168.713 22.073L170.222 19.2568L171.816 19.4426L176.131 19.9413L176.278 20.2934L177.338 22.8488L181.186 26.9826C181.73 27.5672 182.144 28.2611 182.399 29.018C182.654 29.7749 182.746 30.5775 182.667 31.3724L182.556 32.4871L182.474 33.2889L182.09 37.1482L180.522 52.9143L180.405 53.752L179.143 62.8167C181.193 64.7984 181.318 64.3661 182.189 67.8537C182.286 68.2416 183.421 69.1053 183.492 69.4835C183.593 70.018 184.144 74.0467 184.144 74.0467Z" fill="#3F3D56"/>
<path d="M172.383 17.5947C176.522 17.5947 179.878 14.2388 179.878 10.0991C179.878 5.95941 176.522 2.60352 172.383 2.60352C168.243 2.60352 164.887 5.95941 164.887 10.0991C164.887 14.2388 168.243 17.5947 172.383 17.5947Z" fill="#FFB6B6"/>
<path d="M180.232 4.45709C179.737 3.92225 179.1 3.53828 178.397 3.34946C177.693 3.16064 176.95 3.17468 176.254 3.38996C175.948 2.51667 175.409 1.74385 174.695 1.15565C173.981 0.567442 173.12 0.186399 172.204 0.0540037C171.289 -0.0783916 170.354 0.042938 169.503 0.404781C168.652 0.766624 167.916 1.35511 167.376 2.10616C167.129 1.99527 166.857 1.95001 166.588 1.97479C166.318 1.99956 166.06 2.09352 165.837 2.24756C165.395 2.56184 165.039 2.98197 164.802 3.4695C164.189 4.63373 163.903 5.94234 163.975 7.25602C164.047 8.56971 164.474 9.83932 165.21 10.9297C164.917 10.3374 165.741 11.3575 166.545 11.0902C167.236 10.9093 170.072 9.0906 170.78 9.18256C171.487 9.2745 171.717 8.70374 172.409 8.53066C173.088 8.31376 174.819 11.1172 175.166 12.9722C175.231 13.3237 175.391 13.7605 175.749 13.7685C176.189 13.7784 176.321 13.1477 176.692 12.9109C176.867 12.8219 177.07 12.8043 177.258 12.8618C177.446 12.9194 177.604 13.0475 177.699 13.2194C177.786 13.396 177.829 13.5908 177.825 13.7875C177.822 13.9843 177.771 14.1773 177.678 14.3505C177.488 14.6949 177.244 15.0063 176.955 15.2728L177.147 15.3785C177.336 15.5142 177.567 15.5797 177.8 15.5639C178.032 15.5482 178.252 15.452 178.421 15.292C179.137 15.615 181.084 13.7935 180.826 12.6915C181.369 11.3407 181.667 9.9035 181.703 8.44789C181.733 6.97964 181.208 5.55423 180.232 4.45709Z" fill="#2F2E41"/>
<path d="M122.456 29.7138C122.734 29.9745 123.065 30.1712 123.427 30.29C123.788 30.4088 124.171 30.4469 124.549 30.4016C124.927 30.3563 125.291 30.2287 125.614 30.0278C125.937 29.8268 126.213 29.5574 126.42 29.2386L142.443 33.0729L140.843 28.5386L125.518 25.512C124.96 25.1982 124.305 25.1003 123.679 25.2369C123.053 25.3734 122.498 25.7349 122.121 26.2528C121.744 26.7708 121.569 27.4091 121.631 28.047C121.693 28.6849 121.987 29.2779 122.456 29.7138Z" fill="#FFB8B8"/>
<path d="M170.328 26.9246L169.045 26.2552L163.19 26.1632L162.976 26.161L162.964 26.162L158.475 26.0933L136.8 25.7537L135.928 26.5148L134.588 25.7191L133.07 24.9492L131.676 25.6735L130.483 25.6548L130.302 26.4547L130.3 26.4575L130.295 26.4807L129.487 29.9703L129.486 29.9732L129.496 30.7963L130.898 32.3074L131.642 32.8773L133.185 33.5599L134.254 32.287L135.507 33.5889L140.645 34.5347C149.234 36.901 157.143 38.0399 163.213 35.8527L163.976 35.8171L170.001 35.5304C170.824 35.4921 171.618 35.2108 172.282 34.7219C172.946 34.2329 173.45 33.5583 173.731 32.7831L173.733 32.7803C173.923 32.2537 174.005 31.694 173.972 31.1351C173.946 30.6213 173.822 30.1173 173.608 29.6496C173.223 28.7987 172.566 28.1002 171.74 27.6645L170.328 26.9246Z" fill="#3F3D56"/>
<path d="M259.701 149.987C259.991 149.997 260.276 149.919 260.52 149.761C260.763 149.604 260.952 149.376 261.061 149.107C261.17 148.839 261.194 148.544 261.13 148.261C261.066 147.979 260.916 147.723 260.702 147.528C260.665 147.387 260.638 147.285 260.601 147.144C260.871 146.438 261.346 145.828 261.965 145.394C262.584 144.959 263.319 144.72 264.075 144.705C264.831 144.691 265.574 144.903 266.209 145.313C266.843 145.724 267.341 146.315 267.638 147.011C269.35 150.914 271.556 154.951 270.519 159.279C277.495 144.122 274.895 125.377 264.251 112.574C261.327 110.999 258.943 108.175 258.298 104.876C259.742 105.35 261.525 104.162 260.429 102.657C259.954 102.082 259.475 101.511 259 100.936C264.412 95.0615 271.014 104.151 265.071 112.067C267.063 114.517 268.793 117.168 270.234 119.977C269.879 116.983 270.24 113.947 271.287 111.119C272.351 108.483 274.37 106.252 276.145 103.965C278.303 101.178 282.811 102.412 283.138 105.919C281.128 106.6 280.894 109.515 283.204 109.892C282.662 116.427 278.453 122.468 272.605 125.388C274.833 131.455 275.742 137.927 275.272 144.373C276.237 136.836 284.3 134.932 289.919 131.886C290.276 131.652 290.694 131.528 291.121 131.527C291.548 131.526 291.966 131.65 292.324 131.883C292.682 132.116 292.965 132.448 293.137 132.838C293.31 133.229 293.365 133.661 293.296 134.083C292.519 134.407 291.777 134.808 291.079 135.279C290.753 135.503 290.503 135.823 290.366 136.194C290.228 136.566 290.208 136.971 290.31 137.354C290.411 137.737 290.628 138.079 290.932 138.334C291.235 138.589 291.61 138.743 292.005 138.776C289.225 145.849 281.91 150.651 274.351 150.696C273.654 153.86 272.631 156.942 271.297 159.895L260.078 160.001C260.036 159.877 259.999 159.749 259.961 159.625C261 159.68 262.042 159.608 263.064 159.41C260.285 156.183 258.145 154.544 259.701 149.987L259.701 149.987Z" fill="#F2F2F2"/>
<path d="M34.1012 118.268C33.8116 118.279 33.5259 118.2 33.2826 118.043C33.0393 117.885 32.8502 117.657 32.741 117.389C32.6318 117.12 32.6077 116.825 32.672 116.542C32.7363 116.26 32.8859 116.004 33.1005 115.809C33.1375 115.668 33.164 115.567 33.201 115.425C32.9307 114.719 32.4557 114.11 31.8369 113.675C31.218 113.241 30.4835 113.001 29.7275 112.987C28.9715 112.972 28.2284 113.184 27.5935 113.595C26.9587 114.005 26.4609 114.596 26.1641 115.292C24.4522 119.196 22.2464 123.233 23.2831 127.56C16.3075 112.404 18.9073 93.6581 29.5515 80.8548C32.4749 79.2805 34.8592 76.4567 35.5043 73.1576C34.0604 73.6315 32.277 72.4437 33.3736 70.9379C33.8482 70.3629 34.3273 69.7926 34.8019 69.2176C29.3899 63.3428 22.7885 72.432 28.7316 80.3483C26.7395 82.7978 25.0088 85.4488 23.5679 88.2582C23.923 85.2639 23.5622 82.228 22.515 79.4003C21.4516 76.7642 19.4326 74.5333 17.6576 72.2463C15.4996 69.4596 10.9916 70.6928 10.6643 74.1999C12.6739 74.8817 12.908 77.7962 10.5983 78.1728C11.1401 84.7081 15.3487 90.7494 21.1968 93.669C18.9691 99.7361 18.0602 106.208 18.5305 112.654C17.5652 105.117 9.50227 103.213 3.88301 100.168C3.52574 99.9337 3.10812 99.8088 2.68107 99.8081C2.25403 99.8075 1.83603 99.9311 1.47806 100.164C1.12009 100.397 0.837631 100.729 0.665133 101.12C0.492635 101.51 0.437562 101.943 0.506624 102.364C1.28311 102.688 2.02545 103.089 2.72271 103.56C3.04941 103.784 3.29876 104.104 3.4366 104.476C3.57444 104.847 3.59401 105.252 3.49264 105.635C3.39127 106.018 3.17392 106.361 2.87037 106.615C2.56683 106.87 2.19195 107.024 1.79712 107.058C4.57686 114.131 11.892 118.932 19.4516 118.977C20.148 122.141 21.1713 125.224 22.505 128.176L33.7246 128.283C33.7661 128.158 33.8035 128.03 33.8409 127.906C32.8017 127.961 31.7597 127.889 30.7381 127.691C33.5167 124.464 35.6574 122.825 34.1015 118.268L34.1012 118.268Z" fill="#F2F2F2"/>
<path d="M31.3703 117.59C52.4504 114.179 65.4698 148.982 79.0659 146.792C103.983 142.777 93.6551 17.9069 113.134 16.845C129.739 15.9398 151.039 71.0427 168.631 104.101C177.877 121.478 182.904 133.837 182.904 133.837C182.904 133.837 175.21 171.173 164.269 156.436C148.641 135.385 136.889 61.6628 128.221 65.0274C114.949 70.1794 129.919 133.565 98.0467 153.119C70.2074 170.197 15.8289 145.932 15.7963 130.731C15.7838 124.893 23.7837 118.818 31.3703 117.59Z" fill="#2E6470"/>
<path d="M132.669 110.472C128.373 111.455 122.732 114.494 123.038 117.294C123.366 120.296 130.533 123.077 136.281 121.307C140.996 119.855 145.286 115.177 144.306 112.479C143.294 109.694 136.846 109.517 132.669 110.472Z" fill="#2E6470"/>
<path d="M245.452 100.395C246.839 98.0478 248.822 94.5679 247.367 92.1022C245.382 88.7353 239.223 84.2464 235.391 88.6251C232.479 91.9532 233.133 93.2837 233.172 98.4506C233.278 112.555 225.293 142.677 233.639 157.011C235.201 159.694 243.836 159.162 247.257 159.496C251.049 159.866 255.164 156.179 254.929 151.912C254.72 148.091 251.129 146.978 247.541 144.465C234.636 135.425 238.272 112.553 245.452 100.395Z" fill="#2E6470"/>
<path d="M82.3612 19.6076C82.2739 20.6543 82.1894 21.701 82.1074 22.7477C82.0447 23.9736 81.8736 25.1916 81.596 26.3873C81.5325 26.7191 81.3897 27.0306 81.1797 27.2953C80.807 27.7195 81.4969 30.2014 80.9854 30.4393C80.466 30.6867 79.9082 30.8436 79.3361 30.9032C79.3123 30.7288 79.2806 30.5543 79.2449 30.3838C79.2409 30.364 79.237 30.3481 79.233 30.3283C79.0709 29.5545 78.7715 28.8159 78.3488 28.1477C78.4484 28.9395 78.3602 29.7436 78.0911 30.4949C78.0475 30.6178 77.996 30.7407 77.9405 30.8636C75.6925 30.5305 73.7458 29.012 72.2114 29.0279C71.2793 25.9023 70.6226 22.701 70.2488 19.4609C70.1497 18.5966 70.0942 17.6371 70.6255 16.9512C71.0973 16.3406 71.9022 16.1186 72.6555 15.956C75.1165 15.4243 77.6316 15.1834 80.1488 15.2384L75.7916 14.2234C77.0152 14.1544 78.2423 14.2707 79.4312 14.5683C80.6008 14.9212 81.707 15.6943 82.159 16.8322C82.5039 17.7005 82.4325 18.6759 82.3612 19.6076Z" fill="#2F2E41"/>
<path d="M57.8258 151.403H53.6314L51.636 135.225L57.8266 135.225L57.8258 151.403Z" fill="#FFB6B6"/>
<path d="M45.1652 157.591C45.1672 158.061 45.3546 158.511 45.6865 158.843C46.0184 159.176 46.4681 159.364 46.9379 159.367H54.8336L55.0782 158.86L56.195 156.556L56.6276 158.86L56.7233 159.367H59.7014L59.6589 158.857L58.8647 149.334L57.8259 149.27L53.3374 149.004L52.2348 148.937V151.78C51.3981 152.67 44.8319 156.035 45.1652 157.591Z" fill="#2F2E41"/>
<path d="M106.956 146.839L103.308 148.909L93.5886 135.822L98.9728 132.768L106.956 146.839Z" fill="#FFB6B6"/>
<path d="M99.0126 158.469C99.2446 158.878 99.6296 159.178 100.083 159.304C100.536 159.43 101.021 159.37 101.431 159.139L101.845 158.905H101.849L108.298 155.242L108.092 152.126L109.943 154.31L111.308 153.533L112.531 152.838L111.45 151.257L106.852 144.524L105.916 144.985L101.877 146.967L100.892 147.453L102.292 149.924C102.005 151.115 97.9561 157.277 99.0126 158.469Z" fill="#2F2E41"/>
<path d="M78.6409 71.9895C83.5538 72.166 82.7994 83.8053 84.3331 93.9289C85.7013 102.961 89.7036 110.588 88.3651 110.912L101.613 135.601C96.4324 140.413 90.3539 143.604 82.7567 144.054C74.5122 136.478 72.2514 119.044 70.3585 101.004L68.2921 116.847L71.0473 141.987L58.859 144.935L50.4287 144.333C43.2835 115.512 56.8017 82.917 62.6214 70.5332L78.6409 71.9895Z" fill="#2F2E41"/>
<path d="M83.8542 65.9679L86.0859 59.2727L87.68 57.041L88.3177 50.6646C88.3177 33.4484 84.4775 36.3153 84.4775 36.3153L79.4684 30.2603L73.7697 30.0822L69.2663 29.9414L65.5223 36.1584C63.8726 36.7406 62.4041 37.7445 61.2627 39.0702C60.1213 40.396 59.3468 41.9974 59.0162 43.7153L57.98 49.0993L61.8559 60.8668L61.6849 59.9924C59.8604 63.3606 60.3245 63.8673 61.8353 66.3962L61.9104 67.3094C61.9802 68.1309 62.3059 68.9098 62.8416 69.5365C63.3774 70.1631 64.0962 70.6059 64.8969 70.8025C81.0392 74.8254 82.7167 81.8628 84.7919 78.9574C85.2742 78.2823 83.2277 70.2247 83.9256 70.2945C85.8378 70.4858 83.8542 65.9679 83.8542 65.9679Z" fill="#E6E6E6"/>
<path d="M94.9029 90.8856C94.5742 90.583 94.3152 90.2127 94.1437 89.8002C93.9723 89.3877 93.8924 88.9429 93.9098 88.4965C93.9271 88.0502 94.0412 87.6129 94.2442 87.215C94.4471 86.817 94.7341 86.4679 95.0852 86.1918L91.0857 71.3481L94.9194 69.2324L99.5409 86.8972C99.9617 87.5228 100.138 88.2811 100.038 89.0283C99.9366 89.7756 99.5651 90.4598 98.9934 90.9515C98.4217 91.4431 97.6895 91.7079 96.9356 91.6958C96.1817 91.6836 95.4585 91.3953 94.9029 90.8856Z" fill="#FFB6B6"/>
<path d="M83.886 35.8818C83.886 35.8818 91.004 38.0494 91.6302 41.8339C92.2565 45.6183 93.3505 48.9569 93.0677 50.5051C92.785 52.0532 96.3159 62.4142 95.6278 63.606C94.9396 64.7977 96.7906 65.0559 96.1515 67.0094C95.5124 68.963 95.156 69.3684 95.5615 69.7248C95.9669 70.0811 97.7158 77.8282 97.7158 77.8282L92.383 79.3774L82.561 55.0399L83.886 35.8818Z" fill="#E6E6E6"/>
<path d="M55.8407 90.8856C56.1693 90.583 56.4284 90.2127 56.5998 89.8002C56.7713 89.3877 56.8511 88.9429 56.8338 88.4965C56.8164 88.0502 56.7023 87.6129 56.4994 87.2149C56.2964 86.817 56.0095 86.4679 55.6583 86.1918L59.6579 71.3481L55.8241 69.2324L51.2027 86.8972C50.7819 87.5228 50.6052 88.2811 50.7061 89.0283C50.807 89.7756 51.1784 90.4598 51.7501 90.9514C52.3218 91.4431 53.054 91.7079 53.8079 91.6958C54.5618 91.6836 55.2851 91.3953 55.8407 90.8856Z" fill="#FFB6B6"/>
<path d="M66.8613 35.8818C66.8613 35.8818 59.7433 38.0494 59.1171 41.8339C58.4908 45.6183 57.3968 48.9569 57.6796 50.5051C57.9623 52.0532 54.4314 62.4142 55.1195 63.606C55.8077 64.7977 53.9567 65.0559 54.5958 67.0094C55.2349 68.963 55.5913 69.3684 55.1858 69.7248C54.7804 70.0811 53.0315 77.8282 53.0315 77.8282L58.3643 79.3774L68.1863 55.0399L66.8613 35.8818Z" fill="#E6E6E6"/>
<path d="M72.6897 29.1076C77.5902 29.1076 81.5628 25.135 81.5628 20.2345C81.5628 15.334 77.5902 11.3613 72.6897 11.3613C67.7893 11.3613 63.8167 15.334 63.8167 20.2345C63.8167 25.135 67.7893 29.1076 72.6897 29.1076Z" fill="#FFB6B6"/>
<path d="M81.6892 34.3075C78.343 31.3319 84.0483 22.8328 79.5919 17.1607L79.0566 16.7601C78.6533 17.5278 77.9981 18.1334 77.2011 18.4752C77.0348 17.7018 76.7556 16.957 76.3725 16.2649C76.4687 17.1222 76.3918 17.9902 76.1465 18.8173C75.8967 18.8488 75.7183 18.8128 75.6549 18.7003C75.7342 19.389 73.6289 19.7311 74.069 18.6598C74.0722 18.649 74.0762 18.6385 74.0809 18.6282C73.5377 19.7221 72.4196 20.2308 71.4483 20.8386C70.4769 21.4418 69.4897 22.4501 69.5848 23.7016C69.6641 24.7145 70.4373 25.4707 71.2144 25.9749C71.9915 26.4836 72.8637 26.8797 73.4267 27.6675C74.3743 28.991 74.1522 30.9312 73.6725 32.5428C73.5766 32.8002 73.4197 33.0305 73.2153 33.2139C73.0109 33.3974 72.7651 33.5285 72.4989 33.5962C72.3408 32.7283 72.0421 31.892 71.6148 31.1203C71.7146 32.0169 71.6269 32.9244 71.3571 33.7853C70.7792 33.8106 70.2023 33.7184 69.6611 33.5141C69.12 33.3098 68.626 32.9977 68.2091 32.5968L68.8077 35.2528C67.8443 35.0502 66.873 35.2798 65.8937 35.4554C65.8683 35.1548 65.8273 34.8558 65.7707 34.5595C65.6167 33.669 65.3138 32.8106 64.8747 32.0206C64.9973 33.1185 64.8376 34.2294 64.4108 35.2483C64.3633 35.3653 64.3117 35.4824 64.2562 35.5949C62.7496 35.4869 61.247 34.6091 61.5324 32.3267C61.658 31.5944 61.9631 30.9046 62.4205 30.319C63.1976 29.2296 59.2368 28.0637 59.4787 26.7492C59.8395 24.8 63.4514 23.0759 63.1659 21.1087C62.9122 19.326 62.9619 15.302 63.943 13.915C65.3604 11.9113 63.7881 7.76625 73.8628 10.1202C77.6108 10.9959 78.91 7.31931 84.5597 18.5464C85.5284 20.4712 82.0064 19.8095 84.076 23.9357C86.1456 28.0619 80.2183 31.3319 81.6892 34.3075Z" fill="#2F2E41"/>
<path d="M0.350833 159.496C0.349751 159.27 0.643431 159.086 1.00682 159.085H294.989C295.353 159.085 295.648 159.269 295.648 159.496C295.648 159.723 295.353 159.907 294.989 159.907H1.01075C0.647361 159.907 0.351908 159.725 0.350833 159.498V159.496Z" fill="#CCCCCC"/>
<path d="M151.388 74.9121C151.748 74.7873 152.075 74.5851 152.348 74.3199C152.621 74.0547 152.833 73.7328 152.968 73.377C153.103 73.0211 153.159 72.64 153.131 72.2604C153.103 71.8808 152.992 71.5119 152.806 71.1798L163.635 58.7643L158.876 58.0781L149.086 70.2503C148.549 70.5998 148.158 71.1342 147.989 71.7522C147.819 72.3703 147.883 73.029 148.166 73.6036C148.45 74.1783 148.935 74.6288 149.529 74.87C150.122 75.1111 150.784 75.1261 151.388 74.9121Z" fill="#FFB8B8"/>
<path d="M156.121 68.0026L157.659 66.3054L159.144 66.1777L159.245 66.0513L159.633 65.5563L159.782 64.1776L160.922 63.9101L163.463 60.6641L163.851 60.0181L174.519 47.554L176.695 43.93L177.037 43.1935L178.103 40.901L177.962 35.1195C178.196 34.6202 178.327 34.0795 178.349 33.5289C178.372 32.9783 178.284 32.4287 178.092 31.9122C178.031 31.7448 177.959 31.5815 177.877 31.4232L177.817 31.3108C177.661 31.034 177.474 30.7758 177.26 30.5411L177.256 30.5356C176.879 30.122 176.42 29.7909 175.909 29.5629C175.51 29.3809 175.085 29.2632 174.65 29.2141C173.645 29.1027 172.633 29.357 171.801 29.9304L170.491 30.8356L169.303 31.6636L166.583 36.6711L166.404 36.9975L166.398 37.0055L158.021 52.4169L155.497 57.0638L155.112 57.7696L155.076 59.834L153.862 60.0639L152.428 61.1375L152.284 62.9656L151.609 65.9134L151.506 66.0796L152.135 66.452L152.195 66.4866L152.31 66.5875L153.909 67.9603L154.879 68.7952L154.911 68.8212L155.163 69.0586L156.121 68.0026Z" fill="#3F3D56"/>
<path d="M64.1523 14.9711C64.1723 14.9786 64.1897 14.9861 64.2096 14.9937C64.2477 15.0105 64.2868 15.0247 64.3267 15.0363C64.5813 15.1298 64.8467 15.1908 65.1166 15.2179C65.2317 15.2303 65.3474 15.2364 65.4631 15.2362C65.6116 15.2367 65.7599 15.2271 65.907 15.2074C66.0707 15.1873 66.2325 15.1544 66.391 15.1089C66.4662 15.0887 66.5403 15.0648 66.6131 15.0371C67.1087 14.8611 67.5567 14.5724 67.9219 14.194C68.2872 13.8155 68.5596 13.3574 68.7179 12.8558V12.8533C68.7348 12.8043 68.7491 12.7544 68.7607 12.7039C68.8348 12.4232 68.8724 12.1342 68.8725 11.844V11.839C68.8744 11.1312 68.6537 10.4407 68.2417 9.86521C67.9933 9.51302 67.7063 9.45416 67.8673 9.05144C68.3809 7.76681 66.2798 6.71668 65.0394 7.28154C64.9947 7.27727 64.9497 7.2755 64.9048 7.27621C64.0696 7.2741 63.7598 8.50749 63.2619 9.20185L63.2763 9.20655C63.4024 9.25069 63.5115 9.33315 63.5885 9.44237C63.6654 9.55159 63.7063 9.68212 63.7054 9.81571C63.7045 9.9493 63.6618 10.0793 63.5834 10.1875C63.505 10.2956 63.3948 10.3766 63.2681 10.4191C62.9366 10.5271 62.6016 10.6225 62.2632 10.7053C61.1471 12.0234 62.4266 15.8797 64.1523 14.9711Z" fill="#2F2E41"/>
<path d="M68.1468 9.53014C68.1923 10.7147 67.8886 11.8866 67.2736 12.9C66.6585 13.9135 65.7591 14.7238 64.6873 15.2303C64.2521 15.4275 63.8731 14.7821 64.3114 14.5835C65.2691 14.1417 66.0739 13.4253 66.6236 12.5252C67.1733 11.6251 67.4432 10.582 67.3988 9.52825C67.3739 9.04719 68.1219 9.05053 68.1468 9.53014Z" fill="#2E6470"/>
</g>
<defs>
<clipPath id="clip0_1308_13160">
<rect width="295.298" height="160" fill="white" transform="translate(0.351196)"/>
</clipPath>
</defs>
</svg>
