<svg width="172" height="160" viewBox="0 0 172 160" fill="none" xmlns="http://www.w3.org/2000/svg">
<g clip-path="url(#clip0_1308_13120)">
<path d="M115.87 113.428H54.3145C49.1404 113.428 44.931 109.218 44.931 104.044V42.4889C44.931 37.3148 49.1404 33.1055 54.3145 33.1055H115.87C121.044 33.1055 125.253 37.3148 125.253 42.4889V104.044C125.253 109.218 121.044 113.428 115.87 113.428ZM54.3145 34.6068C49.9613 34.6068 46.4324 38.1357 46.4324 42.4889V104.044C46.4324 108.397 49.9613 111.926 54.3145 111.926H97.4326C111.968 111.926 123.752 100.143 123.752 85.6069V42.4889C123.752 38.1358 120.223 34.6068 115.87 34.6068L54.3145 34.6068Z" fill="#F2F2F2"/>
<path d="M60.9458 41.0078C58.0324 41.0078 55.6624 43.3779 55.6624 46.2912V54.5609C55.6624 57.4743 58.0324 59.8443 60.9458 59.8443H69.2155C72.1288 59.8443 74.4989 57.4743 74.4989 54.5609V46.2912C74.4989 43.3779 72.1288 41.0078 69.2155 41.0078H60.9458Z" fill="#F2F2F2"/>
<path d="M60.9458 64.2871C58.0324 64.2871 55.6624 66.6572 55.6624 69.5705V77.8402C55.6624 80.7536 58.0324 83.1236 60.9458 83.1236H69.2155C72.1288 83.1236 74.4989 80.7536 74.4989 77.8402V69.5705C74.4989 66.6572 72.1288 64.2871 69.2155 64.2871H60.9458Z" fill="#F2F2F2"/>
<path d="M60.9458 87.5684C58.0324 87.5684 55.6624 89.9384 55.6624 92.8518V101.121C55.6624 104.035 58.0324 106.405 60.9458 106.405H69.2155C72.1288 106.405 74.4989 104.035 74.4989 101.121V92.8518C74.4989 89.9384 72.1288 87.5684 69.2155 87.5684H60.9458Z" fill="#F2F2F2"/>
<path d="M66.4361 20.832C62.7651 20.832 59.7788 23.8184 59.7788 27.4893V37.9093C59.7788 41.5803 62.7651 44.5666 66.4361 44.5666H76.8561C80.5271 44.5666 83.5134 41.5802 83.5134 37.9093V27.4893C83.5134 23.8183 80.5271 20.832 76.8561 20.832H66.4361Z" fill="#2E6470"/>
<path d="M100.741 49.9512C97.0706 49.9512 94.0842 52.9375 94.0842 56.6084V67.0285C94.0842 70.6994 97.0706 73.6857 100.741 73.6857H111.162C114.832 73.6857 117.819 70.6994 117.819 67.0285V56.6084C117.819 52.9375 114.832 49.9512 111.162 49.9512H100.741Z" fill="#2E6470"/>
<path d="M85.8326 154.835L83.7158 154.817L82.7787 146.462L85.9029 146.488L85.8326 154.835Z" fill="#A0616A"/>
<path d="M79.0519 158.202C79.0473 158.723 79.4673 159.152 79.9902 159.157L84.199 159.192L84.9359 157.698L85.2065 159.199L86.7945 159.214L86.3935 153.86L85.841 153.823L83.5874 153.668L82.8603 153.619L82.8476 155.134L79.4666 157.427C79.2094 157.602 79.0545 157.891 79.0519 158.202Z" fill="#2F2E41"/>
<path d="M96.5966 154.835L94.4798 154.817L93.5427 146.462L96.667 146.488L96.5966 154.835Z" fill="#A0616A"/>
<path d="M89.816 158.202C89.8114 158.723 90.2314 159.152 90.7543 159.157L94.9631 159.192L95.6999 157.698L95.9705 159.199L97.5586 159.214L97.1576 153.86L96.6051 153.823L94.3514 153.668L93.6244 153.619L93.6116 155.134L90.2307 157.427C89.9734 157.602 89.8185 157.891 89.816 158.202Z" fill="#2F2E41"/>
<path d="M77.5178 87.2812L86.0984 87.5522L94.2275 89.3587C94.2275 89.3587 93.4146 90.3522 96.1242 93.0619C96.1242 93.0619 99.7371 99.3844 97.2081 105.526L96.1242 130.094C96.1242 130.094 99.2844 147.413 96.8699 152.924L93.6787 153.124L88.2788 130.294L85.6468 105.707L84.3823 129.913C84.3823 129.913 89.2199 146.528 86.1651 153.124L82.7089 152.924L76.7952 129.913C76.7952 129.913 74.2662 103.359 74.6275 98.3006C74.9888 93.2425 77.5178 87.2812 77.5178 87.2812Z" fill="#2F2E41"/>
<path d="M106.343 48.4602C105.17 48.7639 104.465 49.9611 104.769 51.1341C104.908 51.6715 105.236 52.1088 105.662 52.3977L105.662 52.4007L105.495 56.4312L108.58 57.8586L108.826 51.6563L108.804 51.6569C109.072 51.1805 109.164 50.6049 109.016 50.0342C108.713 48.8612 107.516 48.1565 106.343 48.4602Z" fill="#A0616A"/>
<path d="M89.0997 62.846C88.4518 62.2037 88.0759 61.333 88.0618 60.3861C88.0429 59.1158 88.6795 57.9629 89.7646 57.3021C91.0141 56.5411 92.5767 56.6181 93.7455 57.4981L103.431 64.7905L105.157 54.2852L108.862 55.4779L107.978 69.1574C107.916 70.1142 107.375 70.9572 106.531 71.4122C105.687 71.8672 104.686 71.8559 103.852 71.3817L89.8554 63.4183C89.5742 63.2583 89.321 63.0654 89.0997 62.846Z" fill="#3F3D56"/>
<path d="M74.3329 42.584C74.9521 43.6255 74.6097 44.9718 73.5681 45.5909C73.0909 45.8746 72.5501 45.9543 72.0442 45.8594L72.0422 45.8617L69.3226 48.8411L66.1273 47.6831L70.3192 43.1053L70.334 43.1208C70.4796 42.5942 70.8192 42.1204 71.3259 41.8191C72.3675 41.2 73.7138 41.5424 74.3329 42.584Z" fill="#A0616A"/>
<path d="M75.5077 64.8115L59.9611 60.6121C59.0354 60.362 58.3163 59.6651 58.0373 58.7477C57.7583 57.8303 57.9678 56.8509 58.5975 56.1278L67.6008 45.791L71.0718 47.5527L64.901 56.2281L76.9134 57.8685C78.3629 58.0664 79.5268 59.1119 79.8784 60.5321C80.1837 61.7653 79.824 63.0322 78.9163 63.921C78.2396 64.5835 77.3596 64.9372 76.4473 64.9371C76.1357 64.9371 75.82 64.8958 75.5077 64.8115Z" fill="#3F3D56"/>
<path d="M97.6643 90.8953L75.9242 91.8925C75.3271 90.9858 75.4888 89.6224 76.325 87.9151C79.4822 81.4689 77.0844 69.274 75.4714 62.924C75.0188 61.1424 76.2337 59.3712 78.0628 59.1882L80.1126 58.9833L82.0074 53.1992H88.6435L91.3965 56.3444L96.0687 59.1827C95.2182 67.9425 91.5946 80.312 96.7569 86.5153C97.8859 87.872 98.2061 89.3392 97.6643 90.8953Z" fill="#3F3D56"/>
<path d="M84.481 53.3317C88.0509 53.3317 90.9448 50.4378 90.9448 46.868C90.9448 43.2982 88.0509 40.4043 84.481 40.4043C80.9112 40.4043 78.0173 43.2982 78.0173 46.868C78.0173 50.4378 80.9112 53.3317 84.481 53.3317Z" fill="#A0616A"/>
<path d="M91.799 42.7314C92.6983 39.4527 82.8968 36.6411 80.9921 39.2815C80.7273 38.9061 79.7485 38.6781 79.2994 38.7932C78.8503 38.9084 78.4726 39.1962 78.1041 39.4749C77.5974 39.8641 77.0724 40.2672 76.7615 40.8268C76.4482 41.3841 76.3999 42.1441 76.8213 42.6278C77.1553 43.0124 77.7421 45.0562 78.2441 45.1575C78.5942 45.2289 78.889 45.2865 79.1423 45.3279C79.368 44.9986 79.9436 44.5849 79.9021 44.1865C80.243 44.4122 80.1184 44.8092 80.0497 45.2151C79.8209 46.5664 74.6654 57.0275 77.6182 53.9449C77.9107 54.1176 78.2723 54.2788 78.6891 54.4262C79.3961 53.3599 79.9765 52.1025 80.3588 50.7874L80.3615 50.8117C80.4931 51.9545 81.3283 52.8922 82.4332 53.2123C86.8656 54.4964 90.4509 52.6122 91.6843 49.2144C91.2328 48.2977 91.0361 48.3973 91.0765 48.37C91.6401 47.9902 92.4148 48.2386 92.657 48.8737C92.7284 49.0609 92.7933 49.2207 92.8496 49.341C93.4921 47.0426 94.2563 47.3743 91.799 42.7314Z" fill="#2F2E41"/>
<path d="M88.7462 40.3526L88.2934 38.0379C88.2554 37.8433 88.2193 37.6322 88.307 37.4544C88.4197 37.226 88.7095 37.1313 88.9616 37.1677C89.2138 37.2041 89.4023 37.4344 89.6532 37.4788C90.5253 37.633 91.6782 36.7715 91.9907 38.9508C92.121 39.8595 93.5709 39.9555 94.0551 40.7353C94.5393 41.5151 94.5988 42.6407 93.9379 43.2778C93.4102 43.7867 92.5626 43.8454 91.8771 43.5855C91.1916 43.3256 90.6414 42.8005 90.1609 42.2469C89.6803 41.6933 89.2452 41.0941 88.6909 40.6143" fill="#2F2E41"/>
<path d="M92.145 43.8738C90.3763 43.6268 89.1707 42.9835 88.5618 41.9621C87.7647 40.6251 88.2986 39.1529 88.3217 39.0908L88.6956 39.2298C88.6906 39.2433 88.2063 40.591 88.9065 41.7613C89.4512 42.6717 90.5594 43.2496 92.2001 43.4788L92.145 43.8738Z" fill="#2E6470"/>
<path d="M100.444 18.8618C95.2443 18.8618 91.0135 14.631 91.0135 9.43138C91.0135 4.23176 95.2443 0.000976562 100.444 0.000976562C105.644 0.000976562 109.874 4.23176 109.874 9.43138C109.874 14.631 105.644 18.8618 100.444 18.8618ZM100.444 3.77314C97.3238 3.77314 94.7857 6.31124 94.7857 9.43138C94.7857 12.5515 97.3238 15.0896 100.444 15.0896C103.564 15.0896 106.102 12.5515 106.102 9.43138C106.102 6.31124 103.564 3.77314 100.444 3.77314Z" fill="#2E6470"/>
<path d="M114.949 25.2703C114.487 25.2703 114.023 25.1018 113.66 24.7601L104.808 16.4652C104.048 15.7533 104.009 14.5598 104.722 13.8C105.433 13.0375 106.626 12.9997 107.387 13.7134L116.238 22.0083C116.999 22.7202 117.038 23.9138 116.325 24.6735C115.954 25.0705 115.452 25.2703 114.949 25.2703Z" fill="#2E6470"/>
<path d="M154.955 154.623C155.596 154.663 155.951 153.866 155.465 153.402L155.417 153.21C155.424 153.194 155.43 153.179 155.436 153.164C156.085 151.617 158.283 151.628 158.926 153.177C159.496 154.551 160.223 155.928 160.402 157.381C160.482 158.023 160.446 158.677 160.304 159.306C161.641 156.385 162.345 153.195 162.345 149.988C162.345 149.182 162.301 148.376 162.21 147.572C162.136 146.914 162.034 146.26 161.902 145.613C161.186 142.112 159.636 138.778 157.401 135.994C156.326 135.406 155.43 134.488 154.889 133.387C154.694 132.99 154.542 132.563 154.47 132.128C154.592 132.144 154.931 130.282 154.838 130.168C155.009 129.909 155.314 129.78 155.5 129.528C156.426 128.273 157.701 128.492 158.367 130.198C159.789 130.915 159.803 132.106 158.93 133.251C158.375 133.979 158.299 134.965 157.812 135.745C157.862 135.809 157.914 135.871 157.964 135.935C158.883 137.114 159.678 138.381 160.348 139.713C160.159 138.233 160.439 136.451 160.915 135.302C161.458 133.993 162.475 132.89 163.371 131.759C164.447 130.399 166.653 130.993 166.842 132.716C166.844 132.732 166.846 132.749 166.848 132.766C166.715 132.841 166.584 132.921 166.457 133.005C165.731 133.485 165.982 134.611 166.842 134.744L166.862 134.747C166.813 135.226 166.731 135.701 166.611 136.168C167.76 140.612 165.279 142.23 161.737 142.303C161.659 142.343 161.583 142.383 161.505 142.421C161.864 143.432 162.15 144.468 162.363 145.519C162.553 146.447 162.686 147.385 162.76 148.327C162.852 149.516 162.844 150.711 162.744 151.898L162.75 151.856C163.004 150.549 163.714 149.328 164.744 148.482C166.28 147.221 168.448 146.756 170.105 145.743C170.902 145.255 171.923 145.885 171.784 146.81L171.778 146.854C171.531 146.954 171.29 147.07 171.058 147.201C170.925 147.276 170.794 147.356 170.667 147.44C169.941 147.92 170.192 149.046 171.052 149.179L171.072 149.182C171.086 149.184 171.098 149.186 171.112 149.188C170.689 150.192 170.099 151.124 169.362 151.928C168.643 155.807 165.557 156.175 162.256 155.046H162.254C161.894 156.618 161.366 158.153 160.689 159.617H155.095C155.075 159.555 155.057 159.49 155.039 159.428C155.556 159.46 156.077 159.43 156.587 159.336C156.172 158.827 155.757 158.314 155.342 157.804C155.332 157.794 155.324 157.784 155.316 157.774C155.105 157.514 154.893 157.255 154.682 156.994L154.682 156.994C154.669 156.194 154.765 155.397 154.955 154.623Z" fill="#F2F2F2"/>
<path d="M0.202271 159.634C0.202271 159.839 0.366794 160.003 0.57167 160.003H171.384C171.589 160.003 171.753 159.839 171.753 159.634C171.753 159.429 171.589 159.265 171.384 159.265H0.57167C0.366794 159.265 0.202271 159.429 0.202271 159.634Z" fill="#CCCCCC"/>
</g>
<defs>
<clipPath id="clip0_1308_13120">
<rect width="171.594" height="160" fill="white" transform="translate(0.202881)"/>
</clipPath>
</defs>
</svg>
