<svg width="199" height="160" viewBox="0 0 199 160" fill="none" xmlns="http://www.w3.org/2000/svg">
<g clip-path="url(#clip0_1308_13022)">
<path d="M158.353 29.1446C157.329 40.4357 154.409 52.3416 149.83 63.8293C144.168 78.0352 136.432 90.5478 127.459 100.014L126.961 99.58C135.891 90.1591 143.592 77.7018 149.23 63.5546C154.326 50.77 157.357 37.4657 157.999 25.0859L158.636 25.1925C158.568 26.4999 158.474 27.8173 158.353 29.1446Z" fill="#F2F2F2"/>
<path d="M162.435 94.7213C149.83 114.773 134.539 129.101 119.377 135.064L119.07 134.501C134.127 128.58 149.329 114.326 161.876 94.3652L162.435 94.7213Z" fill="#F2F2F2"/>
<path d="M158.057 43.2032C157.032 54.4943 154.112 66.4002 149.534 77.8879C143.871 92.0938 136.135 104.606 127.162 114.073L126.664 113.639C135.594 104.218 143.295 91.7604 148.933 77.6132C154.029 64.8286 157.06 51.5243 157.703 39.1445L158.339 39.2511C158.271 40.5585 158.177 41.8759 158.057 43.2032Z" fill="#F2F2F2"/>
<path d="M16.5521 72.19H8.28234C8.10566 72.1903 7.93118 72.1507 7.772 72.074C7.61282 71.9974 7.47307 71.8856 7.36323 71.7472C7.25472 71.6124 7.17817 71.4547 7.13931 71.286C7.10045 71.1173 7.10031 70.942 7.13888 70.7733C7.9265 67.298 7.87702 63.6853 6.99452 60.2329C6.9387 60.0056 6.9522 59.7667 7.03327 59.5471C7.11435 59.3276 7.25929 59.1373 7.44944 59.0008C11.7018 55.9424 15.0506 56.0312 17.4031 59.265C17.5091 59.4124 17.5795 59.5824 17.6089 59.7616C18.2374 63.5402 18.2722 67.3939 17.712 71.1833C17.673 71.4629 17.5341 71.719 17.3208 71.9041C17.1076 72.0892 16.8345 72.1908 16.5521 72.19Z" fill="#E6E6E6"/>
<path d="M13.9924 63.9109H11.1476C10.9903 63.9109 10.8394 63.8484 10.7282 63.7372C10.6169 63.6259 10.5544 63.4751 10.5544 63.3178C10.5544 63.1604 10.6169 63.0096 10.7282 62.8983C10.8394 62.7871 10.9903 62.7246 11.1476 62.7246H13.9924C14.1495 62.7249 14.3001 62.7876 14.411 62.8988C14.522 63.01 14.5843 63.1607 14.5843 63.3178C14.5843 63.4748 14.522 63.6255 14.411 63.7367C14.3001 63.8479 14.1495 63.9106 13.9924 63.9109Z" fill="white"/>
<path d="M13.9924 65.989H11.1476C10.9903 65.989 10.8394 65.9265 10.7282 65.8153C10.6169 65.7041 10.5544 65.5532 10.5544 65.3959C10.5544 65.2386 10.6169 65.0877 10.7282 64.9765C10.8394 64.8652 10.9903 64.8027 11.1476 64.8027H13.9924C14.1495 64.8031 14.3001 64.8657 14.411 64.9769C14.522 65.0881 14.5843 65.2388 14.5843 65.3959C14.5843 65.553 14.522 65.7037 14.411 65.8149C14.3001 65.9261 14.1495 65.9887 13.9924 65.989Z" fill="white"/>
<path d="M13.9924 68.0711H11.1476C10.9903 68.0711 10.8394 68.0086 10.7282 67.8973C10.6169 67.7861 10.5544 67.6352 10.5544 67.4779C10.5544 67.3206 10.6169 67.1697 10.7282 67.0585C10.8394 66.9473 10.9903 66.8848 11.1476 66.8848H13.9924C14.1495 66.8851 14.3001 66.9477 14.411 67.0589C14.522 67.1701 14.5843 67.3208 14.5843 67.4779C14.5843 67.635 14.522 67.7857 14.411 67.8969C14.3001 68.0081 14.1495 68.0707 13.9924 68.0711Z" fill="white"/>
<path d="M166.849 109.114H158.579C158.403 109.114 158.228 109.075 158.069 108.998C157.91 108.921 157.77 108.809 157.66 108.671C157.552 108.536 157.475 108.379 157.436 108.21C157.397 108.041 157.397 107.866 157.436 107.697C158.223 104.222 158.174 100.609 157.291 97.1567C157.236 96.9294 157.249 96.6906 157.33 96.471C157.411 96.2514 157.556 96.0611 157.746 95.9246C161.999 92.8663 165.348 92.955 167.7 96.1888C167.806 96.3362 167.876 96.5062 167.906 96.6854C168.534 100.464 168.569 104.318 168.009 108.107C167.97 108.387 167.831 108.643 167.618 108.828C167.404 109.013 167.131 109.115 166.849 109.114Z" fill="#E6E6E6"/>
<path d="M164.288 100.833H161.443C161.286 100.832 161.136 100.77 161.025 100.659C160.914 100.547 160.851 100.397 160.851 100.24C160.851 100.083 160.914 99.9318 161.025 99.8206C161.136 99.7094 161.286 99.6468 161.443 99.6465H164.288C164.445 99.6465 164.596 99.709 164.707 99.8202C164.819 99.9315 164.881 100.082 164.881 100.24C164.881 100.397 164.819 100.548 164.707 100.659C164.596 100.77 164.445 100.833 164.288 100.833Z" fill="white"/>
<path d="M164.288 102.913H161.443C161.286 102.913 161.136 102.85 161.025 102.739C160.914 102.627 160.851 102.477 160.851 102.32C160.851 102.163 160.914 102.012 161.025 101.901C161.136 101.79 161.286 101.727 161.443 101.727H164.288C164.445 101.727 164.596 101.789 164.707 101.9C164.819 102.012 164.881 102.162 164.881 102.32C164.881 102.477 164.819 102.628 164.707 102.739C164.596 102.85 164.445 102.913 164.288 102.913Z" fill="white"/>
<path d="M164.288 104.995H161.443C161.286 104.995 161.136 104.932 161.025 104.821C160.914 104.71 160.851 104.559 160.851 104.402C160.851 104.245 160.914 104.094 161.025 103.983C161.136 103.872 161.286 103.809 161.443 103.809H164.288C164.445 103.809 164.596 103.871 164.707 103.982C164.819 104.094 164.881 104.244 164.881 104.402C164.881 104.559 164.819 104.71 164.707 104.821C164.596 104.932 164.445 104.995 164.288 104.995Z" fill="white"/>
<path d="M198.141 159.692C198.141 159.733 198.133 159.773 198.118 159.811C198.102 159.848 198.079 159.883 198.051 159.911C198.022 159.94 197.988 159.963 197.95 159.978C197.912 159.994 197.872 160.002 197.832 160.002H1.17638C1.09431 160.002 1.01561 159.969 0.957577 159.911C0.899548 159.853 0.866943 159.774 0.866943 159.692C0.866943 159.61 0.899548 159.531 0.957577 159.473C1.01561 159.415 1.09431 159.383 1.17638 159.383H197.832C197.872 159.383 197.912 159.391 197.95 159.406C197.988 159.422 198.022 159.444 198.051 159.473C198.079 159.502 198.102 159.536 198.118 159.574C198.133 159.611 198.141 159.652 198.141 159.692Z" fill="#CCCCCC"/>
<path d="M52.7384 140.746L52.2227 133.572C48.844 131.883 45.1042 131.044 41.3279 131.129C46.6406 135.235 46.2151 143.443 49.8945 149.06C51.0555 150.803 52.5938 152.263 54.3956 153.33C56.1973 154.398 58.2162 155.047 60.3027 155.228L64.7242 157.772C65.23 154.429 65.005 151.016 64.0649 147.769C63.1247 144.521 61.4916 141.516 59.2782 138.96C58.0222 137.539 56.5923 136.281 55.0221 135.217C54.0556 137.992 52.7384 140.746 52.7384 140.746Z" fill="#F2F2F2"/>
<path d="M146.264 141.787L146.78 134.613C150.159 132.924 153.899 132.085 157.675 132.17C152.362 136.276 152.788 144.484 149.108 150.101C147.947 151.844 146.409 153.304 144.607 154.372C142.806 155.439 140.787 156.088 138.7 156.269L134.279 158.813C133.773 155.47 133.998 152.057 134.938 148.81C135.878 145.562 137.511 142.557 139.725 140.001C140.981 138.58 142.411 137.322 143.981 136.258C144.947 139.033 146.264 141.787 146.264 141.787Z" fill="#F2F2F2"/>
<path d="M97.1668 60.8321C99.8954 60.8321 102.107 58.6202 102.107 55.8917C102.107 53.1631 99.8954 50.9512 97.1668 50.9512C94.4383 50.9512 92.2263 53.1631 92.2263 55.8917C92.2263 58.6202 94.4383 60.8321 97.1668 60.8321Z" fill="#2E6470"/>
<path d="M99.6985 53.8331C99.6242 53.7622 99.5254 53.7227 99.4227 53.7227C99.32 53.7227 99.2212 53.7622 99.1469 53.8331C98.0986 54.6692 97.157 55.6309 96.3433 56.6967C96.1436 56.3102 95.9438 55.9237 95.7441 55.5372C95.5135 55.0911 94.8401 55.4852 95.0705 55.9309C95.3627 56.4963 95.6549 57.0616 95.947 57.6269C95.9823 57.6846 96.0317 57.7323 96.0907 57.7654C96.1497 57.7985 96.2162 57.8159 96.2838 57.8159C96.3514 57.8159 96.4179 57.7985 96.4769 57.7654C96.5359 57.7323 96.5854 57.6846 96.6206 57.6269C97.4877 56.4057 98.524 55.3141 99.6985 54.3847C99.7711 54.3113 99.8118 54.2122 99.8118 54.1089C99.8118 54.0057 99.7711 53.9066 99.6985 53.8331Z" fill="white"/>
<path d="M75.0593 69.9003L67.6091 58.2003L76.2362 53.5801L78.5005 62.5067L94.4545 71.1278C95.0844 70.9011 95.7666 70.8626 96.418 71.0169C97.0694 71.1713 97.6618 71.5118 98.123 71.997C98.5841 72.4822 98.8942 73.0911 99.0153 73.7495C99.1364 74.4078 99.0633 75.0872 98.805 75.7048C98.5466 76.3223 98.1142 76.8514 97.5604 77.2274C97.0066 77.6035 96.3553 77.8102 95.686 77.8225C95.0167 77.8348 94.3583 77.6521 93.791 77.2967C93.2238 76.9412 92.7722 76.4284 92.4913 75.8208L75.0593 69.9003Z" fill="#A0616A"/>
<path d="M62.165 44.1658C59.8242 47.6028 68.143 60.0957 68.143 60.0957C68.5483 59.2222 72.4223 69.0317 73.0711 68.4523C74.9153 66.8053 77.8021 62.2178 79.4067 62.0133C80.3244 61.8964 77.2784 55.3883 77.2784 55.3883C77.2784 55.3883 75.8863 51.5452 73.9974 46.6361C73.4891 45.2384 72.6354 43.9919 71.5158 43.0128C70.3961 42.0337 69.047 41.3538 67.5939 41.0364C67.5939 41.0364 64.5059 40.7289 62.165 44.1658Z" fill="#2E6470"/>
<path d="M62.274 156.144L65.8121 156.144L67.4953 142.496L62.2732 142.496L62.274 156.144Z" fill="#A0616A"/>
<path d="M61.3748 154.989L62.3707 154.989L66.2588 153.408L68.3428 154.989H68.3431C69.5208 154.989 70.6502 155.457 71.483 156.29C72.3157 157.123 72.7836 158.252 72.7837 159.43V159.574L61.375 159.574L61.3748 154.989Z" fill="#2F2E41"/>
<path d="M78.7112 156.144L82.2494 156.144L83.9328 142.496L78.7107 142.496L78.7112 156.144Z" fill="#A0616A"/>
<path d="M77.8123 154.989L78.8082 154.989L82.6964 153.408L84.7803 154.989H84.7806C85.9583 154.989 87.0877 155.457 87.9205 156.29C88.7532 157.123 89.2211 158.252 89.2212 159.43V159.574L77.8125 159.574L77.8123 154.989Z" fill="#2F2E41"/>
<path d="M80.2507 81.5312L57.2365 82.1066C52.8656 84.4806 52.7993 89.6189 54.2314 95.7195C54.2314 95.7195 53.7479 99.3455 54.7149 100.312C55.6818 101.279 56.1653 101.279 55.6818 102.972C55.1983 104.664 57.7527 107.427 57.4425 107.738C57.1322 108.048 56.407 109.74 56.407 109.74L58.8244 123.519C58.8244 123.519 60.5165 147.451 61 147.934C61.4834 148.418 61.9669 147.934 61.4834 149.143C61 150.351 60.5165 149.868 61 150.351C61.4282 150.813 61.8317 151.297 62.2087 151.802H68.0531C68.0531 151.802 68.4938 149.385 68.4938 149.143C68.4938 148.901 68.9772 147.451 68.9772 147.209C68.9772 146.967 68.5499 146.54 68.5499 146.54C68.4022 146.048 68.3025 145.544 68.252 145.033C68.252 144.55 66.8016 125.936 66.8016 125.936L69.7024 101.763L76.7127 125.453C76.7127 125.453 76.7127 146.242 77.1962 146.725C77.6797 147.209 77.6797 146.967 77.4379 147.934C77.1962 148.901 76.2292 148.659 76.9545 149.385C77.6797 150.11 77.9214 148.901 77.6797 150.11L77.4379 151.318L84.69 151.422C84.69 151.422 85.6569 149.385 85.1734 148.659C84.69 147.934 84.719 148.132 85.3088 146.945C85.8987 145.759 86.1404 145.517 85.8987 145.275C85.6569 145.033 85.6569 143.748 85.6569 143.748L84.4482 120.618C84.4482 120.618 84.2065 96.203 84.2065 95.4778C84.1883 95.1047 84.257 94.7324 84.4073 94.3903V93.4059L83.4813 89.9179L80.2507 81.5312Z" fill="#2F2E41"/>
<path d="M66.416 33.6782C70.3652 33.6782 73.5667 30.4768 73.5667 26.5276C73.5667 22.5784 70.3652 19.377 66.416 19.377C62.4668 19.377 59.2654 22.5784 59.2654 26.5276C59.2654 30.4768 62.4668 33.6782 66.416 33.6782Z" fill="#A0616A"/>
<path d="M69.9958 38.4031C71.5363 39.319 72.4578 41.0017 72.9868 42.714C73.9662 45.8842 74.5557 49.1618 74.7423 52.4746L75.3011 62.3923L82.2211 83.51C76.2237 88.5846 53.6808 84.6633 53.6808 84.6633C53.6808 84.6633 52.9888 84.4327 53.6808 83.7406C54.3727 83.0486 55.0464 83.6617 54.3544 82.9697C53.6624 82.2777 54.1395 83.0486 54.3701 82.3566C54.6008 81.6646 54.3701 82.126 54.1395 81.8953C53.9088 81.6646 55.9252 79.5886 55.9252 79.5886L54.0798 67.4669L51.7732 43.0164C54.5412 39.5565 60.108 37.5168 60.108 37.5168L61.5464 34.9277L68.7383 35.5031L69.9958 38.4031Z" fill="#2E6470"/>
<path d="M72.3264 22.728C72.8822 23.1425 73.2939 23.7209 73.5037 24.3817C73.5842 23.3018 73.5894 22.2176 73.519 21.1369C73.4347 20.3776 72.9001 20.2068 72.281 20.0088C71.722 19.83 71.0897 19.628 70.9196 18.8909C68.6719 16.7042 64.759 16.8145 62.0811 17.5772C60.6076 17.9969 59.7598 18.5362 59.6839 18.8521L59.6682 18.9171L59.6083 18.9471C58.4725 19.515 58.2514 21.3083 58.266 22.7127C58.2937 25.3587 59.2073 28.3638 59.722 28.608C59.7492 28.6209 59.7561 28.6158 59.7679 28.606C60.5429 27.9867 61.4884 28.6531 61.9039 29.0153C62.1489 27.3708 62.938 25.8558 64.1451 24.7124C65.3522 23.5689 66.9076 22.863 68.563 22.7072C69.1036 22.655 69.6399 22.565 70.168 22.4381C70.4358 22.3688 70.7112 22.3327 70.9879 22.3305C71.4642 22.3233 71.9313 22.462 72.3264 22.728Z" fill="#2F2E41"/>
<path d="M116.707 87.2309L130.462 73.2628L134.086 62.0913L128.254 59.7324C125.365 62.6465 122.391 71.5675 122.391 71.5675L113.003 84.1679C112.928 84.1957 112.853 84.2252 112.78 84.26C112.347 84.4641 111.975 84.7762 111.699 85.1662C111.422 85.5562 111.251 86.011 111.202 86.4864C111.153 86.9619 111.227 87.442 111.418 87.8804C111.608 88.3188 111.908 88.7006 112.29 88.989C112.671 89.2774 113.12 89.4625 113.594 89.5266C114.067 89.5907 114.55 89.5315 114.994 89.3547C115.438 89.178 115.829 88.8896 116.129 88.5176C116.429 88.1456 116.628 87.7024 116.707 87.2309Z" fill="#FFB8B8"/>
<path d="M126.672 61.0093L134.047 63.1428L134.074 63.1375C136.785 62.6111 138.93 58.1059 140.251 54.4192C140.686 53.2032 140.643 51.8675 140.13 50.6821C139.618 49.4968 138.675 48.5501 137.491 48.0336C136.615 47.6585 135.652 47.5358 134.71 47.6794C133.769 47.8231 132.886 48.2272 132.162 48.8463L128.485 52.0127L126.672 61.0093Z" fill="#2E6470"/>
<path d="M120.353 155.729L116.387 155.728L114.5 140.43L120.353 140.43L120.353 155.729Z" fill="#FFB8B8"/>
<path d="M121.367 154.435L120.251 154.435L115.892 152.662L113.556 154.434H113.556C112.236 154.434 110.969 154.959 110.036 155.892C109.102 156.826 108.578 158.092 108.578 159.412V159.574L121.367 159.574L121.367 154.435Z" fill="#2F2E41"/>
<path d="M137.955 155.729L133.988 155.728L132.101 140.43L137.955 140.43L137.955 155.729Z" fill="#FFB8B8"/>
<path d="M138.961 154.435L137.845 154.435L133.486 152.662L131.15 154.434H131.15C129.829 154.434 128.563 154.959 127.63 155.892C126.696 156.826 126.172 158.092 126.172 159.412V159.574L138.961 159.574L138.961 154.435Z" fill="#2F2E41"/>
<path d="M144 89.8319C144 89.8319 144.463 95.3896 143.305 100.716C142.147 106.042 142.147 121.042 142.147 121.042L139.6 150.272L131.958 149.577L129.874 100.716L122.464 117.157L123.159 119.473L122.233 120.052C122.233 120.052 122.927 124.567 122.464 124.567C122.001 124.567 120.843 125.262 120.843 125.262L121.769 149.114L113.896 148.882L111.117 115.305L114.127 96.0843L114.359 92.3792L115.401 92.422L115.932 90.874L116.906 88.2109L144 89.8319Z" fill="#2F2E41"/>
<path d="M144.404 90.9991L144.445 90.9412C146.649 87.8553 143.334 80.4399 142.834 79.3649L144.94 78.6815L144.466 74.6504L144.241 72.8532L145.851 71.2437L145.855 71.2035L146.782 63.0986L148.128 57.7153C148.636 55.6803 148.593 53.5468 148.003 51.534C147.414 49.5212 146.299 47.7015 144.774 46.2618L141.661 43.3266L137.877 37.7285H131.776L129.684 41.6799C127.656 42.1487 125.857 43.3141 124.6 44.9731C123.342 46.6322 122.707 48.6797 122.804 50.7591L123.278 61.1224L121.422 74.0257L121.421 76.3608L119.332 78.6822L119.788 80.9627L118.199 81.644L117.497 84.9194C117.206 85.3027 115.289 87.8593 115.289 88.5582C115.289 88.6631 115.366 88.7645 115.532 88.8771C116.839 89.7618 124.061 91.5657 127.258 90.2866C130.662 88.9252 144.197 90.9675 144.334 90.9883L144.404 90.9991Z" fill="#2E6470"/>
<path d="M134.033 35.9201C138.496 35.9201 142.113 32.3025 142.113 27.8399C142.113 23.3774 138.496 19.7598 134.033 19.7598C129.57 19.7598 125.953 23.3774 125.953 27.8399C125.953 32.3025 129.57 35.9201 134.033 35.9201Z" fill="#FFB8B8"/>
<path d="M133.266 36.0524C134.517 36.0397 135.765 35.92 136.996 35.6948C138.215 35.414 140.903 33.3349 141.636 32.1066C142.181 31.194 142.507 29.7824 142.686 28.759C142.926 27.4046 142.88 26.0147 142.55 24.6794C142.219 23.344 141.612 22.093 140.767 21.0073C140.441 20.5524 139.999 20.1941 139.486 19.9701C139.441 19.9537 139.394 19.9393 139.347 19.9272C138.604 19.7521 137.93 19.3589 137.413 18.7981C137.312 18.6846 137.203 18.5784 137.088 18.4805C136.507 18.0153 135.824 17.6942 135.095 17.5434C133.917 17.2607 132.233 17.615 130.088 18.5976C129.011 19.0913 127.815 18.9536 126.894 18.7784C126.842 18.7698 126.789 18.7749 126.74 18.7931C126.691 18.8114 126.647 18.8422 126.614 18.8824C126.233 19.2586 125.725 19.4768 125.19 19.4931C124.863 19.516 124.531 19.9784 124.13 20.5807C124.04 20.7174 123.934 20.8769 123.857 20.9743L123.841 20.7914L123.661 21.0005C123.378 21.3291 123.183 21.7239 123.094 22.1483C123.005 22.5726 123.024 23.0127 123.151 23.4274C123.277 23.8422 123.507 24.2182 123.818 24.5204C124.129 24.8226 124.511 25.0412 124.929 25.1559C125.261 25.235 125.6 25.2801 125.941 25.2904C126.148 25.3036 126.362 25.3173 126.567 25.3475C127.226 25.4649 127.844 25.7514 128.36 26.1789C128.876 26.6063 129.272 27.1603 129.51 27.7866C129.566 27.9313 129.655 28.0612 129.769 28.1663C129.883 28.2713 130.02 28.3486 130.169 28.3923C130.318 28.4361 130.475 28.4449 130.628 28.4183C130.781 28.3917 130.926 28.3303 131.051 28.2389C131.26 28.0675 131.507 27.9492 131.771 27.894C132.036 27.8388 132.309 27.8484 132.569 27.9218C132.795 28.0399 132.974 28.2321 133.075 28.4661C133.197 28.7266 133.394 28.9448 133.641 29.0929C134.482 29.4995 134.588 31.3942 134.331 32.9827C134.083 34.5138 133.543 35.6307 133.018 35.6988C132.614 35.7511 132.569 35.7811 132.541 35.8534L132.517 35.9182L132.564 35.977C132.79 36.0523 133.029 36.0781 133.266 36.0524Z" fill="#2F2E41"/>
<path d="M126.56 61.8726L122.676 56.9238C118.72 58.0132 111.701 64.2702 111.701 64.2702L97.2843 70.5263C96.8031 70.4454 96.3091 70.4928 95.8521 70.6635C95.395 70.8343 94.991 71.1224 94.6807 71.4989C94.3704 71.8754 94.1648 72.3271 94.0845 72.8083C94.0042 73.2896 94.0521 73.7835 94.2234 74.2403C94.3947 74.6972 94.6833 75.1009 95.0602 75.4107C95.4371 75.7206 95.889 75.9257 96.3703 76.0054C96.8517 76.0851 97.3456 76.0365 97.8022 75.8647C98.2589 75.6929 98.6622 75.4038 98.9716 75.0265L117.857 69.7579L126.56 61.8726Z" fill="#FFB8B8"/>
<path d="M125.629 63.0045L131.758 56.173L132.098 51.3324C132.161 50.3818 131.957 49.4325 131.51 48.5917C131.062 47.7509 130.388 47.0521 129.563 46.5744C128.442 45.9342 127.119 45.7438 125.862 46.0417C124.606 46.3396 123.509 47.1035 122.794 48.179C120.629 51.4425 118.299 55.8548 119.498 58.3426L119.51 58.3678L125.629 63.0045Z" fill="#2E6470"/>
<path d="M69.1443 88.6818L53.2166 80.5245C52.0837 79.9443 51.7084 78.4053 52.3801 77.0938L62.7653 56.8161C63.4369 55.5046 64.9051 54.9097 66.0381 55.4899L81.9658 63.6472C83.0987 64.2275 83.474 65.7665 82.8023 67.078L72.4171 87.3557C71.7455 88.6672 70.2773 89.2621 69.1443 88.6818Z" fill="#E6E6E6"/>
<path d="M66.4249 84.9327L55.6034 79.3905C54.5423 78.847 54.1908 77.4057 54.8198 76.1774L63.4477 59.331C64.0767 58.1027 65.4518 57.5457 66.5129 58.0891L79.583 64.7829C80.6441 65.3264 80.9955 66.7676 80.3665 67.9959L75.6794 77.1478C72.8774 82.6188 71.1513 87.3532 66.4249 84.9327Z" fill="white"/>
<path d="M71.7738 75.7329L62.1889 70.824C62.0717 70.7405 61.9884 70.6176 61.9543 70.4778C61.9202 70.338 61.9376 70.1906 62.0032 70.0625C62.0688 69.9344 62.1782 69.8342 62.3116 69.7802C62.445 69.7262 62.5933 69.7219 62.7296 69.7682L72.3145 74.6771C72.4317 74.7606 72.515 74.8835 72.5491 75.0233C72.5832 75.1631 72.5658 75.3105 72.5002 75.4386C72.4346 75.5667 72.3251 75.6669 72.1918 75.7209C72.0584 75.7749 71.91 75.7792 71.7738 75.7329Z" fill="#2E6470"/>
<path d="M63.3059 74.0303L61.1185 72.91C61.0014 72.8265 60.9181 72.7036 60.884 72.5638C60.8499 72.424 60.8673 72.2766 60.9329 72.1485C60.9985 72.0204 61.1079 71.9202 61.2413 71.8661C61.3747 71.8121 61.5231 71.8078 61.6593 71.8541L63.8467 72.9744C63.9639 73.0579 64.0471 73.1808 64.0812 73.3206C64.1153 73.4604 64.098 73.6078 64.0324 73.7359C63.9668 73.864 63.8573 73.9642 63.7239 74.0182C63.5905 74.0723 63.4422 74.0765 63.3059 74.0303Z" fill="#2E6470"/>
<path d="M66.1097 78.1003L60.0482 74.9959C59.931 74.9124 59.8478 74.7895 59.8137 74.6497C59.7796 74.5099 59.7969 74.3625 59.8625 74.2344C59.9281 74.1063 60.0376 74.0061 60.171 73.9521C60.3044 73.898 60.4527 73.8938 60.589 73.9401L66.6505 77.0444C66.7677 77.128 66.8509 77.2508 66.885 77.3906C66.9191 77.5305 66.9018 77.6779 66.8362 77.8059C66.7706 77.934 66.6611 78.0343 66.5277 78.0883C66.3943 78.1423 66.246 78.1466 66.1097 78.1003Z" fill="#2E6470"/>
<path d="M75.5707 68.3266L65.9857 63.4178C65.8685 63.3343 65.7853 63.2114 65.7512 63.0716C65.7171 62.9318 65.7344 62.7844 65.8 62.6563C65.8656 62.5282 65.9751 62.428 66.1085 62.374C66.2419 62.3199 66.3902 62.3157 66.5265 62.362L76.1114 67.2708C76.2286 67.3543 76.3119 67.4772 76.3459 67.617C76.38 67.7568 76.3627 67.9042 76.2971 68.0323C76.2315 68.1604 76.122 68.2606 75.9887 68.3147C75.8553 68.3687 75.7069 68.3729 75.5707 68.3266Z" fill="#2E6470"/>
<path d="M67.095 66.624L64.9076 65.5038C64.7904 65.4202 64.7072 65.2973 64.6731 65.1575C64.639 65.0177 64.6563 64.8703 64.7219 64.7422C64.7875 64.6142 64.897 64.5139 65.0304 64.4599C65.1637 64.4059 65.3121 64.4016 65.4484 64.4479L67.6357 65.5681C67.7529 65.6517 67.8362 65.7745 67.8703 65.9143C67.9044 66.0542 67.887 66.2016 67.8214 66.3296C67.7558 66.4577 67.6464 66.5579 67.513 66.612C67.3796 66.666 67.2312 66.6703 67.095 66.624Z" fill="#2E6470"/>
<path d="M69.9066 70.6921L63.8451 67.5877C63.7279 67.5042 63.6447 67.3813 63.6106 67.2415C63.5765 67.1017 63.5938 66.9543 63.6594 66.8262C63.725 66.6981 63.8345 66.5979 63.9679 66.5439C64.1012 66.4898 64.2496 66.4856 64.3859 66.5319L70.4474 69.6362C70.5646 69.7197 70.6478 69.8426 70.6819 69.9824C70.716 70.1223 70.6986 70.2697 70.633 70.3977C70.5674 70.5258 70.458 70.626 70.3246 70.6801C70.1912 70.7341 70.0428 70.7384 69.9066 70.6921Z" fill="#2E6470"/>
<path d="M55.9496 71.0285L52.3513 57.6327L61.9669 55.8125L61.4498 65.0073L74.0839 78.0162C74.7528 77.9889 75.4151 78.1567 75.9902 78.4993C76.5654 78.8419 77.0283 79.3444 77.3228 79.9456C77.6172 80.5468 77.7304 81.2207 77.6485 81.885C77.5666 82.5494 77.2931 83.1756 76.8614 83.6873C76.4298 84.1989 75.8586 84.5739 75.2175 84.7666C74.5764 84.9592 73.8931 84.9611 73.2509 84.7721C72.6087 84.5831 72.0354 84.2114 71.6009 83.7022C71.1663 83.193 70.8893 82.5683 70.8036 81.9044L55.9496 71.0285Z" fill="#A0616A"/>
<path d="M51.3612 42.6124C48.0973 45.1891 52.2865 59.6018 52.2865 59.6018C52.9351 58.89 53.6888 69.4099 54.4816 69.0517C56.7348 68.0336 60.8645 64.523 62.4566 64.8092C63.3671 64.9728 62.4132 57.8508 62.4132 57.8508C62.4132 57.8508 62.2377 53.7672 61.908 48.5175C61.8423 47.0317 61.4017 45.5866 60.6273 44.3168C59.8529 43.047 58.7697 41.9937 57.4788 41.2551C57.4788 41.2551 54.6251 40.0357 51.3612 42.6124Z" fill="#2E6470"/>
<path d="M105.678 100.761L96.9862 96.6565C96.8003 96.5692 96.6366 96.441 96.5074 96.2814C96.3781 96.1218 96.2867 95.935 96.2399 95.735C96.1928 95.5395 96.1906 95.3357 96.2335 95.1392C96.2764 94.9426 96.3632 94.7583 96.4875 94.6001C99.0052 91.3823 100.734 87.6194 101.535 83.613C101.596 83.3063 101.761 83.03 102.002 82.8313C102.244 82.6326 102.547 82.5238 102.859 82.5234C107.292 82.5385 110.605 84.1571 112.706 87.3337C112.817 87.4989 112.89 87.6863 112.921 87.8829C112.952 88.0794 112.94 88.2802 112.885 88.4715C111.669 92.6641 109.818 96.6458 107.396 100.278C107.217 100.553 106.944 100.753 106.628 100.842C106.312 100.931 105.974 100.902 105.678 100.761Z" fill="#E6E6E6"/>
<path d="M108.236 95.0037L101.59 91.8655C101.425 91.7875 101.297 91.6469 101.236 91.4748C101.174 91.3027 101.183 91.1131 101.261 90.9478C101.339 90.7824 101.48 90.6549 101.652 90.5932C101.824 90.5315 102.014 90.5407 102.179 90.6187L108.825 93.7569C108.906 93.7956 108.98 93.85 109.041 93.917C109.102 93.9841 109.149 94.0625 109.179 94.1477C109.21 94.2329 109.223 94.3233 109.219 94.4137C109.214 94.5042 109.192 94.5928 109.154 94.6747C109.115 94.7566 109.061 94.83 108.994 94.8909C108.927 94.9517 108.848 94.9988 108.763 95.0293C108.678 95.0599 108.587 95.0733 108.497 95.0689C108.406 95.0646 108.318 95.0424 108.236 95.0037Z" fill="white"/>
<path d="M109.259 92.8182L102.614 89.68C102.448 89.6019 102.321 89.4614 102.259 89.2893C102.197 89.1171 102.206 88.9276 102.285 88.7622C102.363 88.5969 102.503 88.4693 102.675 88.4076C102.847 88.3459 103.037 88.3551 103.202 88.4332L109.848 91.5714C110.013 91.6495 110.141 91.79 110.203 91.9621C110.264 92.1343 110.255 92.3238 110.177 92.4892C110.099 92.6545 109.958 92.7821 109.786 92.8438C109.614 92.9055 109.425 92.8963 109.259 92.8182Z" fill="white"/>
<path d="M100.377 24.1863L99.7582 24.254C97 13.4151 91.6537 5.90592 84.2967 2.53829C74.9441 -1.74256 63.3793 1.13211 51.7325 10.6329C40.0266 20.1822 29.6637 35.2659 22.5531 53.1062L21.9529 52.8315C29.0947 34.9133 39.5107 19.7567 51.2823 10.1543C63.1129 0.503399 74.9137 -2.39235 84.5109 2.00059C92.0789 5.46472 97.5652 13.1364 100.377 24.1863Z" fill="#F2F2F2"/>
<path d="M32.1322 38.3024C30.5144 41.7104 28.9757 45.2412 27.5586 48.7965C19.404 69.2558 15.2717 90.1503 15.6094 109.222L14.972 109.154C14.634 90.0114 18.7783 69.0449 26.9583 48.5218C28.3795 44.9564 29.9226 41.4157 31.5451 37.998L32.1322 38.3024Z" fill="#F2F2F2"/>
<path d="M31.8197 52.3629C30.2019 55.771 28.6632 59.3017 27.2461 62.857C19.0915 83.3164 14.9592 104.211 15.2968 123.283L14.6595 123.215C14.3215 104.072 18.4658 83.1055 26.6458 62.5823C28.067 59.017 29.6101 55.4763 31.2326 52.0586L31.8197 52.3629Z" fill="#F2F2F2"/>
<path d="M14.6973 57.4724C15.4018 56.4135 14.9848 54.8977 13.7659 54.0867C12.547 53.2757 10.9877 53.4768 10.2832 54.5357C9.5787 55.5947 9.99569 57.1105 11.2146 57.9215C12.4335 58.7324 13.9928 58.5314 14.6973 57.4724Z" fill="#CCCCCC"/>
<path d="M164.713 95.7146C165.417 94.6557 165 93.1399 163.782 92.3289C162.563 91.5179 161.003 91.719 160.299 92.7779C159.594 93.8369 160.011 95.3527 161.23 96.1637C162.449 96.9746 164.008 96.7736 164.713 95.7146Z" fill="#CCCCCC"/>
</g>
<defs>
<clipPath id="clip0_1308_13022">
<rect width="197.274" height="160" fill="white" transform="translate(0.863037)"/>
</clipPath>
</defs>
</svg>
