<svg width="601" height="100" viewBox="0 0 601 100" fill="none" xmlns="http://www.w3.org/2000/svg">
<path d="M33.1862 65.2435H15.8225L13.039 73.4614H1.1761L18.0095 26.9375H31.1317L47.9651 73.4614H35.9696L33.1862 65.2435ZM30.2701 56.4954L24.5043 39.4632L18.8048 56.4954H30.2701ZM65.6803 35.9507C68.2871 35.9507 70.5625 36.4809 72.5065 37.5412C74.4947 38.6016 76.019 39.9933 77.0794 41.7165V36.4809H88.4121V73.3952C88.4121 76.7972 87.7273 79.8679 86.3576 82.6072C85.0322 85.3906 82.9777 87.5998 80.1942 89.2345C77.4549 90.8692 74.0308 91.6866 69.9218 91.6866C64.4432 91.6866 60.0029 90.3832 56.6009 87.7765C53.1988 85.2139 51.2548 81.7235 50.7688 77.3053H61.969C62.3225 78.7191 63.1619 79.8237 64.4874 80.619C65.8129 81.4584 67.4476 81.8782 69.3916 81.8782C71.7333 81.8782 73.589 81.1933 74.9586 79.8237C76.3724 78.4982 77.0794 76.3554 77.0794 73.3952V68.1596C75.9748 69.8827 74.4505 71.2965 72.5065 72.4011C70.5625 73.4614 68.2871 73.9916 65.6803 73.9916C62.6318 73.9916 59.8704 73.2184 57.3962 71.672C54.9219 70.0815 52.9558 67.8503 51.4978 64.9784C50.084 62.0624 49.3771 58.7045 49.3771 54.9049C49.3771 51.1052 50.084 47.7694 51.4978 44.8976C52.9558 42.0257 54.9219 39.8166 57.3962 38.2702C59.8704 36.7239 62.6318 35.9507 65.6803 35.9507ZM77.0794 54.9711C77.0794 52.1435 76.2841 49.9123 74.6935 48.2775C73.1471 46.6428 71.2473 45.8254 68.994 45.8254C66.7407 45.8254 64.8188 46.6428 63.2282 48.2775C61.6818 49.8681 60.9086 52.0772 60.9086 54.9049C60.9086 57.7325 61.6818 59.9858 63.2282 61.6648C64.8188 63.2995 66.7407 64.1169 68.994 64.1169C71.2473 64.1169 73.1471 63.2995 74.6935 61.6648C76.2841 60.03 77.0794 57.7988 77.0794 54.9711ZM109.203 35.9507C111.81 35.9507 114.085 36.4809 116.029 37.5412C118.017 38.6016 119.541 39.9933 120.602 41.7165V36.4809H131.935V73.3952C131.935 76.7972 131.25 79.8679 129.88 82.6072C128.555 85.3906 126.5 87.5998 123.717 89.2345C120.977 90.8692 117.553 91.6866 113.444 91.6866C107.966 91.6866 103.525 90.3832 100.123 87.7765C96.7213 85.2139 94.7773 81.7235 94.2913 77.3053H105.491C105.845 78.7191 106.684 79.8237 108.01 80.619C109.335 81.4584 110.97 81.8782 112.914 81.8782C115.256 81.8782 117.111 81.1933 118.481 79.8237C119.895 78.4982 120.602 76.3554 120.602 73.3952V68.1596C119.497 69.8827 117.973 71.2965 116.029 72.4011C114.085 73.4614 111.81 73.9916 109.203 73.9916C106.154 73.9916 103.393 73.2184 100.919 71.672C98.4444 70.0815 96.4783 67.8503 95.0203 64.9784C93.6065 62.0624 92.8995 58.7045 92.8995 54.9049C92.8995 51.1052 93.6065 47.7694 95.0203 44.8976C96.4783 42.0257 98.4444 39.8166 100.919 38.2702C103.393 36.7239 106.154 35.9507 109.203 35.9507ZM120.602 54.9711C120.602 52.1435 119.807 49.9123 118.216 48.2775C116.67 46.6428 114.77 45.8254 112.516 45.8254C110.263 45.8254 108.341 46.6428 106.751 48.2775C105.204 49.8681 104.431 52.0772 104.431 54.9049C104.431 57.7325 105.204 59.9858 106.751 61.6648C108.341 63.2995 110.263 64.1169 112.516 64.1169C114.77 64.1169 116.67 63.2995 118.216 61.6648C119.807 60.03 120.602 57.7988 120.602 54.9711ZM144.375 32.637C142.387 32.637 140.752 32.0626 139.471 30.9139C138.234 29.721 137.615 28.263 137.615 26.5398C137.615 24.7726 138.234 23.3145 139.471 22.1658C140.752 20.9729 142.387 20.3764 144.375 20.3764C146.319 20.3764 147.909 20.9729 149.147 22.1658C150.428 23.3145 151.068 24.7726 151.068 26.5398C151.068 28.263 150.428 29.721 149.147 30.9139C147.909 32.0626 146.319 32.637 144.375 32.637ZM150.008 36.4809V73.4614H138.675V36.4809H150.008ZM191.623 54.3747C191.623 55.4351 191.556 56.5396 191.424 57.6884H165.776C165.953 59.9858 166.682 61.7531 167.963 62.9902C169.288 64.1831 170.901 64.7796 172.801 64.7796C175.629 64.7796 177.595 63.5867 178.699 61.2008H190.761C190.143 63.6309 189.016 65.8179 187.381 67.7619C185.791 69.7059 183.78 71.2302 181.35 72.3348C178.92 73.4393 176.203 73.9916 173.199 73.9916C169.576 73.9916 166.35 73.2184 163.523 71.672C160.695 70.1257 158.486 67.9165 156.895 65.0447C155.305 62.1729 154.509 58.815 154.509 54.9711C154.509 51.1273 155.283 47.7694 156.829 44.8976C158.42 42.0257 160.629 39.8166 163.456 38.2702C166.284 36.7239 169.531 35.9507 173.199 35.9507C176.777 35.9507 179.958 36.7018 182.742 38.204C185.525 39.7062 187.69 41.849 189.237 44.6325C190.827 47.416 191.623 50.6634 191.623 54.3747ZM180.025 51.3924C180.025 49.4484 179.362 47.902 178.037 46.7532C176.711 45.6045 175.054 45.0301 173.066 45.0301C171.166 45.0301 169.554 45.5824 168.228 46.687C166.947 47.7915 166.152 49.36 165.842 51.3924H180.025ZM207.476 36.0169V45.4278H222.653V54.1759H207.476V64.382H224.641V73.4614H196.143V26.9375H224.641V36.0169H207.476ZM252.41 73.4614L245.319 63.189L239.355 73.4614H227.094L239.288 54.5735L226.763 36.4809H239.487L246.578 46.687L252.543 36.4809H264.803L252.41 55.1037L265.135 73.4614H252.41ZM265.79 54.9711C265.79 51.1273 266.564 47.7694 268.11 44.8976C269.7 42.0257 271.888 39.8166 274.671 38.2702C277.499 36.7239 280.724 35.9507 284.347 35.9507C288.986 35.9507 292.852 37.1657 295.945 39.5957C299.082 42.0257 301.136 45.4499 302.108 49.8681H290.046C289.03 47.0404 287.064 45.6266 284.148 45.6266C282.072 45.6266 280.415 46.444 279.178 48.0787C277.94 49.6693 277.322 51.9667 277.322 54.9711C277.322 57.9755 277.94 60.2951 279.178 61.9298C280.415 63.5204 282.072 64.3157 284.148 64.3157C287.064 64.3157 289.03 62.9019 290.046 60.0742H302.108C301.136 64.4041 299.082 67.8061 295.945 70.2803C292.808 72.7545 288.942 73.9916 284.347 73.9916C280.724 73.9916 277.499 73.2184 274.671 71.672C271.888 70.1257 269.7 67.9165 268.11 65.0447C266.564 62.1729 265.79 58.815 265.79 54.9711ZM329.444 36.0832C333.685 36.0832 337.087 37.497 339.65 40.3247C342.213 43.1082 343.494 46.9521 343.494 51.8563V73.4614H332.227V53.3806C332.227 50.9064 331.587 48.9844 330.305 47.6148C329.024 46.2451 327.301 45.5603 325.136 45.5603C322.971 45.5603 321.248 46.2451 319.967 47.6148C318.686 48.9844 318.045 50.9064 318.045 53.3806V73.4614H306.712V24.4191H318.045V41.4514C319.194 39.8166 320.762 38.5132 322.75 37.5412C324.738 36.5692 326.97 36.0832 329.444 36.0832ZM347.658 54.9049C347.658 51.1052 348.365 47.7694 349.778 44.8976C351.236 42.0257 353.203 39.8166 355.677 38.2702C358.151 36.7239 360.912 35.9507 363.961 35.9507C366.568 35.9507 368.843 36.4809 370.787 37.5412C372.775 38.6016 374.3 39.9933 375.36 41.7165V36.4809H386.693V73.4614H375.36V68.2258C374.255 69.9489 372.709 71.3407 370.721 72.4011C368.777 73.4614 366.501 73.9916 363.895 73.9916C360.89 73.9916 358.151 73.2184 355.677 71.672C353.203 70.0815 351.236 67.8503 349.778 64.9784C348.365 62.0624 347.658 58.7045 347.658 54.9049ZM375.36 54.9711C375.36 52.1435 374.565 49.9123 372.974 48.2775C371.428 46.6428 369.528 45.8254 367.275 45.8254C365.021 45.8254 363.099 46.6428 361.509 48.2775C359.962 49.8681 359.189 52.0772 359.189 54.9049C359.189 57.7325 359.962 59.9858 361.509 61.6648C363.099 63.2995 365.021 64.1169 367.275 64.1169C369.528 64.1169 371.428 63.2995 372.974 61.6648C374.565 60.03 375.36 57.7988 375.36 54.9711ZM415.966 36.0832C420.296 36.0832 423.743 37.497 426.305 40.3247C428.912 43.1082 430.215 46.9521 430.215 51.8563V73.4614H418.949V53.3806C418.949 50.9064 418.308 48.9844 417.027 47.6148C415.746 46.2451 414.022 45.5603 411.857 45.5603C409.693 45.5603 407.969 46.2451 406.688 47.6148C405.407 48.9844 404.766 50.9064 404.766 53.3806V73.4614H393.433V36.4809H404.766V41.3851C405.915 39.7503 407.461 38.4691 409.405 37.5412C411.349 36.5692 413.536 36.0832 415.966 36.0832ZM450.682 35.9507C453.289 35.9507 455.564 36.4809 457.508 37.5412C459.497 38.6016 461.021 39.9933 462.081 41.7165V36.4809H473.414V73.3952C473.414 76.7972 472.729 79.8679 471.36 82.6072C470.034 85.3906 467.98 87.5998 465.196 89.2345C462.457 90.8692 459.033 91.6866 454.924 91.6866C449.445 91.6866 445.005 90.3832 441.603 87.7765C438.201 85.2139 436.257 81.7235 435.771 77.3053H446.971C447.324 78.7191 448.164 79.8237 449.489 80.619C450.815 81.4584 452.45 81.8782 454.394 81.8782C456.735 81.8782 458.591 81.1933 459.961 79.8237C461.374 78.4982 462.081 76.3554 462.081 73.3952V68.1596C460.977 69.8827 459.453 71.2965 457.508 72.4011C455.564 73.4614 453.289 73.9916 450.682 73.9916C447.634 73.9916 444.872 73.2184 442.398 71.672C439.924 70.0815 437.958 67.8503 436.5 64.9784C435.086 62.0624 434.379 58.7045 434.379 54.9049C434.379 51.1052 435.086 47.7694 436.5 44.8976C437.958 42.0257 439.924 39.8166 442.398 38.2702C444.872 36.7239 447.634 35.9507 450.682 35.9507ZM462.081 54.9711C462.081 52.1435 461.286 49.9123 459.696 48.2775C458.149 46.6428 456.249 45.8254 453.996 45.8254C451.743 45.8254 449.821 46.6428 448.23 48.2775C446.684 49.8681 445.911 52.0772 445.911 54.9049C445.911 57.7325 446.684 59.9858 448.23 61.6648C449.821 63.2995 451.743 64.1169 453.996 64.1169C456.249 64.1169 458.149 63.2995 459.696 61.6648C461.286 60.03 462.081 57.7988 462.081 54.9711ZM515.015 54.3747C515.015 55.4351 514.948 56.5396 514.816 57.6884H489.168C489.345 59.9858 490.074 61.7531 491.355 62.9902C492.68 64.1831 494.293 64.7796 496.193 64.7796C499.021 64.7796 500.987 63.5867 502.091 61.2008H514.153C513.535 63.6309 512.408 65.8179 510.773 67.7619C509.183 69.7059 507.172 71.2302 504.742 72.3348C502.312 73.4393 499.595 73.9916 496.591 73.9916C492.968 73.9916 489.742 73.2184 486.915 71.672C484.087 70.1257 481.878 67.9165 480.287 65.0447C478.697 62.1729 477.902 58.815 477.902 54.9711C477.902 51.1273 478.675 47.7694 480.221 44.8976C481.812 42.0257 484.021 39.8166 486.848 38.2702C489.676 36.7239 492.924 35.9507 496.591 35.9507C500.169 35.9507 503.351 36.7018 506.134 38.204C508.917 39.7062 511.082 41.849 512.629 44.6325C514.219 47.416 515.015 50.6634 515.015 54.3747ZM503.417 51.3924C503.417 49.4484 502.754 47.902 501.429 46.7532C500.103 45.6045 498.446 45.0301 496.458 45.0301C494.558 45.0301 492.946 45.5824 491.62 46.687C490.339 47.7915 489.544 49.36 489.234 51.3924H503.417Z" fill="#2E6470"/>
<path d="M530.195 35.1232C530.195 29.0229 535.141 24.0776 541.241 24.0776H588.963C595.064 24.0776 600.009 29.0229 600.009 35.1232V70.3792C600.009 76.4795 595.064 81.4248 588.963 81.4248H541.241C535.141 81.4248 530.195 76.4795 530.195 70.3792V35.1232Z" fill="#2E6470"/>
<path d="M570.829 5.35853C550.184 2.0673 544.856 16.5371 544.773 24.1833H555.495C554.098 13.5118 567.338 15.1017 572.449 16.7033C576.065 17.8361 576.563 25.056 576.065 28.796C558.611 27.5992 553.001 29.7232 550.508 31.5387C537.667 40.8888 544.025 53.2309 548.513 57.9683C563.773 67.443 573.239 61.1681 576.065 56.8463V62.0823H587.16V24.1833C587.36 9.82163 576.356 5.64942 570.829 5.35853Z" fill="#22C487"/>
<path d="M553.627 44.504C552.032 37.1237 567.923 37.3564 576.067 38.3953C577.065 47.7453 573.823 50.4714 572.826 50.7374C557.866 54.7267 553.794 48.244 553.627 44.504Z" fill="#2E6470"/>
</svg>
