<svg width="40" height="40" viewBox="0 0 40 40" fill="none" xmlns="http://www.w3.org/2000/svg">
<path d="M32.1351 30.3663C32.2512 30.4825 32.3433 30.6203 32.4062 30.7721C32.469 30.9238 32.5014 31.0865 32.5014 31.2507C32.5014 31.4149 32.469 31.5776 32.4062 31.7293C32.3433 31.8811 32.2512 32.0189 32.1351 32.1351C32.0189 32.2512 31.8811 32.3433 31.7293 32.4062C31.5776 32.469 31.4149 32.5014 31.2507 32.5014C31.0865 32.5014 30.9238 32.469 30.7721 32.4062C30.6203 32.3433 30.4825 32.2512 30.3663 32.1351L20.0007 21.7679L9.63507 32.1351C9.40052 32.3696 9.0824 32.5014 8.75069 32.5014C8.41899 32.5014 8.10087 32.3696 7.86632 32.1351C7.63177 31.9005 7.5 31.5824 7.5 31.2507C7.5 30.919 7.63177 30.6009 7.86632 30.3663L18.2335 20.0007L7.86632 9.63507C7.63177 9.40052 7.5 9.0824 7.5 8.75069C7.5 8.41899 7.63177 8.10087 7.86632 7.86632C8.10087 7.63177 8.41899 7.5 8.75069 7.5C9.0824 7.5 9.40052 7.63177 9.63507 7.86632L20.0007 18.2335L30.3663 7.86632C30.6009 7.63177 30.919 7.5 31.2507 7.5C31.5824 7.5 31.9005 7.63177 32.1351 7.86632C32.3696 8.10087 32.5014 8.41899 32.5014 8.75069C32.5014 9.0824 32.3696 9.40052 32.1351 9.63507L21.7679 20.0007L32.1351 30.3663Z" fill="#999999"/>
</svg>
