<svg width="40" height="40" viewBox="0 0 40 40" fill="none" xmlns="http://www.w3.org/2000/svg">
<path d="M35.3125 6.25H4.6875C4.51562 6.25 4.375 6.39062 4.375 6.5625V9.0625C4.375 9.23438 4.51562 9.375 4.6875 9.375H35.3125C35.4844 9.375 35.625 9.23438 35.625 9.0625V6.5625C35.625 6.39062 35.4844 6.25 35.3125 6.25ZM35.3125 30.625H4.6875C4.51562 30.625 4.375 30.7656 4.375 30.9375V33.4375C4.375 33.6094 4.51562 33.75 4.6875 33.75H35.3125C35.4844 33.75 35.625 33.6094 35.625 33.4375V30.9375C35.625 30.7656 35.4844 30.625 35.3125 30.625ZM35.3125 18.4375H4.6875C4.51562 18.4375 4.375 18.5781 4.375 18.75V21.25C4.375 21.4219 4.51562 21.5625 4.6875 21.5625H35.3125C35.4844 21.5625 35.625 21.4219 35.625 21.25V18.75C35.625 18.5781 35.4844 18.4375 35.3125 18.4375Z" fill="#999999"/>
</svg>
