<svg width="640" height="673" viewBox="0 0 640 673" fill="none" xmlns="http://www.w3.org/2000/svg">
<path d="M394.5 466C354.1 507.2 276.833 480.167 245.5 463V499.727C54.7 493.131 2.66667 578.419 0 621.5H640C618 513 531.5 492.5 395 500.5L394.5 466Z" fill="#5D93EF"/>
<path d="M241.999 672.004C219.999 657.604 164.166 666.004 138.999 672.004C142.999 535.003 147.999 253.401 135.999 223.001C132.166 153.001 164.999 10.5007 326.999 0.500698C386.999 -3.33264 503.699 32.1007 490.499 204.501C484.855 280.615 477.027 441.139 489.206 493.142C489.97 496.405 490.659 499.681 490.975 503.018L506.999 672.004H455.999C454.859 669.58 452.816 663.839 452.499 657.973V672.004H389.999C393.333 603.003 398.5 455.7 390.5 412.5L326.999 420.001L241.999 385.502C249.199 472.302 244.999 612.67 241.999 672.004Z" fill="#141414"/>
<path d="M173.002 270.999C177.802 280.199 184.335 274.832 187.002 270.999C175.804 300.598 210.335 352.333 229 374.5C251.8 410.5 322.5 417.5 355.5 417C385.5 417.4 419 403.5 431.5 396C473.5 373.5 487.5 189 473.5 192C462.3 194.4 425.5 109 408.5 66C414 84 442.5 154.667 443.5 184.5C441.5 189.3 423.667 187 421 185L419.5 180C408 190 384.333 188.333 383 184L357.5 51C359.417 61 368.833 145 371.5 185.5H356.5C360.9 160.3 348.333 85.3333 341.5 51C350.3 149.8 350.833 182.833 346.5 185C334.9 192.2 305.167 187 295 184C283.8 193.2 278.5 188.5 276.5 182C270.1 196.4 266.5 189.5 265 182C250 192 235.5 195.333 229 189.5L228.488 190.085C226.589 192.255 223.846 193.5 220.962 193.5H208.5L259.5 98L191.5 207.499L187.002 219.5L176 207.499C170.4 204.699 162.668 206.332 159.502 207.499C141.002 224.999 167.002 259.499 173.002 270.999Z" fill="#FAD3BC" stroke="#141414"/>
<path d="M365.001 233C364.241 241.048 365.53 257.758 375.749 265.505C377.709 266.991 379.614 268.738 380.119 271.145C382.136 280.764 377.801 294.171 347.5 291" stroke="#141414" stroke-width="5"/>
<circle cx="330.5" cy="319.5" r="2.5" fill="#141414"/>
<path d="M245.971 469.494L242 389C266.42 408.859 307.066 413.495 324.728 417.006C362.5 419 377.919 416.271 391 413L393.003 434.318L394.5 472C363.901 502.227 280.246 482.742 245.971 469.494Z" fill="#FAD3BC"/>
<ellipse cx="351.5" cy="347.5" rx="32.5" ry="14.5" fill="url(#paint0_radial_1002_1392)"/>
<path d="M340 359C343.667 360.5 352.7 362.9 359.5 360.5M346 334.5C351 335.833 361.4 337.7 363 334.5" stroke="#141414"/>
<path d="M313.5 336.5C325.5 344.5 357 356.9 387 342.5" stroke="#141414" stroke-width="3" stroke-linecap="round"/>
<path d="M203 216.808H192.5H187.5L179 208.309L192.5 204.809C268.9 187.609 324 196.642 342 203.309C346.4 207.309 348.833 214.642 349.5 217.809C357.5 214.609 370.5 215.475 376 216.309L377 209.808C415 183.808 470.5 195.641 493.5 204.808V213.308L481.5 218.808L473 263C464.6 283.8 411.667 273.474 387.5 260.808L377 223.808C363.4 218.608 353.667 223.308 350.5 226.308C349.7 270.708 308.833 281.808 288.5 281.808C240.5 289.008 227 257.5 219 244.308L203 216.808Z" fill="#F8CFBA" stroke="#141414" stroke-width="5"/>
<path d="M188 216.5L181 208.5L198.5 201.5L205.5 218L188 216.5Z" fill="#141414" stroke="#141414"/>
<path d="M212.5 229.5C211.098 227.441 209.355 224.861 207.94 222.09L196.5 203.5L218.5 201.5C202.578 205.038 203.971 214.318 207.94 222.09L212.5 229.5Z" fill="#141414"/>
<path d="M212.5 229.5C207.167 221.667 196.9 206.3 218.5 201.5L196.5 203.5L212.5 229.5Z" stroke="#141414"/>
<path d="M467.5 199C482.7 207.4 479 220 477.5 229.5L493 213.5V204L467.5 199Z" fill="#141414" stroke="#141414"/>
<path d="M348.5 225.501L347.5 218.003C348.7 214.003 369.167 215.333 378 216L379 223.499C367.8 220.299 352.833 222.834 348.5 225.501Z" fill="#141414" stroke="#141414"/>
<ellipse cx="412.5" cy="226" rx="10.5" ry="18" fill="#141414"/>
<ellipse cx="286.5" cy="226" rx="10.5" ry="18" fill="#141414"/>
<path d="M168.5 244.501C169.333 238.501 172.9 232.401 180.5 256.001C181.7 223.601 171.333 218.501 166 220.001" stroke="#141414" stroke-width="2" stroke-linecap="round"/>
<defs>
<radialGradient id="paint0_radial_1002_1392" cx="0" cy="0" r="1" gradientUnits="userSpaceOnUse" gradientTransform="translate(351.5 347.5) rotate(90) scale(14.5 32.5)">
<stop stop-color="#EEACA8"/>
<stop offset="1" stop-color="#EEACA8" stop-opacity="0"/>
</radialGradient>
</defs>
</svg>
