<svg width="745" height="250" viewBox="0 0 745 250" fill="none" xmlns="http://www.w3.org/2000/svg">
<path d="M9.1539 86.4773C7.57904 86.4773 6.20103 86.1821 5.01988 85.5915C3.83873 84.9353 2.88725 84.0822 2.16544 83.0323C1.50925 81.9824 0.98429 80.7356 0.590574 79.292C0.196858 77.8484 0 76.3391 0 74.7643C0 71.5489 0.820242 68.5304 2.46073 65.7088C4.16683 62.8872 6.79161 60.6561 10.3351 59.0156L11.2209 60.7873C9.38357 61.6404 7.74309 62.8872 6.29946 64.5277C4.92145 66.1025 4.10121 67.7758 3.83873 69.5475C3.44502 70.9255 3.41221 72.2707 3.7403 73.5831C5.18393 72.0083 7.1197 71.2208 9.54762 71.2208C11.7787 71.2208 13.616 71.9098 15.0596 73.2878C16.5033 74.6002 17.2251 76.4376 17.2251 78.7999C17.2251 81.0965 16.4705 82.9667 14.9612 84.4103C13.452 85.7883 11.5162 86.4773 9.1539 86.4773ZM29.4303 86.4773C27.8554 86.4773 26.4774 86.1821 25.2963 85.5915C24.1151 84.9353 23.1636 84.0822 22.4418 83.0323C21.7856 81.9824 21.2607 80.7356 20.867 79.292C20.4732 77.8484 20.2764 76.3391 20.2764 74.7643C20.2764 71.5489 21.0966 68.5304 22.7371 65.7088C24.4432 62.8872 27.068 60.6561 30.6114 59.0156L31.4973 60.7873C29.66 61.6404 28.0195 62.8872 26.5758 64.5277C25.1978 66.1025 24.3776 67.7758 24.1151 69.5475C23.7214 70.9255 23.6886 72.2707 24.0167 73.5831C25.4603 72.0083 27.3961 71.2208 29.824 71.2208C32.0551 71.2208 33.8924 71.9098 35.336 73.2878C36.7797 74.6002 37.5015 76.4376 37.5015 78.7999C37.5015 81.0965 36.7469 82.9667 35.2376 84.4103C33.7284 85.7883 31.7926 86.4773 29.4303 86.4773Z" fill="#B8322E"/>
<path d="M395.66 163.625C397.301 163.625 398.711 163.92 399.893 164.511C401.074 165.101 401.992 165.954 402.649 167.07C403.37 167.989 403.895 169.203 404.223 170.712C404.617 172.221 404.814 173.73 404.814 175.24C404.814 178.521 403.961 181.572 402.255 184.394C400.614 187.15 398.022 189.348 394.479 190.988L393.593 189.217C395.43 188.429 397.071 187.215 398.515 185.575C399.958 183.934 400.811 182.261 401.074 180.555C401.402 179.111 401.402 177.733 401.074 176.421C399.63 177.996 397.727 178.783 395.365 178.783C393.068 178.783 391.198 178.127 389.754 176.814C388.311 175.436 387.589 173.566 387.589 171.204C387.589 168.907 388.344 167.07 389.853 165.692C391.428 164.314 393.363 163.625 395.66 163.625ZM375.384 163.625C377.024 163.625 378.435 163.92 379.616 164.511C380.797 165.101 381.716 165.954 382.372 167.07C383.094 167.989 383.619 169.203 383.947 170.712C384.341 172.221 384.538 173.73 384.538 175.24C384.538 178.521 383.685 181.572 381.978 184.394C380.338 187.15 377.746 189.348 374.203 190.988L373.317 189.217C375.154 188.429 376.794 187.215 378.238 185.575C379.682 183.934 380.535 182.261 380.797 180.555C381.125 179.111 381.125 177.733 380.797 176.421C379.354 177.996 377.451 178.783 375.088 178.783C372.792 178.783 370.922 178.127 369.478 176.814C368.034 175.436 367.312 173.566 367.312 171.204C367.312 168.907 368.067 167.07 369.576 165.692C371.151 164.314 373.087 163.625 375.384 163.625Z" fill="#B8322E"/>
<path d="M85.1978 92.6914V73.954H87.3766V92.6914H85.1978ZM105.281 80.3109H101.782V92.6914H99.6546V80.3109H97.1682V79.2856L99.6546 78.5807V77.6451C99.6546 76.466 99.8297 75.509 100.18 74.7742C100.53 74.0309 101.039 73.4841 101.705 73.1338C102.372 72.7834 103.183 72.6083 104.14 72.6083C104.679 72.6083 105.17 72.6553 105.614 72.7493C106.067 72.8433 106.464 72.9501 106.806 73.0697L106.255 74.7486C105.964 74.6546 105.636 74.5692 105.268 74.4923C104.909 74.4068 104.542 74.3641 104.166 74.3641C103.354 74.3641 102.752 74.629 102.359 75.1587C101.974 75.6799 101.782 76.5002 101.782 77.6195V78.6448H105.281V80.3109ZM119.981 85.6425C119.981 86.7959 119.832 87.8255 119.533 88.7312C119.234 89.6369 118.802 90.4016 118.238 91.0253C117.674 91.649 116.991 92.1275 116.188 92.4607C115.393 92.7854 114.492 92.9477 113.483 92.9477C112.543 92.9477 111.681 92.7854 110.894 92.4607C110.117 92.1275 109.442 91.649 108.869 91.0253C108.306 90.4016 107.866 89.6369 107.549 88.7312C107.242 87.8255 107.088 86.7959 107.088 85.6425C107.088 84.1045 107.349 82.7972 107.87 81.7207C108.391 80.6356 109.134 79.811 110.1 79.2471C111.074 78.6747 112.232 78.3884 113.573 78.3884C114.855 78.3884 115.974 78.6747 116.931 79.2471C117.896 79.8196 118.644 80.6484 119.174 81.7335C119.712 82.8101 119.981 84.113 119.981 85.6425ZM109.292 85.6425C109.292 86.7703 109.442 87.7486 109.741 88.5774C110.04 89.4062 110.501 90.047 111.125 90.4998C111.749 90.9527 112.552 91.1791 113.535 91.1791C114.509 91.1791 115.308 90.9527 115.931 90.4998C116.564 90.047 117.029 89.4062 117.328 88.5774C117.627 87.7486 117.777 86.7703 117.777 85.6425C117.777 84.5232 117.627 83.5577 117.328 82.746C117.029 81.9257 116.568 81.2935 115.944 80.8492C115.32 80.4049 114.513 80.1827 113.522 80.1827C112.061 80.1827 110.988 80.6655 110.305 81.631C109.63 82.5964 109.292 83.9336 109.292 85.6425ZM130.042 78.3884C130.324 78.3884 130.619 78.4055 130.926 78.4397C131.234 78.4653 131.507 78.5038 131.747 78.555L131.477 80.5288C131.247 80.4689 130.99 80.422 130.708 80.3878C130.426 80.3536 130.162 80.3365 129.914 80.3365C129.35 80.3365 128.816 80.4519 128.312 80.6825C127.816 80.9047 127.38 81.2294 127.005 81.6566C126.629 82.0753 126.334 82.5836 126.12 83.1817C125.907 83.7713 125.8 84.4292 125.8 85.1554V92.6914H123.659V78.6448H125.428L125.659 81.2336H125.749C126.039 80.7125 126.389 80.2383 126.799 79.811C127.21 79.3753 127.684 79.0292 128.222 78.7729C128.769 78.5166 129.376 78.3884 130.042 78.3884ZM138.321 98.997C136.476 98.997 135.053 98.651 134.053 97.9589C133.054 97.2754 132.554 96.3141 132.554 95.0752C132.554 94.1952 132.832 93.4433 133.387 92.8196C133.951 92.1958 134.728 91.7815 135.72 91.5764C135.352 91.4055 135.036 91.1492 134.771 90.8074C134.515 90.4656 134.387 90.0726 134.387 89.6283C134.387 89.1157 134.528 88.6671 134.81 88.2826C135.1 87.8896 135.54 87.5136 136.13 87.1548C135.395 86.8557 134.797 86.3516 134.335 85.6425C133.883 84.9247 133.656 84.0917 133.656 83.1433C133.656 82.1351 133.866 81.2764 134.284 80.5672C134.703 79.8495 135.309 79.3027 136.104 78.9267C136.899 78.5508 137.86 78.3628 138.988 78.3628C139.236 78.3628 139.483 78.3756 139.731 78.4012C139.987 78.4183 140.231 78.4482 140.462 78.491C140.692 78.5251 140.893 78.5679 141.064 78.6191H145.883V79.9905L143.294 80.3109C143.55 80.6441 143.764 81.0457 143.935 81.5156C144.106 81.9855 144.191 82.5067 144.191 83.0792C144.191 84.4804 143.717 85.5955 142.769 86.4242C141.82 87.2445 140.517 87.6546 138.86 87.6546C138.467 87.6546 138.065 87.6204 137.655 87.5521C137.236 87.7828 136.916 88.0391 136.694 88.3211C136.48 88.603 136.373 88.9277 136.373 89.2951C136.373 89.5685 136.454 89.7864 136.617 89.9487C136.788 90.1111 137.031 90.2307 137.347 90.3076C137.663 90.3759 138.044 90.4101 138.488 90.4101H140.961C142.491 90.4101 143.661 90.7305 144.473 91.3713C145.293 92.0121 145.703 92.9477 145.703 94.1781C145.703 95.7331 145.071 96.9251 143.807 97.7538C142.542 98.5826 140.714 98.997 138.321 98.997ZM138.385 97.3309C139.547 97.3309 140.509 97.2113 141.269 96.972C142.038 96.7414 142.61 96.4039 142.986 95.9596C143.371 95.5238 143.563 95.0026 143.563 94.396C143.563 93.8321 143.435 93.4048 143.179 93.1143C142.922 92.8324 142.546 92.6444 142.051 92.5504C141.555 92.4479 140.949 92.3966 140.231 92.3966H137.796C137.164 92.3966 136.612 92.4949 136.143 92.6914C135.673 92.8879 135.309 93.1784 135.053 93.5629C134.805 93.9474 134.681 94.4259 134.681 94.9983C134.681 95.7588 135.002 96.3355 135.643 96.7285C136.284 97.1301 137.198 97.3309 138.385 97.3309ZM138.936 86.1038C139.953 86.1038 140.718 85.8475 141.231 85.3349C141.743 84.8222 142 84.0746 142 83.092C142 82.0411 141.739 81.255 141.218 80.7338C140.697 80.2041 139.928 79.9392 138.911 79.9392C137.937 79.9392 137.185 80.2126 136.655 80.7594C136.134 81.2977 135.873 82.0881 135.873 83.1305C135.873 84.0874 136.138 84.8222 136.668 85.3349C137.198 85.8475 137.954 86.1038 138.936 86.1038ZM154.06 78.3884C155.256 78.3884 156.281 78.6533 157.136 79.183C157.99 79.7128 158.644 80.4561 159.097 81.4131C159.549 82.3615 159.776 83.4722 159.776 84.7453V86.0654H150.074C150.099 87.7144 150.51 88.9704 151.304 89.8334C152.099 90.6963 153.218 91.1278 154.662 91.1278C155.551 91.1278 156.337 91.0466 157.02 90.8843C157.704 90.722 158.413 90.4827 159.148 90.1666V92.0378C158.439 92.3539 157.734 92.5846 157.033 92.7299C156.341 92.8751 155.521 92.9477 154.572 92.9477C153.222 92.9477 152.043 92.6743 151.035 92.1275C150.035 91.5721 149.258 90.7604 148.703 89.6924C148.147 88.6244 147.869 87.3171 147.869 85.7706C147.869 84.2583 148.121 82.951 148.626 81.8488C149.138 80.7381 149.856 79.8837 150.779 79.2856C151.71 78.6875 152.804 78.3884 154.06 78.3884ZM154.034 80.1314C152.898 80.1314 151.992 80.5031 151.317 81.2465C150.642 81.9898 150.24 83.0279 150.112 84.3608H157.546C157.537 83.5235 157.405 82.7887 157.148 82.1564C156.901 81.5156 156.52 81.02 156.008 80.6697C155.495 80.3109 154.837 80.1314 154.034 80.1314ZM167.927 91.2047C168.277 91.2047 168.636 91.1748 169.003 91.115C169.371 91.0552 169.67 90.9826 169.901 90.8971V92.5504C169.653 92.6615 169.307 92.7555 168.863 92.8324C168.427 92.9093 168 92.9477 167.581 92.9477C166.838 92.9477 166.163 92.8196 165.556 92.5632C164.949 92.2984 164.462 91.8541 164.095 91.2303C163.736 90.6066 163.557 89.7437 163.557 88.6415V80.3109H161.557V79.2728L163.569 78.4397L164.415 75.3894H165.697V78.6448H169.811V80.3109H165.697V88.5774C165.697 89.4574 165.898 90.1153 166.299 90.5511C166.709 90.9868 167.252 91.2047 167.927 91.2047ZM184.101 91.2047C184.451 91.2047 184.81 91.1748 185.178 91.115C185.545 91.0552 185.844 90.9826 186.075 90.8971V92.5504C185.827 92.6615 185.481 92.7555 185.037 92.8324C184.601 92.9093 184.174 92.9477 183.755 92.9477C183.012 92.9477 182.337 92.8196 181.73 92.5632C181.123 92.2984 180.636 91.8541 180.269 91.2303C179.91 90.6066 179.731 89.7437 179.731 88.6415V80.3109H177.731V79.2728L179.744 78.4397L180.589 75.3894H181.871V78.6448H185.985V80.3109H181.871V88.5774C181.871 89.4574 182.072 90.1153 182.473 90.5511C182.884 90.9868 183.426 91.2047 184.101 91.2047ZM201.031 85.6425C201.031 86.7959 200.882 87.8255 200.583 88.7312C200.284 89.6369 199.852 90.4016 199.288 91.0253C198.724 91.649 198.041 92.1275 197.238 92.4607C196.443 92.7854 195.542 92.9477 194.534 92.9477C193.594 92.9477 192.731 92.7854 191.945 92.4607C191.167 92.1275 190.492 91.649 189.92 91.0253C189.356 90.4016 188.916 89.6369 188.6 88.7312C188.292 87.8255 188.138 86.7959 188.138 85.6425C188.138 84.1045 188.399 82.7972 188.92 81.7207C189.441 80.6356 190.185 79.811 191.15 79.2471C192.124 78.6747 193.282 78.3884 194.623 78.3884C195.905 78.3884 197.024 78.6747 197.981 79.2471C198.947 79.8196 199.694 80.6484 200.224 81.7335C200.762 82.8101 201.031 84.113 201.031 85.6425ZM190.343 85.6425C190.343 86.7703 190.492 87.7486 190.791 88.5774C191.09 89.4062 191.552 90.047 192.175 90.4998C192.799 90.9527 193.602 91.1791 194.585 91.1791C195.559 91.1791 196.358 90.9527 196.981 90.4998C197.614 90.047 198.079 89.4062 198.378 88.5774C198.677 87.7486 198.827 86.7703 198.827 85.6425C198.827 84.5232 198.677 83.5577 198.378 82.746C198.079 81.9257 197.618 81.2935 196.994 80.8492C196.371 80.4049 195.563 80.1827 194.572 80.1827C193.111 80.1827 192.039 80.6655 191.355 81.631C190.68 82.5964 190.343 83.9336 190.343 85.6425ZM218.128 78.3884C219.88 78.3884 221.277 78.9908 222.319 80.1955C223.362 81.4003 223.883 83.2116 223.883 85.6296C223.883 87.2274 223.644 88.5688 223.165 89.6539C222.687 90.7391 222.012 91.5593 221.14 92.1147C220.277 92.67 219.256 92.9477 218.077 92.9477C217.334 92.9477 216.68 92.8495 216.116 92.653C215.552 92.4564 215.069 92.1916 214.668 91.8583C214.266 91.5251 213.933 91.162 213.668 90.769H213.514C213.54 91.1022 213.57 91.5038 213.604 91.9737C213.647 92.4436 213.668 92.8537 213.668 93.2041V98.9714H211.528V78.6448H213.284L213.566 80.721H213.668C213.942 80.2938 214.275 79.905 214.668 79.5547C215.061 79.1959 215.539 78.9139 216.103 78.7088C216.676 78.4952 217.351 78.3884 218.128 78.3884ZM217.757 80.1827C216.783 80.1827 215.997 80.3707 215.398 80.7466C214.809 81.1226 214.377 81.6865 214.104 82.4384C213.831 83.1817 213.685 84.1173 213.668 85.2451V85.6553C213.668 86.8429 213.796 87.8469 214.053 88.6671C214.318 89.4873 214.749 90.1111 215.347 90.5383C215.954 90.9655 216.766 91.1791 217.782 91.1791C218.654 91.1791 219.38 90.9441 219.961 90.4742C220.542 90.0043 220.974 89.3506 221.255 88.5133C221.546 87.6674 221.691 86.6977 221.691 85.604C221.691 83.9464 221.367 82.6306 220.717 81.6566C220.076 80.674 219.09 80.1827 217.757 80.1827ZM239.198 78.6448V92.6914H237.455L237.148 90.7177H237.032C236.742 91.2047 236.366 91.6148 235.904 91.9481C235.443 92.2813 234.922 92.5291 234.341 92.6914C233.768 92.8623 233.158 92.9477 232.508 92.9477C231.397 92.9477 230.466 92.7683 229.714 92.4094C228.962 92.0506 228.394 91.4952 228.01 90.7433C227.634 89.9914 227.446 89.0259 227.446 87.8469V78.6448H229.599V87.6931C229.599 88.8636 229.864 89.7394 230.393 90.3204C230.923 90.8929 231.731 91.1791 232.816 91.1791C233.858 91.1791 234.687 90.9826 235.302 90.5895C235.926 90.1965 236.374 89.6198 236.648 88.8593C236.921 88.0904 237.058 87.1505 237.058 86.0398V78.6448H239.198ZM250.079 78.3884C250.361 78.3884 250.656 78.4055 250.964 78.4397C251.271 78.4653 251.545 78.5038 251.784 78.555L251.515 80.5288C251.284 80.4689 251.028 80.422 250.746 80.3878C250.464 80.3536 250.199 80.3365 249.951 80.3365C249.387 80.3365 248.853 80.4519 248.349 80.6825C247.854 80.9047 247.418 81.2294 247.042 81.6566C246.666 82.0753 246.371 82.5836 246.158 83.1817C245.944 83.7713 245.837 84.4292 245.837 85.1554V92.6914H243.697V78.6448H245.465L245.696 81.2336H245.786C246.076 80.7125 246.427 80.2383 246.837 79.811C247.247 79.3753 247.721 79.0292 248.259 78.7729C248.806 78.5166 249.413 78.3884 250.079 78.3884ZM260.063 92.9477C258.799 92.9477 257.684 92.6871 256.718 92.1659C255.753 91.6447 255.001 90.8501 254.462 89.7821C253.924 88.7141 253.655 87.3684 253.655 85.745C253.655 84.0447 253.937 82.6563 254.501 81.5797C255.073 80.4946 255.859 79.6914 256.859 79.1702C257.859 78.649 258.995 78.3884 260.268 78.3884C260.969 78.3884 261.644 78.4611 262.293 78.6063C262.951 78.743 263.489 78.9182 263.908 79.1318L263.267 80.9132C262.84 80.7424 262.344 80.5886 261.781 80.4519C261.225 80.3151 260.704 80.2468 260.217 80.2468C259.243 80.2468 258.431 80.4561 257.782 80.8748C257.141 81.2935 256.658 81.9086 256.334 82.7203C256.018 83.532 255.859 84.5317 255.859 85.7193C255.859 86.8557 256.013 87.8255 256.321 88.6286C256.637 89.4318 257.103 90.047 257.718 90.4742C258.342 90.8929 259.119 91.1022 260.05 91.1022C260.794 91.1022 261.464 91.0253 262.063 90.8715C262.661 90.7092 263.203 90.5212 263.69 90.3076V92.2044C263.22 92.4436 262.695 92.6273 262.114 92.7555C261.541 92.8837 260.858 92.9477 260.063 92.9477ZM269.15 72.7493V78.7088C269.15 79.0506 269.141 79.3966 269.124 79.747C269.107 80.0887 269.077 80.4049 269.035 80.6954H269.176C269.466 80.1998 269.833 79.7854 270.278 79.4522C270.731 79.1104 271.243 78.8541 271.816 78.6832C272.388 78.5038 272.995 78.4141 273.636 78.4141C274.763 78.4141 275.703 78.5935 276.455 78.9523C277.216 79.3112 277.784 79.8666 278.16 80.6185C278.544 81.3704 278.737 82.3444 278.737 83.5406V92.6914H276.635V83.6816C276.635 82.511 276.365 81.6352 275.827 81.0542C275.297 80.4732 274.481 80.1827 273.379 80.1827C272.337 80.1827 271.504 80.3835 270.88 80.7851C270.265 81.1781 269.821 81.7591 269.547 82.5281C269.282 83.2971 269.15 84.2369 269.15 85.3477V92.6914H267.022V72.7493H269.15ZM288.374 78.4141C290.049 78.4141 291.292 78.79 292.104 79.5419C292.916 80.2938 293.321 81.4942 293.321 83.1433V92.6914H291.771L291.361 90.6152H291.258C290.865 91.1278 290.455 91.5593 290.028 91.9096C289.6 92.2514 289.105 92.512 288.541 92.6914C287.986 92.8623 287.302 92.9477 286.49 92.9477C285.636 92.9477 284.876 92.7982 284.209 92.4992C283.551 92.2001 283.03 91.7473 282.645 91.1406C282.27 90.534 282.082 89.765 282.082 88.8337C282.082 87.4325 282.637 86.3559 283.748 85.604C284.858 84.8521 286.55 84.442 288.823 84.3736L291.245 84.2711V83.4124C291.245 82.1991 290.985 81.349 290.463 80.862C289.942 80.375 289.207 80.1314 288.259 80.1314C287.524 80.1314 286.824 80.2383 286.157 80.4519C285.491 80.6655 284.858 80.9175 284.26 81.208L283.607 79.5932C284.239 79.2685 284.965 78.9908 285.785 78.7601C286.606 78.5294 287.469 78.4141 288.374 78.4141ZM291.22 85.7706L289.079 85.8603C287.328 85.9287 286.093 86.2149 285.375 86.719C284.658 87.2231 284.299 87.9366 284.299 88.8593C284.299 89.6625 284.542 90.2563 285.029 90.6408C285.516 91.0253 286.161 91.2175 286.965 91.2175C288.212 91.2175 289.233 90.8715 290.028 90.1794C290.822 89.4873 291.22 88.4492 291.22 87.0651V85.7706ZM306.791 88.8465C306.791 89.7437 306.565 90.4998 306.112 91.115C305.668 91.7216 305.027 92.1788 304.19 92.4863C303.361 92.7939 302.37 92.9477 301.216 92.9477C300.234 92.9477 299.384 92.8708 298.666 92.717C297.948 92.5632 297.32 92.3454 296.782 92.0634V90.1025C297.354 90.3845 298.038 90.6408 298.832 90.8715C299.627 91.1022 300.439 91.2175 301.268 91.2175C302.481 91.2175 303.361 91.021 303.908 90.628C304.455 90.235 304.728 89.7009 304.728 89.0259C304.728 88.6415 304.617 88.304 304.395 88.0135C304.181 87.7144 303.818 87.4282 303.305 87.1548C302.793 86.8728 302.084 86.5652 301.178 86.232C300.281 85.8902 299.503 85.5527 298.845 85.2195C298.196 84.8777 297.692 84.4634 297.333 83.9763C296.983 83.4893 296.807 82.857 296.807 82.0795C296.807 80.8919 297.286 79.9819 298.243 79.3497C299.208 78.7088 300.473 78.3884 302.037 78.3884C302.882 78.3884 303.673 78.4739 304.408 78.6448C305.151 78.8071 305.843 79.0292 306.484 79.3112L305.766 81.0158C305.185 80.768 304.566 80.5587 303.908 80.3878C303.25 80.2169 302.579 80.1314 301.896 80.1314C300.913 80.1314 300.157 80.2938 299.627 80.6185C299.106 80.9431 298.845 81.3874 298.845 81.9514C298.845 82.3871 298.965 82.746 299.204 83.0279C299.452 83.3099 299.845 83.5748 300.383 83.8225C300.921 84.0703 301.631 84.3608 302.511 84.694C303.391 85.0187 304.151 85.3562 304.792 85.7065C305.433 86.0483 305.924 86.467 306.266 86.9625C306.616 87.4495 306.791 88.0775 306.791 88.8465ZM315.622 78.3884C316.818 78.3884 317.843 78.6533 318.698 79.183C319.552 79.7128 320.206 80.4561 320.659 81.4131C321.111 82.3615 321.338 83.4722 321.338 84.7453V86.0654H311.636C311.662 87.7144 312.072 88.9704 312.866 89.8334C313.661 90.6963 314.78 91.1278 316.224 91.1278C317.113 91.1278 317.899 91.0466 318.582 90.8843C319.266 90.722 319.975 90.4827 320.71 90.1666V92.0378C320.001 92.3539 319.296 92.5846 318.595 92.7299C317.903 92.8751 317.083 92.9477 316.134 92.9477C314.784 92.9477 313.605 92.6743 312.597 92.1275C311.597 91.5721 310.82 90.7604 310.265 89.6924C309.709 88.6244 309.432 87.3171 309.432 85.7706C309.432 84.2583 309.684 82.951 310.188 81.8488C310.7 80.7381 311.418 79.8837 312.341 79.2856C313.272 78.6875 314.366 78.3884 315.622 78.3884ZM315.596 80.1314C314.46 80.1314 313.554 80.5031 312.879 81.2465C312.204 81.9898 311.803 83.0279 311.674 84.3608H319.108C319.099 83.5235 318.967 82.7887 318.711 82.1564C318.463 81.5156 318.083 81.02 317.57 80.6697C317.057 80.3109 316.399 80.1314 315.596 80.1314ZM65.2685 127.205C65.6188 127.205 65.9777 127.175 66.3451 127.115C66.7125 127.055 67.0115 126.983 67.2422 126.897V128.55C66.9944 128.662 66.6484 128.755 66.2041 128.832C65.7683 128.909 65.3411 128.948 64.9225 128.948C64.1791 128.948 63.5041 128.82 62.8975 128.563C62.2908 128.298 61.8038 127.854 61.4364 127.23C61.0776 126.607 60.8981 125.744 60.8981 124.641V116.311H58.8988V115.273L60.911 114.44L61.7568 111.389H63.0385V114.645H67.1525V116.311H63.0385V124.577C63.0385 125.457 63.2392 126.115 63.6408 126.551C64.0509 126.987 64.5935 127.205 65.2685 127.205ZM72.2149 108.749V114.709C72.2149 115.051 72.2064 115.397 72.1893 115.747C72.1722 116.089 72.1423 116.405 72.0996 116.695H72.2406C72.5311 116.2 72.8985 115.785 73.3428 115.452C73.7956 115.11 74.3082 114.854 74.8807 114.683C75.4532 114.504 76.0598 114.414 76.7006 114.414C77.8285 114.414 78.7683 114.593 79.5202 114.952C80.2806 115.311 80.8488 115.867 81.2248 116.618C81.6093 117.37 81.8015 118.344 81.8015 119.541V128.691H79.6996V119.682C79.6996 118.511 79.4305 117.635 78.8922 117.054C78.3625 116.473 77.5465 116.183 76.4443 116.183C75.4019 116.183 74.5688 116.384 73.9451 116.785C73.3299 117.178 72.8856 117.759 72.6122 118.528C72.3474 119.297 72.2149 120.237 72.2149 121.348V128.691H70.0874V108.749H72.2149ZM88.3122 114.645V128.691H86.1847V114.645H88.3122ZM87.2741 109.39C87.6244 109.39 87.9234 109.505 88.1712 109.736C88.4275 109.958 88.5557 110.309 88.5557 110.787C88.5557 111.257 88.4275 111.607 88.1712 111.838C87.9234 112.069 87.6244 112.184 87.2741 112.184C86.9067 112.184 86.5991 112.069 86.3513 111.838C86.112 111.607 85.9924 111.257 85.9924 110.787C85.9924 110.309 86.112 109.958 86.3513 109.736C86.5991 109.505 86.9067 109.39 87.2741 109.39ZM99.4752 114.388C101.141 114.388 102.402 114.799 103.256 115.619C104.11 116.43 104.538 117.738 104.538 119.541V128.691H102.436V119.682C102.436 118.511 102.167 117.635 101.628 117.054C101.099 116.473 100.283 116.183 99.1804 116.183C97.6253 116.183 96.5317 116.623 95.8994 117.503C95.2671 118.383 94.951 119.66 94.951 121.335V128.691H92.8235V114.645H94.5409L94.8613 116.67H94.9766C95.2757 116.174 95.6559 115.76 96.1173 115.427C96.5787 115.085 97.0956 114.828 97.6681 114.658C98.2405 114.478 98.8429 114.388 99.4752 114.388ZM112.843 134.997C110.997 134.997 109.574 134.651 108.575 133.959C107.575 133.275 107.075 132.314 107.075 131.075C107.075 130.195 107.353 129.443 107.908 128.82C108.472 128.196 109.25 127.781 110.241 127.576C109.873 127.406 109.557 127.149 109.292 126.807C109.036 126.466 108.908 126.073 108.908 125.628C108.908 125.116 109.049 124.667 109.331 124.283C109.621 123.89 110.061 123.514 110.651 123.155C109.916 122.856 109.318 122.352 108.857 121.642C108.404 120.925 108.177 120.092 108.177 119.143C108.177 118.135 108.387 117.276 108.805 116.567C109.224 115.849 109.831 115.303 110.625 114.927C111.42 114.551 112.381 114.363 113.509 114.363C113.757 114.363 114.005 114.376 114.252 114.401C114.509 114.418 114.752 114.448 114.983 114.491C115.214 114.525 115.414 114.568 115.585 114.619H120.404V115.99L117.815 116.311C118.072 116.644 118.285 117.046 118.456 117.516C118.627 117.986 118.712 118.507 118.712 119.079C118.712 120.48 118.238 121.595 117.29 122.424C116.341 123.244 115.038 123.655 113.381 123.655C112.988 123.655 112.586 123.62 112.176 123.552C111.757 123.783 111.437 124.039 111.215 124.321C111.001 124.603 110.894 124.928 110.894 125.295C110.894 125.569 110.976 125.786 111.138 125.949C111.309 126.111 111.552 126.231 111.868 126.308C112.185 126.376 112.565 126.41 113.009 126.41H115.483C117.012 126.41 118.183 126.731 118.994 127.371C119.815 128.012 120.225 128.948 120.225 130.178C120.225 131.733 119.592 132.925 118.328 133.754C117.063 134.583 115.235 134.997 112.843 134.997ZM112.907 133.331C114.069 133.331 115.03 133.211 115.79 132.972C116.559 132.741 117.132 132.404 117.508 131.96C117.892 131.524 118.084 131.003 118.084 130.396C118.084 129.832 117.956 129.405 117.7 129.114C117.444 128.832 117.068 128.644 116.572 128.55C116.077 128.448 115.47 128.397 114.752 128.397H112.317C111.685 128.397 111.134 128.495 110.664 128.691C110.194 128.888 109.831 129.178 109.574 129.563C109.327 129.947 109.203 130.426 109.203 130.998C109.203 131.759 109.523 132.336 110.164 132.729C110.805 133.13 111.719 133.331 112.907 133.331ZM113.458 122.104C114.474 122.104 115.239 121.848 115.752 121.335C116.264 120.822 116.521 120.075 116.521 119.092C116.521 118.041 116.26 117.255 115.739 116.734C115.218 116.204 114.449 115.939 113.432 115.939C112.458 115.939 111.706 116.213 111.176 116.759C110.655 117.298 110.395 118.088 110.395 119.13C110.395 120.087 110.659 120.822 111.189 121.335C111.719 121.848 112.475 122.104 113.458 122.104ZM132.259 124.847C132.259 125.744 132.033 126.5 131.58 127.115C131.136 127.722 130.495 128.179 129.658 128.486C128.829 128.794 127.838 128.948 126.684 128.948C125.702 128.948 124.851 128.871 124.134 128.717C123.416 128.563 122.788 128.345 122.25 128.063V126.103C122.822 126.384 123.506 126.641 124.3 126.871C125.095 127.102 125.907 127.218 126.735 127.218C127.949 127.218 128.829 127.021 129.376 126.628C129.922 126.235 130.196 125.701 130.196 125.026C130.196 124.641 130.085 124.304 129.863 124.013C129.649 123.714 129.286 123.428 128.773 123.155C128.261 122.873 127.551 122.565 126.646 122.232C125.749 121.89 124.971 121.553 124.313 121.22C123.664 120.878 123.16 120.463 122.801 119.976C122.45 119.489 122.275 118.857 122.275 118.08C122.275 116.892 122.754 115.982 123.711 115.35C124.676 114.709 125.941 114.388 127.504 114.388C128.35 114.388 129.141 114.474 129.875 114.645C130.619 114.807 131.311 115.029 131.952 115.311L131.234 117.016C130.653 116.768 130.033 116.559 129.376 116.388C128.718 116.217 128.047 116.131 127.363 116.131C126.381 116.131 125.625 116.294 125.095 116.618C124.574 116.943 124.313 117.387 124.313 117.951C124.313 118.387 124.433 118.746 124.672 119.028C124.92 119.31 125.313 119.575 125.851 119.823C126.389 120.07 127.099 120.361 127.979 120.694C128.859 121.019 129.619 121.356 130.26 121.707C130.901 122.048 131.392 122.467 131.734 122.963C132.084 123.45 132.259 124.078 132.259 124.847ZM147.754 114.414C149.429 114.414 150.672 114.79 151.484 115.542C152.295 116.294 152.701 117.494 152.701 119.143V128.691H151.15L150.74 126.615H150.638C150.245 127.128 149.835 127.559 149.407 127.91C148.98 128.251 148.485 128.512 147.921 128.691C147.365 128.862 146.682 128.948 145.87 128.948C145.016 128.948 144.255 128.798 143.589 128.499C142.931 128.2 142.41 127.747 142.025 127.141C141.649 126.534 141.461 125.765 141.461 124.834C141.461 123.432 142.017 122.356 143.127 121.604C144.238 120.852 145.93 120.442 148.203 120.374L150.625 120.271V119.412C150.625 118.199 150.364 117.349 149.843 116.862C149.322 116.375 148.587 116.131 147.639 116.131C146.904 116.131 146.203 116.238 145.537 116.452C144.87 116.665 144.238 116.918 143.64 117.208L142.986 115.593C143.619 115.268 144.345 114.991 145.165 114.76C145.985 114.529 146.848 114.414 147.754 114.414ZM150.599 121.771L148.459 121.86C146.707 121.929 145.473 122.215 144.755 122.719C144.037 123.223 143.679 123.937 143.679 124.859C143.679 125.662 143.922 126.256 144.409 126.641C144.896 127.025 145.541 127.218 146.344 127.218C147.592 127.218 148.613 126.871 149.407 126.179C150.202 125.487 150.599 124.449 150.599 123.065V121.771ZM163.736 114.388C165.402 114.388 166.662 114.799 167.517 115.619C168.371 116.43 168.798 117.738 168.798 119.541V128.691H166.697V119.682C166.697 118.511 166.427 117.635 165.889 117.054C165.359 116.473 164.543 116.183 163.441 116.183C161.886 116.183 160.793 116.623 160.16 117.503C159.528 118.383 159.212 119.66 159.212 121.335V128.691H157.084V114.645H158.802L159.122 116.67H159.237C159.537 116.174 159.917 115.76 160.378 115.427C160.84 115.085 161.356 114.828 161.929 114.658C162.501 114.478 163.104 114.388 163.736 114.388ZM178.18 128.948C176.403 128.948 174.993 128.341 173.951 127.128C172.917 125.915 172.4 124.112 172.4 121.719C172.4 119.301 172.93 117.477 173.989 116.247C175.049 115.008 176.458 114.388 178.218 114.388C178.962 114.388 179.611 114.487 180.166 114.683C180.722 114.88 181.2 115.145 181.602 115.478C182.003 115.802 182.341 116.174 182.614 116.593H182.768C182.734 116.328 182.7 115.965 182.666 115.503C182.631 115.042 182.614 114.666 182.614 114.376V108.749H184.742V128.691H183.025L182.704 126.692H182.614C182.35 127.111 182.012 127.491 181.602 127.833C181.2 128.174 180.718 128.448 180.154 128.653C179.598 128.849 178.94 128.948 178.18 128.948ZM178.513 127.179C180.017 127.179 181.081 126.752 181.704 125.897C182.328 125.043 182.64 123.774 182.64 122.091V121.707C182.64 119.921 182.341 118.549 181.743 117.593C181.153 116.636 180.077 116.157 178.513 116.157C177.206 116.157 176.228 116.661 175.578 117.669C174.929 118.669 174.604 120.036 174.604 121.771C174.604 123.497 174.925 124.829 175.565 125.769C176.215 126.709 177.197 127.179 178.513 127.179ZM196.392 128.691V109.954H198.571V128.691H196.392ZM222.332 121.642C222.332 122.796 222.183 123.825 221.883 124.731C221.584 125.637 221.153 126.402 220.589 127.025C220.025 127.649 219.342 128.127 218.538 128.461C217.744 128.785 216.842 128.948 215.834 128.948C214.894 128.948 214.031 128.785 213.245 128.461C212.468 128.127 211.793 127.649 211.22 127.025C210.656 126.402 210.216 125.637 209.9 124.731C209.593 123.825 209.439 122.796 209.439 121.642C209.439 120.104 209.699 118.797 210.221 117.721C210.742 116.636 211.485 115.811 212.451 115.247C213.425 114.675 214.582 114.388 215.924 114.388C217.206 114.388 218.325 114.675 219.282 115.247C220.247 115.82 220.995 116.648 221.525 117.733C222.063 118.81 222.332 120.113 222.332 121.642ZM211.643 121.642C211.643 122.77 211.793 123.749 212.092 124.577C212.391 125.406 212.852 126.047 213.476 126.5C214.1 126.953 214.903 127.179 215.885 127.179C216.859 127.179 217.658 126.953 218.282 126.5C218.914 126.047 219.38 125.406 219.679 124.577C219.978 123.749 220.128 122.77 220.128 121.642C220.128 120.523 219.978 119.558 219.679 118.746C219.38 117.926 218.919 117.293 218.295 116.849C217.671 116.405 216.864 116.183 215.873 116.183C214.412 116.183 213.339 116.665 212.656 117.631C211.981 118.596 211.643 119.934 211.643 121.642ZM232.662 114.388C234.328 114.388 235.588 114.799 236.443 115.619C237.297 116.43 237.724 117.738 237.724 119.541V128.691H235.623V119.682C235.623 118.511 235.353 117.635 234.815 117.054C234.285 116.473 233.469 116.183 232.367 116.183C230.812 116.183 229.718 116.623 229.086 117.503C228.454 118.383 228.138 119.66 228.138 121.335V128.691H226.01V114.645H227.728L228.048 116.67H228.163C228.463 116.174 228.843 115.76 229.304 115.427C229.765 115.085 230.282 114.828 230.855 114.658C231.427 114.478 232.03 114.388 232.662 114.388ZM244.248 128.691H242.108V108.749H244.248V128.691ZM246.529 114.645H248.81L251.912 122.796C252.091 123.274 252.258 123.736 252.412 124.18C252.566 124.616 252.702 125.034 252.822 125.436C252.942 125.838 253.036 126.226 253.104 126.602H253.194C253.313 126.175 253.484 125.615 253.706 124.923C253.928 124.223 254.168 123.509 254.424 122.783L257.359 114.645H259.653L253.54 130.755C253.215 131.618 252.835 132.37 252.399 133.01C251.972 133.651 251.451 134.143 250.835 134.484C250.22 134.835 249.477 135.01 248.605 135.01C248.204 135.01 247.849 134.984 247.542 134.933C247.234 134.89 246.969 134.839 246.747 134.779V133.075C246.935 133.117 247.161 133.156 247.426 133.19C247.7 133.224 247.982 133.241 248.272 133.241C248.802 133.241 249.259 133.139 249.644 132.934C250.037 132.737 250.374 132.447 250.656 132.062C250.938 131.678 251.181 131.22 251.387 130.691L252.156 128.717L246.529 114.645ZM275.097 114.388C275.379 114.388 275.673 114.406 275.981 114.44C276.289 114.465 276.562 114.504 276.801 114.555L276.532 116.529C276.301 116.469 276.045 116.422 275.763 116.388C275.481 116.354 275.216 116.337 274.969 116.337C274.405 116.337 273.871 116.452 273.366 116.683C272.871 116.905 272.435 117.229 272.059 117.657C271.683 118.075 271.389 118.584 271.175 119.182C270.961 119.771 270.854 120.429 270.854 121.155V128.691H268.714V114.645H270.483L270.714 117.234H270.803C271.094 116.712 271.444 116.238 271.854 115.811C272.264 115.375 272.738 115.029 273.277 114.773C273.824 114.517 274.43 114.388 275.097 114.388ZM284.863 114.388C286.059 114.388 287.084 114.653 287.939 115.183C288.793 115.713 289.447 116.456 289.9 117.413C290.352 118.361 290.579 119.472 290.579 120.745V122.065H280.877C280.902 123.714 281.313 124.97 282.107 125.833C282.902 126.696 284.021 127.128 285.465 127.128C286.354 127.128 287.14 127.047 287.823 126.884C288.507 126.722 289.216 126.483 289.951 126.167V128.038C289.242 128.354 288.537 128.585 287.836 128.73C287.144 128.875 286.324 128.948 285.375 128.948C284.025 128.948 282.846 128.674 281.838 128.127C280.838 127.572 280.061 126.76 279.505 125.692C278.95 124.624 278.672 123.317 278.672 121.771C278.672 120.258 278.924 118.951 279.429 117.849C279.941 116.738 280.659 115.884 281.582 115.286C282.513 114.687 283.607 114.388 284.863 114.388ZM284.837 116.131C283.701 116.131 282.795 116.503 282.12 117.246C281.445 117.99 281.043 119.028 280.915 120.361H288.349C288.34 119.523 288.208 118.789 287.951 118.156C287.704 117.516 287.323 117.02 286.811 116.67C286.298 116.311 285.64 116.131 284.837 116.131ZM299.448 114.414C301.122 114.414 302.365 114.79 303.177 115.542C303.989 116.294 304.395 117.494 304.395 119.143V128.691H302.844L302.434 126.615H302.331C301.938 127.128 301.528 127.559 301.101 127.91C300.674 128.251 300.178 128.512 299.614 128.691C299.059 128.862 298.375 128.948 297.564 128.948C296.709 128.948 295.949 128.798 295.282 128.499C294.624 128.2 294.103 127.747 293.719 127.141C293.343 126.534 293.155 125.765 293.155 124.834C293.155 123.432 293.71 122.356 294.821 121.604C295.932 120.852 297.623 120.442 299.896 120.374L302.318 120.271V119.412C302.318 118.199 302.058 117.349 301.537 116.862C301.015 116.375 300.281 116.131 299.332 116.131C298.597 116.131 297.897 116.238 297.23 116.452C296.564 116.665 295.932 116.918 295.334 117.208L294.68 115.593C295.312 115.268 296.038 114.991 296.859 114.76C297.679 114.529 298.542 114.414 299.448 114.414ZM302.293 121.771L300.153 121.86C298.401 121.929 297.166 122.215 296.449 122.719C295.731 123.223 295.372 123.937 295.372 124.859C295.372 125.662 295.616 126.256 296.103 126.641C296.59 127.025 297.235 127.218 298.038 127.218C299.285 127.218 300.306 126.871 301.101 126.179C301.896 125.487 302.293 124.449 302.293 123.065V121.771ZM310.918 128.691H308.778V108.749H310.918V128.691ZM317.544 114.645V128.691H315.417V114.645H317.544ZM316.506 109.39C316.856 109.39 317.155 109.505 317.403 109.736C317.66 109.958 317.788 110.309 317.788 110.787C317.788 111.257 317.66 111.607 317.403 111.838C317.155 112.069 316.856 112.184 316.506 112.184C316.139 112.184 315.831 112.069 315.583 111.838C315.344 111.607 315.224 111.257 315.224 110.787C315.224 110.309 315.344 109.958 315.583 109.736C315.831 109.505 316.139 109.39 316.506 109.39ZM331.078 128.691H320.838V127.282L328.541 116.311H321.325V114.645H330.912V116.221L323.312 127.038H331.078V128.691ZM339.768 114.388C340.964 114.388 341.989 114.653 342.844 115.183C343.698 115.713 344.352 116.456 344.804 117.413C345.257 118.361 345.484 119.472 345.484 120.745V122.065H335.782C335.807 123.714 336.218 124.97 337.012 125.833C337.807 126.696 338.926 127.128 340.37 127.128C341.259 127.128 342.045 127.047 342.728 126.884C343.412 126.722 344.121 126.483 344.856 126.167V128.038C344.147 128.354 343.442 128.585 342.741 128.73C342.049 128.875 341.229 128.948 340.28 128.948C338.93 128.948 337.751 128.674 336.743 128.127C335.743 127.572 334.966 126.76 334.41 125.692C333.855 124.624 333.577 123.317 333.577 121.771C333.577 120.258 333.829 118.951 334.334 117.849C334.846 116.738 335.564 115.884 336.487 115.286C337.418 114.687 338.512 114.388 339.768 114.388ZM339.742 116.131C338.606 116.131 337.7 116.503 337.025 117.246C336.35 117.99 335.948 119.028 335.82 120.361H343.254C343.245 119.523 343.113 118.789 342.856 118.156C342.609 117.516 342.228 117.02 341.716 116.67C341.203 116.311 340.545 116.131 339.742 116.131ZM63.3973 150.645V164.691H61.2698V150.645H63.3973ZM62.3592 145.39C62.7095 145.39 63.0086 145.505 63.2563 145.736C63.5127 145.958 63.6408 146.309 63.6408 146.787C63.6408 147.257 63.5127 147.607 63.2563 147.838C63.0086 148.069 62.7095 148.184 62.3592 148.184C61.9918 148.184 61.6842 148.069 61.4364 147.838C61.1972 147.607 61.0776 147.257 61.0776 146.787C61.0776 146.309 61.1972 145.958 61.4364 145.736C61.6842 145.505 61.9918 145.39 62.3592 145.39ZM72.4456 163.205C72.7959 163.205 73.1548 163.175 73.5222 163.115C73.8896 163.055 74.1886 162.983 74.4193 162.897V164.55C74.1715 164.662 73.8255 164.755 73.3812 164.832C72.9454 164.909 72.5182 164.948 72.0996 164.948C71.3562 164.948 70.6812 164.82 70.0746 164.563C69.468 164.298 68.9809 163.854 68.6135 163.23C68.2547 162.607 68.0753 161.744 68.0753 160.641V152.311H66.0759V151.273L68.0881 150.44L68.934 147.389H70.2156V150.645H74.3296V152.311H70.2156V160.577C70.2156 161.457 70.4164 162.115 70.8179 162.551C71.2281 162.987 71.7706 163.205 72.4456 163.205ZM89.3375 150.414C91.0121 150.414 92.2553 150.79 93.067 151.542C93.8787 152.294 94.2846 153.494 94.2846 155.143V164.691H92.7338L92.3237 162.615H92.2211C91.8281 163.128 91.418 163.559 90.9908 163.91C90.5636 164.251 90.068 164.512 89.5041 164.691C88.9487 164.862 88.2652 164.948 87.4535 164.948C86.5991 164.948 85.8386 164.798 85.1722 164.499C84.5143 164.2 83.9931 163.747 83.6086 163.141C83.2326 162.534 83.0447 161.765 83.0447 160.834C83.0447 159.432 83.6 158.356 84.7108 157.604C85.8215 156.852 87.5133 156.442 89.786 156.374L92.2083 156.271V155.412C92.2083 154.199 91.9477 153.349 91.4265 152.862C90.9053 152.375 90.1705 152.131 89.2221 152.131C88.4873 152.131 87.7867 152.238 87.1203 152.452C86.4538 152.665 85.8215 152.918 85.2234 153.208L84.5698 151.593C85.2021 151.268 85.9283 150.991 86.7486 150.76C87.5688 150.529 88.4318 150.414 89.3375 150.414ZM92.1827 157.771L90.0424 157.86C88.2908 157.929 87.0562 158.215 86.3385 158.719C85.6208 159.223 85.2619 159.937 85.2619 160.859C85.2619 161.662 85.5054 162.256 85.9924 162.641C86.4794 163.025 87.1245 163.218 87.9277 163.218C89.1751 163.218 90.1962 162.871 90.9908 162.179C91.7854 161.487 92.1827 160.449 92.1827 159.065V157.771ZM104.922 152.311H101.423V164.691H99.2957V152.311H96.8094V151.286L99.2957 150.581V149.645C99.2957 148.466 99.4709 147.509 99.8212 146.774C100.172 146.031 100.68 145.484 101.346 145.134C102.013 144.783 102.824 144.608 103.781 144.608C104.32 144.608 104.811 144.655 105.255 144.749C105.708 144.843 106.105 144.95 106.447 145.07L105.896 146.749C105.606 146.655 105.277 146.569 104.909 146.492C104.55 146.407 104.183 146.364 103.807 146.364C102.995 146.364 102.393 146.629 102 147.159C101.615 147.68 101.423 148.5 101.423 149.619V150.645H104.922V152.311ZM112.048 163.205C112.398 163.205 112.757 163.175 113.124 163.115C113.492 163.055 113.791 162.983 114.022 162.897V164.55C113.774 164.662 113.428 164.755 112.984 164.832C112.548 164.909 112.121 164.948 111.702 164.948C110.959 164.948 110.284 164.82 109.677 164.563C109.07 164.298 108.583 163.854 108.216 163.23C107.857 162.607 107.678 161.744 107.678 160.641V152.311H105.678V151.273L107.69 150.44L108.536 147.389H109.818V150.645H113.932V152.311H109.818V160.577C109.818 161.457 110.019 162.115 110.42 162.551C110.83 162.987 111.373 163.205 112.048 163.205ZM122.275 150.388C123.472 150.388 124.497 150.653 125.351 151.183C126.206 151.713 126.859 152.456 127.312 153.413C127.765 154.361 127.991 155.472 127.991 156.745V158.065H118.289C118.315 159.714 118.725 160.97 119.52 161.833C120.314 162.696 121.434 163.128 122.878 163.128C123.766 163.128 124.552 163.047 125.236 162.884C125.919 162.722 126.629 162.483 127.363 162.167V164.038C126.654 164.354 125.949 164.585 125.249 164.73C124.557 164.875 123.736 164.948 122.788 164.948C121.438 164.948 120.259 164.674 119.251 164.127C118.251 163.572 117.473 162.76 116.918 161.692C116.363 160.624 116.085 159.317 116.085 157.771C116.085 156.258 116.337 154.951 116.841 153.849C117.354 152.738 118.072 151.884 118.994 151.286C119.926 150.687 121.019 150.388 122.275 150.388ZM122.25 152.131C121.113 152.131 120.208 152.503 119.533 153.246C118.858 153.99 118.456 155.028 118.328 156.361H125.761C125.753 155.523 125.62 154.789 125.364 154.156C125.116 153.516 124.736 153.02 124.223 152.67C123.711 152.311 123.053 152.131 122.25 152.131ZM137.988 150.388C138.27 150.388 138.565 150.406 138.872 150.44C139.18 150.465 139.453 150.504 139.693 150.555L139.424 152.529C139.193 152.469 138.936 152.422 138.655 152.388C138.373 152.354 138.108 152.337 137.86 152.337C137.296 152.337 136.762 152.452 136.258 152.683C135.762 152.905 135.327 153.229 134.951 153.657C134.575 154.075 134.28 154.584 134.066 155.182C133.853 155.771 133.746 156.429 133.746 157.155V164.691H131.606V150.645H133.374L133.605 153.234H133.695C133.985 152.712 134.335 152.238 134.746 151.811C135.156 151.375 135.63 151.029 136.168 150.773C136.715 150.517 137.322 150.388 137.988 150.388ZM155.546 150.388C155.828 150.388 156.123 150.406 156.431 150.44C156.738 150.465 157.012 150.504 157.251 150.555L156.982 152.529C156.751 152.469 156.495 152.422 156.213 152.388C155.931 152.354 155.666 152.337 155.418 152.337C154.854 152.337 154.32 152.452 153.816 152.683C153.321 152.905 152.885 153.229 152.509 153.657C152.133 154.075 151.838 154.584 151.625 155.182C151.411 155.771 151.304 156.429 151.304 157.155V164.691H149.164V150.645H150.933L151.163 153.234H151.253C151.543 152.712 151.894 152.238 152.304 151.811C152.714 151.375 153.188 151.029 153.726 150.773C154.273 150.517 154.88 150.388 155.546 150.388ZM165.312 150.388C166.509 150.388 167.534 150.653 168.388 151.183C169.243 151.713 169.896 152.456 170.349 153.413C170.802 154.361 171.028 155.472 171.028 156.745V158.065H161.327C161.352 159.714 161.762 160.97 162.557 161.833C163.352 162.696 164.471 163.128 165.915 163.128C166.803 163.128 167.589 163.047 168.273 162.884C168.957 162.722 169.666 162.483 170.4 162.167V164.038C169.691 164.354 168.986 164.585 168.286 164.73C167.594 164.875 166.773 164.948 165.825 164.948C164.475 164.948 163.296 164.674 162.288 164.127C161.288 163.572 160.511 162.76 159.955 161.692C159.4 160.624 159.122 159.317 159.122 157.771C159.122 156.258 159.374 154.951 159.878 153.849C160.391 152.738 161.109 151.884 162.031 151.286C162.963 150.687 164.056 150.388 165.312 150.388ZM165.287 152.131C164.15 152.131 163.245 152.503 162.57 153.246C161.895 153.99 161.493 155.028 161.365 156.361H168.798C168.79 155.523 168.657 154.789 168.401 154.156C168.153 153.516 167.773 153.02 167.26 152.67C166.748 152.311 166.09 152.131 165.287 152.131ZM179.18 163.205C179.53 163.205 179.889 163.175 180.256 163.115C180.624 163.055 180.923 162.983 181.153 162.897V164.55C180.906 164.662 180.56 164.755 180.115 164.832C179.679 164.909 179.252 164.948 178.834 164.948C178.09 164.948 177.415 164.82 176.809 164.563C176.202 164.298 175.715 163.854 175.348 163.23C174.989 162.607 174.809 161.744 174.809 160.641V152.311H172.81V151.273L174.822 150.44L175.668 147.389H176.95V150.645H181.064V152.311H176.95V160.577C176.95 161.457 177.15 162.115 177.552 162.551C177.962 162.987 178.505 163.205 179.18 163.205ZM195.597 150.645V164.691H193.854L193.547 162.718H193.431C193.141 163.205 192.765 163.615 192.304 163.948C191.842 164.281 191.321 164.529 190.74 164.691C190.167 164.862 189.557 164.948 188.907 164.948C187.796 164.948 186.865 164.768 186.113 164.409C185.361 164.051 184.793 163.495 184.409 162.743C184.033 161.991 183.845 161.026 183.845 159.847V150.645H185.998V159.693C185.998 160.864 186.263 161.739 186.793 162.32C187.322 162.893 188.13 163.179 189.215 163.179C190.257 163.179 191.086 162.983 191.701 162.59C192.325 162.197 192.773 161.62 193.047 160.859C193.32 160.09 193.457 159.15 193.457 158.04V150.645H195.597ZM206.478 150.388C206.76 150.388 207.055 150.406 207.363 150.44C207.67 150.465 207.944 150.504 208.183 150.555L207.914 152.529C207.683 152.469 207.427 152.422 207.145 152.388C206.863 152.354 206.598 152.337 206.35 152.337C205.786 152.337 205.252 152.452 204.748 152.683C204.253 152.905 203.817 153.229 203.441 153.657C203.065 154.075 202.77 154.584 202.557 155.182C202.343 155.771 202.236 156.429 202.236 157.155V164.691H200.096V150.645H201.864L202.095 153.234H202.185C202.475 152.712 202.826 152.238 203.236 151.811C203.646 151.375 204.12 151.029 204.658 150.773C205.205 150.517 205.812 150.388 206.478 150.388ZM217.488 150.388C219.154 150.388 220.414 150.799 221.268 151.619C222.123 152.43 222.55 153.738 222.55 155.541V164.691H220.448V155.682C220.448 154.511 220.179 153.635 219.641 153.054C219.111 152.473 218.295 152.183 217.193 152.183C215.638 152.183 214.544 152.623 213.912 153.503C213.279 154.383 212.963 155.66 212.963 157.335V164.691H210.836V150.645H212.553L212.874 152.67H212.989C213.288 152.174 213.668 151.76 214.13 151.427C214.591 151.085 215.108 150.828 215.68 150.658C216.253 150.478 216.855 150.388 217.488 150.388ZM229.061 150.645V164.691H226.933V150.645H229.061ZM228.022 145.39C228.373 145.39 228.672 145.505 228.92 145.736C229.176 145.958 229.304 146.309 229.304 146.787C229.304 147.257 229.176 147.607 228.92 147.838C228.672 148.069 228.373 148.184 228.022 148.184C227.655 148.184 227.347 148.069 227.1 147.838C226.86 147.607 226.741 147.257 226.741 146.787C226.741 146.309 226.86 145.958 227.1 145.736C227.347 145.505 227.655 145.39 228.022 145.39ZM240.224 150.388C241.89 150.388 243.15 150.799 244.004 151.619C244.859 152.43 245.286 153.738 245.286 155.541V164.691H243.184V155.682C243.184 154.511 242.915 153.635 242.377 153.054C241.847 152.473 241.031 152.183 239.929 152.183C238.374 152.183 237.28 152.623 236.648 153.503C236.016 154.383 235.699 155.66 235.699 157.335V164.691H233.572V150.645H235.289L235.61 152.67H235.725C236.024 152.174 236.404 151.76 236.866 151.427C237.327 151.085 237.844 150.828 238.416 150.658C238.989 150.478 239.591 150.388 240.224 150.388ZM253.591 170.997C251.745 170.997 250.323 170.651 249.323 169.959C248.323 169.275 247.824 168.314 247.824 167.075C247.824 166.195 248.101 165.443 248.657 164.82C249.221 164.196 249.998 163.781 250.989 163.576C250.622 163.406 250.306 163.149 250.041 162.807C249.785 162.466 249.656 162.073 249.656 161.628C249.656 161.116 249.797 160.667 250.079 160.283C250.37 159.89 250.81 159.514 251.399 159.155C250.665 158.856 250.066 158.352 249.605 157.642C249.152 156.925 248.926 156.092 248.926 155.143C248.926 154.135 249.135 153.276 249.554 152.567C249.972 151.849 250.579 151.303 251.374 150.927C252.168 150.551 253.13 150.363 254.257 150.363C254.505 150.363 254.753 150.376 255.001 150.401C255.257 150.418 255.501 150.448 255.731 150.491C255.962 150.525 256.163 150.568 256.334 150.619H261.153V151.99L258.564 152.311C258.82 152.644 259.034 153.046 259.204 153.516C259.375 153.986 259.461 154.507 259.461 155.079C259.461 156.48 258.987 157.595 258.038 158.424C257.09 159.244 255.787 159.655 254.129 159.655C253.736 159.655 253.335 159.62 252.925 159.552C252.506 159.783 252.185 160.039 251.963 160.321C251.75 160.603 251.643 160.928 251.643 161.295C251.643 161.569 251.724 161.786 251.886 161.949C252.057 162.111 252.301 162.231 252.617 162.308C252.933 162.376 253.313 162.41 253.758 162.41H256.231C257.761 162.41 258.931 162.731 259.743 163.371C260.563 164.012 260.973 164.948 260.973 166.178C260.973 167.733 260.341 168.925 259.076 169.754C257.812 170.583 255.983 170.997 253.591 170.997ZM253.655 169.331C254.817 169.331 255.778 169.211 256.539 168.972C257.308 168.741 257.88 168.404 258.256 167.96C258.641 167.524 258.833 167.003 258.833 166.396C258.833 165.832 258.705 165.405 258.448 165.114C258.192 164.832 257.816 164.644 257.321 164.55C256.825 164.448 256.218 164.397 255.501 164.397H253.065C252.433 164.397 251.882 164.495 251.412 164.691C250.942 164.888 250.579 165.178 250.323 165.563C250.075 165.947 249.951 166.426 249.951 166.998C249.951 167.759 250.272 168.336 250.912 168.729C251.553 169.13 252.467 169.331 253.655 169.331ZM254.206 158.104C255.223 158.104 255.988 157.848 256.5 157.335C257.013 156.822 257.269 156.075 257.269 155.092C257.269 154.041 257.009 153.255 256.487 152.734C255.966 152.204 255.197 151.939 254.181 151.939C253.206 151.939 252.455 152.213 251.925 152.759C251.404 153.298 251.143 154.088 251.143 155.13C251.143 156.087 251.408 156.822 251.938 157.335C252.467 157.848 253.224 158.104 254.206 158.104ZM272.867 144.749V150.709C272.867 151.051 272.858 151.397 272.841 151.747C272.824 152.089 272.794 152.405 272.751 152.695H272.892C273.183 152.2 273.55 151.785 273.994 151.452C274.447 151.11 274.96 150.854 275.532 150.683C276.105 150.504 276.712 150.414 277.352 150.414C278.48 150.414 279.42 150.593 280.172 150.952C280.932 151.311 281.501 151.867 281.877 152.618C282.261 153.37 282.453 154.344 282.453 155.541V164.691H280.351V155.682C280.351 154.511 280.082 153.635 279.544 153.054C279.014 152.473 278.198 152.183 277.096 152.183C276.054 152.183 275.221 152.384 274.597 152.785C273.982 153.178 273.537 153.759 273.264 154.528C272.999 155.297 272.867 156.237 272.867 157.348V164.691H270.739V144.749H272.867ZM298.948 157.642C298.948 158.796 298.798 159.825 298.499 160.731C298.2 161.637 297.769 162.402 297.205 163.025C296.641 163.649 295.957 164.127 295.154 164.461C294.36 164.785 293.458 164.948 292.45 164.948C291.51 164.948 290.647 164.785 289.861 164.461C289.084 164.127 288.409 163.649 287.836 163.025C287.272 162.402 286.832 161.637 286.516 160.731C286.208 159.825 286.055 158.796 286.055 157.642C286.055 156.104 286.315 154.797 286.836 153.721C287.358 152.636 288.101 151.811 289.066 151.247C290.04 150.675 291.198 150.388 292.54 150.388C293.821 150.388 294.941 150.675 295.898 151.247C296.863 151.82 297.611 152.648 298.14 153.733C298.679 154.81 298.948 156.113 298.948 157.642ZM288.259 157.642C288.259 158.77 288.409 159.749 288.708 160.577C289.007 161.406 289.468 162.047 290.092 162.5C290.715 162.953 291.519 163.179 292.501 163.179C293.475 163.179 294.274 162.953 294.898 162.5C295.53 162.047 295.996 161.406 296.295 160.577C296.594 159.749 296.743 158.77 296.743 157.642C296.743 156.523 296.594 155.558 296.295 154.746C295.996 153.926 295.534 153.293 294.911 152.849C294.287 152.405 293.48 152.183 292.488 152.183C291.027 152.183 289.955 152.665 289.271 153.631C288.597 154.596 288.259 155.934 288.259 157.642ZM317.877 150.388C319.424 150.388 320.59 150.794 321.376 151.606C322.162 152.409 322.555 153.704 322.555 155.489V164.691H320.454V155.592C320.454 154.455 320.206 153.605 319.71 153.041C319.223 152.469 318.497 152.183 317.531 152.183C316.173 152.183 315.186 152.576 314.571 153.362C313.956 154.148 313.648 155.306 313.648 156.835V164.691H311.533V155.592C311.533 154.831 311.422 154.199 311.2 153.695C310.987 153.191 310.662 152.815 310.226 152.567C309.799 152.311 309.256 152.183 308.598 152.183C307.667 152.183 306.92 152.375 306.356 152.759C305.792 153.144 305.382 153.716 305.125 154.477C304.877 155.229 304.754 156.156 304.754 157.258V164.691H302.626V150.645H304.343L304.664 152.631H304.779C305.061 152.144 305.416 151.734 305.843 151.401C306.27 151.068 306.749 150.816 307.278 150.645C307.808 150.474 308.372 150.388 308.97 150.388C310.038 150.388 310.931 150.589 311.649 150.991C312.375 151.384 312.9 151.986 313.225 152.798H313.34C313.802 151.986 314.434 151.384 315.237 150.991C316.04 150.589 316.921 150.388 317.877 150.388ZM332.334 150.388C333.53 150.388 334.556 150.653 335.41 151.183C336.265 151.713 336.918 152.456 337.371 153.413C337.824 154.361 338.05 155.472 338.05 156.745V158.065H328.348C328.374 159.714 328.784 160.97 329.579 161.833C330.373 162.696 331.493 163.128 332.937 163.128C333.825 163.128 334.611 163.047 335.295 162.884C335.978 162.722 336.688 162.483 337.422 162.167V164.038C336.713 164.354 336.008 164.585 335.308 164.73C334.616 164.875 333.795 164.948 332.847 164.948C331.497 164.948 330.318 164.674 329.31 164.127C328.31 163.572 327.532 162.76 326.977 161.692C326.422 160.624 326.144 159.317 326.144 157.771C326.144 156.258 326.396 154.951 326.9 153.849C327.413 152.738 328.131 151.884 329.053 151.286C329.985 150.687 331.078 150.388 332.334 150.388ZM332.309 152.131C331.172 152.131 330.267 152.503 329.592 153.246C328.917 153.99 328.515 155.028 328.387 156.361H335.82C335.812 155.523 335.679 154.789 335.423 154.156C335.175 153.516 334.795 153.02 334.282 152.67C333.77 152.311 333.112 152.131 332.309 152.131ZM341.344 163.359C341.344 162.76 341.489 162.337 341.78 162.09C342.07 161.833 342.425 161.705 342.844 161.705C343.279 161.705 343.647 161.833 343.946 162.09C344.245 162.337 344.394 162.76 344.394 163.359C344.394 163.948 344.245 164.38 343.946 164.653C343.647 164.918 343.279 165.05 342.844 165.05C342.425 165.05 342.07 164.918 341.78 164.653C341.489 164.38 341.344 163.948 341.344 163.359Z" fill="#767676"/>
<g clip-path="url(#clip0_787_2255)">
<path d="M458.727 238.223C462.881 245.927 471.697 249.234 471.697 249.234C471.697 249.234 473.779 240.051 469.625 232.347C465.471 224.643 456.654 221.336 456.654 221.336C456.654 221.336 454.573 230.519 458.727 238.223Z" fill="#2F2E41"/>
<path d="M461.583 235.69C469.083 240.202 471.972 249.164 471.972 249.164C471.972 249.164 462.7 250.811 455.201 246.299C447.701 241.787 444.812 232.824 444.812 232.824C444.812 232.824 454.084 231.178 461.583 235.69Z" fill="#B8322E"/>
<path d="M629.731 12H582.938V12.6685H629.731V12Z" fill="#F2F2F2"/>
<path d="M617.028 12.5039H616.359V18.6873H617.028V12.5039Z" fill="#F2F2F2"/>
<path d="M596.637 12.5039H595.969V18.6873H596.637V12.5039Z" fill="#F2F2F2"/>
<path d="M653.457 44.0898H606.664V44.7583H653.457V44.0898Z" fill="#F2F2F2"/>
<path d="M620.036 38.0703H619.367V44.2537H620.036V38.0703Z" fill="#F2F2F2"/>
<path d="M640.426 38.0703H639.758V44.2537H640.426V38.0703Z" fill="#F2F2F2"/>
<path d="M715.629 59.1289H668.836V59.7974H715.629V59.1289Z" fill="#F2F2F2"/>
<path d="M682.208 53.1133H681.539V59.2967H682.208V53.1133Z" fill="#F2F2F2"/>
<path d="M702.59 53.1133H701.922V59.2967H702.59V53.1133Z" fill="#F2F2F2"/>
<path d="M710.949 214.215H664.156V214.883H710.949V214.215Z" fill="#F2F2F2"/>
<path d="M677.528 208.199H676.859V214.383H677.528V208.199Z" fill="#F2F2F2"/>
<path d="M697.911 208.199H697.242V214.383H697.911V208.199Z" fill="#F2F2F2"/>
<path d="M631.067 106.926H584.273V107.594H631.067V106.926Z" fill="#F2F2F2"/>
<path d="M597.645 100.91H596.977V107.094H597.645V100.91Z" fill="#F2F2F2"/>
<path d="M618.028 100.91H617.359V107.094H618.028V100.91Z" fill="#F2F2F2"/>
<path d="M645.77 187.477H598.977V188.145H645.77V187.477Z" fill="#F2F2F2"/>
<path d="M612.348 181.461H611.68V187.644H612.348V181.461Z" fill="#F2F2F2"/>
<path d="M632.739 181.461H632.07V187.644H632.739V181.461Z" fill="#F2F2F2"/>
<path d="M720.645 163.078H673.852V163.747H720.645V163.078Z" fill="#F2F2F2"/>
<path d="M687.215 157.062H686.547V163.246H687.215V157.062Z" fill="#F2F2F2"/>
<path d="M707.606 157.062H706.938V163.246H707.606V157.062Z" fill="#F2F2F2"/>
<path d="M565.83 234.697H486.688V234.128H565.261V206.513H493.341L489.847 199.235L490.36 198.988L493.699 205.944H565.83V234.697Z" fill="#2F2E41"/>
<path d="M497.221 248.644C500.522 248.644 503.199 245.968 503.199 242.666C503.199 239.364 500.522 236.688 497.221 236.688C493.919 236.688 491.242 239.364 491.242 242.666C491.242 245.968 493.919 248.644 497.221 248.644Z" fill="#3F3D56"/>
<path d="M556.15 248.644C559.452 248.644 562.129 245.968 562.129 242.666C562.129 239.364 559.452 236.688 556.15 236.688C552.848 236.688 550.172 239.364 550.172 242.666C550.172 245.968 552.848 248.644 556.15 248.644Z" fill="#3F3D56"/>
<path d="M625.607 119.398C627.651 119.398 629.308 117.741 629.308 115.697C629.308 113.653 627.651 111.996 625.607 111.996C623.563 111.996 621.906 113.653 621.906 115.697C621.906 117.741 623.563 119.398 625.607 119.398Z" fill="#3F3D56"/>
<path d="M574.291 197.119H485.334L466.086 134.203H594.114L593.997 134.573L574.291 197.119ZM485.755 196.549H573.873L593.337 134.772H466.855L485.755 196.549Z" fill="#2F2E41"/>
<path d="M567.345 193.845H489.211L472.305 138.047H584.756L584.654 138.375L567.345 193.845Z" fill="#F2F2F2"/>
<path d="M595.707 128.581L595.156 128.435L598.913 114.273H620.769V114.843H599.352L595.707 128.581Z" fill="#2F2E41"/>
<path d="M587.715 153.277H472.305V153.847H587.715V153.277Z" fill="#2F2E41"/>
<path d="M581.11 174.254H478.727V174.823H581.11V174.254Z" fill="#2F2E41"/>
<path d="M530.382 134.488H529.812V196.835H530.382V134.488Z" fill="#2F2E41"/>
<path d="M555.876 134.468L551.789 196.812L552.357 196.85L556.444 134.505L555.876 134.468Z" fill="#2F2E41"/>
<path d="M504.334 134.467L503.766 134.504L507.829 196.85L508.397 196.813L504.334 134.467Z" fill="#2F2E41"/>
<path d="M744.289 249.008H444.812V249.676H744.289V249.008Z" fill="#2F2E41"/>
<path d="M643.82 20.6813C643.82 20.6813 648.706 34.5877 645.7 36.7272C642.693 38.8666 655.847 56.3387 655.847 56.3387L671.633 52.0598L662.989 37.4403C662.989 37.4403 661.861 22.8208 661.861 20.6813C661.861 18.5419 643.82 20.6813 643.82 20.6813Z" fill="#A0616A"/>
<path opacity="0.1" d="M643.82 20.6813C643.82 20.6813 648.706 34.5877 645.7 36.7272C642.693 38.8666 655.847 56.3387 655.847 56.3387L671.633 52.0598L662.989 37.4403C662.989 37.4403 661.861 22.8208 661.861 20.6813C661.861 18.5419 643.82 20.6813 643.82 20.6813Z" fill="#141414"/>
<path d="M635.618 119.807C635.618 119.807 634.192 137.636 635.618 146.907C637.045 156.178 639.184 181.851 639.184 181.851C639.184 181.851 639.184 230.345 647.029 231.058C654.873 231.771 660.578 232.484 661.292 229.632C662.005 226.779 657.726 225.353 659.865 223.926C662.005 222.5 662.718 217.508 659.865 211.803C657.013 206.098 659.865 148.333 659.865 148.333L673.415 184.703C673.415 184.703 674.841 214.656 676.268 218.934C677.694 223.213 674.841 231.058 679.833 231.771C684.825 232.484 690.531 228.205 693.383 226.779C696.236 225.353 689.104 225.353 690.531 224.64C691.957 223.926 696.236 221.787 694.809 221.074C693.383 220.361 691.957 186.13 691.957 186.13C691.957 186.13 688.035 113.032 683.043 110.18C678.051 107.327 674.841 112.24 674.841 112.24L635.618 119.807Z" fill="#2F2E41"/>
<path d="M648.454 228.207V233.912C648.454 233.912 642.036 249.421 648.454 249.421C654.872 249.421 659.865 251.028 659.865 248.888V229.633L648.454 228.207Z" fill="#2F2E41"/>
<path d="M690.535 228.195V233.9C690.535 233.9 696.954 249.409 690.535 249.409C684.117 249.409 679.125 251.016 679.125 248.877V229.622L690.535 228.195Z" fill="#2F2E41"/>
<path d="M653.805 31.021C660.895 31.021 666.642 25.2738 666.642 18.1843C666.642 11.0948 660.895 5.34766 653.805 5.34766C646.716 5.34766 640.969 11.0948 640.969 18.1843C640.969 25.2738 646.716 31.021 653.805 31.021Z" fill="#A0616A"/>
<path d="M649.879 42.0742C649.879 42.0742 653.445 52.7714 659.15 50.632L664.856 48.4925L674.84 116.955C674.84 116.955 666.995 128.365 655.585 121.234C644.174 114.102 649.879 42.0742 649.879 42.0742Z" fill="#B8322E"/>
<path d="M659.867 39.9351L663.076 33.1602C663.076 33.1602 681.975 42.0745 684.827 44.9271C687.68 47.7797 687.68 52.0586 687.68 52.0586L682.688 69.8872C682.688 69.8872 684.114 109.11 684.114 110.537C684.114 111.963 689.106 119.808 685.54 116.955C681.975 114.102 681.262 111.25 678.409 115.529C675.556 119.808 669.138 124.8 669.138 124.8L659.867 39.9351Z" fill="#3F3D56"/>
<path d="M684.826 91.2812L682.687 111.249C682.687 111.249 669.85 122.66 672.703 123.373C675.555 124.086 676.982 121.233 676.982 121.233C676.982 121.233 681.974 126.225 684.826 123.373C687.679 120.52 694.81 93.4207 694.81 93.4207L684.826 91.2812Z" fill="#A0616A"/>
<path d="M654.08 0.0434078C651.234 -0.0583241 648.189 -0.108647 645.79 1.42488C644.686 2.19449 643.717 3.14235 642.924 4.22964C640.588 7.18379 638.569 10.9008 639.437 14.5661L640.445 14.1729C640.445 15.1512 640.227 16.1174 639.808 17.0014C639.95 16.5886 640.425 17.2559 640.298 17.6735L639.188 21.3169C641.013 20.6476 643.284 22.0027 643.562 23.9272C643.689 19.6953 644.128 14.8427 647.561 12.3648C649.292 11.1152 651.483 10.7337 653.591 10.395C655.536 10.0825 657.574 9.78447 659.437 10.4247C661.3 11.0649 662.886 12.9699 662.464 14.8937C663.323 14.5979 664.283 15.1965 664.708 15.9996C665.132 16.8027 665.154 17.7502 665.167 18.6585C666.083 19.3055 667.125 18.0207 667.498 16.9635C668.373 14.482 669.152 11.8405 668.68 9.25165C668.208 6.66278 666.099 4.18871 663.467 4.17993C663.787 3.8291 663.957 3.36777 663.942 2.89354L661.773 2.71028C662.324 2.63231 662.831 2.36533 663.206 1.95505C662.335 2.91329 655.488 0.0937472 654.08 0.0434078Z" fill="#2F2E41"/>
<path d="M653.448 37.7973C653.448 37.7973 647.643 32.1083 645.553 32.4568C643.464 32.8053 640.612 37.7973 640.612 37.7973C640.612 37.7973 623.496 43.5025 624.209 49.2077C624.922 54.9128 632.767 82.7256 632.767 82.7256C632.767 82.7256 639.185 116.243 633.48 119.809C627.775 123.375 660.58 132.646 661.293 128.367C662.006 124.088 663.432 81.2993 661.293 74.881C659.153 68.4626 653.448 37.7973 653.448 37.7973Z" fill="#3F3D56"/>
<path d="M678.406 49.207H687.224C687.224 49.207 693.382 76.3066 694.095 79.1592C694.809 82.0118 696.235 95.5616 695.522 95.5616C694.809 95.5616 680.546 92.709 680.546 94.8485L678.406 49.207Z" fill="#3F3D56"/>
<path d="M678.106 116.316H644.348C641.054 101.162 640.779 86.5203 644.348 72.5312H678.106C672.659 86.2686 672.318 100.81 678.106 116.316Z" fill="#F2F2F2"/>
<path d="M630.625 97.7022L640.609 101.981C640.609 101.981 659.864 104.834 659.864 96.9891C659.864 89.1445 640.609 93.4234 640.609 93.4234L634.19 91.3711L630.625 97.7022Z" fill="#A0616A"/>
<path d="M632.769 44.9297L624.211 47.0691L617.793 84.8659C617.793 84.8659 615.653 94.85 619.219 95.5631C622.785 96.2763 632.769 101.981 632.769 101.981C632.769 101.981 634.195 91.2843 637.048 91.2843L629.916 85.5791L634.195 60.6189L632.769 44.9297Z" fill="#3F3D56"/>
<path d="M511.746 117.953H464.953V118.622H511.746V117.953Z" fill="#F2F2F2"/>
<path d="M478.317 111.938H477.648V118.121H478.317V111.938Z" fill="#F2F2F2"/>
<path d="M498.708 111.938H498.039V118.121H498.708V111.938Z" fill="#F2F2F2"/>
<path d="M528.121 19.0195H481.328V19.688H528.121V19.0195Z" fill="#F2F2F2"/>
<path d="M515.418 19.5234H514.75V25.7068H515.418V19.5234Z" fill="#F2F2F2"/>
<path d="M495.028 19.5234H494.359V25.7068H495.028V19.5234Z" fill="#F2F2F2"/>
<path d="M575.246 84.8672H528.453V85.5357H575.246V84.8672Z" fill="#F2F2F2"/>
<path d="M562.543 85.3672H561.875V91.5506H562.543V85.3672Z" fill="#F2F2F2"/>
<path d="M542.161 85.3672H541.492V91.5506H542.161V85.3672Z" fill="#F2F2F2"/>
<path d="M495.699 84.5312H448.906V85.1997H495.699V84.5312Z" fill="#F2F2F2"/>
<path d="M482.997 85.0312H482.328V91.2146H482.997V85.0312Z" fill="#F2F2F2"/>
<path d="M462.614 85.0312H461.945V91.2146H462.614V85.0312Z" fill="#F2F2F2"/>
<path d="M551.848 51.1094H505.055V51.7778H551.848V51.1094Z" fill="#F2F2F2"/>
<path d="M518.426 45.0898H517.758V51.2732H518.426V45.0898Z" fill="#F2F2F2"/>
<path d="M538.817 45.0898H538.148V51.2732H538.817V45.0898Z" fill="#F2F2F2"/>
</g>
<defs>
<clipPath id="clip0_787_2255">
<rect width="299.477" height="250" fill="white" transform="translate(444.812)"/>
</clipPath>
</defs>
</svg>
