<svg width="780" height="250" viewBox="0 0 780 250" fill="none" xmlns="http://www.w3.org/2000/svg">
<path d="M9.67734 73.6844C8.10248 73.6844 6.72447 73.3891 5.54332 72.7985C4.36217 72.1423 3.41069 71.2893 2.68888 70.2394C2.03268 69.1894 1.50773 67.9427 1.11401 66.499C0.720295 65.0554 0.523438 63.5462 0.523438 61.9713C0.523438 58.756 1.34368 55.7375 2.98416 52.9158C4.69027 50.0942 7.31504 47.8631 10.8585 46.2227L11.7444 47.9944C9.90701 48.8474 8.26652 50.0942 6.8229 51.7347C5.44489 53.3096 4.62465 54.9828 4.36217 56.7546C3.96846 58.1326 3.93564 59.4778 4.26374 60.7902C5.70737 59.2153 7.64314 58.4279 10.0711 58.4279C12.3021 58.4279 14.1395 59.1169 15.5831 60.4949C17.0267 61.8073 17.7485 63.6446 17.7485 66.0069C17.7485 68.3036 16.9939 70.1737 15.4847 71.6174C13.9754 72.9954 12.0396 73.6844 9.67734 73.6844ZM29.9537 73.6844C28.3789 73.6844 27.0009 73.3891 25.8197 72.7985C24.6386 72.1423 23.6871 71.2893 22.9653 70.2394C22.3091 69.1894 21.7841 67.9427 21.3904 66.499C20.9967 65.0554 20.7998 63.5462 20.7998 61.9713C20.7998 58.756 21.6201 55.7375 23.2606 52.9158C24.9667 50.0942 27.5914 47.8631 31.1349 46.2227L32.0207 47.9944C30.1834 48.8474 28.5429 50.0942 27.0993 51.7347C25.7213 53.3096 24.901 54.9828 24.6386 56.7546C24.2448 58.1326 24.212 59.4778 24.5401 60.7902C25.9838 59.2153 27.9195 58.4279 30.3474 58.4279C32.5785 58.4279 34.4158 59.1169 35.8595 60.4949C37.3031 61.8073 38.0249 63.6446 38.0249 66.0069C38.0249 68.3036 37.2703 70.1737 35.761 71.6174C34.2518 72.9954 32.316 73.6844 29.9537 73.6844Z" fill="#B8322E"/>
<path d="M363.098 176.414C364.738 176.414 366.149 176.709 367.33 177.3C368.511 177.89 369.43 178.744 370.086 179.859C370.808 180.778 371.333 181.992 371.661 183.501C372.055 185.01 372.251 186.519 372.251 188.029C372.251 191.31 371.398 194.361 369.692 197.183C368.052 199.939 365.46 202.137 361.916 203.777L361.031 202.006C362.868 201.218 364.508 200.004 365.952 198.364C367.396 196.723 368.249 195.05 368.511 193.344C368.839 191.9 368.839 190.522 368.511 189.21C367.068 190.785 365.165 191.572 362.802 191.572C360.506 191.572 358.635 190.916 357.192 189.604C355.748 188.226 355.026 186.355 355.026 183.993C355.026 181.696 355.781 179.859 357.29 178.481C358.865 177.103 360.801 176.414 363.098 176.414ZM342.821 176.414C344.462 176.414 345.872 176.709 347.054 177.3C348.235 177.89 349.153 178.744 349.81 179.859C350.531 180.778 351.056 181.992 351.385 183.501C351.778 185.01 351.975 186.519 351.975 188.029C351.975 191.31 351.122 194.361 349.416 197.183C347.775 199.939 345.183 202.137 341.64 203.777L340.754 202.006C342.592 201.218 344.232 200.004 345.676 198.364C347.119 196.723 347.972 195.05 348.235 193.344C348.563 191.9 348.563 190.522 348.235 189.21C346.791 190.785 344.888 191.572 342.526 191.572C340.229 191.572 338.359 190.916 336.915 189.604C335.472 188.226 334.75 186.355 334.75 183.993C334.75 181.696 335.505 179.859 337.014 178.481C338.589 177.103 340.525 176.414 342.821 176.414Z" fill="#B8322E"/>
<path d="M56.7371 81.4805V62.7431H58.9158V81.4805H56.7371ZM81.998 81.4548L79.4988 73.278C79.3877 72.9277 79.2809 72.586 79.1784 72.2527C79.0844 71.911 78.9947 71.5863 78.9092 71.2787C78.8323 70.9626 78.7597 70.6721 78.6913 70.4072C78.6315 70.1338 78.5803 69.8988 78.5376 69.7023H78.4478C78.4137 69.8988 78.3667 70.1338 78.3069 70.4072C78.2471 70.6721 78.1744 70.9626 78.089 71.2787C78.0121 71.5948 77.9266 71.9281 77.8327 72.2784C77.7387 72.6201 77.6319 72.9662 77.5123 73.3165L74.8977 81.4548H72.5011L68.6306 67.4082H70.835L72.8599 75.162C72.9966 75.6747 73.1248 76.1831 73.2444 76.6872C73.3726 77.1827 73.4794 77.6527 73.5648 78.097C73.6588 78.5327 73.7272 78.9129 73.7699 79.2376H73.8724C73.9237 79.024 73.9792 78.7677 74.039 78.4686C74.1074 78.1696 74.18 77.8535 74.2569 77.5202C74.3424 77.1785 74.4321 76.841 74.5261 76.5078C74.62 76.166 74.714 75.8456 74.808 75.5465L77.3969 67.4082H79.691L82.1902 75.5337C82.3184 75.9438 82.4422 76.371 82.5619 76.8153C82.69 77.2596 82.8054 77.6911 82.9079 78.1098C83.0104 78.5199 83.0831 78.8873 83.1258 79.212H83.2283C83.2625 78.9215 83.3266 78.5626 83.4206 78.1354C83.5145 77.7082 83.6213 77.2383 83.741 76.7256C83.8691 76.213 84.0016 75.6918 84.1383 75.162L86.1889 67.4082H88.3548L84.4715 81.4548H81.998ZM93.0456 67.4338V81.4805H90.9181V67.4338H93.0456ZM92.0075 62.1791C92.3578 62.1791 92.6568 62.2945 92.9046 62.5252C93.1609 62.7473 93.2891 63.0976 93.2891 63.5761C93.2891 64.0461 93.1609 64.3964 92.9046 64.6271C92.6568 64.8577 92.3578 64.9731 92.0075 64.9731C91.6401 64.9731 91.3325 64.8577 91.0847 64.6271C90.8455 64.3964 90.7258 64.0461 90.7258 63.5761C90.7258 63.0976 90.8455 62.7473 91.0847 62.5252C91.3325 62.2945 91.6401 62.1791 92.0075 62.1791ZM106.644 77.6356C106.644 78.5327 106.417 79.2889 105.964 79.9041C105.52 80.5107 104.879 80.9678 104.042 81.2754C103.213 81.583 102.222 81.7368 101.069 81.7368C100.086 81.7368 99.2359 81.6599 98.5181 81.5061C97.8004 81.3523 97.1724 81.1344 96.6341 80.8525V78.8916C97.2066 79.1735 97.8901 79.4299 98.6848 79.6606C99.4794 79.8912 100.291 80.0066 101.12 80.0066C102.333 80.0066 103.213 79.8101 103.76 79.417C104.307 79.024 104.58 78.49 104.58 77.815C104.58 77.4305 104.469 77.093 104.247 76.8025C104.033 76.5035 103.67 76.2172 103.158 75.9438C102.645 75.6619 101.936 75.3543 101.03 75.0211C100.133 74.6793 99.3555 74.3418 98.6976 74.0086C98.0482 73.6668 97.5441 73.2524 97.1852 72.7654C96.8349 72.2784 96.6598 71.6461 96.6598 70.8686C96.6598 69.6809 97.1383 68.771 98.0952 68.1387C99.0607 67.4979 100.325 67.1775 101.889 67.1775C102.735 67.1775 103.525 67.2629 104.26 67.4338C105.003 67.5962 105.695 67.8183 106.336 68.1003L105.618 69.8048C105.037 69.5571 104.418 69.3477 103.76 69.1768C103.102 69.006 102.431 68.9205 101.748 68.9205C100.765 68.9205 100.009 69.0829 99.4794 69.4075C98.9582 69.7322 98.6976 70.1765 98.6976 70.7404C98.6976 71.1762 98.8172 71.535 99.0564 71.817C99.3042 72.0989 99.6972 72.3638 100.236 72.6116C100.774 72.8594 101.483 73.1499 102.363 73.4831C103.243 73.8078 104.004 74.1453 104.644 74.4956C105.285 74.8374 105.776 75.256 106.118 75.7516C106.469 76.2386 106.644 76.8666 106.644 77.6356ZM112.193 61.5383V67.4979C112.193 67.8397 112.185 68.1857 112.167 68.536C112.15 68.8778 112.12 69.1939 112.078 69.4844H112.219C112.509 68.9889 112.877 68.5745 113.321 68.2412C113.774 67.8995 114.286 67.6432 114.859 67.4723C115.431 67.2928 116.038 67.2031 116.679 67.2031C117.807 67.2031 118.747 67.3826 119.498 67.7414C120.259 68.1003 120.827 68.6556 121.203 69.4075C121.587 70.1594 121.78 71.1335 121.78 72.3296V81.4805H119.678V72.4706C119.678 71.3001 119.409 70.4243 118.87 69.8433C118.341 69.2623 117.525 68.9718 116.422 68.9718C115.38 68.9718 114.547 69.1726 113.923 69.5741C113.308 69.9672 112.864 70.5482 112.59 71.3172C112.326 72.0861 112.193 73.026 112.193 74.1367V81.4805H110.066V61.5383H112.193ZM137.518 79.9938C137.868 79.9938 138.227 79.9639 138.595 79.9041C138.962 79.8443 139.261 79.7716 139.492 79.6862V81.3395C139.244 81.4506 138.898 81.5446 138.454 81.6214C138.018 81.6983 137.591 81.7368 137.172 81.7368C136.429 81.7368 135.754 81.6086 135.147 81.3523C134.54 81.0874 134.053 80.6431 133.686 80.0194C133.327 79.3957 133.148 78.5327 133.148 77.4305V69.0999H131.148V68.0618L133.161 67.2288L134.006 64.1785H135.288V67.4338H139.402V69.0999H135.288V77.3664C135.288 78.2465 135.489 78.9044 135.89 79.3401C136.301 79.7759 136.843 79.9938 137.518 79.9938ZM144.465 61.5383V67.4979C144.465 67.8397 144.456 68.1857 144.439 68.536C144.422 68.8778 144.392 69.1939 144.349 69.4844H144.49C144.781 68.9889 145.148 68.5745 145.592 68.2412C146.045 67.8995 146.558 67.6432 147.13 67.4723C147.703 67.2928 148.309 67.2031 148.95 67.2031C150.078 67.2031 151.018 67.3826 151.77 67.7414C152.53 68.1003 153.098 68.6556 153.474 69.4075C153.859 70.1594 154.051 71.1335 154.051 72.3296V81.4805H151.949V72.4706C151.949 71.3001 151.68 70.4243 151.142 69.8433C150.612 69.2623 149.796 68.9718 148.694 68.9718C147.651 68.9718 146.818 69.1726 146.195 69.5741C145.58 69.9672 145.135 70.5482 144.862 71.3172C144.597 72.0861 144.465 73.026 144.465 74.1367V81.4805H142.337V61.5383H144.465ZM163.843 67.1775C165.039 67.1775 166.064 67.4424 166.919 67.9721C167.773 68.5018 168.427 69.2452 168.88 70.2021C169.332 71.1505 169.559 72.2613 169.559 73.5344V74.8544H159.857C159.883 76.5035 160.293 77.7595 161.087 78.6224C161.882 79.4854 163.001 79.9169 164.445 79.9169C165.334 79.9169 166.12 79.8357 166.803 79.6734C167.487 79.511 168.196 79.2718 168.931 78.9557V80.8268C168.222 81.143 167.517 81.3737 166.816 81.5189C166.124 81.6642 165.304 81.7368 164.355 81.7368C163.005 81.7368 161.826 81.4634 160.818 80.9166C159.818 80.3612 159.041 79.5495 158.486 78.4815C157.93 77.4134 157.652 76.1062 157.652 74.5597C157.652 73.0474 157.905 71.7401 158.409 70.6379C158.921 69.5271 159.639 68.6727 160.562 68.0746C161.493 67.4765 162.587 67.1775 163.843 67.1775ZM163.817 68.9205C162.681 68.9205 161.775 69.2922 161.1 70.0355C160.425 70.7789 160.023 71.817 159.895 73.1499H167.329C167.32 72.3126 167.188 71.5778 166.931 70.9455C166.684 70.3047 166.303 69.8091 165.791 69.4588C165.278 69.0999 164.62 68.9205 163.817 68.9205ZM179.556 67.1775C179.837 67.1775 180.132 67.1946 180.44 67.2288C180.747 67.2544 181.021 67.2928 181.26 67.3441L180.991 69.3178C180.76 69.258 180.504 69.211 180.222 69.1768C179.94 69.1427 179.675 69.1256 179.427 69.1256C178.863 69.1256 178.329 69.2409 177.825 69.4716C177.33 69.6938 176.894 70.0184 176.518 70.4456C176.142 70.8643 175.847 71.3727 175.634 71.9708C175.42 72.5603 175.313 73.2182 175.313 73.9445V81.4805H173.173V67.4338H174.942L175.172 70.0227H175.262C175.553 69.5015 175.903 69.0273 176.313 68.6001C176.723 68.1643 177.197 67.8183 177.736 67.562C178.282 67.3057 178.889 67.1775 179.556 67.1775ZM189.322 67.1775C190.518 67.1775 191.543 67.4424 192.397 67.9721C193.252 68.5018 193.905 69.2452 194.358 70.2021C194.811 71.1505 195.038 72.2613 195.038 73.5344V74.8544H185.336C185.361 76.5035 185.771 77.7595 186.566 78.6224C187.361 79.4854 188.48 79.9169 189.924 79.9169C190.812 79.9169 191.599 79.8357 192.282 79.6734C192.966 79.511 193.675 79.2718 194.41 78.9557V80.8268C193.7 81.143 192.996 81.3737 192.295 81.5189C191.603 81.6642 190.783 81.7368 189.834 81.7368C188.484 81.7368 187.305 81.4634 186.297 80.9166C185.297 80.3612 184.52 79.5495 183.964 78.4815C183.409 77.4134 183.131 76.1062 183.131 74.5597C183.131 73.0474 183.383 71.7401 183.887 70.6379C184.4 69.5271 185.118 68.6727 186.041 68.0746C186.972 67.4765 188.066 67.1775 189.322 67.1775ZM189.296 68.9205C188.16 68.9205 187.254 69.2922 186.579 70.0355C185.904 70.7789 185.502 71.817 185.374 73.1499H192.808C192.799 72.3126 192.667 71.5778 192.41 70.9455C192.162 70.3047 191.782 69.8091 191.27 69.4588C190.757 69.0999 190.099 68.9205 189.296 68.9205ZM216.902 81.4548L214.403 73.278C214.292 72.9277 214.185 72.586 214.083 72.2527C213.989 71.911 213.899 71.5863 213.813 71.2787C213.737 70.9626 213.664 70.6721 213.596 70.4072C213.536 70.1338 213.484 69.8988 213.442 69.7023H213.352C213.318 69.8988 213.271 70.1338 213.211 70.4072C213.151 70.6721 213.079 70.9626 212.993 71.2787C212.916 71.5948 212.831 71.9281 212.737 72.2784C212.643 72.6201 212.536 72.9662 212.416 73.3165L209.802 81.4548H207.405L203.535 67.4082H205.739L207.764 75.162C207.901 75.6747 208.029 76.1831 208.149 76.6872C208.277 77.1827 208.384 77.6527 208.469 78.097C208.563 78.5327 208.631 78.9129 208.674 79.2376H208.777C208.828 79.024 208.883 78.7677 208.943 78.4686C209.012 78.1696 209.084 77.8535 209.161 77.5202C209.247 77.1785 209.336 76.841 209.43 76.5078C209.524 76.166 209.618 75.8456 209.712 75.5465L212.301 67.4082H214.595L217.094 75.5337C217.223 75.9438 217.346 76.371 217.466 76.8153C217.594 77.2596 217.71 77.6911 217.812 78.1098C217.915 78.5199 217.987 78.8873 218.03 79.212H218.133C218.167 78.9215 218.231 78.5626 218.325 78.1354C218.419 77.7082 218.526 77.2383 218.645 76.7256C218.773 76.213 218.906 75.6918 219.042 75.162L221.093 67.4082H223.259L219.376 81.4548H216.902ZM231.077 67.2031C232.752 67.2031 233.995 67.5791 234.807 68.331C235.618 69.0829 236.024 70.2833 236.024 71.9323V81.4805H234.473L234.063 79.4042H233.961C233.568 79.9169 233.157 80.3484 232.73 80.6987C232.303 81.0404 231.807 81.301 231.244 81.4805C230.688 81.6514 230.005 81.7368 229.193 81.7368C228.339 81.7368 227.578 81.5873 226.912 81.2882C226.254 80.9892 225.733 80.5363 225.348 79.9297C224.972 79.3231 224.784 78.5541 224.784 77.6228C224.784 76.2215 225.34 75.145 226.45 74.3931C227.561 73.6412 229.253 73.2311 231.526 73.1627L233.948 73.0602V72.2015C233.948 70.9882 233.687 70.1381 233.166 69.651C232.645 69.164 231.91 68.9205 230.962 68.9205C230.227 68.9205 229.526 69.0273 228.86 69.2409C228.193 69.4545 227.561 69.7066 226.963 69.9971L226.309 68.3822C226.942 68.0575 227.668 67.7799 228.488 67.5492C229.308 67.3185 230.171 67.2031 231.077 67.2031ZM233.922 74.5597L231.782 74.6494C230.03 74.7177 228.796 75.004 228.078 75.5081C227.36 76.0122 227.001 76.7256 227.001 77.6484C227.001 78.4516 227.245 79.0454 227.732 79.4299C228.219 79.8144 228.864 80.0066 229.667 80.0066C230.915 80.0066 231.936 79.6606 232.73 78.9685C233.525 78.2764 233.922 77.2383 233.922 75.8541V74.5597ZM249.494 77.6356C249.494 78.5327 249.268 79.2889 248.815 79.9041C248.37 80.5107 247.73 80.9678 246.892 81.2754C246.063 81.583 245.072 81.7368 243.919 81.7368C242.936 81.7368 242.086 81.6599 241.368 81.5061C240.651 81.3523 240.023 81.1344 239.484 80.8525V78.8916C240.057 79.1735 240.74 79.4299 241.535 79.6606C242.33 79.8912 243.141 80.0066 243.97 80.0066C245.183 80.0066 246.063 79.8101 246.61 79.417C247.157 79.024 247.431 78.49 247.431 77.815C247.431 77.4305 247.319 77.093 247.097 76.8025C246.884 76.5035 246.521 76.2172 246.008 75.9438C245.495 75.6619 244.786 75.3543 243.88 75.0211C242.983 74.6793 242.206 74.3418 241.548 74.0086C240.899 73.6668 240.394 73.2524 240.036 72.7654C239.685 72.2784 239.51 71.6461 239.51 70.8686C239.51 69.6809 239.989 68.771 240.946 68.1387C241.911 67.4979 243.176 67.1775 244.739 67.1775C245.585 67.1775 246.375 67.2629 247.11 67.4338C247.853 67.5962 248.546 67.8183 249.186 68.1003L248.469 69.8048C247.888 69.5571 247.268 69.3477 246.61 69.1768C245.952 69.006 245.282 68.9205 244.598 68.9205C243.616 68.9205 242.859 69.0829 242.33 69.4075C241.808 69.7322 241.548 70.1765 241.548 70.7404C241.548 71.1762 241.667 71.535 241.907 71.817C242.155 72.0989 242.548 72.3638 243.086 72.6116C243.624 72.8594 244.333 73.1499 245.213 73.4831C246.093 73.8078 246.854 74.1453 247.495 74.4956C248.135 74.8374 248.627 75.256 248.968 75.7516C249.319 76.2386 249.494 76.8666 249.494 77.6356ZM264.989 67.2031C266.664 67.2031 267.907 67.5791 268.718 68.331C269.53 69.0829 269.936 70.2833 269.936 71.9323V81.4805H268.385L267.975 79.4042H267.873C267.479 79.9169 267.069 80.3484 266.642 80.6987C266.215 81.0404 265.719 81.301 265.155 81.4805C264.6 81.6514 263.917 81.7368 263.105 81.7368C262.25 81.7368 261.49 81.5873 260.824 81.2882C260.166 80.9892 259.644 80.5363 259.26 79.9297C258.884 79.3231 258.696 78.5541 258.696 77.6228C258.696 76.2215 259.251 75.145 260.362 74.3931C261.473 73.6412 263.165 73.2311 265.437 73.1627L267.86 73.0602V72.2015C267.86 70.9882 267.599 70.1381 267.078 69.651C266.557 69.164 265.822 68.9205 264.873 68.9205C264.139 68.9205 263.438 69.0273 262.772 69.2409C262.105 69.4545 261.473 69.7066 260.875 69.9971L260.221 68.3822C260.853 68.0575 261.58 67.7799 262.4 67.5492C263.22 67.3185 264.083 67.2031 264.989 67.2031ZM267.834 74.5597L265.694 74.6494C263.942 74.7177 262.708 75.004 261.99 75.5081C261.272 76.0122 260.913 76.7256 260.913 77.6484C260.913 78.4516 261.157 79.0454 261.644 79.4299C262.131 79.8144 262.776 80.0066 263.579 80.0066C264.827 80.0066 265.848 79.6606 266.642 78.9685C267.437 78.2764 267.834 77.2383 267.834 75.8541V74.5597ZM287.392 69.0999H283.893V81.4805H281.765V69.0999H279.279V68.0746L281.765 67.3697V66.4342C281.765 65.2551 281.941 64.2981 282.291 63.5633C282.641 62.82 283.15 62.2731 283.816 61.9228C284.482 61.5725 285.294 61.3974 286.251 61.3974C286.789 61.3974 287.281 61.4443 287.725 61.5383C288.178 61.6323 288.575 61.7391 288.917 61.8587L288.366 63.5377C288.075 63.4437 287.746 63.3582 287.379 63.2813C287.02 63.1959 286.653 63.1532 286.277 63.1532C285.465 63.1532 284.863 63.4181 284.47 63.9478C284.085 64.469 283.893 65.2892 283.893 66.4085V67.4338H287.392V69.0999ZM295.235 67.2031C296.91 67.2031 298.153 67.5791 298.965 68.331C299.777 69.0829 300.182 70.2833 300.182 71.9323V81.4805H298.632L298.221 79.4042H298.119C297.726 79.9169 297.316 80.3484 296.889 80.6987C296.461 81.0404 295.966 81.301 295.402 81.4805C294.847 81.6514 294.163 81.7368 293.351 81.7368C292.497 81.7368 291.736 81.5873 291.07 81.2882C290.412 80.9892 289.891 80.5363 289.506 79.9297C289.13 79.3231 288.942 78.5541 288.942 77.6228C288.942 76.2215 289.498 75.145 290.609 74.3931C291.719 73.6412 293.411 73.2311 295.684 73.1627L298.106 73.0602V72.2015C298.106 70.9882 297.846 70.1381 297.324 69.651C296.803 69.164 296.068 68.9205 295.12 68.9205C294.385 68.9205 293.685 69.0273 293.018 69.2409C292.352 69.4545 291.719 69.7066 291.121 69.9971L290.468 68.3822C291.1 68.0575 291.826 67.7799 292.646 67.5492C293.467 67.3185 294.33 67.2031 295.235 67.2031ZM298.08 74.5597L295.94 74.6494C294.189 74.7177 292.954 75.004 292.236 75.5081C291.519 76.0122 291.16 76.7256 291.16 77.6484C291.16 78.4516 291.403 79.0454 291.89 79.4299C292.377 79.8144 293.022 80.0066 293.825 80.0066C295.073 80.0066 296.094 79.6606 296.889 78.9685C297.683 78.2764 298.08 77.2383 298.08 75.8541V74.5597ZM311.217 67.1775C312.883 67.1775 314.144 67.5876 314.998 68.4079C315.852 69.2196 316.28 70.5268 316.28 72.3296V81.4805H314.178V72.4706C314.178 71.3001 313.909 70.4243 313.37 69.8433C312.841 69.2623 312.025 68.9718 310.922 68.9718C309.367 68.9718 308.274 69.4118 307.641 70.2919C307.009 71.1719 306.693 72.4493 306.693 74.1239V81.4805H304.566V67.4338H306.283L306.603 69.4588H306.719C307.018 68.9632 307.398 68.5488 307.859 68.2156C308.321 67.8738 308.838 67.6175 309.41 67.4466C309.983 67.2672 310.585 67.1775 311.217 67.1775ZM66.785 117.737C65.5205 117.737 64.4055 117.476 63.44 116.955C62.4745 116.434 61.7226 115.639 61.1843 114.571C60.646 113.503 60.3769 112.157 60.3769 110.534C60.3769 108.834 60.6588 107.445 61.2228 106.369C61.7952 105.284 62.5813 104.48 63.581 103.959C64.5806 103.438 65.717 103.177 66.9901 103.177C67.6907 103.177 68.3657 103.25 69.0151 103.395C69.673 103.532 70.2113 103.707 70.6299 103.921L69.9891 105.702C69.5619 105.531 69.0663 105.378 68.5024 105.241C67.947 105.104 67.4258 105.036 66.9388 105.036C65.9648 105.036 65.1531 105.245 64.5037 105.664C63.8629 106.083 63.3802 106.698 63.0555 107.509C62.7394 108.321 62.5813 109.321 62.5813 110.508C62.5813 111.645 62.7351 112.615 63.0427 113.418C63.3588 114.221 63.8245 114.836 64.4397 115.263C65.0634 115.682 65.8409 115.891 66.7722 115.891C67.5156 115.891 68.1863 115.814 68.7844 115.661C69.3825 115.498 69.925 115.31 70.412 115.097V116.993C69.9421 117.233 69.4166 117.416 68.8356 117.545C68.2632 117.673 67.5796 117.737 66.785 117.737ZM75.8846 117.48H73.7443V97.5383H75.8846V117.48ZM91.9818 103.434V117.48H90.2388L89.9312 115.507H89.8159C89.5254 115.994 89.1494 116.404 88.6881 116.737C88.2267 117.07 87.7055 117.318 87.1245 117.48C86.552 117.651 85.9411 117.737 85.2917 117.737C84.181 117.737 83.2497 117.557 82.4978 117.199C81.7459 116.84 81.1777 116.284 80.7932 115.532C80.4173 114.781 80.2293 113.815 80.2293 112.636V103.434H82.3824V112.482C82.3824 113.653 82.6473 114.528 83.1771 115.109C83.7068 115.682 84.5142 115.968 85.5993 115.968C86.6417 115.968 87.4705 115.772 88.0857 115.379C88.7094 114.986 89.158 114.409 89.4314 113.648C89.7048 112.879 89.8415 111.94 89.8415 110.829V103.434H91.9818ZM98.6079 97.5383V102.524C98.6079 103.096 98.5908 103.652 98.5566 104.19C98.531 104.728 98.5096 105.147 98.4925 105.446H98.6079C98.9924 104.814 99.5477 104.28 100.274 103.844C101 103.408 101.927 103.19 103.055 103.19C104.815 103.19 106.216 103.801 107.259 105.023C108.31 106.236 108.835 108.043 108.835 110.444C108.835 112.025 108.596 113.358 108.118 114.443C107.639 115.528 106.964 116.348 106.093 116.904C105.221 117.459 104.191 117.737 103.004 117.737C101.893 117.737 100.979 117.532 100.261 117.122C99.552 116.703 99.0052 116.195 98.6207 115.596H98.4541L98.0183 117.48H96.4804V97.5383H98.6079ZM102.709 104.972C101.692 104.972 100.885 105.173 100.287 105.574C99.6887 105.967 99.2572 106.565 98.9924 107.368C98.736 108.163 98.6079 109.171 98.6079 110.393V110.508C98.6079 112.277 98.9026 113.631 99.4922 114.571C100.082 115.502 101.154 115.968 102.709 115.968C104.016 115.968 104.995 115.49 105.644 114.533C106.302 113.576 106.631 112.209 106.631 110.432C106.631 108.62 106.306 107.257 105.657 106.343C105.016 105.429 104.033 104.972 102.709 104.972ZM125.625 105.1H122.126V117.48H119.998V105.1H117.512V104.075L119.998 103.37V102.434C119.998 101.255 120.173 100.298 120.524 99.5633C120.874 98.82 121.382 98.2731 122.049 97.9228C122.715 97.5725 123.527 97.3974 124.484 97.3974C125.022 97.3974 125.514 97.4443 125.958 97.5383C126.411 97.6323 126.808 97.7391 127.15 97.8587L126.599 99.5377C126.308 99.4437 125.979 99.3582 125.612 99.2813C125.253 99.1959 124.886 99.1532 124.51 99.1532C123.698 99.1532 123.096 99.4181 122.702 99.9478C122.318 100.469 122.126 101.289 122.126 102.409V103.434H125.625V105.1ZM133.622 103.177C134.818 103.177 135.843 103.442 136.698 103.972C137.552 104.502 138.206 105.245 138.659 106.202C139.112 107.151 139.338 108.261 139.338 109.534V110.854H129.636C129.662 112.503 130.072 113.759 130.866 114.622C131.661 115.485 132.78 115.917 134.224 115.917C135.113 115.917 135.899 115.836 136.583 115.673C137.266 115.511 137.975 115.272 138.71 114.956V116.827C138.001 117.143 137.296 117.374 136.595 117.519C135.903 117.664 135.083 117.737 134.135 117.737C132.785 117.737 131.606 117.463 130.597 116.917C129.598 116.361 128.82 115.549 128.265 114.481C127.709 113.413 127.432 112.106 127.432 110.56C127.432 109.047 127.684 107.74 128.188 106.638C128.7 105.527 129.418 104.673 130.341 104.075C131.272 103.477 132.366 103.177 133.622 103.177ZM133.596 104.921C132.46 104.921 131.554 105.292 130.879 106.036C130.204 106.779 129.803 107.817 129.675 109.15H137.108C137.099 108.313 136.967 107.578 136.711 106.945C136.463 106.305 136.083 105.809 135.57 105.459C135.057 105.1 134.399 104.921 133.596 104.921ZM148.207 103.203C149.882 103.203 151.125 103.579 151.936 104.331C152.748 105.083 153.154 106.283 153.154 107.932V117.48H151.603L151.193 115.404H151.091C150.698 115.917 150.287 116.348 149.86 116.699C149.433 117.04 148.937 117.301 148.373 117.48C147.818 117.651 147.135 117.737 146.323 117.737C145.468 117.737 144.708 117.587 144.042 117.288C143.384 116.989 142.862 116.536 142.478 115.93C142.102 115.323 141.914 114.554 141.914 113.623C141.914 112.222 142.469 111.145 143.58 110.393C144.691 109.641 146.383 109.231 148.655 109.163L151.078 109.06V108.201C151.078 106.988 150.817 106.138 150.296 105.651C149.775 105.164 149.04 104.921 148.092 104.921C147.357 104.921 146.656 105.027 145.99 105.241C145.323 105.455 144.691 105.707 144.093 105.997L143.439 104.382C144.071 104.058 144.798 103.78 145.618 103.549C146.438 103.318 147.301 103.203 148.207 103.203ZM151.052 110.56L148.912 110.649C147.16 110.718 145.926 111.004 145.208 111.508C144.49 112.012 144.131 112.726 144.131 113.648C144.131 114.452 144.375 115.045 144.862 115.43C145.349 115.814 145.994 116.007 146.797 116.007C148.045 116.007 149.066 115.661 149.86 114.968C150.655 114.276 151.052 113.238 151.052 111.854V110.56ZM162.074 115.994C162.424 115.994 162.783 115.964 163.151 115.904C163.518 115.844 163.817 115.772 164.048 115.686V117.339C163.8 117.451 163.454 117.545 163.01 117.621C162.574 117.698 162.147 117.737 161.728 117.737C160.985 117.737 160.31 117.609 159.703 117.352C159.096 117.087 158.609 116.643 158.242 116.019C157.883 115.396 157.704 114.533 157.704 113.431V105.1H155.704V104.062L157.717 103.229L158.562 100.178H159.844V103.434H163.958V105.1H159.844V113.366C159.844 114.246 160.045 114.904 160.446 115.34C160.857 115.776 161.399 115.994 162.074 115.994ZM178.492 103.434V117.48H176.749L176.441 115.507H176.326C176.035 115.994 175.659 116.404 175.198 116.737C174.737 117.07 174.215 117.318 173.634 117.48C173.062 117.651 172.451 117.737 171.802 117.737C170.691 117.737 169.76 117.557 169.008 117.199C168.256 116.84 167.688 116.284 167.303 115.532C166.927 114.781 166.739 113.815 166.739 112.636V103.434H168.892V112.482C168.892 113.653 169.157 114.528 169.687 115.109C170.217 115.682 171.024 115.968 172.109 115.968C173.152 115.968 173.98 115.772 174.596 115.379C175.219 114.986 175.668 114.409 175.941 113.648C176.215 112.879 176.351 111.94 176.351 110.829V103.434H178.492ZM189.373 103.177C189.655 103.177 189.95 103.195 190.257 103.229C190.565 103.254 190.838 103.293 191.077 103.344L190.808 105.318C190.578 105.258 190.321 105.211 190.039 105.177C189.757 105.143 189.492 105.126 189.245 105.126C188.681 105.126 188.147 105.241 187.643 105.472C187.147 105.694 186.711 106.018 186.335 106.446C185.959 106.864 185.665 107.373 185.451 107.971C185.237 108.56 185.131 109.218 185.131 109.944V117.48H182.99V103.434H184.759L184.99 106.023H185.079C185.37 105.502 185.72 105.027 186.13 104.6C186.54 104.164 187.015 103.818 187.553 103.562C188.1 103.306 188.706 103.177 189.373 103.177ZM199.139 103.177C200.335 103.177 201.36 103.442 202.215 103.972C203.069 104.502 203.723 105.245 204.176 106.202C204.628 107.151 204.855 108.261 204.855 109.534V110.854H195.153C195.179 112.503 195.589 113.759 196.383 114.622C197.178 115.485 198.297 115.917 199.741 115.917C200.63 115.917 201.416 115.836 202.099 115.673C202.783 115.511 203.492 115.272 204.227 114.956V116.827C203.518 117.143 202.813 117.374 202.112 117.519C201.42 117.664 200.6 117.737 199.651 117.737C198.301 117.737 197.122 117.463 196.114 116.917C195.114 116.361 194.337 115.549 193.782 114.481C193.226 113.413 192.949 112.106 192.949 110.56C192.949 109.047 193.201 107.74 193.705 106.638C194.217 105.527 194.935 104.673 195.858 104.075C196.789 103.477 197.883 103.177 199.139 103.177ZM199.113 104.921C197.977 104.921 197.071 105.292 196.396 106.036C195.721 106.779 195.32 107.817 195.191 109.15H202.625C202.616 108.313 202.484 107.578 202.228 106.945C201.98 106.305 201.6 105.809 201.087 105.459C200.574 105.1 199.916 104.921 199.113 104.921ZM219.824 115.994C220.175 115.994 220.533 115.964 220.901 115.904C221.268 115.844 221.567 115.772 221.798 115.686V117.339C221.55 117.451 221.204 117.545 220.76 117.621C220.324 117.698 219.897 117.737 219.478 117.737C218.735 117.737 218.06 117.609 217.453 117.352C216.847 117.087 216.36 116.643 215.992 116.019C215.633 115.396 215.454 114.533 215.454 113.431V105.1H213.455V104.062L215.467 103.229L216.313 100.178H217.594V103.434H221.708V105.1H217.594V113.366C217.594 114.246 217.795 114.904 218.197 115.34C218.607 115.776 219.149 115.994 219.824 115.994ZM236.755 110.432C236.755 111.585 236.605 112.615 236.306 113.52C236.007 114.426 235.575 115.191 235.012 115.814C234.448 116.438 233.764 116.917 232.961 117.25C232.166 117.574 231.265 117.737 230.257 117.737C229.317 117.737 228.454 117.574 227.668 117.25C226.89 116.917 226.215 116.438 225.643 115.814C225.079 115.191 224.639 114.426 224.323 113.52C224.015 112.615 223.861 111.585 223.861 110.432C223.861 108.894 224.122 107.586 224.643 106.51C225.164 105.425 225.908 104.6 226.873 104.036C227.847 103.464 229.005 103.177 230.346 103.177C231.628 103.177 232.747 103.464 233.704 104.036C234.67 104.609 235.417 105.437 235.947 106.523C236.485 107.599 236.755 108.902 236.755 110.432ZM226.066 110.432C226.066 111.559 226.215 112.538 226.514 113.366C226.813 114.195 227.275 114.836 227.899 115.289C228.522 115.742 229.325 115.968 230.308 115.968C231.282 115.968 232.081 115.742 232.705 115.289C233.337 114.836 233.803 114.195 234.102 113.366C234.401 112.538 234.55 111.559 234.55 110.432C234.55 109.312 234.401 108.347 234.102 107.535C233.803 106.715 233.341 106.083 232.717 105.638C232.094 105.194 231.286 104.972 230.295 104.972C228.834 104.972 227.762 105.455 227.078 106.42C226.403 107.386 226.066 108.723 226.066 110.432ZM256.338 113.636C256.338 114.533 256.111 115.289 255.659 115.904C255.214 116.511 254.573 116.968 253.736 117.275C252.907 117.583 251.916 117.737 250.763 117.737C249.78 117.737 248.93 117.66 248.212 117.506C247.495 117.352 246.867 117.134 246.328 116.852V114.892C246.901 115.174 247.584 115.43 248.379 115.661C249.174 115.891 249.985 116.007 250.814 116.007C252.027 116.007 252.907 115.81 253.454 115.417C254.001 115.024 254.274 114.49 254.274 113.815C254.274 113.431 254.163 113.093 253.941 112.803C253.728 112.503 253.364 112.217 252.852 111.944C252.339 111.662 251.63 111.354 250.724 111.021C249.827 110.679 249.05 110.342 248.392 110.009C247.742 109.667 247.238 109.252 246.879 108.765C246.529 108.278 246.354 107.646 246.354 106.869C246.354 105.681 246.832 104.771 247.789 104.139C248.755 103.498 250.019 103.177 251.583 103.177C252.429 103.177 253.219 103.263 253.954 103.434C254.697 103.596 255.389 103.818 256.03 104.1L255.313 105.805C254.732 105.557 254.112 105.348 253.454 105.177C252.796 105.006 252.126 104.921 251.442 104.921C250.459 104.921 249.703 105.083 249.174 105.408C248.652 105.732 248.392 106.177 248.392 106.74C248.392 107.176 248.511 107.535 248.751 107.817C248.998 108.099 249.391 108.364 249.93 108.612C250.468 108.859 251.177 109.15 252.057 109.483C252.937 109.808 253.698 110.145 254.339 110.496C254.979 110.837 255.471 111.256 255.812 111.752C256.163 112.239 256.338 112.867 256.338 113.636ZM261.887 97.5383V103.498C261.887 103.84 261.879 104.186 261.862 104.536C261.845 104.878 261.815 105.194 261.772 105.484H261.913C262.203 104.989 262.571 104.574 263.015 104.241C263.468 103.899 263.981 103.643 264.553 103.472C265.126 103.293 265.732 103.203 266.373 103.203C267.501 103.203 268.441 103.383 269.193 103.741C269.953 104.1 270.521 104.656 270.897 105.408C271.282 106.159 271.474 107.133 271.474 108.33V117.48H269.372V108.471C269.372 107.3 269.103 106.424 268.565 105.843C268.035 105.262 267.219 104.972 266.117 104.972C265.074 104.972 264.241 105.173 263.618 105.574C263.002 105.967 262.558 106.548 262.285 107.317C262.02 108.086 261.887 109.026 261.887 110.137V117.48H259.76V97.5383H261.887ZM281.112 103.203C282.786 103.203 284.03 103.579 284.841 104.331C285.653 105.083 286.059 106.283 286.059 107.932V117.48H284.508L284.098 115.404H283.995C283.602 115.917 283.192 116.348 282.765 116.699C282.338 117.04 281.842 117.301 281.278 117.48C280.723 117.651 280.039 117.737 279.228 117.737C278.373 117.737 277.613 117.587 276.946 117.288C276.289 116.989 275.767 116.536 275.383 115.93C275.007 115.323 274.819 114.554 274.819 113.623C274.819 112.222 275.374 111.145 276.485 110.393C277.596 109.641 279.288 109.231 281.56 109.163L283.983 109.06V108.201C283.983 106.988 283.722 106.138 283.201 105.651C282.68 105.164 281.945 104.921 280.996 104.921C280.262 104.921 279.561 105.027 278.895 105.241C278.228 105.455 277.596 105.707 276.998 105.997L276.344 104.382C276.976 104.058 277.703 103.78 278.523 103.549C279.343 103.318 280.206 103.203 281.112 103.203ZM283.957 110.56L281.817 110.649C280.065 110.718 278.83 111.004 278.113 111.508C277.395 112.012 277.036 112.726 277.036 113.648C277.036 114.452 277.28 115.045 277.767 115.43C278.254 115.814 278.899 116.007 279.702 116.007C280.949 116.007 281.97 115.661 282.765 114.968C283.56 114.276 283.957 113.238 283.957 111.854V110.56ZM296.825 103.177C297.106 103.177 297.401 103.195 297.709 103.229C298.016 103.254 298.29 103.293 298.529 103.344L298.26 105.318C298.029 105.258 297.773 105.211 297.491 105.177C297.209 105.143 296.944 105.126 296.696 105.126C296.132 105.126 295.598 105.241 295.094 105.472C294.599 105.694 294.163 106.018 293.787 106.446C293.411 106.864 293.116 107.373 292.903 107.971C292.689 108.56 292.582 109.218 292.582 109.944V117.48H290.442V103.434H292.211L292.441 106.023H292.531C292.822 105.502 293.172 105.027 293.582 104.6C293.992 104.164 294.466 103.818 295.005 103.562C295.551 103.306 296.158 103.177 296.825 103.177ZM306.591 103.177C307.787 103.177 308.812 103.442 309.666 103.972C310.521 104.502 311.174 105.245 311.627 106.202C312.08 107.151 312.307 108.261 312.307 109.534V110.854H302.605C302.63 112.503 303.04 113.759 303.835 114.622C304.63 115.485 305.749 115.917 307.193 115.917C308.081 115.917 308.868 115.836 309.551 115.673C310.235 115.511 310.944 115.272 311.679 114.956V116.827C310.969 117.143 310.265 117.374 309.564 117.519C308.872 117.664 308.052 117.737 307.103 117.737C305.753 117.737 304.574 117.463 303.566 116.917C302.566 116.361 301.789 115.549 301.233 114.481C300.678 113.413 300.4 112.106 300.4 110.56C300.4 109.047 300.652 107.74 301.156 106.638C301.669 105.527 302.387 104.673 303.31 104.075C304.241 103.477 305.335 103.177 306.591 103.177ZM306.565 104.921C305.429 104.921 304.523 105.292 303.848 106.036C303.173 106.779 302.771 107.817 302.643 109.15H310.077C310.068 108.313 309.936 107.578 309.679 106.945C309.431 106.305 309.051 105.809 308.539 105.459C308.026 105.1 307.368 104.921 306.565 104.921ZM70.7068 139.177C70.9888 139.177 71.2835 139.195 71.5911 139.229C71.8987 139.254 72.1721 139.293 72.4114 139.344L72.1422 141.318C71.9115 141.258 71.6552 141.211 71.3733 141.177C71.0913 141.143 70.8264 141.126 70.5786 141.126C70.0147 141.126 69.4807 141.241 68.9766 141.472C68.481 141.694 68.0453 142.018 67.6694 142.446C67.2934 142.864 66.9986 143.373 66.785 143.971C66.5714 144.56 66.4646 145.218 66.4646 145.944V153.48H64.3243V139.434H66.0929L66.3236 142.023H66.4134C66.7039 141.502 67.0542 141.027 67.4643 140.6C67.8744 140.164 68.3486 139.818 68.8869 139.562C69.4337 139.306 70.0404 139.177 70.7068 139.177ZM80.4728 139.177C81.669 139.177 82.6943 139.442 83.5487 139.972C84.4031 140.502 85.0568 141.245 85.5096 142.202C85.9625 143.151 86.1889 144.261 86.1889 145.534V146.854H76.487C76.5126 148.503 76.9227 149.759 77.7173 150.622C78.5119 151.485 79.6312 151.917 81.0752 151.917C81.9638 151.917 82.7498 151.836 83.4334 151.673C84.1169 151.511 84.8261 151.272 85.5609 150.956V152.827C84.8517 153.143 84.1468 153.374 83.4462 153.519C82.7541 153.664 81.9339 153.737 80.9855 153.737C79.6355 153.737 78.4564 153.463 77.4482 152.917C76.4485 152.361 75.671 151.549 75.1156 150.481C74.5602 149.413 74.2826 148.106 74.2826 146.56C74.2826 145.047 74.5346 143.74 75.0387 142.638C75.5514 141.527 76.2691 140.673 77.1918 140.075C78.1232 139.477 79.2168 139.177 80.4728 139.177ZM80.4472 140.921C79.3108 140.921 78.4051 141.292 77.7301 142.036C77.0551 142.779 76.6536 143.817 76.5254 145.15H83.9588C83.9503 144.313 83.8179 143.578 83.5615 142.945C83.3138 142.305 82.9335 141.809 82.4209 141.459C81.9082 141.1 81.2503 140.921 80.4472 140.921ZM92.8918 153.48L87.5602 139.434H89.8415L92.9302 147.931C93.1439 148.512 93.3617 149.153 93.5839 149.853C93.806 150.554 93.9598 151.118 94.0453 151.545H94.135C94.2375 151.118 94.4084 150.554 94.6476 149.853C94.8869 149.144 95.1047 148.503 95.3013 147.931L98.39 139.434H100.671L95.3269 153.48H92.8918ZM105.054 139.434V153.48H102.927V139.434H105.054ZM104.016 134.179C104.367 134.179 104.666 134.294 104.913 134.525C105.17 134.747 105.298 135.098 105.298 135.576C105.298 136.046 105.17 136.396 104.913 136.627C104.666 136.858 104.367 136.973 104.016 136.973C103.649 136.973 103.341 136.858 103.094 136.627C102.854 136.396 102.735 136.046 102.735 135.576C102.735 135.098 102.854 134.747 103.094 134.525C103.341 134.294 103.649 134.179 104.016 134.179ZM114.974 139.177C116.17 139.177 117.196 139.442 118.05 139.972C118.905 140.502 119.558 141.245 120.011 142.202C120.464 143.151 120.69 144.261 120.69 145.534V146.854H110.988C111.014 148.503 111.424 149.759 112.219 150.622C113.013 151.485 114.133 151.917 115.577 151.917C116.465 151.917 117.251 151.836 117.935 151.673C118.618 151.511 119.328 151.272 120.062 150.956V152.827C119.353 153.143 118.648 153.374 117.948 153.519C117.256 153.664 116.435 153.737 115.487 153.737C114.137 153.737 112.958 153.463 111.95 152.917C110.95 152.361 110.172 151.549 109.617 150.481C109.062 149.413 108.784 148.106 108.784 146.56C108.784 145.047 109.036 143.74 109.54 142.638C110.053 141.527 110.771 140.673 111.693 140.075C112.625 139.477 113.718 139.177 114.974 139.177ZM114.949 140.921C113.812 140.921 112.907 141.292 112.232 142.036C111.557 142.779 111.155 143.817 111.027 145.15H118.46C118.452 144.313 118.319 143.578 118.063 142.945C117.815 142.305 117.435 141.809 116.922 141.459C116.41 141.1 115.752 140.921 114.949 140.921ZM135.737 153.455L133.237 145.278C133.126 144.928 133.02 144.586 132.917 144.253C132.823 143.911 132.733 143.586 132.648 143.279C132.571 142.963 132.498 142.672 132.43 142.407C132.37 142.134 132.319 141.899 132.276 141.702H132.187C132.152 141.899 132.105 142.134 132.046 142.407C131.986 142.672 131.913 142.963 131.828 143.279C131.751 143.595 131.665 143.928 131.571 144.278C131.477 144.62 131.371 144.966 131.251 145.316L128.636 153.455H126.24L122.369 139.408H124.574L126.599 147.162C126.735 147.675 126.863 148.183 126.983 148.687C127.111 149.183 127.218 149.653 127.304 150.097C127.398 150.533 127.466 150.913 127.509 151.238H127.611C127.662 151.024 127.718 150.768 127.778 150.469C127.846 150.17 127.919 149.853 127.996 149.52C128.081 149.178 128.171 148.841 128.265 148.508C128.359 148.166 128.453 147.846 128.547 147.547L131.136 139.408H133.43L135.929 147.534C136.057 147.944 136.181 148.371 136.301 148.815C136.429 149.26 136.544 149.691 136.647 150.11C136.749 150.52 136.822 150.887 136.864 151.212H136.967C137.001 150.921 137.065 150.563 137.159 150.135C137.253 149.708 137.36 149.238 137.48 148.726C137.608 148.213 137.74 147.692 137.877 147.162L139.928 139.408H142.094L138.21 153.455H135.737ZM153.744 149.636C153.744 150.533 153.517 151.289 153.064 151.904C152.62 152.511 151.979 152.968 151.142 153.275C150.313 153.583 149.322 153.737 148.168 153.737C147.186 153.737 146.336 153.66 145.618 153.506C144.9 153.352 144.272 153.134 143.734 152.852V150.892C144.306 151.174 144.99 151.43 145.785 151.661C146.579 151.891 147.391 152.007 148.22 152.007C149.433 152.007 150.313 151.81 150.86 151.417C151.407 151.024 151.68 150.49 151.68 149.815C151.68 149.431 151.569 149.093 151.347 148.803C151.133 148.503 150.77 148.217 150.257 147.944C149.745 147.662 149.036 147.354 148.13 147.021C147.233 146.679 146.455 146.342 145.797 146.009C145.148 145.667 144.644 145.252 144.285 144.765C143.935 144.278 143.76 143.646 143.76 142.869C143.76 141.681 144.238 140.771 145.195 140.139C146.161 139.498 147.425 139.177 148.989 139.177C149.835 139.177 150.625 139.263 151.36 139.434C152.103 139.596 152.795 139.818 153.436 140.1L152.718 141.805C152.137 141.557 151.518 141.348 150.86 141.177C150.202 141.006 149.531 140.921 148.848 140.921C147.865 140.921 147.109 141.083 146.579 141.408C146.058 141.732 145.797 142.177 145.797 142.74C145.797 143.176 145.917 143.535 146.156 143.817C146.404 144.099 146.797 144.364 147.335 144.612C147.874 144.859 148.583 145.15 149.463 145.483C150.343 145.808 151.103 146.145 151.744 146.496C152.385 146.837 152.876 147.256 153.218 147.752C153.568 148.239 153.744 148.867 153.744 149.636ZM169.238 139.203C170.913 139.203 172.156 139.579 172.968 140.331C173.78 141.083 174.185 142.283 174.185 143.932V153.48H172.635L172.225 151.404H172.122C171.729 151.917 171.319 152.348 170.892 152.699C170.464 153.04 169.969 153.301 169.405 153.48C168.85 153.651 168.166 153.737 167.354 153.737C166.5 153.737 165.74 153.587 165.073 153.288C164.415 152.989 163.894 152.536 163.51 151.93C163.134 151.323 162.946 150.554 162.946 149.623C162.946 148.222 163.501 147.145 164.612 146.393C165.722 145.641 167.414 145.231 169.687 145.163L172.109 145.06V144.201C172.109 142.988 171.849 142.138 171.327 141.651C170.806 141.164 170.071 140.921 169.123 140.921C168.388 140.921 167.688 141.027 167.021 141.241C166.355 141.455 165.722 141.707 165.124 141.997L164.471 140.382C165.103 140.058 165.829 139.78 166.65 139.549C167.47 139.318 168.333 139.203 169.238 139.203ZM172.084 146.56L169.943 146.649C168.192 146.718 166.957 147.004 166.239 147.508C165.522 148.012 165.163 148.726 165.163 149.648C165.163 150.452 165.406 151.045 165.893 151.43C166.38 151.814 167.025 152.007 167.829 152.007C169.076 152.007 170.097 151.661 170.892 150.968C171.686 150.276 172.084 149.238 172.084 147.854V146.56ZM185.22 139.177C186.886 139.177 188.147 139.588 189.001 140.408C189.856 141.22 190.283 142.527 190.283 144.33V153.48H188.181V144.471C188.181 143.3 187.912 142.424 187.373 141.843C186.844 141.262 186.028 140.972 184.926 140.972C183.37 140.972 182.277 141.412 181.645 142.292C181.012 143.172 180.696 144.449 180.696 146.124V153.48H178.569V139.434H180.286L180.606 141.459H180.722C181.021 140.963 181.401 140.549 181.862 140.216C182.324 139.874 182.841 139.618 183.413 139.447C183.986 139.267 184.588 139.177 185.22 139.177ZM199.664 153.737C197.887 153.737 196.477 153.13 195.435 151.917C194.401 150.704 193.884 148.901 193.884 146.508C193.884 144.09 194.414 142.266 195.473 141.036C196.533 139.797 197.943 139.177 199.703 139.177C200.446 139.177 201.095 139.276 201.651 139.472C202.206 139.669 202.685 139.934 203.086 140.267C203.488 140.592 203.825 140.963 204.099 141.382H204.252C204.218 141.117 204.184 140.754 204.15 140.293C204.116 139.831 204.099 139.455 204.099 139.165V133.538H206.226V153.48H204.509L204.188 151.481H204.099C203.834 151.9 203.496 152.28 203.086 152.622C202.685 152.964 202.202 153.237 201.638 153.442C201.083 153.639 200.425 153.737 199.664 153.737ZM199.997 151.968C201.501 151.968 202.565 151.541 203.189 150.687C203.812 149.832 204.124 148.563 204.124 146.88V146.496C204.124 144.71 203.825 143.339 203.227 142.382C202.638 141.425 201.561 140.946 199.997 140.946C198.69 140.946 197.712 141.45 197.063 142.458C196.413 143.458 196.089 144.825 196.089 146.56C196.089 148.286 196.409 149.618 197.05 150.558C197.699 151.498 198.682 151.968 199.997 151.968ZM220.645 153.48L215.313 139.434H217.594L220.683 147.931C220.897 148.512 221.114 149.153 221.337 149.853C221.559 150.554 221.713 151.118 221.798 151.545H221.888C221.99 151.118 222.161 150.554 222.4 149.853C222.64 149.144 222.857 148.503 223.054 147.931L226.143 139.434H228.424L223.08 153.48H220.645ZM242.791 146.432C242.791 147.585 242.642 148.615 242.342 149.52C242.043 150.426 241.612 151.191 241.048 151.814C240.484 152.438 239.801 152.917 238.997 153.25C238.203 153.574 237.301 153.737 236.293 153.737C235.353 153.737 234.49 153.574 233.704 153.25C232.927 152.917 232.252 152.438 231.679 151.814C231.115 151.191 230.675 150.426 230.359 149.52C230.052 148.615 229.898 147.585 229.898 146.432C229.898 144.894 230.158 143.586 230.68 142.51C231.201 141.425 231.944 140.6 232.91 140.036C233.884 139.464 235.041 139.177 236.383 139.177C237.665 139.177 238.784 139.464 239.741 140.036C240.706 140.609 241.454 141.437 241.984 142.523C242.522 143.599 242.791 144.902 242.791 146.432ZM232.102 146.432C232.102 147.559 232.252 148.538 232.551 149.366C232.85 150.195 233.311 150.836 233.935 151.289C234.559 151.742 235.362 151.968 236.344 151.968C237.318 151.968 238.117 151.742 238.741 151.289C239.373 150.836 239.839 150.195 240.138 149.366C240.437 148.538 240.587 147.559 240.587 146.432C240.587 145.312 240.437 144.347 240.138 143.535C239.839 142.715 239.378 142.083 238.754 141.638C238.13 141.194 237.323 140.972 236.332 140.972C234.871 140.972 233.798 141.455 233.115 142.42C232.44 143.386 232.102 144.723 232.102 146.432ZM251.006 151.994C251.357 151.994 251.715 151.964 252.083 151.904C252.45 151.844 252.749 151.772 252.98 151.686V153.339C252.732 153.451 252.386 153.545 251.942 153.621C251.506 153.698 251.079 153.737 250.66 153.737C249.917 153.737 249.242 153.609 248.635 153.352C248.029 153.087 247.542 152.643 247.174 152.019C246.815 151.396 246.636 150.533 246.636 149.431V141.1H244.637V140.062L246.649 139.229L247.495 136.178H248.776V139.434H252.89V141.1H248.776V149.366C248.776 150.246 248.977 150.904 249.379 151.34C249.789 151.776 250.331 151.994 251.006 151.994ZM261.234 139.177C262.43 139.177 263.455 139.442 264.31 139.972C265.164 140.502 265.818 141.245 266.27 142.202C266.723 143.151 266.95 144.261 266.95 145.534V146.854H257.248C257.273 148.503 257.684 149.759 258.478 150.622C259.273 151.485 260.392 151.917 261.836 151.917C262.725 151.917 263.511 151.836 264.194 151.673C264.878 151.511 265.587 151.272 266.322 150.956V152.827C265.613 153.143 264.908 153.374 264.207 153.519C263.515 153.664 262.695 153.737 261.746 153.737C260.396 153.737 259.217 153.463 258.209 152.917C257.209 152.361 256.432 151.549 255.876 150.481C255.321 149.413 255.043 148.106 255.043 146.56C255.043 145.047 255.295 143.74 255.8 142.638C256.312 141.527 257.03 140.673 257.953 140.075C258.884 139.477 259.978 139.177 261.234 139.177ZM261.208 140.921C260.072 140.921 259.166 141.292 258.491 142.036C257.816 142.779 257.414 143.817 257.286 145.15H264.72C264.711 144.313 264.579 143.578 264.322 142.945C264.075 142.305 263.694 141.809 263.182 141.459C262.669 141.1 262.011 140.921 261.208 140.921ZM283.637 141.1H280.138V153.48H278.01V141.1H275.524V140.075L278.01 139.37V138.434C278.01 137.255 278.185 136.298 278.536 135.563C278.886 134.82 279.394 134.273 280.061 133.923C280.727 133.573 281.539 133.397 282.496 133.397C283.034 133.397 283.525 133.444 283.97 133.538C284.423 133.632 284.82 133.739 285.162 133.859L284.611 135.538C284.32 135.444 283.991 135.358 283.624 135.281C283.265 135.196 282.897 135.153 282.522 135.153C281.71 135.153 281.107 135.418 280.714 135.948C280.33 136.469 280.138 137.289 280.138 138.409V139.434H283.637V141.1ZM298.337 146.432C298.337 147.585 298.187 148.615 297.888 149.52C297.589 150.426 297.158 151.191 296.594 151.814C296.03 152.438 295.346 152.917 294.543 153.25C293.749 153.574 292.847 153.737 291.839 153.737C290.899 153.737 290.036 153.574 289.25 153.25C288.473 152.917 287.798 152.438 287.225 151.814C286.661 151.191 286.221 150.426 285.905 149.52C285.597 148.615 285.444 147.585 285.444 146.432C285.444 144.894 285.704 143.586 286.225 142.51C286.747 141.425 287.49 140.6 288.455 140.036C289.43 139.464 290.587 139.177 291.929 139.177C293.21 139.177 294.33 139.464 295.287 140.036C296.252 140.609 297 141.437 297.529 142.523C298.068 143.599 298.337 144.902 298.337 146.432ZM287.648 146.432C287.648 147.559 287.798 148.538 288.097 149.366C288.396 150.195 288.857 150.836 289.481 151.289C290.105 151.742 290.908 151.968 291.89 151.968C292.864 151.968 293.663 151.742 294.287 151.289C294.919 150.836 295.385 150.195 295.684 149.366C295.983 148.538 296.132 147.559 296.132 146.432C296.132 145.312 295.983 144.347 295.684 143.535C295.385 142.715 294.923 142.083 294.3 141.638C293.676 141.194 292.869 140.972 291.877 140.972C290.416 140.972 289.344 141.455 288.661 142.42C287.986 143.386 287.648 144.723 287.648 146.432ZM308.398 139.177C308.68 139.177 308.974 139.195 309.282 139.229C309.59 139.254 309.863 139.293 310.102 139.344L309.833 141.318C309.602 141.258 309.346 141.211 309.064 141.177C308.782 141.143 308.517 141.126 308.269 141.126C307.706 141.126 307.172 141.241 306.667 141.472C306.172 141.694 305.736 142.018 305.36 142.446C304.984 142.864 304.689 143.373 304.476 143.971C304.262 144.56 304.155 145.218 304.155 145.944V153.48H302.015V139.434H303.784L304.014 142.023H304.104C304.395 141.502 304.745 141.027 305.155 140.6C305.565 140.164 306.039 139.818 306.578 139.562C307.125 139.306 307.731 139.177 308.398 139.177ZM107.259 177.1H103.76V189.48H101.633V177.1H99.1461V176.075L101.633 175.37V174.434C101.633 173.255 101.808 172.298 102.158 171.563C102.508 170.82 103.017 170.273 103.683 169.923C104.35 169.573 105.161 169.397 106.118 169.397C106.656 169.397 107.148 169.444 107.592 169.538C108.045 169.632 108.442 169.739 108.784 169.859L108.233 171.538C107.942 171.444 107.613 171.358 107.246 171.281C106.887 171.196 106.52 171.153 106.144 171.153C105.332 171.153 104.73 171.418 104.337 171.948C103.952 172.469 103.76 173.289 103.76 174.409V175.434H107.259V177.1ZM115.102 175.203C116.777 175.203 118.02 175.579 118.832 176.331C119.644 177.083 120.05 178.283 120.05 179.932V189.48H118.499L118.089 187.404H117.986C117.593 187.917 117.183 188.348 116.756 188.699C116.329 189.04 115.833 189.301 115.269 189.48C114.714 189.651 114.03 189.737 113.218 189.737C112.364 189.737 111.604 189.587 110.937 189.288C110.279 188.989 109.758 188.536 109.374 187.93C108.998 187.323 108.81 186.554 108.81 185.623C108.81 184.222 109.365 183.145 110.476 182.393C111.586 181.641 113.278 181.231 115.551 181.163L117.973 181.06V180.201C117.973 178.988 117.713 178.138 117.191 177.651C116.67 177.164 115.935 176.921 114.987 176.921C114.252 176.921 113.552 177.027 112.885 177.241C112.219 177.455 111.586 177.707 110.988 177.997L110.335 176.382C110.967 176.058 111.693 175.78 112.514 175.549C113.334 175.318 114.197 175.203 115.102 175.203ZM117.948 182.56L115.807 182.649C114.056 182.718 112.821 183.004 112.103 183.508C111.386 184.012 111.027 184.726 111.027 185.648C111.027 186.452 111.27 187.045 111.757 187.43C112.244 187.814 112.889 188.007 113.693 188.007C114.94 188.007 115.961 187.661 116.756 186.968C117.55 186.276 117.948 185.238 117.948 183.854V182.56ZM127.521 189.48L122.19 175.434H124.471L127.56 183.931C127.773 184.512 127.991 185.153 128.213 185.853C128.436 186.554 128.589 187.118 128.675 187.545H128.765C128.867 187.118 129.038 186.554 129.277 185.853C129.516 185.144 129.734 184.503 129.931 183.931L133.02 175.434H135.301L129.956 189.48H127.521ZM149.668 182.432C149.668 183.585 149.518 184.615 149.219 185.52C148.92 186.426 148.489 187.191 147.925 187.814C147.361 188.438 146.677 188.917 145.874 189.25C145.08 189.574 144.178 189.737 143.17 189.737C142.23 189.737 141.367 189.574 140.581 189.25C139.804 188.917 139.129 188.438 138.556 187.814C137.992 187.191 137.552 186.426 137.236 185.52C136.929 184.615 136.775 183.585 136.775 182.432C136.775 180.894 137.035 179.586 137.557 178.51C138.078 177.425 138.821 176.6 139.787 176.036C140.761 175.464 141.918 175.177 143.26 175.177C144.541 175.177 145.661 175.464 146.618 176.036C147.583 176.609 148.331 177.437 148.861 178.523C149.399 179.599 149.668 180.902 149.668 182.432ZM138.979 182.432C138.979 183.559 139.129 184.538 139.428 185.366C139.727 186.195 140.188 186.836 140.812 187.289C141.436 187.742 142.239 187.968 143.221 187.968C144.195 187.968 144.994 187.742 145.618 187.289C146.25 186.836 146.716 186.195 147.015 185.366C147.314 184.538 147.464 183.559 147.464 182.432C147.464 181.312 147.314 180.347 147.015 179.535C146.716 178.715 146.255 178.083 145.631 177.638C145.007 177.194 144.2 176.972 143.209 176.972C141.747 176.972 140.675 177.455 139.992 178.42C139.317 179.386 138.979 180.723 138.979 182.432ZM159.729 175.177C160.011 175.177 160.305 175.195 160.613 175.229C160.921 175.254 161.194 175.293 161.433 175.344L161.164 177.318C160.933 177.258 160.677 177.211 160.395 177.177C160.113 177.143 159.848 177.126 159.601 177.126C159.037 177.126 158.503 177.241 157.999 177.472C157.503 177.694 157.067 178.018 156.691 178.446C156.315 178.864 156.021 179.373 155.807 179.971C155.593 180.56 155.487 181.218 155.487 181.944V189.48H153.346V175.434H155.115L155.346 178.023H155.435C155.726 177.502 156.076 177.027 156.486 176.6C156.896 176.164 157.371 175.818 157.909 175.562C158.456 175.306 159.062 175.177 159.729 175.177ZM166.214 175.434V189.48H164.086V175.434H166.214ZM165.176 170.179C165.526 170.179 165.825 170.294 166.073 170.525C166.329 170.747 166.457 171.098 166.457 171.576C166.457 172.046 166.329 172.396 166.073 172.627C165.825 172.858 165.526 172.973 165.176 172.973C164.808 172.973 164.501 172.858 164.253 172.627C164.014 172.396 163.894 172.046 163.894 171.576C163.894 171.098 164.014 170.747 164.253 170.525C164.501 170.294 164.808 170.179 165.176 170.179ZM175.262 187.994C175.612 187.994 175.971 187.964 176.339 187.904C176.706 187.844 177.005 187.772 177.236 187.686V189.339C176.988 189.451 176.642 189.545 176.198 189.621C175.762 189.698 175.335 189.737 174.916 189.737C174.173 189.737 173.498 189.609 172.891 189.352C172.284 189.087 171.797 188.643 171.43 188.019C171.071 187.396 170.892 186.533 170.892 185.431V177.1H168.892V176.062L170.905 175.229L171.75 172.178H173.032V175.434H177.146V177.1H173.032V185.366C173.032 186.246 173.233 186.904 173.634 187.34C174.045 187.776 174.587 187.994 175.262 187.994ZM185.489 175.177C186.686 175.177 187.711 175.442 188.565 175.972C189.42 176.502 190.073 177.245 190.526 178.202C190.979 179.151 191.206 180.261 191.206 181.534V182.854H181.504C181.529 184.503 181.939 185.759 182.734 186.622C183.529 187.485 184.648 187.917 186.092 187.917C186.98 187.917 187.766 187.836 188.45 187.673C189.134 187.511 189.843 187.272 190.578 186.956V188.827C189.868 189.143 189.163 189.374 188.463 189.519C187.771 189.664 186.951 189.737 186.002 189.737C184.652 189.737 183.473 189.463 182.465 188.917C181.465 188.361 180.688 187.549 180.132 186.481C179.577 185.413 179.299 184.106 179.299 182.56C179.299 181.047 179.551 179.74 180.055 178.638C180.568 177.527 181.286 176.673 182.208 176.075C183.14 175.477 184.233 175.177 185.489 175.177ZM185.464 176.921C184.327 176.921 183.422 177.292 182.747 178.036C182.072 178.779 181.67 179.817 181.542 181.15H188.975C188.967 180.313 188.834 179.578 188.578 178.945C188.33 178.305 187.95 177.809 187.438 177.459C186.925 177.1 186.267 176.921 185.464 176.921ZM203.765 175.434V189.48H201.638V175.434H203.765ZM202.727 170.179C203.078 170.179 203.377 170.294 203.624 170.525C203.881 170.747 204.009 171.098 204.009 171.576C204.009 172.046 203.881 172.396 203.624 172.627C203.377 172.858 203.078 172.973 202.727 172.973C202.36 172.973 202.052 172.858 201.805 172.627C201.565 172.396 201.446 172.046 201.446 171.576C201.446 171.098 201.565 170.747 201.805 170.525C202.052 170.294 202.36 170.179 202.727 170.179ZM212.814 187.994C213.164 187.994 213.523 187.964 213.89 187.904C214.258 187.844 214.557 187.772 214.787 187.686V189.339C214.54 189.451 214.194 189.545 213.749 189.621C213.314 189.698 212.886 189.737 212.468 189.737C211.724 189.737 211.049 189.609 210.443 189.352C209.836 189.087 209.349 188.643 208.982 188.019C208.623 187.396 208.443 186.533 208.443 185.431V177.1H206.444V176.062L208.456 175.229L209.302 172.178H210.584V175.434H214.698V177.1H210.584V185.366C210.584 186.246 210.785 186.904 211.186 187.34C211.596 187.776 212.139 187.994 212.814 187.994ZM223.041 175.177C224.237 175.177 225.263 175.442 226.117 175.972C226.971 176.502 227.625 177.245 228.078 178.202C228.531 179.151 228.757 180.261 228.757 181.534V182.854H219.055C219.081 184.503 219.491 185.759 220.286 186.622C221.08 187.485 222.2 187.917 223.644 187.917C224.532 187.917 225.318 187.836 226.002 187.673C226.685 187.511 227.394 187.272 228.129 186.956V188.827C227.42 189.143 226.715 189.374 226.015 189.519C225.322 189.664 224.502 189.737 223.554 189.737C222.204 189.737 221.025 189.463 220.017 188.917C219.017 188.361 218.239 187.549 217.684 186.481C217.129 185.413 216.851 184.106 216.851 182.56C216.851 181.047 217.103 179.74 217.607 178.638C218.12 177.527 218.837 176.673 219.76 176.075C220.692 175.477 221.785 175.177 223.041 175.177ZM223.016 176.921C221.879 176.921 220.973 177.292 220.298 178.036C219.623 178.779 219.222 179.817 219.094 181.15H226.527C226.519 180.313 226.386 179.578 226.13 178.945C225.882 178.305 225.502 177.809 224.989 177.459C224.477 177.1 223.819 176.921 223.016 176.921ZM247.623 175.177C249.169 175.177 250.336 175.583 251.122 176.395C251.908 177.198 252.301 178.493 252.301 180.278V189.48H250.199V180.381C250.199 179.245 249.951 178.394 249.456 177.83C248.969 177.258 248.242 176.972 247.277 176.972C245.918 176.972 244.931 177.365 244.316 178.151C243.701 178.937 243.393 180.095 243.393 181.624V189.48H241.279V180.381C241.279 179.62 241.168 178.988 240.946 178.484C240.732 177.98 240.407 177.604 239.971 177.356C239.544 177.1 239.002 176.972 238.344 176.972C237.412 176.972 236.665 177.164 236.101 177.549C235.537 177.933 235.127 178.505 234.871 179.266C234.623 180.018 234.499 180.945 234.499 182.047V189.48H232.371V175.434H234.089L234.409 177.42H234.525C234.807 176.933 235.161 176.523 235.588 176.19C236.016 175.857 236.494 175.605 237.024 175.434C237.553 175.263 238.117 175.177 238.715 175.177C239.784 175.177 240.676 175.378 241.394 175.78C242.12 176.173 242.646 176.775 242.97 177.587H243.086C243.547 176.775 244.179 176.173 244.983 175.78C245.786 175.378 246.666 175.177 247.623 175.177ZM265.758 185.636C265.758 186.533 265.531 187.289 265.079 187.904C264.634 188.511 263.993 188.968 263.156 189.275C262.327 189.583 261.336 189.737 260.183 189.737C259.2 189.737 258.35 189.66 257.632 189.506C256.915 189.352 256.287 189.134 255.748 188.852V186.892C256.321 187.174 257.004 187.43 257.799 187.661C258.594 187.891 259.405 188.007 260.234 188.007C261.447 188.007 262.327 187.81 262.874 187.417C263.421 187.024 263.694 186.49 263.694 185.815C263.694 185.431 263.583 185.093 263.361 184.803C263.148 184.503 262.784 184.217 262.272 183.944C261.759 183.662 261.05 183.354 260.144 183.021C259.247 182.679 258.47 182.342 257.812 182.009C257.162 181.667 256.658 181.252 256.299 180.765C255.949 180.278 255.774 179.646 255.774 178.869C255.774 177.681 256.252 176.771 257.209 176.139C258.175 175.498 259.439 175.177 261.003 175.177C261.849 175.177 262.639 175.263 263.374 175.434C264.117 175.596 264.809 175.818 265.45 176.1L264.733 177.805C264.152 177.557 263.532 177.348 262.874 177.177C262.216 177.006 261.546 176.921 260.862 176.921C259.879 176.921 259.123 177.083 258.594 177.408C258.072 177.732 257.812 178.177 257.812 178.74C257.812 179.176 257.931 179.535 258.171 179.817C258.418 180.099 258.811 180.364 259.35 180.612C259.888 180.859 260.597 181.15 261.477 181.483C262.357 181.808 263.118 182.145 263.758 182.496C264.399 182.837 264.891 183.256 265.232 183.752C265.583 184.239 265.758 184.867 265.758 185.636ZM268.859 188.148C268.859 187.549 269.005 187.127 269.295 186.879C269.586 186.622 269.94 186.494 270.359 186.494C270.795 186.494 271.162 186.622 271.461 186.879C271.76 187.127 271.91 187.549 271.91 188.148C271.91 188.737 271.76 189.169 271.461 189.442C271.162 189.707 270.795 189.839 270.359 189.839C269.94 189.839 269.586 189.707 269.295 189.442C269.005 189.169 268.859 188.737 268.859 188.148Z" fill="#767676"/>
<g clip-path="url(#clip0_787_2398)">
<path d="M417.137 19.2031H512.59C513.886 19.2046 515.128 19.7199 516.044 20.6361C516.961 21.5522 517.476 22.7943 517.477 24.09V165.633C517.476 166.928 516.961 168.17 516.044 169.086C515.128 170.003 513.886 170.518 512.59 170.519H417.137C415.841 170.518 414.599 170.003 413.683 169.086C412.767 168.17 412.251 166.928 412.25 165.633V24.0899C412.251 22.7943 412.767 21.5522 413.683 20.636C414.599 19.7199 415.841 19.2046 417.137 19.2031Z" fill="#F2F2F2"/>
<path d="M418.322 22.7559H511.406C512.074 22.7566 512.714 23.0221 513.186 23.494C513.658 23.966 513.923 24.6059 513.924 25.2733V164.447C513.923 165.114 513.658 165.754 513.186 166.226C512.714 166.698 512.074 166.963 511.406 166.964H418.322C417.655 166.963 417.015 166.698 416.543 166.226C416.071 165.754 415.805 165.114 415.805 164.447V25.2733C415.805 24.6059 416.071 23.966 416.543 23.494C417.015 23.0221 417.655 22.7566 418.322 22.7559Z" fill="white"/>
<path d="M483.011 74.738C483.011 83.685 474.738 82.3317 464.533 82.3317C454.328 82.3317 446.055 83.685 446.055 74.738C446.055 65.7909 450.096 49.9316 464.533 49.9316C479.467 49.9316 483.011 65.7909 483.011 74.738Z" fill="#2F2E41"/>
<path d="M504.745 150.472C505.115 149.769 505.327 148.992 505.364 148.198C505.402 147.404 505.265 146.611 504.964 145.876C504.662 145.14 504.202 144.48 503.618 143.941C503.033 143.402 502.337 142.998 501.58 142.757L480.41 97.9746L470.727 104.765L494.58 146.65C494.26 147.949 494.428 149.321 495.052 150.506C495.675 151.69 496.712 152.604 497.965 153.076C499.218 153.547 500.6 153.542 501.85 153.062C503.099 152.582 504.13 151.661 504.745 150.472Z" fill="#A0616A"/>
<path d="M486.322 101.909L485.112 100.015L484.494 99.0435L479.741 91.5914C479.009 89.9556 477.658 88.6766 475.985 88.0349C474.311 87.3932 472.452 87.441 470.814 88.1679C469.176 88.8949 467.892 90.2416 467.246 91.9129C466.599 93.5843 466.641 95.4439 467.363 97.0843L468.451 100.967L470.674 108.905C470.808 109.394 471.096 109.827 471.494 110.141C471.644 110.267 471.811 110.372 471.99 110.454C472.301 110.601 472.639 110.68 472.983 110.687C473.327 110.693 473.668 110.626 473.984 110.49C473.995 110.485 474.01 110.48 474.02 110.475L479.771 107.903L479.781 107.898L484.17 105.934L485.264 105.448C485.577 105.308 485.857 105.103 486.084 104.845C486.324 104.58 486.501 104.263 486.6 103.919C486.703 103.584 486.731 103.23 486.683 102.883C486.635 102.536 486.512 102.203 486.322 101.909Z" fill="#CCCCCC"/>
<path d="M455.985 165.402C455.77 165.045 455.467 164.749 455.106 164.542C454.744 164.336 454.335 164.225 453.918 164.221C453.502 164.217 453.091 164.319 452.725 164.519C452.359 164.719 452.051 165.009 451.829 165.361C451.733 165.506 451.656 165.662 451.601 165.827L451.312 166.622H456.719L455.985 165.402Z" fill="#2F2E41"/>
<path d="M464.411 81.8173C471.278 81.8173 476.845 76.2504 476.845 69.3833C476.845 62.5161 471.278 56.9492 464.411 56.9492C457.543 56.9492 451.977 62.5161 451.977 69.3833C451.977 76.2504 457.543 81.8173 464.411 81.8173Z" fill="#A0616A"/>
<path d="M486.209 106.161C486.179 105.715 486.138 105.275 486.088 104.844C485.908 103.209 485.583 101.592 485.115 100.015C485.019 99.6704 484.913 99.3363 484.796 99.0072C483.316 94.6448 480.744 90.7339 477.324 87.6469C475.97 86.4338 474.216 85.7631 472.398 85.7637H454.882C453.807 85.7638 452.744 85.9989 451.769 86.4526C450.794 86.9063 449.929 87.5676 449.236 88.3902C448.543 89.2129 448.038 90.177 447.757 91.2151C447.476 92.2533 447.425 93.3404 447.607 94.4003C447.602 94.4054 447.602 94.4054 447.607 94.4104C447.731 95.1181 447.958 95.8038 448.281 96.4456L448.989 97.858L453.738 107.355L459.646 119.171L459.99 119.86L482.007 125.914L482.098 125.707C482.179 125.525 482.265 125.337 482.341 125.155C482.463 124.882 482.579 124.608 482.696 124.34C484.656 119.88 485.848 115.119 486.219 110.261V110.256C486.302 108.892 486.299 107.524 486.209 106.161Z" fill="#3F3D56"/>
<path d="M482.695 124.341C482.62 124.083 482.502 123.84 482.345 123.622C481.778 122.864 481.101 122.195 480.335 121.637L480.33 121.632C477.662 119.607 472.367 117.248 462.136 117.188H462.12C461.652 117.188 461.193 117.323 460.799 117.577C460.405 117.831 460.092 118.193 459.898 118.62L459.645 119.172L458.015 122.756C457.876 123.063 457.657 123.327 457.382 123.521C454.795 125.353 442.265 135.63 449.621 158.194C450.34 160.396 451.079 162.801 451.828 165.362C451.95 165.778 452.071 166.198 452.193 166.623H474.245L473.774 163.079C473.743 162.848 473.755 162.613 473.81 162.386L482.684 125.763L482.725 125.606C482.826 125.189 482.816 124.753 482.695 124.341Z" fill="#2F2E41"/>
<path d="M489.613 83.3438H499.231C499.634 83.3438 500.02 83.5038 500.305 83.7886C500.59 84.0734 500.75 84.4597 500.75 84.8625V87.3938C500.884 87.3942 501.013 87.4476 501.108 87.5425C501.202 87.6373 501.256 87.7659 501.256 87.9V88.9125C501.256 89.0467 501.202 89.1752 501.108 89.27C501.013 89.3649 500.884 89.4184 500.75 89.4188V90.4313C500.884 90.4317 501.013 90.4852 501.108 90.58C501.202 90.6749 501.256 90.8034 501.256 90.9375V91.95C501.256 92.0842 501.202 92.2127 501.108 92.3075C501.013 92.4024 500.884 92.4559 500.75 92.4563V106.125C500.75 106.528 500.59 106.914 500.305 107.199C500.02 107.484 499.634 107.644 499.231 107.644H489.613C489.21 107.644 488.823 107.484 488.539 107.199C488.254 106.914 488.094 106.528 488.094 106.125V84.8625C488.094 84.4597 488.254 84.0734 488.539 83.7886C488.823 83.5038 489.21 83.3438 489.613 83.3438Z" fill="#3F3D56"/>
<path d="M489.106 106.125V84.8625C489.106 84.4597 489.266 84.0734 489.551 83.7886C489.836 83.5038 490.222 83.3438 490.625 83.3438H489.613C489.21 83.3438 488.823 83.5038 488.539 83.7886C488.254 84.0734 488.094 84.4597 488.094 84.8625V106.125C488.094 106.528 488.254 106.914 488.539 107.199C488.823 107.484 489.21 107.644 489.613 107.644H490.625C490.222 107.644 489.836 107.484 489.551 107.199C489.266 106.914 489.106 106.528 489.106 106.125Z" fill="#B8322E"/>
<path d="M494.173 92.4563C495.292 92.4563 496.198 91.5496 496.198 90.4313C496.198 89.3129 495.292 88.4062 494.173 88.4062C493.055 88.4062 492.148 89.3129 492.148 90.4313C492.148 91.5496 493.055 92.4563 494.173 92.4563Z" fill="white"/>
<path d="M491.603 97.5252C491.439 97.752 491.292 97.9914 491.165 98.2412L466.238 101.236L462.572 96.3608L454.492 100.931L460.143 110.192C460.599 110.94 461.286 111.52 462.1 111.845C462.914 112.169 463.812 112.221 464.658 111.992L492.23 104.532C493.013 105.274 494.004 105.76 495.071 105.925C496.137 106.09 497.229 105.927 498.2 105.457C499.171 104.986 499.976 104.231 500.508 103.292C501.04 102.353 501.273 101.275 501.177 100.2C501.081 99.1251 500.66 98.105 499.97 97.2753C499.28 96.4456 498.353 95.8457 497.314 95.5553C496.275 95.265 495.172 95.2979 494.151 95.6498C493.131 96.0017 492.242 96.6559 491.603 97.5252Z" fill="#A0616A"/>
<path d="M466.031 98.1161L459.045 89.0643C458.265 87.6694 456.987 86.6212 455.466 86.1302C453.945 85.6393 452.295 85.7419 450.847 86.4176C449.399 87.0933 448.26 88.2919 447.659 89.7726C447.059 91.2534 447.041 92.9066 447.609 94.4002C447.603 94.4053 447.603 94.4053 447.609 94.4103C447.713 94.6862 447.838 94.9536 447.983 95.2102L448.991 97.8579L452.053 105.933C452.169 106.239 452.35 106.517 452.583 106.747C452.817 106.976 453.097 107.153 453.405 107.264C453.514 107.304 453.626 107.334 453.739 107.355C454.27 107.464 454.822 107.377 455.294 107.112L457.511 105.872L465.338 101.498C465.622 101.336 465.869 101.116 466.062 100.851C466.255 100.587 466.39 100.284 466.456 99.9639C466.522 99.6434 466.518 99.3126 466.445 98.9938C466.371 98.675 466.23 98.3756 466.031 98.1161Z" fill="#3F3D56"/>
<path d="M450.102 71.7H455.019L457.189 64.2231L457.623 71.7H459.973L461.239 67.3385L461.492 71.7H478.958C478.958 62.753 473.065 55.5 465.795 55.5H463.264C455.995 55.5 450.102 62.753 450.102 71.7Z" fill="#2F2E41"/>
<path d="M594.322 62.1959H491.254C489.958 62.1945 488.716 61.6791 487.8 60.763C486.884 59.8468 486.369 58.6047 486.367 57.3091V4.88685C486.369 3.59122 486.884 2.34908 487.8 1.43293C488.716 0.516786 489.958 0.00145651 491.254 0H594.322C595.617 0.00145517 596.859 0.516786 597.775 1.43293C598.692 2.34908 599.207 3.59122 599.208 4.88685V57.3091C599.207 58.6047 598.692 59.8469 597.775 60.763C596.859 61.6791 595.617 62.1945 594.322 62.1959Z" fill="#CCCCCC"/>
<path d="M593.137 58.6425H492.439C491.772 58.6417 491.132 58.3763 490.66 57.9043C490.188 57.4324 489.923 56.7925 489.922 56.125V6.07214C489.923 5.4047 490.188 4.76481 490.66 4.29285C491.132 3.8209 491.772 3.55543 492.439 3.55469H593.137C593.805 3.55543 594.445 3.8209 594.917 4.29285C595.389 4.76481 595.654 5.4047 595.655 6.07214V56.125C595.654 56.7925 595.389 57.4324 594.917 57.9043C594.445 58.3763 593.805 58.6417 593.137 58.6425Z" fill="white"/>
<path d="M497.438 71.8329C497.188 71.8322 496.94 71.7822 496.71 71.6856C496.366 71.5473 496.071 71.3083 495.865 70.9998C495.659 70.6914 495.551 70.3279 495.555 69.9569V60.3221L510.074 59.9551L498.749 71.28C498.578 71.4543 498.374 71.593 498.149 71.6879C497.924 71.7828 497.682 71.8321 497.438 71.8329Z" fill="#CCCCCC"/>
<path d="M580.877 28.854H529.935C529.624 28.8544 529.315 28.7935 529.028 28.6746C528.74 28.5557 528.478 28.3813 528.258 28.1612C528.037 27.9412 527.862 27.6798 527.743 27.3921C527.624 27.1044 527.562 26.796 527.562 26.4846C527.562 26.1732 527.624 25.8648 527.743 25.5771C527.862 25.2894 528.037 25.028 528.258 24.808C528.478 24.5879 528.74 24.4135 529.028 24.2946C529.315 24.1757 529.624 24.1148 529.935 24.1152H580.877C581.505 24.1152 582.108 24.3649 582.552 24.8092C582.996 25.2536 583.246 25.8562 583.246 26.4846C583.246 27.113 582.996 27.7157 582.552 28.16C582.108 28.6043 581.505 28.854 580.877 28.854Z" fill="#CCCCCC"/>
<path d="M564.288 18.7837H529.932C529.303 18.7837 528.701 18.534 528.256 18.0897C527.812 17.6453 527.562 17.0427 527.562 16.4143C527.562 15.7859 527.812 15.1832 528.256 14.7389C528.701 14.2946 529.303 14.0449 529.932 14.0449H564.288C564.916 14.0449 565.519 14.2946 565.963 14.7389C566.407 15.1832 566.657 15.7859 566.657 16.4143C566.657 17.0427 566.407 17.6453 565.963 18.0897C565.519 18.534 564.916 18.7837 564.288 18.7837Z" fill="#CCCCCC"/>
<path d="M508.85 28.8535C512.939 28.8535 516.254 25.5385 516.254 21.4492C516.254 17.3599 512.939 14.0449 508.85 14.0449C504.76 14.0449 501.445 17.3599 501.445 21.4492C501.445 25.5385 504.76 28.8535 508.85 28.8535Z" fill="#B8322E"/>
<path d="M565.182 48.1508C566.49 48.1508 567.551 47.09 567.551 45.7815C567.551 44.4729 566.49 43.4121 565.182 43.4121C563.873 43.4121 562.812 44.4729 562.812 45.7815C562.812 47.09 563.873 48.1508 565.182 48.1508Z" fill="#E6E6E6"/>
<path d="M573.471 48.1508C574.78 48.1508 575.84 47.09 575.84 45.7815C575.84 44.4729 574.78 43.4121 573.471 43.4121C572.162 43.4121 571.102 44.4729 571.102 45.7815C571.102 47.09 572.162 48.1508 573.471 48.1508Z" fill="#E6E6E6"/>
<path d="M581.76 48.1508C583.069 48.1508 584.129 47.09 584.129 45.7815C584.129 44.4729 583.069 43.4121 581.76 43.4121C580.451 43.4121 579.391 44.4729 579.391 45.7815C579.391 47.09 580.451 48.1508 581.76 48.1508Z" fill="#E6E6E6"/>
<path d="M679.371 98.6836H774.825C776.12 98.6851 777.363 99.2004 778.279 100.117C779.195 101.033 779.71 102.275 779.712 103.57V245.113C779.71 246.409 779.195 247.651 778.279 248.567C777.363 249.483 776.12 249.998 774.825 250H679.371C678.076 249.998 676.833 249.483 675.917 248.567C675.001 247.651 674.486 246.409 674.484 245.113V103.57C674.486 102.275 675.001 101.033 675.917 100.117C676.833 99.2004 678.076 98.6851 679.371 98.6836Z" fill="#F2F2F2"/>
<path d="M680.557 102.238H773.641C774.308 102.239 774.948 102.504 775.42 102.976C775.892 103.448 776.158 104.088 776.158 104.756V243.929C776.158 244.596 775.892 245.236 775.42 245.708C774.948 246.18 774.308 246.446 773.641 246.446H680.557C679.889 246.446 679.249 246.18 678.777 245.708C678.305 245.236 678.04 244.596 678.039 243.929V104.756C678.04 104.088 678.305 103.448 678.777 102.976C679.249 102.504 679.889 102.239 680.557 102.238Z" fill="white"/>
<path d="M683.384 170.346H580.317C579.021 170.345 577.779 169.829 576.863 168.913C575.946 167.997 575.431 166.755 575.43 165.459V113.037C575.431 111.742 575.946 110.499 576.863 109.583C577.779 108.667 579.021 108.152 580.317 108.15H683.384C684.68 108.152 685.922 108.667 686.838 109.583C687.754 110.499 688.269 111.742 688.271 113.037V165.459C688.269 166.755 687.754 167.997 686.838 168.913C685.922 169.83 684.68 170.345 683.384 170.346Z" fill="#CCCCCC"/>
<path d="M682.2 166.793H581.502C580.834 166.792 580.195 166.527 579.723 166.055C579.251 165.583 578.985 164.943 578.984 164.275V114.223C578.985 113.555 579.251 112.915 579.723 112.443C580.195 111.971 580.834 111.706 581.502 111.705H682.2C682.867 111.706 683.507 111.971 683.979 112.443C684.451 112.915 684.717 113.555 684.717 114.223V164.275C684.717 164.943 684.451 165.583 683.979 166.055C683.507 166.527 682.867 166.792 682.2 166.793Z" fill="white"/>
<path d="M676.372 179.43L665.047 168.105L679.566 168.473V178.107C679.57 178.478 679.462 178.842 679.256 179.15C679.05 179.459 678.755 179.698 678.411 179.836C678.18 179.933 677.933 179.983 677.683 179.983C677.439 179.982 677.197 179.933 676.972 179.838C676.747 179.743 676.543 179.605 676.372 179.43Z" fill="#CCCCCC"/>
<path d="M669.939 137.004H618.998C618.686 137.005 618.378 136.944 618.09 136.825C617.802 136.706 617.541 136.532 617.32 136.312C617.1 136.092 616.925 135.83 616.806 135.543C616.686 135.255 616.625 134.946 616.625 134.635C616.625 134.324 616.686 134.015 616.806 133.727C616.925 133.44 617.1 133.178 617.32 132.958C617.541 132.738 617.802 132.564 618.09 132.445C618.378 132.326 618.686 132.265 618.998 132.266H669.939C670.251 132.265 670.559 132.326 670.847 132.445C671.135 132.564 671.396 132.738 671.617 132.958C671.837 133.178 672.012 133.44 672.131 133.727C672.251 134.015 672.312 134.324 672.312 134.635C672.312 134.946 672.251 135.255 672.131 135.543C672.012 135.83 671.837 136.092 671.617 136.312C671.396 136.532 671.135 136.706 670.847 136.825C670.559 136.944 670.251 137.005 669.939 137.004Z" fill="#CCCCCC"/>
<path d="M653.35 126.934H618.994C618.683 126.934 618.375 126.873 618.088 126.754C617.8 126.635 617.539 126.46 617.319 126.24C617.099 126.02 616.924 125.759 616.805 125.471C616.686 125.184 616.625 124.876 616.625 124.565C616.625 124.254 616.686 123.945 616.805 123.658C616.924 123.37 617.099 123.109 617.319 122.889C617.539 122.669 617.8 122.495 618.088 122.376C618.375 122.257 618.683 122.195 618.994 122.195H653.35C653.979 122.195 654.581 122.445 655.026 122.889C655.47 123.334 655.72 123.936 655.72 124.565C655.72 125.193 655.47 125.796 655.026 126.24C654.581 126.684 653.979 126.934 653.35 126.934Z" fill="#CCCCCC"/>
<path d="M597.912 137.004C602.001 137.004 605.316 133.689 605.316 129.6C605.316 125.51 602.001 122.195 597.912 122.195C593.823 122.195 590.508 125.51 590.508 129.6C590.508 133.689 593.823 137.004 597.912 137.004Z" fill="#B8322E"/>
<path d="M654.244 156.301C655.553 156.301 656.614 155.24 656.614 153.932C656.614 152.623 655.553 151.562 654.244 151.562C652.936 151.562 651.875 152.623 651.875 153.932C651.875 155.24 652.936 156.301 654.244 156.301Z" fill="#E6E6E6"/>
<path d="M662.533 156.301C663.842 156.301 664.903 155.24 664.903 153.932C664.903 152.623 663.842 151.562 662.533 151.562C661.225 151.562 660.164 152.623 660.164 153.932C660.164 155.24 661.225 156.301 662.533 156.301Z" fill="#E6E6E6"/>
<path d="M670.823 156.301C672.131 156.301 673.192 155.24 673.192 153.932C673.192 152.623 672.131 151.562 670.823 151.562C669.514 151.562 668.453 152.623 668.453 153.932C668.453 155.24 669.514 156.301 670.823 156.301Z" fill="#E6E6E6"/>
<path d="M684.514 202.075C684.925 201.454 685.466 200.931 686.1 200.541C686.735 200.152 687.447 199.907 688.186 199.823C688.926 199.739 689.675 199.818 690.38 200.054C691.086 200.291 691.731 200.679 692.27 201.192L708.346 192.895L707.347 202.242L692.234 208.689C691.313 209.537 690.112 210.019 688.859 210.041C687.606 210.064 686.388 209.626 685.437 208.811C684.485 207.995 683.866 206.86 683.696 205.618C683.526 204.377 683.817 203.116 684.514 202.075Z" fill="#FFB8B8"/>
<path d="M734.57 160.517C733.323 159.541 731.794 158.994 730.211 158.959C728.628 158.923 727.076 159.401 725.786 160.319C725.205 160.737 724.685 161.235 724.243 161.798L710.128 187.976L697.102 197.817C696.671 198.143 696.369 198.611 696.252 199.139C696.163 199.526 696.179 199.929 696.297 200.308L697.578 204.439C697.715 204.883 697.984 205.275 698.348 205.563C698.49 205.67 698.643 205.761 698.803 205.836C698.823 205.847 698.843 205.855 698.864 205.862C699.148 205.984 699.454 206.046 699.763 206.045C700.072 206.044 700.378 205.98 700.661 205.857L715.93 199.235L716.097 199.159C721.243 196.882 725.399 192.83 727.807 187.743L735.836 170.799C737.026 169.265 737.56 167.323 737.323 165.397C737.086 163.47 736.096 161.716 734.57 160.517Z" fill="#3F3D56"/>
<path d="M736.192 150.87C743.059 150.87 748.626 145.303 748.626 138.436C748.626 131.569 743.059 126.002 736.192 126.002C729.325 126.002 723.758 131.569 723.758 138.436C723.758 145.303 729.325 150.87 736.192 150.87Z" fill="#FFB8B8"/>
<path d="M744.603 221.585L744.476 220.618L743.889 216.209L743.246 211.395L740.963 211.784L740.082 211.931L739.191 212.083L738.898 212.134L716.248 215.981L713.428 214.285L713.367 214.25L713.393 214.508L713.924 220.021L716.46 246.356H747.909L744.603 221.585Z" fill="#2F2E41"/>
<path d="M753.311 170.997C752.907 166.487 750.776 162.308 747.362 159.333C744.077 156.423 739.77 154.937 735.389 155.202C731.213 155.48 728.003 157.197 725.786 160.32C724.645 161.992 723.802 163.849 723.295 165.808C720.774 174.88 718.116 188.169 716.096 199.16C714.962 205.296 714.031 210.718 713.428 214.287C713.418 214.363 713.408 214.433 713.393 214.509C713.16 215.902 712.983 216.99 712.866 217.714C712.793 218.16 712.854 218.619 713.042 219.03C713.231 219.441 713.538 219.787 713.924 220.022C713.929 220.028 713.939 220.033 713.945 220.038C716.5 221.566 719.416 222.386 722.394 222.412C725.998 222.412 730.322 221.156 734.873 217.101C735.182 216.821 735.58 216.657 735.997 216.64C736.414 216.622 736.825 216.751 737.156 217.005L737.652 217.39L742.553 221.202C742.935 221.501 743.404 221.67 743.889 221.683C744.131 221.694 744.373 221.661 744.603 221.587C744.624 221.584 744.644 221.579 744.664 221.572C745.017 221.457 745.337 221.257 745.594 220.989C745.852 220.722 746.04 220.395 746.142 220.038C746.415 219.086 746.719 217.987 747.053 216.762C747.19 216.251 747.332 215.714 747.479 215.157C748.122 212.697 748.835 209.842 749.534 206.733C751.974 195.869 754.293 181.912 753.311 170.997Z" fill="#3F3D56"/>
<path d="M732.837 222.886C732.777 222.144 732.88 221.398 733.139 220.7C733.398 220.003 733.807 219.37 734.337 218.848C734.866 218.325 735.504 217.925 736.206 217.676C736.907 217.427 737.654 217.334 738.395 217.405L745.924 200.955L750.906 208.927L742.993 223.326C742.792 224.563 742.144 225.683 741.172 226.473C740.2 227.264 738.971 227.671 737.72 227.617C736.468 227.563 735.279 227.051 734.379 226.179C733.48 225.307 732.931 224.135 732.837 222.886Z" fill="#FFB8B8"/>
<path d="M758.06 184.894L753.918 166.603C753.908 164.799 753.235 163.061 752.027 161.721C750.819 160.38 749.161 159.531 747.367 159.333C747.109 159.308 746.846 159.293 746.578 159.293C745.611 159.295 744.654 159.489 743.762 159.861C742.87 160.234 742.06 160.779 741.378 161.465C740.697 162.151 740.158 162.965 739.791 163.859C739.425 164.754 739.238 165.712 739.242 166.679L744.295 195.986L744.28 196.047L741.601 206.157L740.118 211.771C740.103 211.824 740.092 211.878 740.088 211.933C739.993 212.404 740.055 212.893 740.265 213.325C740.433 213.688 740.695 213.999 741.024 214.226L743.895 216.211L744.578 216.687C744.958 216.952 745.411 217.093 745.874 217.092C746.053 217.092 746.231 217.071 746.406 217.031C746.426 217.026 746.441 217.021 746.461 217.016C746.672 216.961 746.873 216.876 747.059 216.763C747.404 216.554 747.687 216.257 747.879 215.902L755.807 201.266C758.515 196.262 759.315 190.444 758.06 184.894Z" fill="#3F3D56"/>
<path opacity="0.2" d="M740.244 179.037L744.8 198.275L738.219 214.475L742.775 198.781L740.244 179.037Z" fill="#141414"/>
<path d="M746.253 145.909C747.295 145.537 748.253 144.963 749.072 144.219C749.434 143.896 749.823 143.596 750.184 143.273C753.372 140.422 754.33 135.518 752.908 131.483C751.485 127.449 747.947 124.348 743.904 122.951C739.861 121.554 735.38 121.744 731.275 122.947C726.853 124.243 722.425 127.16 721.375 131.646C721.095 132.841 721.085 134.165 721.898 135.173C722.142 135.477 722.463 135.712 722.826 135.854C724.259 136.403 725.058 135.282 726.127 134.805C727.597 134.151 729.406 134.858 730.43 136.1C731.453 137.341 731.832 138.991 731.989 140.592C732.021 141.58 732.175 142.559 732.45 143.508C732.593 143.982 732.854 144.412 733.209 144.756C733.565 145.101 734.002 145.349 734.48 145.477C735.634 145.69 736.743 144.896 737.469 143.974C738.194 143.053 738.709 141.958 739.566 141.158C740.424 140.358 741.822 139.935 742.762 140.637C743.077 140.902 743.343 141.221 743.547 141.579C744.988 143.792 744.812 143.696 746.253 145.909Z" fill="#2F2E41"/>
<path d="M686.707 191.431L677.935 195.377C677.567 195.542 677.281 195.847 677.138 196.223C676.995 196.6 677.008 197.018 677.173 197.385L678.211 199.694C678.089 199.749 677.994 199.851 677.946 199.976C677.899 200.101 677.903 200.241 677.957 200.363L678.373 201.286C678.428 201.409 678.53 201.504 678.655 201.551C678.781 201.599 678.92 201.595 679.042 201.54L679.458 202.464C679.335 202.519 679.24 202.621 679.193 202.746C679.145 202.871 679.149 203.011 679.204 203.133L679.619 204.056C679.674 204.179 679.776 204.274 679.901 204.321C680.027 204.369 680.166 204.365 680.288 204.31L685.897 216.776C686.062 217.143 686.366 217.43 686.743 217.573C687.12 217.716 687.537 217.703 687.905 217.538L696.677 213.591C697.044 213.426 697.331 213.121 697.474 212.745C697.616 212.368 697.604 211.95 697.439 211.583L688.715 192.193C688.549 191.825 688.245 191.539 687.868 191.396C687.492 191.253 687.074 191.265 686.707 191.431Z" fill="#3F3D56"/>
<path d="M695.814 210.438L694.578 207.689L691.339 200.49L688.493 194.167C688.335 193.815 688.044 193.54 687.683 193.402C687.323 193.265 686.922 193.276 686.57 193.433L681.74 195.605L679.528 196.602C679.177 196.762 678.903 197.054 678.767 197.414C678.63 197.774 678.642 198.174 678.799 198.526L681.74 205.067L682.869 207.573L686.119 214.802C686.279 215.154 686.572 215.428 686.933 215.564C687.295 215.701 687.695 215.689 688.048 215.531L695.085 212.362C695.436 212.203 695.71 211.911 695.847 211.551C695.983 211.19 695.971 210.79 695.814 210.438Z" fill="#B8322E"/>
</g>
<defs>
<clipPath id="clip0_787_2398">
<rect width="367.466" height="250" fill="white" transform="translate(412.25)"/>
</clipPath>
</defs>
</svg>
