<svg width="582" height="250" viewBox="0 0 582 250" fill="none" xmlns="http://www.w3.org/2000/svg">
<path d="M13.4848 84.4038C11.9099 84.4038 10.5319 84.1085 9.35076 83.5179C8.16961 82.8617 7.21813 82.0087 6.49632 80.9588C5.84012 79.9089 5.31517 78.6621 4.92145 77.2185C4.52774 75.7748 4.33088 74.2656 4.33088 72.6907C4.33088 69.4754 5.15112 66.4569 6.79161 63.6352C8.49771 60.8136 11.1225 58.5826 14.6659 56.9421L15.5518 58.7138C13.7145 59.5668 12.074 60.8136 10.6303 62.4541C9.25233 64.029 8.43209 65.7023 8.16961 67.474C7.7759 68.852 7.74309 70.1972 8.07118 71.5096C9.51481 69.9347 11.4506 69.1473 13.8785 69.1473C16.1096 69.1473 17.9469 69.8363 19.3905 71.2143C20.8342 72.5267 21.556 74.364 21.556 76.7263C21.556 79.023 20.8013 80.8931 19.2921 82.3368C17.7829 83.7148 15.8471 84.4038 13.4848 84.4038ZM33.7612 84.4038C32.1863 84.4038 30.8083 84.1085 29.6272 83.5179C28.446 82.8617 27.4945 82.0087 26.7727 80.9588C26.1165 79.9089 25.5916 78.6621 25.1978 77.2185C24.8041 75.7748 24.6073 74.2656 24.6073 72.6907C24.6073 69.4754 25.4275 66.4569 27.068 63.6352C28.7741 60.8136 31.3989 58.5826 34.9423 56.9421L35.8282 58.7138C33.9908 59.5668 32.3504 60.8136 30.9067 62.4541C29.5287 64.029 28.7085 65.7023 28.446 67.474C28.0523 68.852 28.0195 70.1972 28.3476 71.5096C29.7912 69.9347 31.727 69.1473 34.1549 69.1473C36.3859 69.1473 38.2233 69.8363 39.6669 71.2143C41.1105 72.5267 41.8324 74.364 41.8324 76.7263C41.8324 79.023 41.0777 80.8931 39.5685 82.3368C38.0592 83.7148 36.1235 84.4038 33.7612 84.4038Z" fill="#B8322E"/>
<path d="M417.146 189.692C418.786 189.692 420.197 189.987 421.378 190.578C422.559 191.168 423.478 192.022 424.134 193.137C424.856 194.056 425.381 195.27 425.709 196.779C426.103 198.288 426.3 199.797 426.3 201.307C426.3 204.588 425.447 207.639 423.74 210.461C422.1 213.217 419.508 215.415 415.965 217.055L415.079 215.284C416.916 214.496 418.557 213.282 420 211.642C421.444 210.001 422.297 208.328 422.559 206.622C422.887 205.178 422.887 203.8 422.559 202.488C421.116 204.063 419.213 204.85 416.85 204.85C414.554 204.85 412.684 204.194 411.24 202.882C409.796 201.504 409.075 199.633 409.075 197.271C409.075 194.974 409.829 193.137 411.338 191.759C412.913 190.381 414.849 189.692 417.146 189.692ZM396.869 189.692C398.51 189.692 399.921 189.987 401.102 190.578C402.283 191.168 403.202 192.022 403.858 193.137C404.58 194.056 405.105 195.27 405.433 196.779C405.826 198.288 406.023 199.797 406.023 201.307C406.023 204.588 405.17 207.639 403.464 210.461C401.824 213.217 399.232 215.415 395.688 217.055L394.802 215.284C396.64 214.496 398.28 213.282 399.724 211.642C401.167 210.001 402.02 208.328 402.283 206.622C402.611 205.178 402.611 203.8 402.283 202.488C400.839 204.063 398.936 204.85 396.574 204.85C394.277 204.85 392.407 204.194 390.964 202.882C389.52 201.504 388.798 199.633 388.798 197.271C388.798 194.974 389.553 193.137 391.062 191.759C392.637 190.381 394.573 189.692 396.869 189.692Z" fill="#B8322E"/>
<path d="M81.5784 90.1719H79.3868V73.3569H73.4914V71.4345H87.4483V73.3569H81.5784V90.1719ZM96.3428 75.8689C96.6248 75.8689 96.9195 75.886 97.2271 75.9202C97.5347 75.9458 97.8081 75.9842 98.0474 76.0355L97.7782 78.0092C97.5475 77.9494 97.2912 77.9024 97.0092 77.8682C96.7273 77.8341 96.4624 77.817 96.2146 77.817C95.6507 77.817 95.1167 77.9323 94.6126 78.163C94.117 78.3852 93.6813 78.7098 93.3053 79.1371C92.9294 79.5557 92.6346 80.0641 92.421 80.6622C92.2074 81.2517 92.1006 81.9096 92.1006 82.6359V90.1719H89.9603V76.1252H91.7289L91.9596 78.7141H92.0493C92.3398 78.1929 92.6902 77.7187 93.1003 77.2915C93.5104 76.8558 93.9846 76.5097 94.5229 76.2534C95.0697 75.9971 95.6763 75.8689 96.3428 75.8689ZM105.955 75.8945C107.63 75.8945 108.873 76.2705 109.685 77.0224C110.496 77.7743 110.902 78.9747 110.902 80.6237V90.1719H109.351L108.941 88.0956H108.839C108.446 88.6083 108.036 89.0398 107.608 89.3901C107.181 89.7318 106.686 89.9924 106.122 90.1719C105.566 90.3428 104.883 90.4282 104.071 90.4282C103.217 90.4282 102.456 90.2787 101.79 89.9796C101.132 89.6806 100.611 89.2277 100.226 88.6211C99.8502 88.0145 99.6622 87.2455 99.6622 86.3142C99.6622 84.9129 100.218 83.8364 101.328 83.0845C102.439 82.3326 104.131 81.9225 106.404 81.8541L108.826 81.7516V80.8929C108.826 79.6796 108.565 78.8295 108.044 78.3424C107.523 77.8554 106.788 77.6119 105.84 77.6119C105.105 77.6119 104.404 77.7187 103.738 77.9323C103.071 78.1459 102.439 78.398 101.841 78.6885L101.187 77.0736C101.82 76.749 102.546 76.4713 103.366 76.2406C104.186 76.0099 105.049 75.8945 105.955 75.8945ZM108.8 83.2511L106.66 83.3408C104.908 83.4091 103.674 83.6954 102.956 84.1995C102.238 84.7036 101.879 85.417 101.879 86.3398C101.879 87.143 102.123 87.7368 102.61 88.1213C103.097 88.5058 103.742 88.698 104.545 88.698C105.793 88.698 106.814 88.352 107.608 87.6599C108.403 86.9678 108.8 85.9297 108.8 84.5455V83.2511ZM120.284 90.4282C118.506 90.4282 117.097 89.8216 116.054 88.6083C115.02 87.395 114.503 85.5922 114.503 83.1998C114.503 80.7818 115.033 78.9576 116.093 77.7273C117.152 76.4884 118.562 75.8689 120.322 75.8689C121.065 75.8689 121.715 75.9672 122.27 76.1637C122.826 76.3602 123.304 76.6251 123.706 76.9583C124.107 77.283 124.445 77.6546 124.718 78.0733H124.872C124.838 77.8084 124.803 77.4453 124.769 76.9839C124.735 76.5225 124.718 76.1466 124.718 75.8561V70.2297H126.846V90.1719H125.128L124.808 88.1725H124.718C124.453 88.5912 124.116 88.9714 123.706 89.3132C123.304 89.655 122.821 89.9284 122.257 90.1334C121.702 90.3299 121.044 90.4282 120.284 90.4282ZM120.617 88.6596C122.121 88.6596 123.184 88.2323 123.808 87.3779C124.432 86.5235 124.744 85.2547 124.744 83.5715V83.187C124.744 81.4013 124.445 80.0299 123.847 79.073C123.257 78.116 122.18 77.6375 120.617 77.6375C119.31 77.6375 118.331 78.1417 117.682 79.1499C117.033 80.1495 116.708 81.5166 116.708 83.2511C116.708 84.977 117.028 86.3099 117.669 87.2498C118.318 88.1896 119.301 88.6596 120.617 88.6596ZM136.765 75.8689C137.962 75.8689 138.987 76.1338 139.841 76.6635C140.696 77.1933 141.349 77.9366 141.802 78.8935C142.255 79.842 142.481 80.9527 142.481 82.2258V83.5459H132.779C132.805 85.1949 133.215 86.4509 134.01 87.3138C134.804 88.1768 135.924 88.6083 137.368 88.6083C138.256 88.6083 139.042 88.5271 139.726 88.3648C140.409 88.2024 141.119 87.9632 141.853 87.6471V89.5182C141.144 89.8344 140.439 90.0651 139.739 90.2103C139.047 90.3556 138.226 90.4282 137.278 90.4282C135.928 90.4282 134.749 90.1548 133.741 89.608C132.741 89.0526 131.964 88.2409 131.408 87.1729C130.853 86.1048 130.575 84.7976 130.575 83.2511C130.575 81.7388 130.827 80.4315 131.331 79.3293C131.844 78.2186 132.562 77.3641 133.484 76.766C134.416 76.1679 135.509 75.8689 136.765 75.8689ZM136.74 77.6119C135.603 77.6119 134.698 77.9836 134.023 78.7269C133.348 79.4703 132.946 80.5084 132.818 81.8413H140.251C140.243 81.004 140.11 80.2692 139.854 79.6369C139.606 78.9961 139.226 78.5005 138.713 78.1502C138.201 77.7913 137.543 77.6119 136.74 77.6119ZM152.478 75.8689C152.76 75.8689 153.055 75.886 153.362 75.9202C153.67 75.9458 153.943 75.9842 154.183 76.0355L153.914 78.0092C153.683 77.9494 153.427 77.9024 153.145 77.8682C152.863 77.8341 152.598 77.817 152.35 77.817C151.786 77.817 151.252 77.9323 150.748 78.163C150.252 78.3852 149.817 78.7098 149.441 79.1371C149.065 79.5557 148.77 80.0641 148.556 80.6622C148.343 81.2517 148.236 81.9096 148.236 82.6359V90.1719H146.096V76.1252H147.864L148.095 78.7141H148.185C148.475 78.1929 148.825 77.7187 149.236 77.2915C149.646 76.8558 150.12 76.5097 150.658 76.2534C151.205 75.9971 151.812 75.8689 152.478 75.8689ZM161.27 95.1061C160.843 95.1061 160.467 95.0762 160.142 95.0164C159.818 94.9566 159.54 94.8755 159.309 94.7729V92.9146C159.583 93 159.877 93.0641 160.194 93.1068C160.51 93.1581 160.851 93.1837 161.219 93.1837C161.697 93.1837 162.137 93.0897 162.539 92.9017C162.94 92.7138 163.261 92.3934 163.5 91.9405C163.739 91.4877 163.859 90.864 163.859 90.0693V71.4345H166.051V89.9027C166.051 91.0733 165.854 92.0431 165.461 92.812C165.077 93.581 164.525 94.1535 163.808 94.5294C163.099 94.9139 162.253 95.1061 161.27 95.1061ZM182.814 83.1229C182.814 84.2764 182.665 85.306 182.366 86.2116C182.067 87.1173 181.635 87.882 181.071 88.5058C180.507 89.1295 179.824 89.608 179.021 89.9412C178.226 90.2659 177.325 90.4282 176.316 90.4282C175.377 90.4282 174.514 90.2659 173.728 89.9412C172.95 89.608 172.275 89.1295 171.703 88.5058C171.139 87.882 170.699 87.1173 170.382 86.2116C170.075 85.306 169.921 84.2764 169.921 83.1229C169.921 81.585 170.182 80.2777 170.703 79.2011C171.224 78.116 171.967 77.2915 172.933 76.7276C173.907 76.1551 175.065 75.8689 176.406 75.8689C177.688 75.8689 178.807 76.1551 179.764 76.7276C180.729 77.3001 181.477 78.1288 182.007 79.214C182.545 80.2905 182.814 81.5935 182.814 83.1229ZM172.125 83.1229C172.125 84.2508 172.275 85.2291 172.574 86.0578C172.873 86.8866 173.334 87.5274 173.958 87.9803C174.582 88.4331 175.385 88.6596 176.368 88.6596C177.342 88.6596 178.141 88.4331 178.764 87.9803C179.397 87.5274 179.862 86.8866 180.161 86.0578C180.46 85.2291 180.61 84.2508 180.61 83.1229C180.61 82.0036 180.46 81.0381 180.161 80.2264C179.862 79.4062 179.401 78.7739 178.777 78.3296C178.153 77.8853 177.346 77.6632 176.355 77.6632C174.894 77.6632 173.822 78.1459 173.138 79.1114C172.463 80.0769 172.125 81.4141 172.125 83.1229ZM191.901 75.8689C193.097 75.8689 194.122 76.1338 194.977 76.6635C195.831 77.1933 196.485 77.9366 196.938 78.8935C197.391 79.842 197.617 80.9527 197.617 82.2258V83.5459H187.915C187.941 85.1949 188.351 86.4509 189.145 87.3138C189.94 88.1768 191.059 88.6083 192.503 88.6083C193.392 88.6083 194.178 88.5271 194.862 88.3648C195.545 88.2024 196.254 87.9632 196.989 87.6471V89.5182C196.28 89.8344 195.575 90.0651 194.874 90.2103C194.182 90.3556 193.362 90.4282 192.414 90.4282C191.064 90.4282 189.885 90.1548 188.876 89.608C187.877 89.0526 187.099 88.2409 186.544 87.1729C185.988 86.1048 185.711 84.7976 185.711 83.2511C185.711 81.7388 185.963 80.4315 186.467 79.3293C186.98 78.2186 187.697 77.3641 188.62 76.766C189.551 76.1679 190.645 75.8689 191.901 75.8689ZM191.875 77.6119C190.739 77.6119 189.833 77.9836 189.158 78.7269C188.483 79.4703 188.082 80.5084 187.954 81.8413H195.387C195.378 81.004 195.246 80.2692 194.99 79.6369C194.742 78.9961 194.362 78.5005 193.849 78.1502C193.336 77.7913 192.679 77.6119 191.875 77.6119ZM202.91 71.4345L203.102 71.7164C202.949 72.3402 202.752 73.0109 202.513 73.7286C202.274 74.4378 202.013 75.1469 201.731 75.8561C201.449 76.5653 201.167 77.2317 200.885 77.8554H199.322C199.45 77.3684 199.578 76.8472 199.706 76.2918C199.843 75.7365 199.971 75.1726 200.091 74.6001C200.21 74.0276 200.317 73.4723 200.411 72.934C200.514 72.3957 200.599 71.8959 200.667 71.4345H202.91ZM214.778 86.327C214.778 87.2241 214.552 87.9803 214.099 88.5955C213.655 89.2021 213.014 89.6592 212.176 89.9668C211.348 90.2744 210.356 90.4282 209.203 90.4282C208.22 90.4282 207.37 90.3513 206.653 90.1975C205.935 90.0437 205.307 89.8258 204.769 89.5439V87.583C205.341 87.8649 206.025 88.1213 206.819 88.352C207.614 88.5827 208.425 88.698 209.254 88.698C210.468 88.698 211.348 88.5015 211.894 88.1085C212.441 87.7154 212.715 87.1814 212.715 86.5064C212.715 86.1219 212.604 85.7844 212.381 85.4939C212.168 85.1949 211.805 84.9087 211.292 84.6352C210.779 84.3533 210.07 84.0457 209.165 83.7125C208.267 83.3707 207.49 83.0332 206.832 82.7C206.183 82.3582 205.679 81.9438 205.32 81.4568C204.969 80.9698 204.794 80.3375 204.794 79.56C204.794 78.3723 205.273 77.4624 206.23 76.8301C207.195 76.1893 208.46 75.8689 210.023 75.8689C210.869 75.8689 211.659 75.9543 212.394 76.1252C213.138 76.2876 213.83 76.5097 214.47 76.7917L213.753 78.4962C213.172 78.2485 212.552 78.0391 211.894 77.8682C211.236 77.6974 210.566 77.6119 209.882 77.6119C208.9 77.6119 208.144 77.7743 207.614 78.0989C207.093 78.4236 206.832 78.8679 206.832 79.4318C206.832 79.8676 206.952 80.2264 207.191 80.5084C207.439 80.7904 207.832 81.0552 208.37 81.303C208.908 81.5508 209.617 81.8413 210.497 82.1745C211.377 82.4992 212.138 82.8367 212.779 83.187C213.42 83.5288 213.911 83.9474 214.253 84.443C214.603 84.93 214.778 85.558 214.778 86.327ZM231.401 75.8689C231.683 75.8689 231.978 75.886 232.285 75.9202C232.593 75.9458 232.866 75.9842 233.105 76.0355L232.836 78.0092C232.606 77.9494 232.349 77.9024 232.067 77.8682C231.785 77.8341 231.52 77.817 231.273 77.817C230.709 77.817 230.175 77.9323 229.671 78.163C229.175 78.3852 228.739 78.7098 228.363 79.1371C227.987 79.5557 227.693 80.0641 227.479 80.6622C227.265 81.2517 227.159 81.9096 227.159 82.6359V90.1719H225.018V76.1252H226.787L227.018 78.7141H227.107C227.398 78.1929 227.748 77.7187 228.158 77.2915C228.568 76.8558 229.043 76.5097 229.581 76.2534C230.128 75.9971 230.734 75.8689 231.401 75.8689ZM247.357 76.1252V90.1719H245.614L245.306 88.1982H245.191C244.901 88.6852 244.525 89.0953 244.063 89.4285C243.602 89.7618 243.081 90.0095 242.5 90.1719C241.927 90.3428 241.316 90.4282 240.667 90.4282C239.556 90.4282 238.625 90.2488 237.873 89.8899C237.121 89.5311 236.553 88.9757 236.168 88.2238C235.792 87.4719 235.605 86.5064 235.605 85.3273V76.1252H237.758V85.1735C237.758 86.3441 238.023 87.2199 238.552 87.8009C239.082 88.3733 239.889 88.6596 240.975 88.6596C242.017 88.6596 242.846 88.463 243.461 88.07C244.085 87.677 244.533 87.1002 244.807 86.3398C245.08 85.5708 245.217 84.631 245.217 83.5202V76.1252H247.357ZM258.507 75.8689C260.173 75.8689 261.434 76.279 262.288 77.0993C263.142 77.911 263.57 79.2182 263.57 81.021V90.1719H261.468V81.162C261.468 79.9915 261.199 79.1157 260.66 78.5347C260.131 77.9537 259.315 77.6632 258.212 77.6632C256.657 77.6632 255.564 78.1032 254.931 78.9833C254.299 79.8633 253.983 81.1407 253.983 82.8153V90.1719H251.856V76.1252H253.573L253.893 78.1502H254.009C254.308 77.6546 254.688 77.2402 255.149 76.907C255.611 76.5653 256.128 76.3089 256.7 76.138C257.273 75.9586 257.875 75.8689 258.507 75.8689ZM277.04 86.327C277.04 87.2241 276.813 87.9803 276.36 88.5955C275.916 89.2021 275.275 89.6592 274.438 89.9668C273.609 90.2744 272.618 90.4282 271.464 90.4282C270.482 90.4282 269.632 90.3513 268.914 90.1975C268.196 90.0437 267.568 89.8258 267.03 89.5439V87.583C267.603 87.8649 268.286 88.1213 269.081 88.352C269.875 88.5827 270.687 88.698 271.516 88.698C272.729 88.698 273.609 88.5015 274.156 88.1085C274.703 87.7154 274.976 87.1814 274.976 86.5064C274.976 86.1219 274.865 85.7844 274.643 85.4939C274.429 85.1949 274.066 84.9087 273.554 84.6352C273.041 84.3533 272.332 84.0457 271.426 83.7125C270.529 83.3707 269.751 83.0332 269.093 82.7C268.444 82.3582 267.94 81.9438 267.581 81.4568C267.231 80.9698 267.056 80.3375 267.056 79.56C267.056 78.3723 267.534 77.4624 268.491 76.8301C269.457 76.1893 270.721 75.8689 272.285 75.8689C273.131 75.8689 273.921 75.9543 274.656 76.1252C275.399 76.2876 276.091 76.5097 276.732 76.7917L276.014 78.4962C275.433 78.2485 274.814 78.0391 274.156 77.8682C273.498 77.6974 272.827 77.6119 272.144 77.6119C271.161 77.6119 270.405 77.7743 269.875 78.0989C269.354 78.4236 269.093 78.8679 269.093 79.4318C269.093 79.8676 269.213 80.2264 269.452 80.5084C269.7 80.7904 270.093 81.0552 270.631 81.303C271.17 81.5508 271.879 81.8413 272.759 82.1745C273.639 82.4992 274.399 82.8367 275.04 83.187C275.681 83.5288 276.172 83.9474 276.514 84.443C276.864 84.93 277.04 85.558 277.04 86.327ZM299.391 83.1229C299.391 84.2764 299.242 85.306 298.943 86.2116C298.644 87.1173 298.212 87.882 297.648 88.5058C297.084 89.1295 296.401 89.608 295.598 89.9412C294.803 90.2659 293.902 90.4282 292.893 90.4282C291.953 90.4282 291.09 90.2659 290.304 89.9412C289.527 89.608 288.852 89.1295 288.279 88.5058C287.716 87.882 287.276 87.1173 286.959 86.2116C286.652 85.306 286.498 84.2764 286.498 83.1229C286.498 81.585 286.759 80.2777 287.28 79.2011C287.801 78.116 288.544 77.2915 289.51 76.7276C290.484 76.1551 291.642 75.8689 292.983 75.8689C294.265 75.8689 295.384 76.1551 296.341 76.7276C297.306 77.3001 298.054 78.1288 298.584 79.214C299.122 80.2905 299.391 81.5935 299.391 83.1229ZM288.702 83.1229C288.702 84.2508 288.852 85.2291 289.151 86.0578C289.45 86.8866 289.911 87.5274 290.535 87.9803C291.159 88.4331 291.962 88.6596 292.945 88.6596C293.919 88.6596 294.718 88.4331 295.341 87.9803C295.974 87.5274 296.439 86.8866 296.738 86.0578C297.037 85.2291 297.187 84.2508 297.187 83.1229C297.187 82.0036 297.037 81.0381 296.738 80.2264C296.439 79.4062 295.978 78.7739 295.354 78.3296C294.73 77.8853 293.923 77.6632 292.932 77.6632C291.471 77.6632 290.398 78.1459 289.715 79.1114C289.04 80.0769 288.702 81.4141 288.702 83.1229ZM314.668 76.1252V90.1719H312.925L312.618 88.1982H312.502C312.212 88.6852 311.836 89.0953 311.374 89.4285C310.913 89.7618 310.392 90.0095 309.811 90.1719C309.238 90.3428 308.627 90.4282 307.978 90.4282C306.867 90.4282 305.936 90.2488 305.184 89.8899C304.432 89.5311 303.864 88.9757 303.48 88.2238C303.104 87.4719 302.916 86.5064 302.916 85.3273V76.1252H305.069V85.1735C305.069 86.3441 305.334 87.2199 305.863 87.8009C306.393 88.3733 307.201 88.6596 308.286 88.6596C309.328 88.6596 310.157 88.463 310.772 88.07C311.396 87.677 311.844 87.1002 312.118 86.3398C312.391 85.5708 312.528 84.631 312.528 83.5202V76.1252H314.668ZM323.704 88.6852C324.054 88.6852 324.413 88.6553 324.78 88.5955C325.148 88.5357 325.447 88.463 325.677 88.3776V90.0309C325.43 90.142 325.084 90.236 324.639 90.3129C324.203 90.3898 323.776 90.4282 323.358 90.4282C322.614 90.4282 321.939 90.3 321.333 90.0437C320.726 89.7788 320.239 89.3345 319.872 88.7108C319.513 88.0871 319.333 87.2241 319.333 86.1219V77.7913H317.334V76.7532L319.346 75.9202L320.192 72.8699H321.474V76.1252H325.588V77.7913H321.474V86.0578C321.474 86.9379 321.674 87.5958 322.076 88.0316C322.486 88.4673 323.029 88.6852 323.704 88.6852ZM347.452 83.1229C347.452 84.2764 347.303 85.306 347.004 86.2116C346.705 87.1173 346.273 87.882 345.709 88.5058C345.145 89.1295 344.462 89.608 343.659 89.9412C342.864 90.2659 341.963 90.4282 340.954 90.4282C340.015 90.4282 339.152 90.2659 338.366 89.9412C337.588 89.608 336.913 89.1295 336.341 88.5058C335.777 87.882 335.337 87.1173 335.02 86.2116C334.713 85.306 334.559 84.2764 334.559 83.1229C334.559 81.585 334.82 80.2777 335.341 79.2011C335.862 78.116 336.605 77.2915 337.571 76.7276C338.545 76.1551 339.703 75.8689 341.044 75.8689C342.326 75.8689 343.445 76.1551 344.402 76.7276C345.367 77.3001 346.115 78.1288 346.645 79.214C347.183 80.2905 347.452 81.5935 347.452 83.1229ZM336.763 83.1229C336.763 84.2508 336.913 85.2291 337.212 86.0578C337.511 86.8866 337.972 87.5274 338.596 87.9803C339.22 88.4331 340.023 88.6596 341.006 88.6596C341.98 88.6596 342.779 88.4331 343.402 87.9803C344.035 87.5274 344.5 86.8866 344.799 86.0578C345.098 85.2291 345.248 84.2508 345.248 83.1229C345.248 82.0036 345.098 81.0381 344.799 80.2264C344.5 79.4062 344.039 78.7739 343.415 78.3296C342.791 77.8853 341.984 77.6632 340.993 77.6632C339.532 77.6632 338.46 78.1459 337.776 79.1114C337.101 80.0769 336.763 81.4141 336.763 83.1229ZM357.385 77.7913H353.886V90.1719H351.758V77.7913H349.272V76.766L351.758 76.0611V75.1256C351.758 73.9465 351.934 72.9895 352.284 72.2547C352.634 71.5114 353.143 70.9645 353.809 70.6142C354.476 70.2639 355.287 70.0888 356.244 70.0888C356.782 70.0888 357.274 70.1358 357.718 70.2297C358.171 70.3237 358.568 70.4305 358.91 70.5501L358.359 72.2291C358.068 72.1351 357.739 72.0496 357.372 71.9728C357.013 71.8873 356.646 71.8446 356.27 71.8446C355.458 71.8446 354.856 72.1095 354.463 72.6392C354.078 73.1604 353.886 73.9806 353.886 75.0999V76.1252H357.385V77.7913ZM74.0168 122.327C74.0168 123.224 73.7904 123.98 73.3376 124.595C72.8933 125.202 72.2525 125.659 71.4151 125.967C70.5863 126.274 69.5952 126.428 68.4418 126.428C67.4592 126.428 66.609 126.351 65.8913 126.198C65.1736 126.044 64.5456 125.826 64.0073 125.544V123.583C64.5798 123.865 65.2633 124.121 66.0579 124.352C66.8525 124.583 67.6642 124.698 68.493 124.698C69.7063 124.698 70.5863 124.501 71.1332 124.108C71.68 123.715 71.9534 123.181 71.9534 122.506C71.9534 122.122 71.8423 121.784 71.6202 121.494C71.4066 121.195 71.0435 120.909 70.5308 120.635C70.0182 120.353 69.309 120.046 68.4033 119.712C67.5062 119.371 66.7286 119.033 66.0707 118.7C65.4214 118.358 64.9173 117.944 64.5584 117.457C64.2081 116.97 64.033 116.338 64.033 115.56C64.033 114.372 64.5114 113.462 65.4684 112.83C66.4339 112.189 67.6984 111.869 69.262 111.869C70.1079 111.869 70.8982 111.954 71.633 112.125C72.3764 112.288 73.0684 112.51 73.7092 112.792L72.9915 114.496C72.4105 114.248 71.7911 114.039 71.1332 113.868C70.4753 113.697 69.8046 113.612 69.121 113.612C68.1384 113.612 67.3823 113.774 66.8525 114.099C66.3313 114.424 66.0707 114.868 66.0707 115.432C66.0707 115.868 66.1904 116.226 66.4296 116.508C66.6774 116.79 67.0704 117.055 67.6087 117.303C68.147 117.551 68.8561 117.841 69.7362 118.175C70.6162 118.499 71.3767 118.837 72.0175 119.187C72.6583 119.529 73.1496 119.947 73.4914 120.443C73.8417 120.93 74.0168 121.558 74.0168 122.327ZM81.9757 124.685C82.3261 124.685 82.6849 124.655 83.0523 124.595C83.4197 124.536 83.7188 124.463 83.9495 124.378V126.031C83.7017 126.142 83.3556 126.236 82.9113 126.313C82.4756 126.39 82.0484 126.428 81.6297 126.428C80.8864 126.428 80.2114 126.3 79.6047 126.044C78.9981 125.779 78.5111 125.335 78.1437 124.711C77.7848 124.087 77.6054 123.224 77.6054 122.122V113.791H75.6061V112.753L77.6182 111.92L78.4641 108.87H79.7457V112.125H83.8597V113.791H79.7457V122.058C79.7457 122.938 79.9465 123.596 80.3481 124.032C80.7582 124.467 81.3008 124.685 81.9757 124.685ZM98.9061 119.123C98.9061 120.276 98.7565 121.306 98.4575 122.212C98.1584 123.117 97.727 123.882 97.163 124.506C96.5991 125.129 95.9156 125.608 95.1124 125.941C94.3178 126.266 93.4164 126.428 92.4082 126.428C91.4683 126.428 90.6054 126.266 89.8193 125.941C89.0418 125.608 88.3668 125.129 87.7943 124.506C87.2304 123.882 86.7904 123.117 86.4743 122.212C86.1667 121.306 86.0129 120.276 86.0129 119.123C86.0129 117.585 86.2735 116.278 86.7947 115.201C87.3159 114.116 88.0592 113.292 89.0247 112.728C89.9987 112.155 91.1565 111.869 92.4979 111.869C93.7795 111.869 94.8988 112.155 95.8558 112.728C96.8213 113.3 97.5689 114.129 98.0986 115.214C98.6369 116.291 98.9061 117.594 98.9061 119.123ZM88.2173 119.123C88.2173 120.251 88.3668 121.229 88.6658 122.058C88.9649 122.887 89.4263 123.527 90.05 123.98C90.6737 124.433 91.4769 124.66 92.4595 124.66C93.4335 124.66 94.2324 124.433 94.8561 123.98C95.4884 123.527 95.954 122.887 96.2531 122.058C96.5521 121.229 96.7017 120.251 96.7017 119.123C96.7017 118.004 96.5521 117.038 96.2531 116.226C95.954 115.406 95.4927 114.774 94.8689 114.33C94.2452 113.885 93.4378 113.663 92.4466 113.663C90.9856 113.663 89.9133 114.146 89.2298 115.111C88.5548 116.077 88.2173 117.414 88.2173 119.123ZM108.211 126.428C106.946 126.428 105.831 126.168 104.866 125.646C103.9 125.125 103.148 124.331 102.61 123.263C102.072 122.195 101.803 120.849 101.803 119.225C101.803 117.525 102.084 116.137 102.648 115.06C103.221 113.975 104.007 113.172 105.007 112.651C106.006 112.129 107.143 111.869 108.416 111.869C109.116 111.869 109.791 111.942 110.441 112.087C111.099 112.223 111.637 112.399 112.056 112.612L111.415 114.394C110.988 114.223 110.492 114.069 109.928 113.932C109.373 113.796 108.851 113.727 108.364 113.727C107.39 113.727 106.579 113.937 105.929 114.355C105.289 114.774 104.806 115.389 104.481 116.201C104.165 117.013 104.007 118.012 104.007 119.2C104.007 120.336 104.161 121.306 104.468 122.109C104.784 122.912 105.25 123.527 105.865 123.955C106.489 124.373 107.267 124.583 108.198 124.583C108.941 124.583 109.612 124.506 110.21 124.352C110.808 124.19 111.351 124.002 111.838 123.788V125.685C111.368 125.924 110.842 126.108 110.261 126.236C109.689 126.364 109.005 126.428 108.211 126.428ZM117.285 106.23V116.585C117.285 116.927 117.272 117.346 117.246 117.841C117.221 118.328 117.199 118.76 117.182 119.136H117.272C117.451 118.914 117.712 118.585 118.054 118.149C118.404 117.713 118.699 117.363 118.938 117.098L123.603 112.125H126.102L120.45 118.123L126.512 126.172H123.949L118.989 119.52L117.285 121.084V126.172H115.17V106.23H117.285ZM145.198 132.452V126.428C145.198 126.095 145.207 125.71 145.224 125.275C145.241 124.839 145.271 124.463 145.314 124.147H145.173C144.78 124.796 144.22 125.339 143.494 125.775C142.768 126.21 141.832 126.428 140.687 126.428C138.97 126.428 137.59 125.822 136.547 124.608C135.505 123.395 134.984 121.584 134.984 119.174C134.984 117.594 135.223 116.261 135.702 115.176C136.18 114.09 136.855 113.27 137.727 112.715C138.607 112.151 139.632 111.869 140.802 111.869C141.922 111.869 142.836 112.091 143.545 112.535C144.254 112.971 144.81 113.505 145.211 114.137H145.314L145.634 112.125H147.326V132.452H145.198ZM141.084 124.66C142.076 124.66 142.87 124.476 143.468 124.108C144.066 123.733 144.502 123.169 144.776 122.417C145.057 121.665 145.207 120.729 145.224 119.61V119.161C145.224 117.35 144.917 115.979 144.301 115.047C143.686 114.107 142.614 113.638 141.084 113.638C139.769 113.638 138.79 114.142 138.15 115.15C137.509 116.15 137.188 117.508 137.188 119.225C137.188 120.943 137.509 122.28 138.15 123.237C138.79 124.185 139.769 124.66 141.084 124.66ZM163.449 112.125V126.172H161.706L161.398 124.198H161.283C160.992 124.685 160.616 125.095 160.155 125.429C159.694 125.762 159.172 126.01 158.591 126.172C158.019 126.343 157.408 126.428 156.759 126.428C155.648 126.428 154.717 126.249 153.965 125.89C153.213 125.531 152.645 124.976 152.26 124.224C151.884 123.472 151.696 122.506 151.696 121.327V112.125H153.849V121.174C153.849 122.344 154.114 123.22 154.644 123.801C155.174 124.373 155.981 124.66 157.066 124.66C158.109 124.66 158.938 124.463 159.553 124.07C160.176 123.677 160.625 123.1 160.898 122.34C161.172 121.571 161.309 120.631 161.309 119.52V112.125H163.449ZM170.075 112.125V126.172H167.947V112.125H170.075ZM169.037 106.871C169.387 106.871 169.686 106.986 169.934 107.217C170.19 107.439 170.318 107.789 170.318 108.268C170.318 108.737 170.19 109.088 169.934 109.318C169.686 109.549 169.387 109.665 169.037 109.665C168.669 109.665 168.362 109.549 168.114 109.318C167.875 109.088 167.755 108.737 167.755 108.268C167.755 107.789 167.875 107.439 168.114 107.217C168.362 106.986 168.669 106.871 169.037 106.871ZM180.213 126.428C178.948 126.428 177.833 126.168 176.868 125.646C175.902 125.125 175.15 124.331 174.612 123.263C174.074 122.195 173.804 120.849 173.804 119.225C173.804 117.525 174.086 116.137 174.65 115.06C175.223 113.975 176.009 113.172 177.008 112.651C178.008 112.129 179.145 111.869 180.418 111.869C181.118 111.869 181.793 111.942 182.443 112.087C183.1 112.223 183.639 112.399 184.057 112.612L183.417 114.394C182.989 114.223 182.494 114.069 181.93 113.932C181.375 113.796 180.853 113.727 180.366 113.727C179.392 113.727 178.581 113.937 177.931 114.355C177.29 114.774 176.808 115.389 176.483 116.201C176.167 117.013 176.009 118.012 176.009 119.2C176.009 120.336 176.163 121.306 176.47 122.109C176.786 122.912 177.252 123.527 177.867 123.955C178.491 124.373 179.268 124.583 180.2 124.583C180.943 124.583 181.614 124.506 182.212 124.352C182.81 124.19 183.353 124.002 183.84 123.788V125.685C183.37 125.924 182.844 126.108 182.263 126.236C181.691 126.364 181.007 126.428 180.213 126.428ZM189.286 106.23V116.585C189.286 116.927 189.274 117.346 189.248 117.841C189.222 118.328 189.201 118.76 189.184 119.136H189.274C189.453 118.914 189.714 118.585 190.055 118.149C190.406 117.713 190.701 117.363 190.94 117.098L195.605 112.125H198.104L192.452 118.123L198.514 126.172H195.951L190.991 119.52L189.286 121.084V126.172H187.172V106.23H189.286ZM203.102 126.172H200.962V106.23H203.102V126.172ZM205.384 112.125H207.665L210.767 120.276C210.946 120.755 211.113 121.216 211.266 121.661C211.42 122.096 211.557 122.515 211.677 122.917C211.796 123.318 211.89 123.707 211.958 124.083H212.048C212.168 123.656 212.339 123.096 212.561 122.404C212.783 121.703 213.022 120.99 213.279 120.264L216.214 112.125H218.508L212.394 128.235C212.07 129.098 211.689 129.85 211.254 130.491C210.826 131.132 210.305 131.623 209.69 131.965C209.075 132.315 208.331 132.49 207.46 132.49C207.058 132.49 206.704 132.465 206.396 132.413C206.089 132.371 205.824 132.319 205.602 132.26V130.555C205.79 130.598 206.016 130.636 206.281 130.67C206.554 130.705 206.836 130.722 207.127 130.722C207.656 130.722 208.114 130.619 208.498 130.414C208.891 130.218 209.229 129.927 209.511 129.543C209.793 129.158 210.036 128.701 210.241 128.171L211.01 126.198L205.384 112.125ZM220.43 124.839C220.43 124.241 220.575 123.818 220.866 123.57C221.156 123.314 221.511 123.186 221.93 123.186C222.365 123.186 222.733 123.314 223.032 123.57C223.331 123.818 223.48 124.241 223.48 124.839C223.48 125.429 223.331 125.86 223.032 126.133C222.733 126.398 222.365 126.531 221.93 126.531C221.511 126.531 221.156 126.398 220.866 126.133C220.575 125.86 220.43 125.429 220.43 124.839ZM234.784 126.172V107.434H236.963V126.172H234.784ZM246.332 124.685C246.682 124.685 247.041 124.655 247.408 124.595C247.776 124.536 248.075 124.463 248.305 124.378V126.031C248.058 126.142 247.712 126.236 247.267 126.313C246.832 126.39 246.404 126.428 245.986 126.428C245.242 126.428 244.567 126.3 243.961 126.044C243.354 125.779 242.867 125.335 242.5 124.711C242.141 124.087 241.961 123.224 241.961 122.122V113.791H239.962V112.753L241.974 111.92L242.82 108.87H244.102V112.125H248.216V113.791H244.102V122.058C244.102 122.938 244.303 123.596 244.704 124.032C245.114 124.467 245.657 124.685 246.332 124.685ZM269.401 126.146L266.902 117.969C266.791 117.619 266.684 117.277 266.581 116.944C266.488 116.602 266.398 116.278 266.312 115.97C266.235 115.654 266.163 115.363 266.094 115.099C266.035 114.825 265.983 114.59 265.941 114.394H265.851C265.817 114.59 265.77 114.825 265.71 115.099C265.65 115.363 265.578 115.654 265.492 115.97C265.415 116.286 265.33 116.619 265.236 116.97C265.142 117.312 265.035 117.658 264.915 118.008L262.301 126.146H259.904L256.034 112.1H258.238L260.263 119.853C260.4 120.366 260.528 120.874 260.648 121.379C260.776 121.874 260.883 122.344 260.968 122.788C261.062 123.224 261.13 123.604 261.173 123.929H261.276C261.327 123.715 261.382 123.459 261.442 123.16C261.511 122.861 261.583 122.545 261.66 122.212C261.745 121.87 261.835 121.532 261.929 121.199C262.023 120.857 262.117 120.537 262.211 120.238L264.8 112.1H267.094L269.593 120.225C269.721 120.635 269.845 121.062 269.965 121.507C270.093 121.951 270.209 122.383 270.311 122.801C270.414 123.211 270.486 123.579 270.529 123.903H270.631C270.666 123.613 270.73 123.254 270.824 122.827C270.918 122.4 271.024 121.93 271.144 121.417C271.272 120.904 271.405 120.383 271.541 119.853L273.592 112.1H275.758L271.875 126.146H269.401ZM290.433 119.123C290.433 120.276 290.283 121.306 289.984 122.212C289.685 123.117 289.254 123.882 288.69 124.506C288.126 125.129 287.442 125.608 286.639 125.941C285.844 126.266 284.943 126.428 283.935 126.428C282.995 126.428 282.132 126.266 281.346 125.941C280.568 125.608 279.893 125.129 279.321 124.506C278.757 123.882 278.317 123.117 278.001 122.212C277.693 121.306 277.539 120.276 277.539 119.123C277.539 117.585 277.8 116.278 278.321 115.201C278.842 114.116 279.586 113.292 280.551 112.728C281.525 112.155 282.683 111.869 284.024 111.869C285.306 111.869 286.425 112.155 287.382 112.728C288.348 113.3 289.095 114.129 289.625 115.214C290.163 116.291 290.433 117.594 290.433 119.123ZM279.744 119.123C279.744 120.251 279.893 121.229 280.192 122.058C280.491 122.887 280.953 123.527 281.577 123.98C282.2 124.433 283.003 124.66 283.986 124.66C284.96 124.66 285.759 124.433 286.383 123.98C287.015 123.527 287.481 122.887 287.78 122.058C288.079 121.229 288.228 120.251 288.228 119.123C288.228 118.004 288.079 117.038 287.78 116.226C287.481 115.406 287.019 114.774 286.395 114.33C285.772 113.885 284.964 113.663 283.973 113.663C282.512 113.663 281.44 114.146 280.756 115.111C280.081 116.077 279.744 117.414 279.744 119.123ZM305.71 112.125V126.172H303.967L303.659 124.198H303.544C303.253 124.685 302.877 125.095 302.416 125.429C301.954 125.762 301.433 126.01 300.852 126.172C300.28 126.343 299.669 126.428 299.02 126.428C297.909 126.428 296.977 126.249 296.226 125.89C295.474 125.531 294.905 124.976 294.521 124.224C294.145 123.472 293.957 122.506 293.957 121.327V112.125H296.11V121.174C296.11 122.344 296.375 123.22 296.905 123.801C297.435 124.373 298.242 124.66 299.327 124.66C300.369 124.66 301.198 124.463 301.813 124.07C302.437 123.677 302.886 123.1 303.159 122.34C303.433 121.571 303.569 120.631 303.569 119.52V112.125H305.71ZM312.348 126.172H310.208V106.23H312.348V126.172ZM321.845 126.428C320.068 126.428 318.658 125.822 317.616 124.608C316.582 123.395 316.065 121.592 316.065 119.2C316.065 116.782 316.595 114.958 317.654 113.727C318.714 112.488 320.124 111.869 321.884 111.869C322.627 111.869 323.276 111.967 323.832 112.164C324.387 112.36 324.866 112.625 325.267 112.958C325.669 113.283 326.006 113.655 326.28 114.073H326.434C326.399 113.808 326.365 113.445 326.331 112.984C326.297 112.523 326.28 112.147 326.28 111.856V106.23H328.407V126.172H326.69L326.369 124.173H326.28C326.015 124.591 325.677 124.971 325.267 125.313C324.866 125.655 324.383 125.928 323.819 126.133C323.264 126.33 322.606 126.428 321.845 126.428ZM322.179 124.66C323.682 124.66 324.746 124.232 325.37 123.378C325.994 122.524 326.305 121.255 326.305 119.571V119.187C326.305 117.401 326.006 116.03 325.408 115.073C324.819 114.116 323.742 113.638 322.179 113.638C320.871 113.638 319.893 114.142 319.244 115.15C318.594 116.15 318.27 117.517 318.27 119.251C318.27 120.977 318.59 122.31 319.231 123.25C319.88 124.19 320.863 124.66 322.179 124.66ZM341.864 106.23V111.215C341.864 111.788 341.847 112.343 341.813 112.881C341.787 113.42 341.766 113.838 341.749 114.137H341.864C342.249 113.505 342.804 112.971 343.53 112.535C344.257 112.1 345.184 111.882 346.312 111.882C348.072 111.882 349.473 112.493 350.515 113.714C351.566 114.928 352.092 116.735 352.092 119.136C352.092 120.716 351.853 122.049 351.374 123.134C350.896 124.22 350.221 125.04 349.349 125.595C348.478 126.151 347.448 126.428 346.26 126.428C345.15 126.428 344.235 126.223 343.518 125.813C342.809 125.394 342.262 124.886 341.877 124.288H341.711L341.275 126.172H339.737V106.23H341.864ZM345.966 113.663C344.949 113.663 344.141 113.864 343.543 114.266C342.945 114.659 342.514 115.257 342.249 116.06C341.993 116.854 341.864 117.863 341.864 119.084V119.2C341.864 120.968 342.159 122.323 342.749 123.263C343.338 124.194 344.411 124.66 345.966 124.66C347.273 124.66 348.251 124.181 348.901 123.224C349.558 122.267 349.887 120.9 349.887 119.123C349.887 117.312 349.563 115.949 348.913 115.035C348.273 114.12 347.29 113.663 345.966 113.663ZM361.217 111.869C362.413 111.869 363.438 112.134 364.293 112.664C365.147 113.193 365.801 113.937 366.254 114.894C366.707 115.842 366.933 116.953 366.933 118.226V119.546H357.231C357.257 121.195 357.667 122.451 358.461 123.314C359.256 124.177 360.375 124.608 361.819 124.608C362.708 124.608 363.494 124.527 364.177 124.365C364.861 124.202 365.57 123.963 366.305 123.647V125.518C365.596 125.834 364.891 126.065 364.19 126.21C363.498 126.356 362.678 126.428 361.73 126.428C360.38 126.428 359.201 126.155 358.192 125.608C357.193 125.053 356.415 124.241 355.86 123.173C355.304 122.105 355.027 120.798 355.027 119.251C355.027 117.739 355.279 116.431 355.783 115.329C356.295 114.219 357.013 113.364 357.936 112.766C358.867 112.168 359.961 111.869 361.217 111.869ZM361.191 113.612C360.055 113.612 359.149 113.984 358.474 114.727C357.799 115.47 357.398 116.508 357.27 117.841H364.703C364.694 117.004 364.562 116.269 364.306 115.637C364.058 114.996 363.678 114.501 363.165 114.15C362.652 113.791 361.994 113.612 361.191 113.612ZM74.4782 147.869C76.1443 147.869 77.4046 148.279 78.259 149.099C79.1134 149.911 79.5407 151.218 79.5407 153.021V162.172H77.4388V153.162C77.4388 151.991 77.1696 151.116 76.6314 150.535C76.1016 149.954 75.2857 149.663 74.1835 149.663C72.6284 149.663 71.5348 150.103 70.9025 150.983C70.2702 151.863 69.9541 153.141 69.9541 154.815V162.172H67.8266V148.125H69.544L69.8644 150.15H69.9797C70.2788 149.655 70.659 149.24 71.1204 148.907C71.5817 148.565 72.0987 148.309 72.6711 148.138C73.2436 147.959 73.846 147.869 74.4782 147.869ZM86.0513 148.125V162.172H83.9238V148.125H86.0513ZM85.0132 142.871C85.3635 142.871 85.6626 142.986 85.9104 143.217C86.1667 143.439 86.2948 143.789 86.2948 144.268C86.2948 144.737 86.1667 145.088 85.9104 145.318C85.6626 145.549 85.3635 145.665 85.0132 145.665C84.6458 145.665 84.3382 145.549 84.0904 145.318C83.8512 145.088 83.7316 144.737 83.7316 144.268C83.7316 143.789 83.8512 143.439 84.0904 143.217C84.3382 142.986 84.6458 142.871 85.0132 142.871ZM96.189 162.428C94.9245 162.428 93.8095 162.168 92.844 161.646C91.8785 161.125 91.1266 160.331 90.5883 159.263C90.05 158.195 89.7809 156.849 89.7809 155.225C89.7809 153.525 90.0628 152.137 90.6267 151.06C91.1992 149.975 91.9853 149.172 92.9849 148.651C93.9846 148.129 95.121 147.869 96.3941 147.869C97.0947 147.869 97.7697 147.942 98.419 148.087C99.0769 148.223 99.6152 148.399 100.034 148.612L99.3931 150.394C98.9659 150.223 98.4703 150.069 97.9064 149.932C97.351 149.796 96.8298 149.727 96.3428 149.727C95.3688 149.727 94.5571 149.937 93.9077 150.355C93.2669 150.774 92.7842 151.389 92.4595 152.201C92.1433 153.013 91.9853 154.012 91.9853 155.2C91.9853 156.336 92.1391 157.306 92.4467 158.109C92.7628 158.912 93.2284 159.527 93.8436 159.955C94.4674 160.373 95.2449 160.583 96.1762 160.583C96.9195 160.583 97.5903 160.506 98.1884 160.352C98.7864 160.19 99.329 160.002 99.816 159.788V161.685C99.3461 161.924 98.8206 162.108 98.2396 162.236C97.6672 162.364 96.9836 162.428 96.189 162.428ZM108.557 147.869C109.753 147.869 110.778 148.134 111.633 148.664C112.487 149.193 113.141 149.937 113.594 150.894C114.046 151.842 114.273 152.953 114.273 154.226V155.546H104.571C104.596 157.195 105.007 158.451 105.801 159.314C106.596 160.177 107.715 160.608 109.159 160.608C110.048 160.608 110.834 160.527 111.517 160.365C112.201 160.202 112.91 159.963 113.645 159.647V161.518C112.936 161.834 112.231 162.065 111.53 162.21C110.838 162.356 110.018 162.428 109.069 162.428C107.719 162.428 106.54 162.155 105.532 161.608C104.532 161.053 103.755 160.241 103.2 159.173C102.644 158.105 102.366 156.798 102.366 155.251C102.366 153.739 102.619 152.431 103.123 151.329C103.635 150.219 104.353 149.364 105.276 148.766C106.207 148.168 107.301 147.869 108.557 147.869ZM108.531 149.612C107.395 149.612 106.489 149.984 105.814 150.727C105.139 151.47 104.737 152.508 104.609 153.841H112.043C112.034 153.004 111.902 152.269 111.645 151.637C111.398 150.996 111.017 150.501 110.505 150.15C109.992 149.791 109.334 149.612 108.531 149.612ZM129.242 160.685C129.593 160.685 129.951 160.655 130.319 160.595C130.686 160.536 130.985 160.463 131.216 160.378V162.031C130.968 162.142 130.622 162.236 130.178 162.313C129.742 162.39 129.315 162.428 128.896 162.428C128.153 162.428 127.478 162.3 126.871 162.044C126.265 161.779 125.778 161.335 125.41 160.711C125.051 160.087 124.872 159.224 124.872 158.122V149.791H122.873V148.753L124.885 147.92L125.731 144.87H127.012V148.125H131.126V149.791H127.012V158.058C127.012 158.938 127.213 159.596 127.615 160.032C128.025 160.467 128.567 160.685 129.242 160.685ZM146.173 155.123C146.173 156.276 146.023 157.306 145.724 158.212C145.425 159.117 144.993 159.882 144.43 160.506C143.866 161.129 143.182 161.608 142.379 161.941C141.584 162.266 140.683 162.428 139.675 162.428C138.735 162.428 137.872 162.266 137.086 161.941C136.308 161.608 135.633 161.129 135.061 160.506C134.497 159.882 134.057 159.117 133.741 158.212C133.433 157.306 133.279 156.276 133.279 155.123C133.279 153.585 133.54 152.278 134.061 151.201C134.582 150.116 135.326 149.292 136.291 148.728C137.265 148.155 138.423 147.869 139.764 147.869C141.046 147.869 142.165 148.155 143.122 148.728C144.088 149.3 144.835 150.129 145.365 151.214C145.903 152.291 146.173 153.594 146.173 155.123ZM135.484 155.123C135.484 156.251 135.633 157.229 135.932 158.058C136.231 158.887 136.693 159.527 137.316 159.98C137.94 160.433 138.743 160.66 139.726 160.66C140.7 160.66 141.499 160.433 142.123 159.98C142.755 159.527 143.221 158.887 143.52 158.058C143.819 157.229 143.968 156.251 143.968 155.123C143.968 154.004 143.819 153.038 143.52 152.226C143.221 151.406 142.759 150.774 142.135 150.33C141.512 149.885 140.704 149.663 139.713 149.663C138.252 149.663 137.18 150.146 136.496 151.111C135.821 152.077 135.484 153.414 135.484 155.123ZM158.784 142.23V152.585C158.784 152.927 158.771 153.346 158.745 153.841C158.72 154.328 158.698 154.76 158.681 155.136H158.771C158.95 154.914 159.211 154.585 159.553 154.149C159.903 153.713 160.198 153.363 160.437 153.098L165.102 148.125H167.601L161.949 154.123L168.011 162.172H165.448L160.488 155.52L158.784 157.084V162.172H156.669V142.23H158.784ZM177.111 147.869C178.777 147.869 180.037 148.279 180.892 149.099C181.746 149.911 182.173 151.218 182.173 153.021V162.172H180.072V153.162C180.072 151.991 179.802 151.116 179.264 150.535C178.734 149.954 177.918 149.663 176.816 149.663C175.261 149.663 174.168 150.103 173.535 150.983C172.903 151.863 172.587 153.141 172.587 154.815V162.172H170.459V148.125H172.177L172.497 150.15H172.613C172.912 149.655 173.292 149.24 173.753 148.907C174.215 148.565 174.731 148.309 175.304 148.138C175.876 147.959 176.479 147.869 177.111 147.869ZM198.668 155.123C198.668 156.276 198.518 157.306 198.219 158.212C197.92 159.117 197.489 159.882 196.925 160.506C196.361 161.129 195.678 161.608 194.874 161.941C194.08 162.266 193.178 162.428 192.17 162.428C191.23 162.428 190.367 162.266 189.581 161.941C188.804 161.608 188.129 161.129 187.556 160.506C186.992 159.882 186.552 159.117 186.236 158.212C185.929 157.306 185.775 156.276 185.775 155.123C185.775 153.585 186.035 152.278 186.557 151.201C187.078 150.116 187.821 149.292 188.787 148.728C189.761 148.155 190.918 147.869 192.26 147.869C193.542 147.869 194.661 148.155 195.618 148.728C196.583 149.3 197.331 150.129 197.861 151.214C198.399 152.291 198.668 153.594 198.668 155.123ZM187.979 155.123C187.979 156.251 188.129 157.229 188.428 158.058C188.727 158.887 189.188 159.527 189.812 159.98C190.436 160.433 191.239 160.66 192.221 160.66C193.195 160.66 193.994 160.433 194.618 159.98C195.25 159.527 195.716 158.887 196.015 158.058C196.314 157.229 196.464 156.251 196.464 155.123C196.464 154.004 196.314 153.038 196.015 152.226C195.716 151.406 195.255 150.774 194.631 150.33C194.007 149.885 193.2 149.663 192.209 149.663C190.748 149.663 189.675 150.146 188.992 151.111C188.317 152.077 187.979 153.414 187.979 155.123ZM213.778 162.146L211.279 153.969C211.168 153.619 211.061 153.277 210.959 152.944C210.865 152.602 210.775 152.278 210.69 151.97C210.613 151.654 210.54 151.363 210.472 151.099C210.412 150.825 210.361 150.59 210.318 150.394H210.228C210.194 150.59 210.147 150.825 210.087 151.099C210.028 151.363 209.955 151.654 209.869 151.97C209.793 152.286 209.707 152.619 209.613 152.97C209.519 153.312 209.412 153.658 209.293 154.008L206.678 162.146H204.282L200.411 148.1H202.615L204.64 155.853C204.777 156.366 204.905 156.874 205.025 157.379C205.153 157.874 205.26 158.344 205.345 158.788C205.439 159.224 205.508 159.604 205.55 159.929H205.653C205.704 159.715 205.76 159.459 205.82 159.16C205.888 158.861 205.96 158.545 206.037 158.212C206.123 157.87 206.213 157.532 206.307 157.199C206.401 156.857 206.494 156.537 206.588 156.238L209.177 148.1H211.471L213.971 156.225C214.099 156.635 214.223 157.062 214.342 157.507C214.47 157.951 214.586 158.383 214.688 158.801C214.791 159.211 214.864 159.579 214.906 159.903H215.009C215.043 159.613 215.107 159.254 215.201 158.827C215.295 158.4 215.402 157.93 215.521 157.417C215.65 156.904 215.782 156.383 215.919 155.853L217.969 148.1H220.135L216.252 162.146H213.778ZM240.949 162.146L238.45 153.969C238.339 153.619 238.232 153.277 238.129 152.944C238.035 152.602 237.946 152.278 237.86 151.97C237.783 151.654 237.711 151.363 237.642 151.099C237.583 150.825 237.531 150.59 237.489 150.394H237.399C237.365 150.59 237.318 150.825 237.258 151.099C237.198 151.363 237.125 151.654 237.04 151.97C236.963 152.286 236.878 152.619 236.784 152.97C236.69 153.312 236.583 153.658 236.463 154.008L233.849 162.146H231.452L227.582 148.1H229.786L231.811 155.853C231.948 156.366 232.076 156.874 232.195 157.379C232.324 157.874 232.43 158.344 232.516 158.788C232.61 159.224 232.678 159.604 232.721 159.929H232.823C232.875 159.715 232.93 159.459 232.99 159.16C233.058 158.861 233.131 158.545 233.208 158.212C233.293 157.87 233.383 157.532 233.477 157.199C233.571 156.857 233.665 156.537 233.759 156.238L236.348 148.1H238.642L241.141 156.225C241.269 156.635 241.393 157.062 241.513 157.507C241.641 157.951 241.756 158.383 241.859 158.801C241.961 159.211 242.034 159.579 242.077 159.903H242.179C242.213 159.613 242.278 159.254 242.372 158.827C242.466 158.4 242.572 157.93 242.692 157.417C242.82 156.904 242.953 156.383 243.089 155.853L245.14 148.1H247.306L243.422 162.146H240.949ZM251.997 142.23V148.189C251.997 148.531 251.988 148.877 251.971 149.227C251.954 149.569 251.924 149.885 251.881 150.176H252.022C252.313 149.68 252.68 149.266 253.124 148.933C253.577 148.591 254.09 148.335 254.662 148.164C255.235 147.984 255.841 147.895 256.482 147.895C257.61 147.895 258.55 148.074 259.302 148.433C260.062 148.792 260.63 149.347 261.006 150.099C261.391 150.851 261.583 151.825 261.583 153.021V162.172H259.481V153.162C259.481 151.991 259.212 151.116 258.674 150.535C258.144 149.954 257.328 149.663 256.226 149.663C255.184 149.663 254.35 149.864 253.727 150.266C253.112 150.659 252.667 151.24 252.394 152.009C252.129 152.778 251.997 153.717 251.997 154.828V162.172H249.869V142.23H251.997ZM271.375 147.869C272.571 147.869 273.596 148.134 274.451 148.664C275.305 149.193 275.959 149.937 276.412 150.894C276.864 151.842 277.091 152.953 277.091 154.226V155.546H267.389C267.415 157.195 267.825 158.451 268.619 159.314C269.414 160.177 270.533 160.608 271.977 160.608C272.866 160.608 273.652 160.527 274.335 160.365C275.019 160.202 275.728 159.963 276.463 159.647V161.518C275.754 161.834 275.049 162.065 274.348 162.21C273.656 162.356 272.836 162.428 271.887 162.428C270.537 162.428 269.358 162.155 268.35 161.608C267.35 161.053 266.573 160.241 266.018 159.173C265.462 158.105 265.185 156.798 265.185 155.251C265.185 153.739 265.437 152.431 265.941 151.329C266.453 150.219 267.171 149.364 268.094 148.766C269.025 148.168 270.119 147.869 271.375 147.869ZM271.349 149.612C270.213 149.612 269.307 149.984 268.632 150.727C267.957 151.47 267.556 152.508 267.427 153.841H274.861C274.852 153.004 274.72 152.269 274.464 151.637C274.216 150.996 273.836 150.501 273.323 150.15C272.81 149.791 272.152 149.612 271.349 149.612ZM287.357 147.869C289.023 147.869 290.283 148.279 291.138 149.099C291.992 149.911 292.419 151.218 292.419 153.021V162.172H290.317V153.162C290.317 151.991 290.048 151.116 289.51 150.535C288.98 149.954 288.164 149.663 287.062 149.663C285.507 149.663 284.413 150.103 283.781 150.983C283.149 151.863 282.833 153.141 282.833 154.815V162.172H280.705V148.125H282.422L282.743 150.15H282.858C283.157 149.655 283.537 149.24 283.999 148.907C284.46 148.565 284.977 148.309 285.55 148.138C286.122 147.959 286.724 147.869 287.357 147.869ZM312.707 158.327C312.707 159.224 312.481 159.98 312.028 160.595C311.584 161.202 310.943 161.659 310.106 161.967C309.277 162.274 308.286 162.428 307.132 162.428C306.15 162.428 305.299 162.351 304.582 162.198C303.864 162.044 303.236 161.826 302.698 161.544V159.583C303.27 159.865 303.954 160.121 304.748 160.352C305.543 160.583 306.355 160.698 307.183 160.698C308.397 160.698 309.277 160.501 309.824 160.108C310.37 159.715 310.644 159.181 310.644 158.506C310.644 158.122 310.533 157.784 310.311 157.494C310.097 157.195 309.734 156.909 309.221 156.635C308.709 156.353 307.999 156.046 307.094 155.712C306.197 155.371 305.419 155.033 304.761 154.7C304.112 154.358 303.608 153.944 303.249 153.457C302.899 152.97 302.723 152.338 302.723 151.56C302.723 150.372 303.202 149.462 304.159 148.83C305.124 148.189 306.389 147.869 307.952 147.869C308.798 147.869 309.589 147.954 310.323 148.125C311.067 148.288 311.759 148.51 312.4 148.792L311.682 150.496C311.101 150.248 310.482 150.039 309.824 149.868C309.166 149.697 308.495 149.612 307.811 149.612C306.829 149.612 306.073 149.774 305.543 150.099C305.022 150.424 304.761 150.868 304.761 151.432C304.761 151.868 304.881 152.226 305.12 152.508C305.368 152.79 305.761 153.055 306.299 153.303C306.837 153.551 307.547 153.841 308.427 154.175C309.307 154.499 310.067 154.837 310.708 155.187C311.349 155.529 311.84 155.947 312.182 156.443C312.532 156.93 312.707 157.558 312.707 158.327ZM320.666 160.685C321.017 160.685 321.375 160.655 321.743 160.595C322.11 160.536 322.409 160.463 322.64 160.378V162.031C322.392 162.142 322.046 162.236 321.602 162.313C321.166 162.39 320.739 162.428 320.32 162.428C319.577 162.428 318.902 162.3 318.295 162.044C317.689 161.779 317.202 161.335 316.834 160.711C316.475 160.087 316.296 159.224 316.296 158.122V149.791H314.297V148.753L316.309 147.92L317.155 144.87H318.436V148.125H322.55V149.791H318.436V158.058C318.436 158.938 318.637 159.596 319.039 160.032C319.449 160.467 319.991 160.685 320.666 160.685ZM337.597 155.123C337.597 156.276 337.447 157.306 337.148 158.212C336.849 159.117 336.417 159.882 335.854 160.506C335.29 161.129 334.606 161.608 333.803 161.941C333.008 162.266 332.107 162.428 331.099 162.428C330.159 162.428 329.296 162.266 328.51 161.941C327.732 161.608 327.057 161.129 326.485 160.506C325.921 159.882 325.481 159.117 325.165 158.212C324.857 157.306 324.703 156.276 324.703 155.123C324.703 153.585 324.964 152.278 325.485 151.201C326.006 150.116 326.75 149.292 327.715 148.728C328.689 148.155 329.847 147.869 331.188 147.869C332.47 147.869 333.589 148.155 334.546 148.728C335.512 149.3 336.259 150.129 336.789 151.214C337.327 152.291 337.597 153.594 337.597 155.123ZM326.908 155.123C326.908 156.251 327.057 157.229 327.356 158.058C327.655 158.887 328.117 159.527 328.74 159.98C329.364 160.433 330.167 160.66 331.15 160.66C332.124 160.66 332.923 160.433 333.547 159.98C334.179 159.527 334.645 158.887 334.944 158.058C335.243 157.229 335.392 156.251 335.392 155.123C335.392 154.004 335.243 153.038 334.944 152.226C334.645 151.406 334.183 150.774 333.559 150.33C332.936 149.885 332.128 149.663 331.137 149.663C329.676 149.663 328.604 150.146 327.92 151.111C327.245 152.077 326.908 153.414 326.908 155.123ZM346.901 162.428C345.637 162.428 344.522 162.168 343.556 161.646C342.591 161.125 341.839 160.331 341.3 159.263C340.762 158.195 340.493 156.849 340.493 155.225C340.493 153.525 340.775 152.137 341.339 151.06C341.911 149.975 342.697 149.172 343.697 148.651C344.697 148.129 345.833 147.869 347.106 147.869C347.807 147.869 348.482 147.942 349.131 148.087C349.789 148.223 350.327 148.399 350.746 148.612L350.105 150.394C349.678 150.223 349.182 150.069 348.619 149.932C348.063 149.796 347.542 149.727 347.055 149.727C346.081 149.727 345.269 149.937 344.62 150.355C343.979 150.774 343.496 151.389 343.172 152.201C342.856 153.013 342.697 154.012 342.697 155.2C342.697 156.336 342.851 157.306 343.159 158.109C343.475 158.912 343.941 159.527 344.556 159.955C345.18 160.373 345.957 160.583 346.888 160.583C347.632 160.583 348.302 160.506 348.901 160.352C349.499 160.19 350.041 160.002 350.528 159.788V161.685C350.058 161.924 349.533 162.108 348.952 162.236C348.379 162.364 347.696 162.428 346.901 162.428ZM355.975 142.23V152.585C355.975 152.927 355.962 153.346 355.937 153.841C355.911 154.328 355.89 154.76 355.873 155.136H355.962C356.142 154.914 356.402 154.585 356.744 154.149C357.094 153.713 357.389 153.363 357.628 153.098L362.294 148.125H364.793L359.141 154.123L365.203 162.172H362.64L357.68 155.52L355.975 157.084V162.172H353.86V142.23H355.975ZM80.8223 183.869C81.1042 183.869 81.399 183.886 81.7066 183.92C82.0142 183.946 82.2876 183.984 82.5268 184.036L82.2577 186.009C82.027 185.949 81.7707 185.902 81.4887 185.868C81.2068 185.834 80.9419 185.817 80.6941 185.817C80.1302 185.817 79.5962 185.932 79.0921 186.163C78.5965 186.385 78.1608 186.71 77.7848 187.137C77.4089 187.556 77.1141 188.064 76.9005 188.662C76.6869 189.252 76.5801 189.91 76.5801 190.636V198.172H74.4398V184.125H76.2084L76.4391 186.714H76.5288C76.8193 186.193 77.1696 185.719 77.5798 185.292C77.9899 184.856 78.4641 184.51 79.0024 184.253C79.5492 183.997 80.1558 183.869 80.8223 183.869ZM96.7785 184.125V198.172H95.0355L94.7279 196.198H94.6126C94.3221 196.685 93.9461 197.095 93.4848 197.429C93.0234 197.762 92.5022 198.01 91.9212 198.172C91.3487 198.343 90.7378 198.428 90.0884 198.428C88.9777 198.428 88.0464 198.249 87.2945 197.89C86.5426 197.531 85.9744 196.976 85.5899 196.224C85.214 195.472 85.026 194.506 85.026 193.327V184.125H87.1792V193.174C87.1792 194.344 87.444 195.22 87.9738 195.801C88.5035 196.373 89.3109 196.66 90.396 196.66C91.4384 196.66 92.2672 196.463 92.8824 196.07C93.5061 195.677 93.9547 195.1 94.2281 194.34C94.5015 193.571 94.6382 192.631 94.6382 191.52V184.125H96.7785ZM107.929 183.869C109.595 183.869 110.855 184.279 111.71 185.099C112.564 185.911 112.991 187.218 112.991 189.021V198.172H110.889V189.162C110.889 187.991 110.62 187.116 110.082 186.535C109.552 185.954 108.736 185.663 107.634 185.663C106.079 185.663 104.985 186.103 104.353 186.983C103.721 187.863 103.405 189.141 103.405 190.815V198.172H101.277V184.125H102.994L103.315 186.15H103.43C103.729 185.655 104.109 185.24 104.571 184.907C105.032 184.565 105.549 184.309 106.122 184.138C106.694 183.959 107.296 183.869 107.929 183.869ZM126.461 194.327C126.461 195.224 126.235 195.98 125.782 196.595C125.337 197.202 124.697 197.659 123.859 197.967C123.031 198.274 122.039 198.428 120.886 198.428C119.903 198.428 119.053 198.351 118.336 198.198C117.618 198.044 116.99 197.826 116.452 197.544V195.583C117.024 195.865 117.708 196.121 118.502 196.352C119.297 196.583 120.108 196.698 120.937 196.698C122.151 196.698 123.031 196.501 123.577 196.108C124.124 195.715 124.398 195.181 124.398 194.506C124.398 194.122 124.287 193.784 124.064 193.494C123.851 193.195 123.488 192.909 122.975 192.635C122.462 192.353 121.753 192.046 120.848 191.712C119.95 191.371 119.173 191.033 118.515 190.7C117.866 190.358 117.361 189.944 117.003 189.457C116.652 188.97 116.477 188.338 116.477 187.56C116.477 186.372 116.956 185.462 117.913 184.83C118.878 184.189 120.143 183.869 121.706 183.869C122.552 183.869 123.342 183.954 124.077 184.125C124.821 184.288 125.513 184.51 126.153 184.792L125.436 186.496C124.855 186.248 124.235 186.039 123.577 185.868C122.919 185.697 122.249 185.612 121.565 185.612C120.583 185.612 119.826 185.774 119.297 186.099C118.776 186.424 118.515 186.868 118.515 187.432C118.515 187.868 118.635 188.226 118.874 188.508C119.122 188.79 119.515 189.055 120.053 189.303C120.591 189.551 121.3 189.841 122.18 190.175C123.06 190.499 123.821 190.837 124.462 191.187C125.103 191.529 125.594 191.947 125.936 192.443C126.286 192.93 126.461 193.558 126.461 194.327ZM148.813 191.123C148.813 192.276 148.663 193.306 148.364 194.212C148.065 195.117 147.634 195.882 147.07 196.506C146.506 197.129 145.822 197.608 145.019 197.941C144.224 198.266 143.323 198.428 142.315 198.428C141.375 198.428 140.512 198.266 139.726 197.941C138.948 197.608 138.273 197.129 137.701 196.506C137.137 195.882 136.697 195.117 136.381 194.212C136.073 193.306 135.919 192.276 135.919 191.123C135.919 189.585 136.18 188.278 136.701 187.201C137.222 186.116 137.966 185.292 138.931 184.728C139.905 184.155 141.063 183.869 142.405 183.869C143.686 183.869 144.805 184.155 145.762 184.728C146.728 185.3 147.475 186.129 148.005 187.214C148.544 188.291 148.813 189.594 148.813 191.123ZM138.124 191.123C138.124 192.251 138.273 193.229 138.572 194.058C138.871 194.887 139.333 195.527 139.957 195.98C140.58 196.433 141.383 196.66 142.366 196.66C143.34 196.66 144.139 196.433 144.763 195.98C145.395 195.527 145.861 194.887 146.16 194.058C146.459 193.229 146.608 192.251 146.608 191.123C146.608 190.004 146.459 189.038 146.16 188.226C145.861 187.406 145.399 186.774 144.776 186.33C144.152 185.885 143.344 185.663 142.353 185.663C140.892 185.663 139.82 186.146 139.136 187.111C138.461 188.077 138.124 189.414 138.124 191.123ZM164.09 184.125V198.172H162.347L162.039 196.198H161.924C161.633 196.685 161.257 197.095 160.796 197.429C160.334 197.762 159.813 198.01 159.232 198.172C158.66 198.343 158.049 198.428 157.4 198.428C156.289 198.428 155.358 198.249 154.606 197.89C153.854 197.531 153.286 196.976 152.901 196.224C152.525 195.472 152.337 194.506 152.337 193.327V184.125H154.49V193.174C154.49 194.344 154.755 195.22 155.285 195.801C155.815 196.373 156.622 196.66 157.707 196.66C158.75 196.66 159.578 196.463 160.194 196.07C160.817 195.677 161.266 195.1 161.539 194.34C161.813 193.571 161.949 192.631 161.949 191.52V184.125H164.09ZM173.125 196.685C173.475 196.685 173.834 196.655 174.202 196.595C174.569 196.536 174.868 196.463 175.099 196.378V198.031C174.851 198.142 174.505 198.236 174.061 198.313C173.625 198.39 173.198 198.428 172.779 198.428C172.036 198.428 171.361 198.3 170.754 198.044C170.148 197.779 169.66 197.335 169.293 196.711C168.934 196.087 168.755 195.224 168.755 194.122V185.791H166.755V184.753L168.768 183.92L169.613 180.87H170.895V184.125H175.009V185.791H170.895V194.058C170.895 194.938 171.096 195.596 171.497 196.032C171.908 196.467 172.45 196.685 173.125 196.685ZM190.017 183.895C191.692 183.895 192.935 184.27 193.747 185.022C194.558 185.774 194.964 186.975 194.964 188.624V198.172H193.413L193.003 196.096H192.901C192.508 196.608 192.098 197.04 191.67 197.39C191.243 197.732 190.748 197.992 190.184 198.172C189.628 198.343 188.945 198.428 188.133 198.428C187.279 198.428 186.518 198.279 185.852 197.98C185.194 197.681 184.673 197.228 184.288 196.621C183.912 196.014 183.724 195.245 183.724 194.314C183.724 192.913 184.28 191.836 185.39 191.084C186.501 190.333 188.193 189.922 190.466 189.854L192.888 189.752V188.893C192.888 187.68 192.627 186.829 192.106 186.342C191.585 185.855 190.85 185.612 189.902 185.612C189.167 185.612 188.466 185.719 187.8 185.932C187.133 186.146 186.501 186.398 185.903 186.688L185.249 185.074C185.882 184.749 186.608 184.471 187.428 184.241C188.248 184.01 189.111 183.895 190.017 183.895ZM192.862 191.251L190.722 191.341C188.97 191.409 187.736 191.695 187.018 192.199C186.3 192.704 185.941 193.417 185.941 194.34C185.941 195.143 186.185 195.737 186.672 196.121C187.159 196.506 187.804 196.698 188.607 196.698C189.855 196.698 190.876 196.352 191.67 195.66C192.465 194.968 192.862 193.93 192.862 192.546V191.251ZM201.475 178.23V184.189C201.475 184.531 201.466 184.877 201.449 185.227C201.432 185.569 201.402 185.885 201.359 186.176H201.5C201.791 185.68 202.158 185.266 202.603 184.933C203.055 184.591 203.568 184.335 204.141 184.164C204.713 183.984 205.32 183.895 205.96 183.895C207.088 183.895 208.028 184.074 208.78 184.433C209.54 184.792 210.109 185.347 210.485 186.099C210.869 186.851 211.061 187.825 211.061 189.021V198.172H208.959V189.162C208.959 187.991 208.69 187.116 208.152 186.535C207.622 185.954 206.806 185.663 205.704 185.663C204.662 185.663 203.829 185.864 203.205 186.266C202.59 186.659 202.145 187.24 201.872 188.009C201.607 188.778 201.475 189.717 201.475 190.828V198.172H199.347V178.23H201.475ZM220.853 183.869C222.049 183.869 223.074 184.134 223.929 184.664C224.783 185.193 225.437 185.937 225.89 186.894C226.343 187.842 226.569 188.953 226.569 190.226V191.546H216.867C216.893 193.195 217.303 194.451 218.097 195.314C218.892 196.177 220.011 196.608 221.455 196.608C222.344 196.608 223.13 196.527 223.814 196.365C224.497 196.202 225.206 195.963 225.941 195.647V197.518C225.232 197.834 224.527 198.065 223.826 198.21C223.134 198.356 222.314 198.428 221.366 198.428C220.016 198.428 218.837 198.155 217.828 197.608C216.829 197.053 216.051 196.241 215.496 195.173C214.94 194.105 214.663 192.798 214.663 191.251C214.663 189.739 214.915 188.431 215.419 187.329C215.932 186.219 216.649 185.364 217.572 184.766C218.503 184.168 219.597 183.869 220.853 183.869ZM220.827 185.612C219.691 185.612 218.785 185.984 218.11 186.727C217.435 187.47 217.034 188.508 216.906 189.841H224.339C224.33 189.004 224.198 188.269 223.942 187.637C223.694 186.996 223.314 186.501 222.801 186.15C222.288 185.791 221.631 185.612 220.827 185.612ZM235.438 183.895C237.113 183.895 238.356 184.27 239.167 185.022C239.979 185.774 240.385 186.975 240.385 188.624V198.172H238.834L238.424 196.096H238.322C237.929 196.608 237.518 197.04 237.091 197.39C236.664 197.732 236.168 197.992 235.605 198.172C235.049 198.343 234.366 198.428 233.554 198.428C232.7 198.428 231.939 198.279 231.273 197.98C230.615 197.681 230.094 197.228 229.709 196.621C229.333 196.014 229.145 195.245 229.145 194.314C229.145 192.913 229.701 191.836 230.811 191.084C231.922 190.333 233.614 189.922 235.886 189.854L238.309 189.752V188.893C238.309 187.68 238.048 186.829 237.527 186.342C237.006 185.855 236.271 185.612 235.323 185.612C234.588 185.612 233.887 185.719 233.221 185.932C232.554 186.146 231.922 186.398 231.324 186.688L230.67 185.074C231.303 184.749 232.029 184.471 232.849 184.241C233.669 184.01 234.532 183.895 235.438 183.895ZM238.283 191.251L236.143 191.341C234.391 191.409 233.157 191.695 232.439 192.199C231.721 192.704 231.362 193.417 231.362 194.34C231.362 195.143 231.606 195.737 232.093 196.121C232.58 196.506 233.225 196.698 234.028 196.698C235.276 196.698 236.297 196.352 237.091 195.66C237.886 194.968 238.283 193.93 238.283 192.546V191.251ZM249.767 198.428C247.989 198.428 246.58 197.822 245.537 196.608C244.503 195.395 243.986 193.592 243.986 191.2C243.986 188.782 244.516 186.958 245.576 185.727C246.635 184.488 248.045 183.869 249.805 183.869C250.548 183.869 251.198 183.967 251.753 184.164C252.308 184.36 252.787 184.625 253.188 184.958C253.59 185.283 253.928 185.655 254.201 186.073H254.355C254.321 185.808 254.286 185.445 254.252 184.984C254.218 184.523 254.201 184.147 254.201 183.856V178.23H256.328V198.172H254.611L254.291 196.173H254.201C253.936 196.591 253.599 196.971 253.188 197.313C252.787 197.655 252.304 197.928 251.74 198.133C251.185 198.33 250.527 198.428 249.767 198.428ZM250.1 196.66C251.604 196.66 252.667 196.232 253.291 195.378C253.915 194.524 254.227 193.255 254.227 191.571V191.187C254.227 189.401 253.928 188.03 253.329 187.073C252.74 186.116 251.663 185.638 250.1 185.638C248.792 185.638 247.814 186.142 247.165 187.15C246.515 188.15 246.191 189.517 246.191 191.251C246.191 192.977 246.511 194.31 247.152 195.25C247.801 196.19 248.784 196.66 250.1 196.66ZM279.769 191.123C279.769 192.276 279.62 193.306 279.321 194.212C279.022 195.117 278.59 195.882 278.026 196.506C277.463 197.129 276.779 197.608 275.976 197.941C275.181 198.266 274.28 198.428 273.272 198.428C272.332 198.428 271.469 198.266 270.683 197.941C269.905 197.608 269.23 197.129 268.658 196.506C268.094 195.882 267.654 195.117 267.338 194.212C267.03 193.306 266.876 192.276 266.876 191.123C266.876 189.585 267.137 188.278 267.658 187.201C268.179 186.116 268.923 185.292 269.888 184.728C270.862 184.155 272.02 183.869 273.361 183.869C274.643 183.869 275.762 184.155 276.719 184.728C277.685 185.3 278.432 186.129 278.962 187.214C279.5 188.291 279.769 189.594 279.769 191.123ZM269.081 191.123C269.081 192.251 269.23 193.229 269.529 194.058C269.828 194.887 270.29 195.527 270.913 195.98C271.537 196.433 272.34 196.66 273.323 196.66C274.297 196.66 275.096 196.433 275.719 195.98C276.352 195.527 276.817 194.887 277.116 194.058C277.416 193.229 277.565 192.251 277.565 191.123C277.565 190.004 277.416 189.038 277.116 188.226C276.817 187.406 276.356 186.774 275.732 186.33C275.109 185.885 274.301 185.663 273.31 185.663C271.849 185.663 270.777 186.146 270.093 187.111C269.418 188.077 269.081 189.414 269.081 191.123ZM289.702 185.791H286.203V198.172H284.076V185.791H281.589V184.766L284.076 184.061V183.126C284.076 181.946 284.251 180.99 284.601 180.255C284.951 179.511 285.46 178.965 286.126 178.614C286.793 178.264 287.604 178.089 288.561 178.089C289.1 178.089 289.591 178.136 290.035 178.23C290.488 178.324 290.885 178.431 291.227 178.55L290.676 180.229C290.386 180.135 290.057 180.05 289.689 179.973C289.33 179.887 288.963 179.845 288.587 179.845C287.775 179.845 287.173 180.109 286.78 180.639C286.395 181.16 286.203 181.981 286.203 183.1V184.125H289.702V185.791ZM303.646 196.685C303.996 196.685 304.355 196.655 304.723 196.595C305.09 196.536 305.389 196.463 305.62 196.378V198.031C305.372 198.142 305.026 198.236 304.582 198.313C304.146 198.39 303.719 198.428 303.3 198.428C302.557 198.428 301.882 198.3 301.275 198.044C300.669 197.779 300.182 197.335 299.814 196.711C299.455 196.087 299.276 195.224 299.276 194.122V185.791H297.276V184.753L299.289 183.92L300.135 180.87H301.416V184.125H305.53V185.791H301.416V194.058C301.416 194.938 301.617 195.596 302.019 196.032C302.429 196.467 302.971 196.685 303.646 196.685ZM310.593 184.125V198.172H308.465V184.125H310.593ZM309.554 178.871C309.905 178.871 310.204 178.986 310.452 179.217C310.708 179.439 310.836 179.789 310.836 180.268C310.836 180.737 310.708 181.088 310.452 181.318C310.204 181.549 309.905 181.665 309.554 181.665C309.187 181.665 308.88 181.549 308.632 181.318C308.392 181.088 308.273 180.737 308.273 180.268C308.273 179.789 308.392 179.439 308.632 179.217C308.88 178.986 309.187 178.871 309.554 178.871ZM330.355 183.869C331.902 183.869 333.068 184.275 333.854 185.086C334.64 185.89 335.033 187.184 335.033 188.97V198.172H332.931V189.072C332.931 187.936 332.684 187.086 332.188 186.522C331.701 185.949 330.975 185.663 330.009 185.663C328.651 185.663 327.664 186.056 327.049 186.842C326.434 187.628 326.126 188.786 326.126 190.315V198.172H324.011V189.072C324.011 188.312 323.9 187.68 323.678 187.176C323.464 186.671 323.14 186.295 322.704 186.048C322.277 185.791 321.734 185.663 321.076 185.663C320.145 185.663 319.397 185.855 318.833 186.24C318.27 186.624 317.859 187.197 317.603 187.957C317.355 188.709 317.231 189.636 317.231 190.738V198.172H315.104V184.125H316.821L317.142 186.112H317.257C317.539 185.625 317.894 185.215 318.321 184.881C318.748 184.548 319.227 184.296 319.756 184.125C320.286 183.954 320.85 183.869 321.448 183.869C322.516 183.869 323.409 184.07 324.127 184.471C324.853 184.864 325.378 185.467 325.703 186.278H325.818C326.28 185.467 326.912 184.864 327.715 184.471C328.518 184.07 329.398 183.869 330.355 183.869ZM344.812 183.869C346.008 183.869 347.034 184.134 347.888 184.664C348.742 185.193 349.396 185.937 349.849 186.894C350.302 187.842 350.528 188.953 350.528 190.226V191.546H340.826C340.852 193.195 341.262 194.451 342.057 195.314C342.851 196.177 343.97 196.608 345.414 196.608C346.303 196.608 347.089 196.527 347.773 196.365C348.456 196.202 349.165 195.963 349.9 195.647V197.518C349.191 197.834 348.486 198.065 347.785 198.21C347.093 198.356 346.273 198.428 345.325 198.428C343.975 198.428 342.796 198.155 341.787 197.608C340.788 197.053 340.01 196.241 339.455 195.173C338.9 194.105 338.622 192.798 338.622 191.251C338.622 189.739 338.874 188.431 339.378 187.329C339.891 186.219 340.608 185.364 341.531 184.766C342.462 184.168 343.556 183.869 344.812 183.869ZM344.786 185.612C343.65 185.612 342.744 185.984 342.069 186.727C341.394 187.47 340.993 188.508 340.865 189.841H348.298C348.29 189.004 348.157 188.269 347.901 187.637C347.653 186.996 347.273 186.501 346.76 186.15C346.248 185.791 345.59 185.612 344.786 185.612ZM353.822 196.839C353.822 196.241 353.967 195.818 354.258 195.57C354.548 195.314 354.903 195.186 355.321 195.186C355.757 195.186 356.125 195.314 356.424 195.57C356.723 195.818 356.872 196.241 356.872 196.839C356.872 197.429 356.723 197.86 356.424 198.133C356.125 198.398 355.757 198.531 355.321 198.531C354.903 198.531 354.548 198.398 354.258 198.133C353.967 197.86 353.822 197.429 353.822 196.839Z" fill="#767676"/>
<mask id="mask0_787_2207" style="mask-type:alpha" maskUnits="userSpaceOnUse" x="471" y="0" width="111" height="250">
<rect x="471" width="110.833" height="250" fill="#D9D9D9"/>
</mask>
<g mask="url(#mask0_787_2207)">
<g clip-path="url(#clip0_787_2207)">
<path d="M497.365 80.327L511.058 56.6674C511.636 55.6632 511.802 54.468 511.523 53.3397C511.243 52.2114 510.539 51.2404 509.563 50.6363C509.058 50.3238 508.496 50.1194 507.911 50.0355C507.326 49.9516 506.731 49.9899 506.161 50.1483C505.591 50.3066 505.058 50.5816 504.596 50.9565C504.134 51.3313 503.751 51.7982 503.472 52.3286L489.987 77.3497L481.164 92.2013C480.393 92.0868 479.605 92.217 478.909 92.5744C478.213 92.9317 477.641 93.4988 477.272 94.1987C476.904 94.8985 476.755 95.6972 476.847 96.4861C476.939 97.2751 477.267 98.0161 477.786 98.6084C478.306 99.2008 478.991 99.6158 479.75 99.7971C480.509 99.9784 481.305 99.9171 482.028 99.6217C482.752 99.3262 483.369 98.8109 483.795 98.1457C484.221 97.4805 484.436 96.6977 484.411 95.9037L497.365 80.327Z" fill="#A0616A"/>
<path d="M510.403 62.7747C510.676 62.709 510.921 62.5536 511.099 62.3324C511.278 62.1112 511.38 61.8364 511.39 61.5503C511.41 61.1975 511.536 60.8597 511.753 60.584C511.796 60.5312 511.842 60.4813 511.891 60.4346C512.192 60.1606 512.424 59.8164 512.567 59.4313C512.711 59.0462 512.76 58.6316 512.713 58.2227C512.536 56.8794 513.012 55.3218 513.596 54.0354C514.235 52.6279 514.958 51.2344 515.248 49.7119C515.665 47.5156 515.031 44.913 512.375 44.2616C511.241 44.0024 510.054 44.1494 509.014 44.6779C506.826 45.7534 505.489 47.8931 504.229 49.9525C504.229 49.9525 501.22 53.1444 499.121 54.6957C499.669 54.9122 499.602 55.8024 499.147 56.182C498.693 56.5616 498.061 56.598 497.481 56.6928C496.749 56.8123 495.918 57.1534 495.963 58.0811C495.979 58.3027 496.041 58.5184 496.144 58.7146C496.246 58.9108 496.387 59.0832 496.558 59.2212C499.735 61.8974 503.421 63.8751 507.384 65.0299C508.264 65.2859 509.251 65.4904 510.06 65.0545C510.87 64.6186 511.184 63.2604 510.403 62.7747Z" fill="#B8322E"/>
<path d="M531.282 103.833L503.359 103.395L502.5 96.8276L505.078 81.9414H526.986L531.282 103.833Z" fill="#A0616A"/>
<path d="M493.796 241.675H489.054L486.797 223.035H493.796V241.675Z" fill="#A0616A"/>
<path d="M496.303 250.046H492.903L492.296 246.774L490.741 250.046H481.723C481.29 250.046 480.869 249.905 480.521 249.644C480.173 249.383 479.916 249.015 479.787 248.595C479.659 248.174 479.665 247.723 479.806 247.306C479.947 246.89 480.215 246.53 480.571 246.28L487.773 241.21V237.902L495.348 238.363L496.303 250.046Z" fill="#2F2E41"/>
<path d="M557.928 225.989L554.039 228.753L541.727 214.778L547.467 210.699L557.928 225.989Z" fill="#A0616A"/>
<path d="M564.671 231.398L561.881 233.38L559.547 231.05L560.108 234.64L552.71 239.897C552.356 240.149 551.931 240.279 551.499 240.268C551.067 240.257 550.65 240.105 550.308 239.835C549.967 239.565 549.719 239.191 549.601 238.767C549.482 238.343 549.5 237.892 549.652 237.479L552.714 229.122L550.858 226.409L557.331 222.371L564.671 231.398Z" fill="#2F2E41"/>
<path d="M484.959 80.6587L484.646 79.5377H484.716C484.911 79.5377 485.097 79.459 485.235 79.3189C485.372 79.1787 485.45 78.9886 485.45 78.7905C485.45 78.5923 485.372 78.4022 485.235 78.262C485.097 78.1219 484.911 78.0432 484.716 78.0432C481.402 77.2408 477.949 77.2408 474.635 78.0432C474.441 78.0431 474.255 78.1211 474.118 78.2602C473.98 78.3993 473.902 78.5882 473.901 78.7856C473.9 78.983 473.976 79.1728 474.111 79.3136C474.247 79.4543 474.432 79.5346 474.626 79.5369L474.328 80.6587C472.014 83.9365 473.146 89.3812 474.328 94.8574H484.96C486.296 88.8886 487.308 83.22 484.959 80.6587Z" fill="#CCCCCC"/>
<path d="M479.676 89.4354C481.296 89.4354 482.609 88.0971 482.609 86.4462C482.609 84.7953 481.296 83.457 479.676 83.457C478.055 83.457 476.742 84.7953 476.742 86.4462C476.742 88.0971 478.055 89.4354 479.676 89.4354Z" fill="white"/>
<path d="M530.75 97.983L501.59 95.9805C501.59 95.9805 494.833 111.888 494.941 113.99C495.05 116.093 497.838 115.459 494.94 118.622C492.043 121.784 492.043 117.406 492.043 121.784C492.043 126.163 480.327 223.36 485.483 224.236C494.504 225.55 494.074 223.798 494.074 223.798L508.23 178.595C508.23 178.595 533.79 216.678 541.758 214.604C549.727 212.529 548.202 209.788 548.202 209.788L531.128 174.466C531.128 174.466 528.583 174.461 528.942 171.547C529.3 168.632 527.128 169.125 527.128 169.125C527.128 169.125 523.866 168.089 525.079 166.39C526.293 164.691 523.071 163.709 523.071 163.709L532.475 127.024C532.475 127.024 539.171 111.178 530.75 97.983Z" fill="#2F2E41"/>
<path d="M528.175 37.3047L518.139 37.8228L514.788 43.5758C514.788 43.5758 505.241 44.2895 505.241 52.1704C505.241 60.0513 498.725 56.6218 501.768 66.6553C504.812 76.6888 505.505 78.6228 502.796 80.0638C500.086 81.5049 496.262 81.1946 499.678 83.5389C503.093 85.8832 504.382 86.7588 503.523 87.6345C502.664 88.5101 519.448 81.6208 529.098 85.9411C529.098 85.9411 531.798 83.8584 531.193 82.0249C530.587 80.1914 530.257 80.9003 531.281 79.2324C532.305 77.5644 543.175 48.5539 543.175 48.5539C543.175 48.5539 540.968 44.3728 536.207 44.55C531.446 44.7273 528.175 37.3047 528.175 37.3047Z" fill="#B8322E"/>
<path d="M563.391 134.737L545.645 144.552L532.019 118.962C530.742 116.564 530.452 113.747 531.213 111.13C531.974 108.514 533.724 106.313 536.077 105.011C538.43 103.71 541.194 103.414 543.761 104.19C546.328 104.966 548.488 106.749 549.765 109.147L563.391 134.737ZM545.991 143.365L562.226 134.385L549.01 109.565C548.432 108.478 547.649 107.518 546.706 106.74C545.764 105.961 544.68 105.38 543.517 105.028C542.354 104.676 541.135 104.562 539.928 104.691C538.722 104.82 537.552 105.19 536.486 105.779C535.42 106.369 534.478 107.167 533.714 108.128C532.951 109.088 532.38 110.193 532.036 111.378C531.691 112.564 531.579 113.807 531.706 115.036C531.832 116.266 532.196 117.458 532.774 118.545L545.991 143.365Z" fill="#3F3D56"/>
<path d="M578.542 153.006L552.401 167.465C551.772 167.815 551.049 167.951 550.338 167.853C549.627 167.756 548.965 167.43 548.449 166.922L530.797 149.653C530.413 149.278 530.122 148.815 529.947 148.304C529.771 147.792 529.717 147.245 529.788 146.708C529.859 146.171 530.053 145.659 530.355 145.213C530.657 144.767 531.058 144.399 531.525 144.141L570.731 122.456C571.199 122.198 571.719 122.055 572.251 122.04C572.783 122.026 573.31 122.139 573.791 122.371C574.271 122.603 574.691 122.947 575.016 123.376C575.342 123.805 575.563 124.305 575.663 124.838L580.25 149.334C580.386 150.051 580.293 150.795 579.986 151.455C579.679 152.116 579.173 152.659 578.542 153.006Z" fill="#B8322E"/>
<path d="M551.237 133.491L548.594 134.953L551.053 139.571L553.696 138.109L551.237 133.491Z" fill="#3F3D56"/>
<path d="M544.396 83.3815L543.628 55.9233C543.593 54.7601 543.109 53.6579 542.283 52.8546C541.457 52.0513 540.354 51.6112 539.212 51.6294C538.622 51.6389 538.039 51.7708 537.5 52.0171C536.961 52.2635 536.477 52.6192 536.077 53.0625C535.677 53.5057 535.37 54.0274 535.175 54.5955C534.98 55.1636 534.9 55.7664 534.94 56.367L536.595 84.8644L536.885 102.224C536.172 102.545 535.573 103.083 535.171 103.763C534.768 104.443 534.581 105.233 534.634 106.026C534.687 106.819 534.979 107.575 535.468 108.193C535.958 108.811 536.623 109.261 537.372 109.48C538.121 109.7 538.919 109.679 539.656 109.42C540.393 109.162 541.034 108.679 541.492 108.036C541.951 107.393 542.204 106.622 542.217 105.828C542.23 105.034 542.003 104.254 541.567 103.596L544.396 83.3815Z" fill="#A0616A"/>
<path d="M546.265 61.45C546.462 61.246 546.588 60.9817 546.624 60.6976C546.659 60.4136 546.602 60.1256 546.461 59.8778C546.294 59.5687 546.224 59.2139 546.264 58.8629C546.272 58.7951 546.285 58.728 546.302 58.6619C546.414 58.2663 546.431 57.8489 546.351 57.4453C546.271 57.0417 546.097 56.6637 545.843 56.3435C544.992 55.302 544.581 53.7252 544.403 52.3196C544.209 50.7814 544.093 49.2095 543.543 47.7635C542.749 45.6777 540.853 43.8189 538.264 44.7085C537.169 45.1043 536.241 45.8728 535.637 46.8844C534.346 48.9823 534.332 51.5189 534.341 53.9458L533.877 52.9868C533.933 55.6373 533.463 58.2719 532.495 60.7327C533.072 60.6186 533.48 61.4086 533.294 61.9766C533.107 62.5447 532.592 62.918 532.15 63.3132C531.593 63.8113 531.067 64.5511 531.59 65.3122C531.72 65.4907 531.885 65.6398 532.074 65.7503C532.263 65.8607 532.473 65.9301 532.69 65.9541C536.777 66.4956 540.93 66.1699 544.888 64.9972C545.767 64.7362 546.709 64.3738 547.166 63.5657C547.624 62.7575 547.181 61.437 546.265 61.45Z" fill="#B8322E"/>
<path d="M537.811 23.4672C537.235 25.6388 537.897 29.0582 538.146 31.0854C538.412 33.2526 534.727 35.1922 532.617 35.3148C532.669 34.5974 532.471 33.8844 532.059 33.3008C532.054 33.9948 531.914 34.6809 531.646 35.3192H514.046C511.83 31.0679 509.944 25.2579 511.98 19.2509C512.083 18.0444 512.534 16.8959 513.275 15.9495C514.016 15.0031 515.016 14.301 516.147 13.9313L525.744 10.8008C529.529 10.8008 534.172 11.3481 536.265 14.2202C537.191 15.5425 537.811 17.0614 538.079 18.6629C538.346 20.2644 538.255 21.9068 537.811 23.4672Z" fill="#2F2E41"/>
<path d="M521.779 34.8862C527.236 34.8862 531.659 30.3777 531.659 24.8161C531.659 19.2546 527.236 14.7461 521.779 14.7461C516.322 14.7461 511.898 19.2546 511.898 24.8161C511.898 30.3777 516.322 34.8862 521.779 34.8862Z" fill="#A0616A"/>
<path d="M534.237 22.1811V24.3703H525.688C525.775 23.9477 525.775 23.5113 525.688 23.0887C525.602 22.666 525.43 22.2661 525.185 21.9141C525.178 22.7708 524.969 23.6133 524.575 24.3703C519.632 25.8601 515.483 25.8315 512.083 24.3703C511.833 24.3703 511.586 24.3201 511.355 24.2226C511.124 24.1251 510.914 23.9822 510.737 23.8021C510.56 23.622 510.42 23.4081 510.325 23.1727C510.229 22.9374 510.18 22.6851 510.18 22.4303C510.18 15.7185 515.371 10.063 521.955 9.92462C523.555 9.89008 525.147 10.1816 526.635 10.782C528.124 11.3825 529.48 12.2798 530.624 13.4213C531.768 14.5629 532.677 15.9258 533.297 17.43C533.917 18.9342 534.237 20.5495 534.237 22.1811Z" fill="#2F2E41"/>
<path d="M532.549 7.35545C531.53 6.86971 530.383 6.66386 529.58 5.69922L529.883 7.33335C528.231 6.4326 526.31 6.188 524.491 6.64684C523.957 6.75596 523.463 7.01693 523.068 7.39964C522.849 7.63538 522.684 7.91824 522.587 8.22737C522.489 8.5365 522.461 8.86402 522.504 9.18578C522.551 9.46422 522.655 9.72953 522.809 9.96476C522.962 10.2 523.163 10.4 523.396 10.5519C523.817 10.7948 524.278 10.9549 524.756 11.0238C526.745 11.4358 528.733 11.8477 530.721 12.2597C531.465 12.4823 532.251 12.5079 533.007 12.334C533.42 12.19 533.783 11.9263 534.051 11.575C534.319 11.2238 534.481 10.8004 534.516 10.3568C534.63 8.96158 533.568 7.84117 532.549 7.35545Z" fill="#2F2E41"/>
</g>
</g>
<defs>
<clipPath id="clip0_787_2207">
<rect width="302.741" height="245.602" fill="white" transform="translate(278.977 5.69531)"/>
</clipPath>
</defs>
</svg>
