<svg width="612" height="280" viewBox="0 0 612 280" fill="none" xmlns="http://www.w3.org/2000/svg">
<path d="M9.1539 88.7976C7.57904 88.7976 6.20103 88.5024 5.01988 87.9118C3.83873 87.2556 2.88725 86.4025 2.16544 85.3526C1.50925 84.3027 0.98429 83.056 0.590574 81.6123C0.196858 80.1687 0 78.6595 0 77.0846C0 73.8692 0.820242 70.8507 2.46073 68.0291C4.16683 65.2075 6.79161 62.9764 10.3351 61.3359L11.2209 63.1077C9.38357 63.9607 7.74309 65.2075 6.29946 66.848C4.92145 68.4228 4.10121 70.0961 3.83873 71.8679C3.44502 73.2459 3.41221 74.5911 3.7403 75.9034C5.18393 74.3286 7.1197 73.5411 9.54762 73.5411C11.7787 73.5411 13.616 74.2301 15.0596 75.6082C16.5033 76.9205 17.2251 78.7579 17.2251 81.1202C17.2251 83.4169 16.4705 85.287 14.9612 86.7306C13.452 88.1086 11.5162 88.7976 9.1539 88.7976ZM29.4303 88.7976C27.8554 88.7976 26.4774 88.5024 25.2963 87.9118C24.1151 87.2556 23.1636 86.4025 22.4418 85.3526C21.7856 84.3027 21.2607 83.056 20.867 81.6123C20.4732 80.1687 20.2764 78.6595 20.2764 77.0846C20.2764 73.8692 21.0966 70.8507 22.7371 68.0291C24.4432 65.2075 27.068 62.9764 30.6114 61.3359L31.4973 63.1077C29.66 63.9607 28.0195 65.2075 26.5758 66.848C25.1978 68.4228 24.3776 70.0961 24.1151 71.8679C23.7214 73.2459 23.6886 74.5911 24.0167 75.9034C25.4603 74.3286 27.3961 73.5411 29.824 73.5411C32.0551 73.5411 33.8924 74.2301 35.336 75.6082C36.7797 76.9205 37.5015 78.7579 37.5015 81.1202C37.5015 83.4169 36.7469 85.287 35.2376 86.7306C33.7284 88.1086 31.7926 88.7976 29.4303 88.7976Z" fill="#B8322E"/>
<path d="M368.762 191.305C370.402 191.305 371.813 191.6 372.994 192.191C374.175 192.781 375.094 193.634 375.75 194.75C376.472 195.668 376.997 196.882 377.325 198.392C377.719 199.901 377.916 201.41 377.916 202.919C377.916 206.2 377.062 209.252 375.356 212.073C373.716 214.829 371.124 217.027 367.58 218.668L366.695 216.896C368.532 216.109 370.172 214.895 371.616 213.254C373.06 211.614 373.913 209.941 374.175 208.234C374.503 206.791 374.503 205.413 374.175 204.1C372.732 205.675 370.829 206.463 368.466 206.463C366.17 206.463 364.3 205.807 362.856 204.494C361.412 203.116 360.69 201.246 360.69 198.884C360.69 196.587 361.445 194.75 362.954 193.372C364.529 191.994 366.465 191.305 368.762 191.305ZM348.485 191.305C350.126 191.305 351.537 191.6 352.718 192.191C353.899 192.781 354.818 193.634 355.474 194.75C356.196 195.668 356.72 196.882 357.049 198.392C357.442 199.901 357.639 201.41 357.639 202.919C357.639 206.2 356.786 209.252 355.08 212.073C353.44 214.829 350.848 217.027 347.304 218.668L346.418 216.896C348.256 216.109 349.896 214.895 351.34 213.254C352.783 211.614 353.636 209.941 353.899 208.234C354.227 206.791 354.227 205.413 353.899 204.1C352.455 205.675 350.552 206.463 348.19 206.463C345.893 206.463 344.023 205.807 342.58 204.494C341.136 203.116 340.414 201.246 340.414 198.884C340.414 196.587 341.169 194.75 342.678 193.372C344.253 191.994 346.189 191.305 348.485 191.305Z" fill="#B8322E"/>
<path d="M55.9548 96.5938V77.8563H58.1335V96.5938H55.9548ZM67.5022 95.1071C67.8526 95.1071 68.2114 95.0772 68.5788 95.0173C68.9462 94.9575 69.2453 94.8849 69.4759 94.7995V96.4528C69.2282 96.5638 68.8821 96.6578 68.4378 96.7347C68.0021 96.8116 67.5749 96.8501 67.1562 96.8501C66.4129 96.8501 65.7379 96.7219 65.1312 96.4656C64.5246 96.2007 64.0376 95.7564 63.6702 95.1327C63.3113 94.509 63.1319 93.646 63.1319 92.5438V84.2132H61.1325V83.1751L63.1447 82.342L63.9906 79.2918H65.2722V82.5471H69.3862V84.2132H65.2722V92.4797C65.2722 93.3598 65.473 94.0177 65.8746 94.4534C66.2847 94.8892 66.8272 95.1071 67.5022 95.1071ZM74.0001 77.8563L74.1923 78.1383C74.0385 78.762 73.842 79.4327 73.6028 80.1505C73.3636 80.8596 73.103 81.5688 72.821 82.278C72.539 82.9871 72.2571 83.6536 71.9751 84.2773H70.4115C70.5397 83.7903 70.6679 83.2691 70.796 82.7137C70.9327 82.1583 71.0609 81.5944 71.1805 81.022C71.3001 80.4495 71.4069 79.8941 71.5009 79.3558C71.6034 78.8176 71.6889 78.3177 71.7572 77.8563H74.0001ZM85.868 92.7489C85.868 93.646 85.6416 94.4022 85.1887 95.0173C84.7444 95.624 84.1036 96.0811 83.2663 96.3887C82.4375 96.6963 81.4464 96.8501 80.2929 96.8501C79.3103 96.8501 78.4602 96.7732 77.7425 96.6194C77.0247 96.4656 76.3967 96.2477 75.8585 95.9658V94.0049C76.4309 94.2868 77.1145 94.5431 77.9091 94.7738C78.7037 95.0045 79.5154 95.1199 80.3442 95.1199C81.5574 95.1199 82.4375 94.9234 82.9843 94.5303C83.5311 94.1373 83.8046 93.6033 83.8046 92.9283C83.8046 92.5438 83.6935 92.2063 83.4713 91.9158C83.2577 91.6168 82.8946 91.3305 82.3819 91.0571C81.8693 90.7752 81.1601 90.4676 80.2544 90.1343C79.3573 89.7926 78.5798 89.4551 77.9219 89.1219C77.2725 88.7801 76.7684 88.3657 76.4096 87.8787C76.0592 87.3917 75.8841 86.7594 75.8841 85.9819C75.8841 84.7942 76.3626 83.8843 77.3195 83.252C78.285 82.6112 79.5495 82.2908 81.1131 82.2908C81.959 82.2908 82.7493 82.3762 83.4841 82.5471C84.2275 82.7094 84.9196 82.9316 85.5604 83.2135L84.8427 84.9181C84.2617 84.6703 83.6422 84.461 82.9843 84.2901C82.3264 84.1192 81.6557 84.0338 80.9722 84.0338C79.9896 84.0338 79.2334 84.1961 78.7037 84.5208C78.1825 84.8455 77.9219 85.2898 77.9219 85.8537C77.9219 86.2895 78.0415 86.6483 78.2807 86.9303C78.5285 87.2122 78.9215 87.4771 79.4598 87.7249C79.9981 87.9727 80.7073 88.2632 81.5873 88.5964C82.4674 88.9211 83.2278 89.2586 83.8686 89.6089C84.5094 89.9506 85.0007 90.3693 85.3425 90.8649C85.6928 91.3519 85.868 91.9799 85.868 92.7489ZM98.2357 76.6516V82.6112C98.2357 82.953 98.2271 83.299 98.2101 83.6493C98.193 83.9911 98.1631 84.3072 98.1203 84.5977H98.2613C98.5518 84.1021 98.9192 83.6878 99.3635 83.3545C99.8164 83.0128 100.329 82.7564 100.901 82.5856C101.474 82.4061 102.081 82.3164 102.721 82.3164C103.849 82.3164 104.789 82.4958 105.541 82.8547C106.301 83.2135 106.87 83.7689 107.246 84.5208C107.63 85.2727 107.822 86.2467 107.822 87.4429V96.5938H105.72V87.5839C105.72 86.4133 105.451 85.5376 104.913 84.9566C104.383 84.3756 103.567 84.0851 102.465 84.0851C101.423 84.0851 100.59 84.2858 99.9659 84.6874C99.3507 85.0805 98.9064 85.6615 98.633 86.4304C98.3681 87.1994 98.2357 88.1393 98.2357 89.25V96.5938H96.1082V76.6516H98.2357ZM117.46 82.3164C119.135 82.3164 120.378 82.6924 121.19 83.4442C122.001 84.1961 122.407 85.3966 122.407 87.0456V96.5938H120.856L120.446 94.5175H120.344C119.951 95.0302 119.541 95.4616 119.113 95.812C118.686 96.1537 118.191 96.4143 117.627 96.5938C117.071 96.7646 116.388 96.8501 115.576 96.8501C114.722 96.8501 113.961 96.7006 113.295 96.4015C112.637 96.1025 112.116 95.6496 111.731 95.043C111.355 94.4363 111.167 93.6674 111.167 92.736C111.167 91.3348 111.723 90.2582 112.833 89.5063C113.944 88.7545 115.636 88.3443 117.909 88.276L120.331 88.1735V87.3148C120.331 86.1015 120.07 85.2513 119.549 84.7643C119.028 84.2773 118.293 84.0338 117.345 84.0338C116.61 84.0338 115.909 84.1406 115.243 84.3542C114.576 84.5678 113.944 84.8199 113.346 85.1104L112.692 83.4955C113.325 83.1708 114.051 82.8931 114.871 82.6624C115.691 82.4318 116.554 82.3164 117.46 82.3164ZM120.305 89.673L118.165 89.7627C116.413 89.831 115.179 90.1173 114.461 90.6214C113.743 91.1255 113.385 91.8389 113.385 92.7617C113.385 93.5648 113.628 94.1587 114.115 94.5431C114.602 94.9276 115.247 95.1199 116.05 95.1199C117.298 95.1199 118.319 94.7738 119.113 94.0818C119.908 93.3897 120.305 92.3516 120.305 90.9674V89.673ZM133.173 82.2908C133.455 82.2908 133.75 82.3079 134.057 82.342C134.365 82.3677 134.638 82.4061 134.877 82.4574L134.608 84.4311C134.378 84.3713 134.121 84.3243 133.839 84.2901C133.557 84.2559 133.292 84.2389 133.045 84.2389C132.481 84.2389 131.947 84.3542 131.443 84.5849C130.947 84.807 130.511 85.1317 130.135 85.5589C129.759 85.9776 129.465 86.486 129.251 87.0841C129.037 87.6736 128.931 88.3315 128.931 89.0578V96.5938H126.79V82.5471H128.559L128.79 85.136H128.879C129.17 84.6148 129.52 84.1406 129.93 83.7134C130.34 83.2776 130.815 82.9316 131.353 82.6753C131.9 82.4189 132.506 82.2908 133.173 82.2908ZM142.529 96.8501C140.752 96.8501 139.342 96.2434 138.299 95.0302C137.266 93.8169 136.749 92.0141 136.749 89.6217C136.749 87.2037 137.278 85.3795 138.338 84.1491C139.397 82.9102 140.807 82.2908 142.567 82.2908C143.311 82.2908 143.96 82.389 144.515 82.5856C145.071 82.7821 145.549 83.0469 145.951 83.3802C146.352 83.7048 146.69 84.0765 146.963 84.4952H147.117C147.083 84.2303 147.049 83.8672 147.014 83.4058C146.98 82.9444 146.963 82.5685 146.963 82.278V76.6516H149.091V96.5938H147.373L147.053 94.5944H146.963C146.698 95.0131 146.361 95.3933 145.951 95.7351C145.549 96.0768 145.066 96.3502 144.502 96.5553C143.947 96.7518 143.289 96.8501 142.529 96.8501ZM142.862 95.0814C144.366 95.0814 145.43 94.6542 146.053 93.7998C146.677 92.9454 146.989 91.6766 146.989 89.9934V89.6089C146.989 87.8231 146.69 86.4518 146.092 85.4948C145.502 84.5379 144.426 84.0594 142.862 84.0594C141.555 84.0594 140.576 84.5635 139.927 85.5717C139.278 86.5714 138.953 87.9385 138.953 89.673C138.953 91.3989 139.273 92.7318 139.914 93.6716C140.564 94.6115 141.546 95.0814 142.862 95.0814ZM164.957 95.1071C165.308 95.1071 165.666 95.0772 166.034 95.0173C166.401 94.9575 166.7 94.8849 166.931 94.7995V96.4528C166.683 96.5638 166.337 96.6578 165.893 96.7347C165.457 96.8116 165.03 96.8501 164.611 96.8501C163.868 96.8501 163.193 96.7219 162.586 96.4656C161.98 96.2007 161.493 95.7564 161.125 95.1327C160.766 94.509 160.587 93.646 160.587 92.5438V84.2132H158.588V83.1751L160.6 82.342L161.446 79.2918H162.727V82.5471H166.841V84.2132H162.727V92.4797C162.727 93.3598 162.928 94.0177 163.33 94.4534C163.74 94.8892 164.282 95.1071 164.957 95.1071ZM181.888 89.5448C181.888 90.6983 181.738 91.7278 181.439 92.6335C181.14 93.5392 180.708 94.3039 180.145 94.9276C179.581 95.5514 178.897 96.0298 178.094 96.3631C177.299 96.6877 176.398 96.8501 175.39 96.8501C174.45 96.8501 173.587 96.6877 172.801 96.3631C172.023 96.0298 171.348 95.5514 170.776 94.9276C170.212 94.3039 169.772 93.5392 169.456 92.6335C169.148 91.7278 168.994 90.6983 168.994 89.5448C168.994 88.0068 169.255 86.6996 169.776 85.623C170.297 84.5379 171.041 83.7134 172.006 83.1495C172.98 82.577 174.138 82.2908 175.479 82.2908C176.761 82.2908 177.88 82.577 178.837 83.1495C179.803 83.7219 180.55 84.5507 181.08 85.6358C181.618 86.7124 181.888 88.0154 181.888 89.5448ZM171.199 89.5448C171.199 90.6726 171.348 91.6509 171.647 92.4797C171.946 93.3085 172.408 93.9493 173.032 94.4022C173.655 94.855 174.458 95.0814 175.441 95.0814C176.415 95.0814 177.214 94.855 177.838 94.4022C178.47 93.9493 178.936 93.3085 179.235 92.4797C179.534 91.6509 179.683 90.6726 179.683 89.5448C179.683 88.4255 179.534 87.46 179.235 86.6483C178.936 85.8281 178.474 85.1958 177.85 84.7515C177.227 84.3072 176.419 84.0851 175.428 84.0851C173.967 84.0851 172.895 84.5678 172.211 85.5333C171.536 86.4988 171.199 87.836 171.199 89.5448ZM196.306 102.899C194.46 102.899 193.038 102.553 192.038 101.861C191.038 101.178 190.539 100.216 190.539 98.9776C190.539 98.0975 190.816 97.3456 191.372 96.7219C191.936 96.0982 192.713 95.6838 193.704 95.4787C193.337 95.3078 193.021 95.0515 192.756 94.7098C192.499 94.368 192.371 93.975 192.371 93.5307C192.371 93.018 192.512 92.5694 192.794 92.1849C193.085 91.7919 193.525 91.416 194.114 91.0571C193.379 90.7581 192.781 90.254 192.32 89.5448C191.867 88.8271 191.641 87.994 191.641 87.0456C191.641 86.0374 191.85 85.1787 192.269 84.4695C192.687 83.7518 193.294 83.205 194.089 82.8291C194.883 82.4531 195.844 82.2651 196.972 82.2651C197.22 82.2651 197.468 82.278 197.716 82.3036C197.972 82.3207 198.216 82.3506 198.446 82.3933C198.677 82.4275 198.878 82.4702 199.049 82.5215H203.867V83.8928L201.279 84.2132C201.535 84.5464 201.749 84.948 201.919 85.418C202.09 85.8879 202.176 86.4091 202.176 86.9815C202.176 88.3828 201.702 89.4978 200.753 90.3266C199.805 91.1468 198.502 91.557 196.844 91.557C196.451 91.557 196.05 91.5228 195.639 91.4544C195.221 91.6851 194.9 91.9414 194.678 92.2234C194.465 92.5054 194.358 92.83 194.358 93.1974C194.358 93.4708 194.439 93.6887 194.601 93.8511C194.772 94.0134 195.016 94.133 195.332 94.2099C195.648 94.2783 196.028 94.3125 196.472 94.3125H198.946C200.475 94.3125 201.646 94.6329 202.458 95.2737C203.278 95.9145 203.688 96.8501 203.688 98.0804C203.688 99.6355 203.056 100.827 201.791 101.656C200.527 102.485 198.698 102.899 196.306 102.899ZM196.37 101.233C197.532 101.233 198.493 101.114 199.254 100.874C200.023 100.644 200.595 100.306 200.971 99.8619C201.355 99.4261 201.548 98.905 201.548 98.2983C201.548 97.7344 201.42 97.3072 201.163 97.0167C200.907 96.7347 200.531 96.5468 200.035 96.4528C199.54 96.3502 198.933 96.299 198.216 96.299H195.78C195.148 96.299 194.597 96.3972 194.127 96.5938C193.657 96.7903 193.294 97.0808 193.038 97.4653C192.79 97.8497 192.666 98.3282 192.666 98.9007C192.666 99.6611 192.986 100.238 193.627 100.631C194.268 101.032 195.182 101.233 196.37 101.233ZM196.921 90.0062C197.938 90.0062 198.703 89.7499 199.215 89.2372C199.728 88.7246 199.984 87.9769 199.984 86.9944C199.984 85.9434 199.724 85.1574 199.202 84.6362C198.681 84.1064 197.912 83.8415 196.895 83.8415C195.921 83.8415 195.17 84.115 194.64 84.6618C194.119 85.2001 193.858 85.9904 193.858 87.0328C193.858 87.9898 194.123 88.7246 194.653 89.2372C195.182 89.7499 195.938 90.0062 196.921 90.0062ZM212.044 82.2908C213.24 82.2908 214.266 82.5556 215.12 83.0854C215.975 83.6151 216.628 84.3585 217.081 85.3154C217.534 86.2638 217.76 87.3746 217.76 88.6477V89.9677H208.058C208.084 91.6168 208.494 92.8728 209.289 93.7357C210.083 94.5987 211.203 95.0302 212.647 95.0302C213.535 95.0302 214.321 94.949 215.005 94.7867C215.688 94.6243 216.398 94.3851 217.132 94.0689V95.9401C216.423 96.2563 215.718 96.4869 215.018 96.6322C214.326 96.7775 213.505 96.8501 212.557 96.8501C211.207 96.8501 210.028 96.5767 209.02 96.0298C208.02 95.4745 207.242 94.6628 206.687 93.5947C206.132 92.5267 205.854 91.2195 205.854 89.673C205.854 88.1606 206.106 86.8534 206.61 85.7512C207.123 84.6404 207.841 83.786 208.763 83.1879C209.695 82.5898 210.788 82.2908 212.044 82.2908ZM212.019 84.0338C210.882 84.0338 209.977 84.4055 209.302 85.1488C208.627 85.8922 208.225 86.9303 208.097 88.2632H215.53C215.522 87.4258 215.389 86.691 215.133 86.0588C214.885 85.418 214.505 84.9224 213.992 84.5721C213.48 84.2132 212.822 84.0338 212.019 84.0338ZM225.912 95.1071C226.262 95.1071 226.621 95.0772 226.988 95.0173C227.355 94.9575 227.655 94.8849 227.885 94.7995V96.4528C227.637 96.5638 227.291 96.6578 226.847 96.7347C226.411 96.8116 225.984 96.8501 225.565 96.8501C224.822 96.8501 224.147 96.7219 223.541 96.4656C222.934 96.2007 222.447 95.7564 222.079 95.1327C221.721 94.509 221.541 93.646 221.541 92.5438V84.2132H219.542V83.1751L221.554 82.342L222.4 79.2918H223.681V82.5471H227.796V84.2132H223.681V92.4797C223.681 93.3598 223.882 94.0177 224.284 94.4534C224.694 94.8892 225.237 95.1071 225.912 95.1071ZM242.803 82.3164C244.478 82.3164 245.721 82.6924 246.533 83.4442C247.345 84.1961 247.75 85.3966 247.75 87.0456V96.5938H246.2L245.79 94.5175H245.687C245.294 95.0302 244.884 95.4616 244.457 95.812C244.029 96.1537 243.534 96.4143 242.97 96.5938C242.415 96.7646 241.731 96.8501 240.919 96.8501C240.065 96.8501 239.305 96.7006 238.638 96.4015C237.98 96.1025 237.459 95.6496 237.074 95.043C236.699 94.4363 236.511 93.6674 236.511 92.736C236.511 91.3348 237.066 90.2582 238.177 89.5063C239.287 88.7545 240.979 88.3443 243.252 88.276L245.674 88.1735V87.3148C245.674 86.1015 245.414 85.2513 244.892 84.7643C244.371 84.2773 243.636 84.0338 242.688 84.0338C241.953 84.0338 241.253 84.1406 240.586 84.3542C239.92 84.5678 239.287 84.8199 238.689 85.1104L238.036 83.4955C238.668 83.1708 239.394 82.8931 240.214 82.6624C241.035 82.4318 241.898 82.3164 242.803 82.3164ZM245.649 89.673L243.508 89.7627C241.757 89.831 240.522 90.1173 239.804 90.6214C239.087 91.1255 238.728 91.8389 238.728 92.7617C238.728 93.5648 238.971 94.1587 239.458 94.5431C239.945 94.9276 240.59 95.1199 241.394 95.1199C242.641 95.1199 243.662 94.7738 244.457 94.0818C245.251 93.3897 245.649 92.3516 245.649 90.9674V89.673ZM258.516 82.2908C258.798 82.2908 259.093 82.3079 259.4 82.342C259.708 82.3677 259.981 82.4061 260.221 82.4574L259.952 84.4311C259.721 84.3713 259.465 84.3243 259.183 84.2901C258.901 84.2559 258.636 84.2389 258.388 84.2389C257.824 84.2389 257.29 84.3542 256.786 84.5849C256.29 84.807 255.855 85.1317 255.479 85.5589C255.103 85.9776 254.808 86.486 254.594 87.0841C254.381 87.6736 254.274 88.3315 254.274 89.0578V96.5938H252.134V82.5471H253.902L254.133 85.136H254.223C254.513 84.6148 254.863 84.1406 255.274 83.7134C255.684 83.2776 256.158 82.9316 256.696 82.6753C257.243 82.4189 257.85 82.2908 258.516 82.2908ZM274.985 89.5448C274.985 90.6983 274.836 91.7278 274.536 92.6335C274.237 93.5392 273.806 94.3039 273.242 94.9276C272.678 95.5514 271.995 96.0298 271.191 96.3631C270.397 96.6877 269.495 96.8501 268.487 96.8501C267.547 96.8501 266.684 96.6877 265.898 96.3631C265.121 96.0298 264.446 95.5514 263.873 94.9276C263.309 94.3039 262.869 93.5392 262.553 92.6335C262.246 91.7278 262.092 90.6983 262.092 89.5448C262.092 88.0068 262.352 86.6996 262.874 85.623C263.395 84.5379 264.138 83.7134 265.104 83.1495C266.078 82.577 267.235 82.2908 268.577 82.2908C269.859 82.2908 270.978 82.577 271.935 83.1495C272.9 83.7219 273.648 84.5507 274.178 85.6358C274.716 86.7124 274.985 88.0154 274.985 89.5448ZM264.296 89.5448C264.296 90.6726 264.446 91.6509 264.745 92.4797C265.044 93.3085 265.505 93.9493 266.129 94.4022C266.753 94.855 267.556 95.0814 268.538 95.0814C269.512 95.0814 270.311 94.855 270.935 94.4022C271.567 93.9493 272.033 93.3085 272.332 92.4797C272.631 91.6509 272.781 90.6726 272.781 89.5448C272.781 88.4255 272.631 87.46 272.332 86.6483C272.033 85.8281 271.572 85.1958 270.948 84.7515C270.324 84.3072 269.517 84.0851 268.526 84.0851C267.065 84.0851 265.992 84.5678 265.309 85.5333C264.634 86.4988 264.296 87.836 264.296 89.5448ZM290.262 82.5471V96.5938H288.519L288.211 94.62H288.096C287.806 95.1071 287.43 95.5172 286.968 95.8504C286.507 96.1836 285.986 96.4314 285.405 96.5938C284.832 96.7646 284.221 96.8501 283.572 96.8501C282.461 96.8501 281.53 96.6706 280.778 96.3118C280.026 95.9529 279.458 95.3976 279.073 94.6457C278.698 93.8938 278.51 92.9283 278.51 91.7492V82.5471H280.663V91.5954C280.663 92.766 280.928 93.6417 281.457 94.2227C281.987 94.7952 282.794 95.0814 283.88 95.0814C284.922 95.0814 285.751 94.8849 286.366 94.4919C286.99 94.0988 287.438 93.5221 287.712 92.7617C287.985 91.9927 288.122 91.0528 288.122 89.9421V82.5471H290.262ZM301.412 82.2908C303.078 82.2908 304.339 82.7009 305.193 83.5211C306.047 84.3328 306.475 85.6401 306.475 87.4429V96.5938H304.373V87.5839C304.373 86.4133 304.104 85.5376 303.565 84.9566C303.036 84.3756 302.22 84.0851 301.117 84.0851C299.562 84.0851 298.469 84.5251 297.836 85.4051C297.204 86.2852 296.888 87.5625 296.888 89.2372V96.5938H294.761V82.5471H296.478L296.798 84.5721H296.914C297.213 84.0765 297.593 83.6621 298.054 83.3289C298.516 82.9871 299.033 82.7308 299.605 82.5599C300.178 82.3805 300.78 82.2908 301.412 82.2908ZM315.856 96.8501C314.079 96.8501 312.669 96.2434 311.627 95.0302C310.593 93.8169 310.076 92.0141 310.076 89.6217C310.076 87.2037 310.606 85.3795 311.665 84.1491C312.725 82.9102 314.135 82.2908 315.895 82.2908C316.638 82.2908 317.287 82.389 317.843 82.5856C318.398 82.7821 318.877 83.0469 319.278 83.3802C319.68 83.7048 320.017 84.0765 320.291 84.4952H320.444C320.41 84.2303 320.376 83.8672 320.342 83.4058C320.308 82.9444 320.291 82.5685 320.291 82.278V76.6516H322.418V96.5938H320.701L320.38 94.5944H320.291C320.026 95.0131 319.688 95.3933 319.278 95.7351C318.877 96.0768 318.394 96.3502 317.83 96.5553C317.275 96.7518 316.617 96.8501 315.856 96.8501ZM316.189 95.0814C317.693 95.0814 318.757 94.6542 319.381 93.7998C320.004 92.9454 320.316 91.6766 320.316 89.9934V89.6089C320.316 87.8231 320.017 86.4518 319.419 85.4948C318.83 84.5379 317.753 84.0594 316.189 84.0594C314.882 84.0594 313.904 84.5635 313.254 85.5717C312.605 86.5714 312.28 87.9385 312.28 89.673C312.28 91.3989 312.601 92.7318 313.242 93.6716C313.891 94.6115 314.874 95.0814 316.189 95.0814ZM78.614 132.568L76.1148 124.391C76.0037 124.041 75.8969 123.699 75.7944 123.366C75.7004 123.024 75.6107 122.7 75.5252 122.392C75.4483 122.076 75.3757 121.785 75.3074 121.52C75.2476 121.247 75.1963 121.012 75.1536 120.816H75.0639C75.0297 121.012 74.9827 121.247 74.9229 121.52C74.8631 121.785 74.7904 122.076 74.705 122.392C74.6281 122.708 74.5427 123.041 74.4487 123.392C74.3547 123.733 74.2479 124.079 74.1283 124.43L71.5137 132.568H69.1171L65.2466 118.521H67.451L69.476 126.275C69.6127 126.788 69.7408 127.296 69.8604 127.8C69.9886 128.296 70.0954 128.766 70.1808 129.21C70.2748 129.646 70.3432 130.026 70.3859 130.351H70.4884C70.5397 130.137 70.5952 129.881 70.6551 129.582C70.7234 129.283 70.796 128.967 70.8729 128.634C70.9584 128.292 71.0481 127.954 71.1421 127.621C71.2361 127.279 71.33 126.959 71.424 126.66L74.0129 118.521H76.307L78.8062 126.647C78.9344 127.057 79.0583 127.484 79.1779 127.929C79.306 128.373 79.4214 128.804 79.5239 129.223C79.6264 129.633 79.6991 130.001 79.7418 130.325H79.8443C79.8785 130.035 79.9426 129.676 80.0366 129.249C80.1306 128.821 80.2374 128.352 80.357 127.839C80.4851 127.326 80.6176 126.805 80.7543 126.275L82.8049 118.521H84.9708L81.0875 132.568H78.614ZM89.6616 112.652V118.611C89.6616 118.953 89.6531 119.299 89.636 119.649C89.6189 119.991 89.589 120.307 89.5463 120.598H89.6872C89.9777 120.102 90.3451 119.688 90.7894 119.355C91.2423 119.013 91.7549 118.756 92.3274 118.586C92.8998 118.406 93.5065 118.316 94.1473 118.316C95.2751 118.316 96.215 118.496 96.9669 118.855C97.7273 119.214 98.2955 119.769 98.6714 120.521C99.0559 121.273 99.2482 122.247 99.2482 123.443V132.594H97.1463V123.584C97.1463 122.413 96.8772 121.538 96.3389 120.957C95.8091 120.376 94.9932 120.085 93.891 120.085C92.8486 120.085 92.0155 120.286 91.3918 120.687C90.7766 121.08 90.3323 121.661 90.0589 122.43C89.794 123.199 89.6616 124.139 89.6616 125.25V132.594H87.5341V112.652H89.6616ZM109.04 118.291C110.236 118.291 111.261 118.556 112.116 119.085C112.97 119.615 113.624 120.358 114.077 121.315C114.529 122.264 114.756 123.375 114.756 124.648V125.968H105.054C105.08 127.617 105.49 128.873 106.284 129.736C107.079 130.599 108.198 131.03 109.642 131.03C110.531 131.03 111.317 130.949 112 130.787C112.684 130.624 113.393 130.385 114.128 130.069V131.94C113.419 132.256 112.714 132.487 112.013 132.632C111.321 132.777 110.501 132.85 109.552 132.85C108.202 132.85 107.023 132.577 106.015 132.03C105.016 131.474 104.238 130.663 103.683 129.595C103.127 128.527 102.85 127.219 102.85 125.673C102.85 124.161 103.102 122.853 103.606 121.751C104.118 120.64 104.836 119.786 105.759 119.188C106.69 118.59 107.784 118.291 109.04 118.291ZM109.014 120.034C107.878 120.034 106.972 120.405 106.297 121.149C105.622 121.892 105.221 122.93 105.092 124.263H112.526C112.517 123.426 112.385 122.691 112.129 122.059C111.881 121.418 111.501 120.922 110.988 120.572C110.475 120.213 109.817 120.034 109.014 120.034ZM125.022 118.291C126.688 118.291 127.948 118.701 128.803 119.521C129.657 120.333 130.084 121.64 130.084 123.443V132.594H127.982V123.584C127.982 122.413 127.713 121.538 127.175 120.957C126.645 120.376 125.829 120.085 124.727 120.085C123.172 120.085 122.078 120.525 121.446 121.405C120.814 122.285 120.498 123.563 120.498 125.237V132.594H118.37V118.547H120.087L120.408 120.572H120.523C120.822 120.077 121.202 119.662 121.664 119.329C122.125 118.987 122.642 118.731 123.215 118.56C123.787 118.38 124.389 118.291 125.022 118.291ZM145.823 131.107C146.173 131.107 146.532 131.077 146.899 131.017C147.267 130.958 147.566 130.885 147.796 130.799V132.453C147.548 132.564 147.202 132.658 146.758 132.735C146.322 132.812 145.895 132.85 145.477 132.85C144.733 132.85 144.058 132.722 143.452 132.466C142.845 132.201 142.358 131.756 141.99 131.133C141.632 130.509 141.452 129.646 141.452 128.544V120.213H139.453V119.175L141.465 118.342L142.311 115.292H143.593V118.547H147.707V120.213H143.593V128.48C143.593 129.36 143.793 130.018 144.195 130.453C144.605 130.889 145.148 131.107 145.823 131.107ZM152.769 112.652V118.611C152.769 118.953 152.76 119.299 152.743 119.649C152.726 119.991 152.696 120.307 152.654 120.598H152.795C153.085 120.102 153.453 119.688 153.897 119.355C154.35 119.013 154.862 118.756 155.435 118.586C156.007 118.406 156.614 118.316 157.255 118.316C158.383 118.316 159.322 118.496 160.074 118.855C160.835 119.214 161.403 119.769 161.779 120.521C162.163 121.273 162.356 122.247 162.356 123.443V132.594H160.254V123.584C160.254 122.413 159.985 121.538 159.446 120.957C158.917 120.376 158.101 120.085 156.998 120.085C155.956 120.085 155.123 120.286 154.499 120.687C153.884 121.08 153.44 121.661 153.166 122.43C152.901 123.199 152.769 124.139 152.769 125.25V132.594H150.641V112.652H152.769ZM172.147 118.291C173.343 118.291 174.369 118.556 175.223 119.085C176.078 119.615 176.731 120.358 177.184 121.315C177.637 122.264 177.863 123.375 177.863 124.648V125.968H168.161C168.187 127.617 168.597 128.873 169.392 129.736C170.186 130.599 171.306 131.03 172.75 131.03C173.638 131.03 174.424 130.949 175.108 130.787C175.791 130.624 176.5 130.385 177.235 130.069V131.94C176.526 132.256 175.821 132.487 175.121 132.632C174.429 132.777 173.608 132.85 172.66 132.85C171.31 132.85 170.131 132.577 169.123 132.03C168.123 131.474 167.345 130.663 166.79 129.595C166.235 128.527 165.957 127.219 165.957 125.673C165.957 124.161 166.209 122.853 166.713 121.751C167.226 120.64 167.943 119.786 168.866 119.188C169.798 118.59 170.891 118.291 172.147 118.291ZM172.122 120.034C170.985 120.034 170.08 120.405 169.405 121.149C168.73 121.892 168.328 122.93 168.2 124.263H175.633C175.625 123.426 175.492 122.691 175.236 122.059C174.988 121.418 174.608 120.922 174.095 120.572C173.583 120.213 172.925 120.034 172.122 120.034ZM187.86 118.291C188.142 118.291 188.437 118.308 188.744 118.342C189.052 118.368 189.325 118.406 189.565 118.457L189.295 120.431C189.065 120.371 188.808 120.324 188.526 120.29C188.244 120.256 187.98 120.239 187.732 120.239C187.168 120.239 186.634 120.354 186.13 120.585C185.634 120.807 185.198 121.132 184.823 121.559C184.447 121.978 184.152 122.486 183.938 123.084C183.725 123.674 183.618 124.332 183.618 125.058V132.594H181.477V118.547H183.246L183.477 121.136H183.567C183.857 120.615 184.207 120.141 184.617 119.713C185.028 119.278 185.502 118.932 186.04 118.675C186.587 118.419 187.194 118.291 187.86 118.291ZM197.626 118.291C198.822 118.291 199.847 118.556 200.702 119.085C201.556 119.615 202.21 120.358 202.663 121.315C203.116 122.264 203.342 123.375 203.342 124.648V125.968H193.64C193.666 127.617 194.076 128.873 194.87 129.736C195.665 130.599 196.784 131.03 198.228 131.03C199.117 131.03 199.903 130.949 200.587 130.787C201.27 130.624 201.979 130.385 202.714 130.069V131.94C202.005 132.256 201.3 132.487 200.599 132.632C199.907 132.777 199.087 132.85 198.139 132.85C196.789 132.85 195.61 132.577 194.601 132.03C193.602 131.474 192.824 130.663 192.269 129.595C191.713 128.527 191.436 127.219 191.436 125.673C191.436 124.161 191.688 122.853 192.192 121.751C192.705 120.64 193.422 119.786 194.345 119.188C195.276 118.59 196.37 118.291 197.626 118.291ZM197.6 120.034C196.464 120.034 195.558 120.405 194.883 121.149C194.208 121.892 193.807 122.93 193.679 124.263H201.112C201.103 123.426 200.971 122.691 200.715 122.059C200.467 121.418 200.087 120.922 199.574 120.572C199.061 120.213 198.403 120.034 197.6 120.034ZM208.635 113.856L208.827 114.138C208.674 114.762 208.477 115.433 208.238 116.15C207.999 116.86 207.738 117.569 207.456 118.278C207.174 118.987 206.892 119.654 206.61 120.277H205.047C205.175 119.79 205.303 119.269 205.431 118.714C205.568 118.158 205.696 117.594 205.816 117.022C205.935 116.45 206.042 115.894 206.136 115.356C206.239 114.818 206.324 114.318 206.392 113.856H208.635ZM220.503 128.749C220.503 129.646 220.277 130.402 219.824 131.017C219.379 131.624 218.739 132.081 217.901 132.389C217.073 132.696 216.081 132.85 214.928 132.85C213.945 132.85 213.095 132.773 212.378 132.619C211.66 132.466 211.032 132.248 210.494 131.966V130.005C211.066 130.287 211.75 130.543 212.544 130.774C213.339 131.005 214.15 131.12 214.979 131.12C216.192 131.12 217.073 130.923 217.619 130.53C218.166 130.137 218.44 129.603 218.44 128.928C218.44 128.544 218.329 128.206 218.106 127.916C217.893 127.617 217.53 127.331 217.017 127.057C216.504 126.775 215.795 126.468 214.889 126.134C213.992 125.793 213.215 125.455 212.557 125.122C211.908 124.78 211.403 124.366 211.045 123.879C210.694 123.392 210.519 122.759 210.519 121.982C210.519 120.794 210.998 119.884 211.955 119.252C212.92 118.611 214.185 118.291 215.748 118.291C216.594 118.291 217.384 118.376 218.119 118.547C218.863 118.709 219.555 118.932 220.195 119.214L219.478 120.918C218.897 120.67 218.277 120.461 217.619 120.29C216.961 120.119 216.291 120.034 215.607 120.034C214.625 120.034 213.868 120.196 213.339 120.521C212.818 120.845 212.557 121.29 212.557 121.854C212.557 122.289 212.677 122.648 212.916 122.93C213.164 123.212 213.557 123.477 214.095 123.725C214.633 123.973 215.342 124.263 216.222 124.596C217.102 124.921 217.863 125.259 218.504 125.609C219.145 125.951 219.636 126.369 219.978 126.865C220.328 127.352 220.503 127.98 220.503 128.749ZM235.998 118.316C237.673 118.316 238.916 118.692 239.727 119.444C240.539 120.196 240.945 121.397 240.945 123.046V132.594H239.394L238.984 130.518H238.882C238.489 131.03 238.078 131.462 237.651 131.812C237.224 132.154 236.728 132.414 236.165 132.594C235.609 132.765 234.926 132.85 234.114 132.85C233.26 132.85 232.499 132.701 231.833 132.402C231.175 132.102 230.654 131.65 230.269 131.043C229.893 130.436 229.705 129.667 229.705 128.736C229.705 127.335 230.26 126.258 231.371 125.506C232.482 124.754 234.174 124.344 236.446 124.276L238.869 124.173V123.315C238.869 122.101 238.608 121.251 238.087 120.764C237.566 120.277 236.831 120.034 235.883 120.034C235.148 120.034 234.447 120.141 233.781 120.354C233.114 120.568 232.482 120.82 231.884 121.11L231.23 119.496C231.863 119.171 232.589 118.893 233.409 118.662C234.229 118.432 235.092 118.316 235.998 118.316ZM238.843 125.673L236.703 125.763C234.951 125.831 233.717 126.117 232.999 126.621C232.281 127.125 231.922 127.839 231.922 128.762C231.922 129.565 232.166 130.159 232.653 130.543C233.14 130.928 233.785 131.12 234.588 131.12C235.836 131.12 236.857 130.774 237.651 130.082C238.446 129.39 238.843 128.352 238.843 126.967V125.673ZM254.287 132.594H252.146V112.652H254.287V132.594ZM270.897 125.545C270.897 126.698 270.747 127.728 270.448 128.634C270.149 129.539 269.718 130.304 269.154 130.928C268.59 131.551 267.906 132.03 267.103 132.363C266.308 132.688 265.407 132.85 264.399 132.85C263.459 132.85 262.596 132.688 261.81 132.363C261.032 132.03 260.357 131.551 259.785 130.928C259.221 130.304 258.781 129.539 258.465 128.634C258.157 127.728 258.003 126.698 258.003 125.545C258.003 124.007 258.264 122.7 258.785 121.623C259.306 120.538 260.05 119.713 261.015 119.149C261.989 118.577 263.147 118.291 264.489 118.291C265.77 118.291 266.889 118.577 267.846 119.149C268.812 119.722 269.559 120.551 270.089 121.636C270.628 122.712 270.897 124.015 270.897 125.545ZM260.208 125.545C260.208 126.673 260.357 127.651 260.656 128.48C260.955 129.309 261.417 129.949 262.041 130.402C262.664 130.855 263.467 131.081 264.45 131.081C265.424 131.081 266.223 130.855 266.847 130.402C267.479 129.949 267.945 129.309 268.244 128.48C268.543 127.651 268.692 126.673 268.692 125.545C268.692 124.426 268.543 123.46 268.244 122.648C267.945 121.828 267.483 121.196 266.86 120.752C266.236 120.307 265.428 120.085 264.437 120.085C262.976 120.085 261.904 120.568 261.22 121.533C260.545 122.499 260.208 123.836 260.208 125.545ZM279.112 131.107C279.462 131.107 279.821 131.077 280.188 131.017C280.556 130.958 280.855 130.885 281.086 130.799V132.453C280.838 132.564 280.492 132.658 280.047 132.735C279.612 132.812 279.185 132.85 278.766 132.85C278.023 132.85 277.348 132.722 276.741 132.466C276.134 132.201 275.647 131.756 275.28 131.133C274.921 130.509 274.742 129.646 274.742 128.544V120.213H272.742V119.175L274.754 118.342L275.6 115.292H276.882V118.547H280.996V120.213H276.882V128.48C276.882 129.36 277.083 130.018 277.484 130.453C277.894 130.889 278.437 131.107 279.112 131.107ZM302.86 125.545C302.86 126.698 302.711 127.728 302.412 128.634C302.113 129.539 301.681 130.304 301.117 130.928C300.554 131.551 299.87 132.03 299.067 132.363C298.272 132.688 297.371 132.85 296.363 132.85C295.423 132.85 294.56 132.688 293.774 132.363C292.996 132.03 292.321 131.551 291.749 130.928C291.185 130.304 290.745 129.539 290.429 128.634C290.121 127.728 289.967 126.698 289.967 125.545C289.967 124.007 290.228 122.7 290.749 121.623C291.27 120.538 292.014 119.713 292.979 119.149C293.953 118.577 295.111 118.291 296.452 118.291C297.734 118.291 298.853 118.577 299.81 119.149C300.776 119.722 301.523 120.551 302.053 121.636C302.591 122.712 302.86 124.015 302.86 125.545ZM292.172 125.545C292.172 126.673 292.321 127.651 292.62 128.48C292.919 129.309 293.381 129.949 294.004 130.402C294.628 130.855 295.431 131.081 296.414 131.081C297.388 131.081 298.187 130.855 298.811 130.402C299.443 129.949 299.908 129.309 300.208 128.48C300.507 127.651 300.656 126.673 300.656 125.545C300.656 124.426 300.507 123.46 300.208 122.648C299.908 121.828 299.447 121.196 298.823 120.752C298.2 120.307 297.392 120.085 296.401 120.085C294.94 120.085 293.868 120.568 293.184 121.533C292.509 122.499 292.172 123.836 292.172 125.545ZM312.793 120.213H309.294V132.594H307.167V120.213H304.68V119.188L307.167 118.483V117.547C307.167 116.368 307.342 115.411 307.692 114.677C308.043 113.933 308.551 113.386 309.217 113.036C309.884 112.686 310.695 112.511 311.652 112.511C312.191 112.511 312.682 112.558 313.126 112.652C313.579 112.746 313.976 112.852 314.318 112.972L313.767 114.651C313.477 114.557 313.148 114.472 312.78 114.395C312.421 114.309 312.054 114.266 311.678 114.266C310.866 114.266 310.264 114.531 309.871 115.061C309.486 115.582 309.294 116.403 309.294 117.522V118.547H312.793V120.213ZM67.0921 154.291C68.8437 154.291 70.2407 154.893 71.283 156.098C72.3254 157.303 72.8466 159.114 72.8466 161.532C72.8466 163.13 72.6074 164.471 72.1289 165.556C71.6504 166.641 70.9755 167.462 70.1039 168.017C69.241 168.572 68.22 168.85 67.0409 168.85C66.2975 168.85 65.6439 168.752 65.08 168.555C64.516 168.359 64.0333 168.094 63.6317 167.761C63.2301 167.427 62.8969 167.064 62.6321 166.671H62.4783C62.5039 167.005 62.5338 167.406 62.568 167.876C62.6107 168.346 62.6321 168.756 62.6321 169.106V174.874H60.4917V154.547H62.2476L62.5295 156.623H62.6321C62.9055 156.196 63.2387 155.807 63.6317 155.457C64.0248 155.098 64.5032 154.816 65.0671 154.611C65.6396 154.398 66.3146 154.291 67.0921 154.291ZM66.7204 156.085C65.7464 156.085 64.9603 156.273 64.3623 156.649C63.7727 157.025 63.3412 157.589 63.0678 158.341C62.7944 159.084 62.6491 160.02 62.6321 161.147V161.558C62.6321 162.745 62.7602 163.749 63.0165 164.569C63.2814 165.39 63.7129 166.013 64.311 166.441C64.9176 166.868 65.7293 167.081 66.7461 167.081C67.6176 167.081 68.3438 166.846 68.9249 166.377C69.5059 165.907 69.9373 165.253 70.2193 164.416C70.5098 163.57 70.655 162.6 70.655 161.506C70.655 159.849 70.3304 158.533 69.681 157.559C69.0402 156.576 68.0533 156.085 66.7204 156.085ZM81.9718 154.291C83.168 154.291 84.1933 154.556 85.0477 155.085C85.9022 155.615 86.5558 156.358 87.0086 157.315C87.4615 158.264 87.6879 159.375 87.6879 160.648V161.968H77.986C78.0116 163.617 78.4217 164.873 79.2163 165.736C80.0109 166.599 81.1302 167.03 82.5742 167.03C83.4628 167.03 84.2489 166.949 84.9324 166.787C85.6159 166.624 86.3251 166.385 87.0599 166.069V167.94C86.3507 168.256 85.6458 168.487 84.9452 168.632C84.2531 168.777 83.4329 168.85 82.4845 168.85C81.1345 168.85 79.9554 168.577 78.9472 168.03C77.9475 167.474 77.17 166.663 76.6146 165.595C76.0592 164.527 75.7816 163.219 75.7816 161.673C75.7816 160.161 76.0336 158.853 76.5377 157.751C77.0504 156.64 77.7681 155.786 78.6909 155.188C79.6222 154.59 80.7158 154.291 81.9718 154.291ZM81.9462 156.034C80.8098 156.034 79.9041 156.405 79.2291 157.149C78.5542 157.892 78.1526 158.93 78.0244 160.263H85.4579C85.4493 159.426 85.3169 158.691 85.0606 158.059C84.8128 157.418 84.4326 156.922 83.9199 156.572C83.4073 156.213 82.7493 156.034 81.9462 156.034ZM103.413 161.545C103.413 162.698 103.264 163.728 102.965 164.634C102.666 165.539 102.234 166.304 101.67 166.928C101.107 167.551 100.423 168.03 99.6198 168.363C98.8252 168.688 97.9238 168.85 96.9156 168.85C95.9758 168.85 95.1128 168.688 94.3267 168.363C93.5492 168.03 92.8742 167.551 92.3018 166.928C91.7378 166.304 91.2978 165.539 90.9817 164.634C90.6741 163.728 90.5203 162.698 90.5203 161.545C90.5203 160.007 90.7809 158.7 91.3021 157.623C91.8233 156.538 92.5666 155.713 93.5321 155.149C94.5062 154.577 95.6639 154.291 97.0053 154.291C98.287 154.291 99.4062 154.577 100.363 155.149C101.329 155.722 102.076 156.551 102.606 157.636C103.144 158.712 103.413 160.015 103.413 161.545ZM92.7247 161.545C92.7247 162.673 92.8742 163.651 93.1733 164.48C93.4723 165.309 93.9337 165.949 94.5574 166.402C95.1811 166.855 95.9843 167.081 96.9669 167.081C97.9409 167.081 98.7398 166.855 99.3635 166.402C99.9958 165.949 100.461 165.309 100.76 164.48C101.06 163.651 101.209 162.673 101.209 161.545C101.209 160.426 101.06 159.46 100.76 158.648C100.461 157.828 100 157.196 99.3763 156.752C98.7526 156.307 97.9452 156.085 96.9541 156.085C95.493 156.085 94.4207 156.568 93.7372 157.533C93.0622 158.499 92.7247 159.836 92.7247 161.545ZM113.692 154.291C115.444 154.291 116.841 154.893 117.883 156.098C118.925 157.303 119.447 159.114 119.447 161.532C119.447 163.13 119.207 164.471 118.729 165.556C118.25 166.641 117.575 167.462 116.704 168.017C115.841 168.572 114.82 168.85 113.641 168.85C112.898 168.85 112.244 168.752 111.68 168.555C111.116 168.359 110.633 168.094 110.232 167.761C109.83 167.427 109.497 167.064 109.232 166.671H109.078C109.104 167.005 109.134 167.406 109.168 167.876C109.211 168.346 109.232 168.756 109.232 169.106V174.874H107.092V154.547H108.848L109.13 156.623H109.232C109.505 156.196 109.839 155.807 110.232 155.457C110.625 155.098 111.103 154.816 111.667 154.611C112.24 154.398 112.915 154.291 113.692 154.291ZM113.32 156.085C112.346 156.085 111.56 156.273 110.962 156.649C110.373 157.025 109.941 157.589 109.668 158.341C109.394 159.084 109.249 160.02 109.232 161.147V161.558C109.232 162.745 109.36 163.749 109.617 164.569C109.881 165.39 110.313 166.013 110.911 166.441C111.518 166.868 112.329 167.081 113.346 167.081C114.218 167.081 114.944 166.846 115.525 166.377C116.106 165.907 116.537 165.253 116.819 164.416C117.11 163.57 117.255 162.6 117.255 161.506C117.255 159.849 116.93 158.533 116.281 157.559C115.64 156.576 114.653 156.085 113.32 156.085ZM125.304 168.594H123.163V148.652H125.304V168.594ZM135.211 154.291C136.407 154.291 137.432 154.556 138.287 155.085C139.141 155.615 139.795 156.358 140.247 157.315C140.7 158.264 140.927 159.375 140.927 160.648V161.968H131.225C131.25 163.617 131.661 164.873 132.455 165.736C133.25 166.599 134.369 167.03 135.813 167.03C136.702 167.03 137.488 166.949 138.171 166.787C138.855 166.624 139.564 166.385 140.299 166.069V167.94C139.59 168.256 138.885 168.487 138.184 168.632C137.492 168.777 136.672 168.85 135.723 168.85C134.373 168.85 133.194 168.577 132.186 168.03C131.186 167.474 130.409 166.663 129.853 165.595C129.298 164.527 129.02 163.219 129.02 161.673C129.02 160.161 129.272 158.853 129.777 157.751C130.289 156.64 131.007 155.786 131.93 155.188C132.861 154.59 133.955 154.291 135.211 154.291ZM135.185 156.034C134.049 156.034 133.143 156.405 132.468 157.149C131.793 157.892 131.391 158.93 131.263 160.263H138.697C138.688 159.426 138.556 158.691 138.299 158.059C138.052 157.418 137.671 156.922 137.159 156.572C136.646 156.213 135.988 156.034 135.185 156.034ZM144.221 167.261C144.221 166.663 144.366 166.24 144.656 165.992C144.947 165.736 145.301 165.608 145.72 165.608C146.156 165.608 146.523 165.736 146.822 165.992C147.121 166.24 147.271 166.663 147.271 167.261C147.271 167.85 147.121 168.282 146.822 168.555C146.523 168.82 146.156 168.953 145.72 168.953C145.301 168.953 144.947 168.82 144.656 168.555C144.366 168.282 144.221 167.85 144.221 167.261ZM158.575 168.594V149.856H160.754V168.594H158.575ZM176.94 167.107C177.291 167.107 177.65 167.077 178.017 167.017C178.384 166.958 178.684 166.885 178.914 166.799V168.453C178.666 168.564 178.32 168.658 177.876 168.735C177.44 168.812 177.013 168.85 176.594 168.85C175.851 168.85 175.176 168.722 174.569 168.466C173.963 168.201 173.476 167.756 173.108 167.133C172.75 166.509 172.57 165.646 172.57 164.544V156.213H170.571V155.175L172.583 154.342L173.429 151.292H174.71V154.547H178.824V156.213H174.71V164.48C174.71 165.36 174.911 166.018 175.313 166.453C175.723 166.889 176.265 167.107 176.94 167.107ZM188.142 154.291C188.424 154.291 188.719 154.308 189.026 154.342C189.334 154.368 189.607 154.406 189.846 154.457L189.577 156.431C189.347 156.371 189.09 156.324 188.808 156.29C188.526 156.256 188.262 156.239 188.014 156.239C187.45 156.239 186.916 156.354 186.412 156.585C185.916 156.807 185.48 157.132 185.104 157.559C184.729 157.978 184.434 158.486 184.22 159.084C184.007 159.674 183.9 160.332 183.9 161.058V168.594H181.759V154.547H183.528L183.759 157.136H183.848C184.139 156.615 184.489 156.141 184.899 155.713C185.31 155.278 185.784 154.932 186.322 154.675C186.869 154.419 187.475 154.291 188.142 154.291ZM190.282 154.547H192.564L195.665 162.698C195.845 163.177 196.011 163.638 196.165 164.082C196.319 164.518 196.455 164.937 196.575 165.338C196.695 165.74 196.789 166.129 196.857 166.505H196.947C197.066 166.077 197.237 165.518 197.459 164.826C197.682 164.125 197.921 163.412 198.177 162.685L201.112 154.547H203.406L197.293 170.657C196.968 171.52 196.588 172.272 196.152 172.913C195.725 173.554 195.204 174.045 194.589 174.387C193.973 174.737 193.23 174.912 192.358 174.912C191.957 174.912 191.602 174.887 191.295 174.835C190.987 174.793 190.722 174.741 190.5 174.681V172.977C190.688 173.02 190.915 173.058 191.179 173.092C191.453 173.126 191.735 173.144 192.025 173.144C192.555 173.144 193.012 173.041 193.397 172.836C193.79 172.639 194.127 172.349 194.409 171.964C194.691 171.58 194.935 171.123 195.14 170.593L195.909 168.619L190.282 154.547ZM217.004 167.107C217.355 167.107 217.713 167.077 218.081 167.017C218.448 166.958 218.747 166.885 218.978 166.799V168.453C218.73 168.564 218.384 168.658 217.94 168.735C217.504 168.812 217.077 168.85 216.658 168.85C215.915 168.85 215.24 168.722 214.633 168.466C214.027 168.201 213.54 167.756 213.172 167.133C212.813 166.509 212.634 165.646 212.634 164.544V156.213H210.635V155.175L212.647 154.342L213.493 151.292H214.774V154.547H218.888V156.213H214.774V164.48C214.774 165.36 214.975 166.018 215.377 166.453C215.787 166.889 216.329 167.107 217.004 167.107ZM233.934 161.545C233.934 162.698 233.785 163.728 233.486 164.634C233.187 165.539 232.755 166.304 232.191 166.928C231.628 167.551 230.944 168.03 230.141 168.363C229.346 168.688 228.445 168.85 227.437 168.85C226.497 168.85 225.634 168.688 224.848 168.363C224.07 168.03 223.395 167.551 222.823 166.928C222.259 166.304 221.819 165.539 221.503 164.634C221.195 163.728 221.041 162.698 221.041 161.545C221.041 160.007 221.302 158.7 221.823 157.623C222.344 156.538 223.088 155.713 224.053 155.149C225.027 154.577 226.185 154.291 227.526 154.291C228.808 154.291 229.927 154.577 230.884 155.149C231.85 155.722 232.597 156.551 233.127 157.636C233.665 158.712 233.934 160.015 233.934 161.545ZM223.246 161.545C223.246 162.673 223.395 163.651 223.694 164.48C223.993 165.309 224.455 165.949 225.078 166.402C225.702 166.855 226.505 167.081 227.488 167.081C228.462 167.081 229.261 166.855 229.885 166.402C230.517 165.949 230.982 165.309 231.282 164.48C231.581 163.651 231.73 162.673 231.73 161.545C231.73 160.426 231.581 159.46 231.282 158.648C230.982 157.828 230.521 157.196 229.897 156.752C229.274 156.307 228.466 156.085 227.475 156.085C226.014 156.085 224.942 156.568 224.258 157.533C223.583 158.499 223.246 159.836 223.246 161.545ZM250.121 172.746H244.316V149.856H250.121V151.599H246.392V170.978H250.121V172.746ZM262.105 164.749C262.105 165.646 261.878 166.402 261.425 167.017C260.981 167.624 260.34 168.081 259.503 168.389C258.674 168.696 257.683 168.85 256.53 168.85C255.547 168.85 254.697 168.773 253.979 168.619C253.261 168.466 252.633 168.248 252.095 167.966V166.005C252.668 166.287 253.351 166.543 254.146 166.774C254.94 167.005 255.752 167.12 256.581 167.12C257.794 167.12 258.674 166.923 259.221 166.53C259.768 166.137 260.041 165.603 260.041 164.928C260.041 164.544 259.93 164.206 259.708 163.916C259.494 163.617 259.131 163.331 258.619 163.057C258.106 162.775 257.397 162.468 256.491 162.134C255.594 161.793 254.817 161.455 254.159 161.122C253.509 160.78 253.005 160.366 252.646 159.879C252.296 159.392 252.121 158.759 252.121 157.982C252.121 156.794 252.599 155.884 253.556 155.252C254.522 154.611 255.786 154.291 257.35 154.291C258.196 154.291 258.986 154.376 259.721 154.547C260.464 154.709 261.156 154.932 261.797 155.214L261.079 156.918C260.498 156.67 259.879 156.461 259.221 156.29C258.563 156.119 257.892 156.034 257.209 156.034C256.226 156.034 255.47 156.196 254.94 156.521C254.419 156.845 254.159 157.29 254.159 157.854C254.159 158.289 254.278 158.648 254.517 158.93C254.765 159.212 255.158 159.477 255.697 159.725C256.235 159.973 256.944 160.263 257.824 160.596C258.704 160.921 259.465 161.259 260.105 161.609C260.746 161.951 261.237 162.369 261.579 162.865C261.93 163.352 262.105 163.98 262.105 164.749ZM267.654 148.652V154.611C267.654 154.953 267.646 155.299 267.629 155.649C267.611 155.991 267.582 156.307 267.539 156.598H267.68C267.97 156.102 268.338 155.688 268.782 155.355C269.235 155.013 269.747 154.756 270.32 154.586C270.892 154.406 271.499 154.316 272.14 154.316C273.268 154.316 274.208 154.496 274.959 154.855C275.72 155.214 276.288 155.769 276.664 156.521C277.048 157.273 277.241 158.247 277.241 159.443V168.594H275.139V159.584C275.139 158.413 274.87 157.538 274.331 156.957C273.802 156.376 272.986 156.085 271.884 156.085C270.841 156.085 270.008 156.286 269.384 156.687C268.769 157.08 268.325 157.661 268.051 158.43C267.787 159.199 267.654 160.139 267.654 161.25V168.594H265.527V148.652H267.654ZM293.735 161.545C293.735 162.698 293.586 163.728 293.287 164.634C292.988 165.539 292.556 166.304 291.992 166.928C291.428 167.551 290.745 168.03 289.942 168.363C289.147 168.688 288.246 168.85 287.237 168.85C286.298 168.85 285.435 168.688 284.649 168.363C283.871 168.03 283.196 167.551 282.624 166.928C282.06 166.304 281.62 165.539 281.303 164.634C280.996 163.728 280.842 162.698 280.842 161.545C280.842 160.007 281.103 158.7 281.624 157.623C282.145 156.538 282.888 155.713 283.854 155.149C284.828 154.577 285.986 154.291 287.327 154.291C288.609 154.291 289.728 154.577 290.685 155.149C291.65 155.722 292.398 156.551 292.928 157.636C293.466 158.712 293.735 160.015 293.735 161.545ZM283.046 161.545C283.046 162.673 283.196 163.651 283.495 164.48C283.794 165.309 284.256 165.949 284.879 166.402C285.503 166.855 286.306 167.081 287.289 167.081C288.263 167.081 289.062 166.855 289.685 166.402C290.318 165.949 290.783 165.309 291.082 164.48C291.381 163.651 291.531 162.673 291.531 161.545C291.531 160.426 291.381 159.46 291.082 158.648C290.783 157.828 290.322 157.196 289.698 156.752C289.074 156.307 288.267 156.085 287.276 156.085C285.815 156.085 284.743 156.568 284.059 157.533C283.384 158.499 283.046 159.836 283.046 161.545ZM304.014 154.291C305.765 154.291 307.162 154.893 308.205 156.098C309.247 157.303 309.768 159.114 309.768 161.532C309.768 163.13 309.529 164.471 309.051 165.556C308.572 166.641 307.897 167.462 307.026 168.017C306.163 168.572 305.142 168.85 303.963 168.85C303.219 168.85 302.566 168.752 302.002 168.555C301.438 168.359 300.955 168.094 300.554 167.761C300.152 167.427 299.819 167.064 299.554 166.671H299.4C299.426 167.005 299.456 167.406 299.49 167.876C299.533 168.346 299.554 168.756 299.554 169.106V174.874H297.414V154.547H299.169L299.451 156.623H299.554C299.827 156.196 300.161 155.807 300.554 155.457C300.947 155.098 301.425 154.816 301.989 154.611C302.561 154.398 303.236 154.291 304.014 154.291ZM303.642 156.085C302.668 156.085 301.882 156.273 301.284 156.649C300.695 157.025 300.263 157.589 299.99 158.341C299.716 159.084 299.571 160.02 299.554 161.147V161.558C299.554 162.745 299.682 163.749 299.938 164.569C300.203 165.39 300.635 166.013 301.233 166.441C301.839 166.868 302.651 167.081 303.668 167.081C304.539 167.081 305.266 166.846 305.847 166.377C306.428 165.907 306.859 165.253 307.141 164.416C307.432 163.57 307.577 162.6 307.577 161.506C307.577 159.849 307.252 158.533 306.603 157.559C305.962 156.576 304.975 156.085 303.642 156.085ZM311.896 170.978H315.625V151.599H311.896V149.856H317.715V172.746H311.896V170.978ZM82.3051 204.568L79.8059 196.391C79.6948 196.041 79.588 195.699 79.4855 195.366C79.3915 195.024 79.3018 194.7 79.2163 194.392C79.1394 194.076 79.0668 193.785 78.9985 193.52C78.9386 193.247 78.8874 193.012 78.8447 192.816H78.7549C78.7208 193.012 78.6738 193.247 78.614 193.52C78.5542 193.785 78.4815 194.076 78.3961 194.392C78.3192 194.708 78.2337 195.041 78.1398 195.392C78.0458 195.733 77.939 196.079 77.8194 196.43L75.2048 204.568H72.8082L68.9377 190.521H71.1421L73.167 198.275C73.3038 198.788 73.4319 199.296 73.5515 199.8C73.6797 200.296 73.7865 200.766 73.8719 201.21C73.9659 201.646 74.0343 202.026 74.077 202.351H74.1795C74.2308 202.137 74.2863 201.881 74.3461 201.582C74.4145 201.283 74.4871 200.967 74.564 200.634C74.6495 200.292 74.7392 199.954 74.8332 199.621C74.9271 199.279 75.0211 198.959 75.1151 198.66L77.704 190.521H79.9981L82.4973 198.647C82.6255 199.057 82.7494 199.484 82.869 199.929C82.9971 200.373 83.1125 200.804 83.215 201.223C83.3175 201.633 83.3902 202.001 83.4329 202.325H83.5354C83.5696 202.035 83.6337 201.676 83.7277 201.249C83.8216 200.821 83.9285 200.352 84.0481 199.839C84.1762 199.326 84.3087 198.805 84.4454 198.275L86.496 190.521H88.6619L84.7786 204.568H82.3051ZM93.3527 184.652V190.611C93.3527 190.953 93.3441 191.299 93.3271 191.649C93.31 191.991 93.2801 192.307 93.2373 192.598H93.3783C93.6688 192.102 94.0362 191.688 94.4805 191.355C94.9334 191.013 95.446 190.756 96.0185 190.586C96.5909 190.406 97.1976 190.316 97.8384 190.316C98.9662 190.316 99.9061 190.496 100.658 190.855C101.418 191.214 101.987 191.769 102.363 192.521C102.747 193.273 102.939 194.247 102.939 195.443V204.594H100.837V195.584C100.837 194.413 100.568 193.538 100.03 192.957C99.5002 192.376 98.6843 192.085 97.5821 192.085C96.5397 192.085 95.7066 192.286 95.0829 192.687C94.4677 193.08 94.0234 193.661 93.75 194.43C93.4851 195.199 93.3527 196.139 93.3527 197.25V204.594H91.2252V184.652H93.3527ZM112.731 190.291C113.927 190.291 114.952 190.556 115.807 191.085C116.661 191.615 117.315 192.358 117.768 193.315C118.221 194.264 118.447 195.375 118.447 196.648V197.968H108.745C108.771 199.617 109.181 200.873 109.975 201.736C110.77 202.599 111.889 203.03 113.333 203.03C114.222 203.03 115.008 202.949 115.691 202.787C116.375 202.624 117.084 202.385 117.819 202.069V203.94C117.11 204.256 116.405 204.487 115.704 204.632C115.012 204.777 114.192 204.85 113.244 204.85C111.894 204.85 110.714 204.577 109.706 204.03C108.707 203.474 107.929 202.663 107.374 201.595C106.818 200.527 106.541 199.219 106.541 197.673C106.541 196.161 106.793 194.853 107.297 193.751C107.809 192.64 108.527 191.786 109.45 191.188C110.381 190.59 111.475 190.291 112.731 190.291ZM112.705 192.034C111.569 192.034 110.663 192.405 109.988 193.149C109.313 193.892 108.912 194.93 108.783 196.263H116.217C116.208 195.426 116.076 194.691 115.82 194.059C115.572 193.418 115.192 192.922 114.679 192.572C114.166 192.213 113.508 192.034 112.705 192.034ZM128.713 190.291C130.379 190.291 131.639 190.701 132.494 191.521C133.348 192.333 133.775 193.64 133.775 195.443V204.594H131.673V195.584C131.673 194.413 131.404 193.538 130.866 192.957C130.336 192.376 129.52 192.085 128.418 192.085C126.863 192.085 125.769 192.525 125.137 193.405C124.505 194.285 124.189 195.563 124.189 197.237V204.594H122.061V190.547H123.779L124.099 192.572H124.214C124.513 192.077 124.894 191.662 125.355 191.329C125.816 190.987 126.333 190.731 126.906 190.56C127.478 190.38 128.081 190.291 128.713 190.291ZM147.104 190.547V204.594H144.977V190.547H147.104ZM146.066 185.292C146.416 185.292 146.715 185.408 146.963 185.638C147.22 185.861 147.348 186.211 147.348 186.689C147.348 187.159 147.22 187.51 146.963 187.74C146.715 187.971 146.416 188.086 146.066 188.086C145.699 188.086 145.391 187.971 145.143 187.74C144.904 187.51 144.784 187.159 144.784 186.689C144.784 186.211 144.904 185.861 145.143 185.638C145.391 185.408 145.699 185.292 146.066 185.292ZM156.152 203.107C156.503 203.107 156.862 203.077 157.229 203.017C157.596 202.958 157.895 202.885 158.126 202.799V204.453C157.878 204.564 157.532 204.658 157.088 204.735C156.652 204.812 156.225 204.85 155.806 204.85C155.063 204.85 154.388 204.722 153.781 204.466C153.175 204.201 152.688 203.756 152.32 203.133C151.962 202.509 151.782 201.646 151.782 200.544V192.213H149.783V191.175L151.795 190.342L152.641 187.292H153.922V190.547H158.036V192.213H153.922V200.48C153.922 201.36 154.123 202.018 154.525 202.453C154.935 202.889 155.477 203.107 156.152 203.107ZM169.917 190.547V204.594H167.79V190.547H169.917ZM168.879 185.292C169.229 185.292 169.528 185.408 169.776 185.638C170.033 185.861 170.161 186.211 170.161 186.689C170.161 187.159 170.033 187.51 169.776 187.74C169.528 187.971 169.229 188.086 168.879 188.086C168.512 188.086 168.204 187.971 167.956 187.74C167.717 187.51 167.597 187.159 167.597 186.689C167.597 186.211 167.717 185.861 167.956 185.638C168.204 185.408 168.512 185.292 168.879 185.292ZM183.515 200.749C183.515 201.646 183.289 202.402 182.836 203.017C182.392 203.624 181.751 204.081 180.914 204.389C180.085 204.696 179.094 204.85 177.94 204.85C176.958 204.85 176.107 204.773 175.39 204.619C174.672 204.466 174.044 204.248 173.506 203.966V202.005C174.078 202.287 174.762 202.543 175.556 202.774C176.351 203.005 177.163 203.12 177.991 203.12C179.205 203.12 180.085 202.923 180.632 202.53C181.178 202.137 181.452 201.603 181.452 200.928C181.452 200.544 181.341 200.206 181.119 199.916C180.905 199.617 180.542 199.331 180.029 199.057C179.517 198.775 178.807 198.468 177.902 198.134C177.005 197.793 176.227 197.455 175.569 197.122C174.92 196.78 174.416 196.366 174.057 195.879C173.707 195.392 173.531 194.759 173.531 193.982C173.531 192.794 174.01 191.884 174.967 191.252C175.932 190.611 177.197 190.291 178.76 190.291C179.606 190.291 180.397 190.376 181.131 190.547C181.875 190.709 182.567 190.932 183.208 191.214L182.49 192.918C181.909 192.67 181.289 192.461 180.632 192.29C179.974 192.119 179.303 192.034 178.619 192.034C177.637 192.034 176.881 192.196 176.351 192.521C175.83 192.845 175.569 193.29 175.569 193.854C175.569 194.289 175.689 194.648 175.928 194.93C176.176 195.212 176.569 195.477 177.107 195.725C177.645 195.973 178.355 196.263 179.235 196.596C180.115 196.921 180.875 197.259 181.516 197.609C182.157 197.951 182.648 198.369 182.99 198.865C183.34 199.352 183.515 199.98 183.515 200.749ZM195.896 204.594H193.755V184.652H195.896V204.594ZM205.803 190.291C206.999 190.291 208.024 190.556 208.879 191.085C209.733 191.615 210.387 192.358 210.84 193.315C211.292 194.264 211.519 195.375 211.519 196.648V197.968H201.817C201.843 199.617 202.253 200.873 203.047 201.736C203.842 202.599 204.961 203.03 206.405 203.03C207.294 203.03 208.08 202.949 208.763 202.787C209.447 202.624 210.156 202.385 210.891 202.069V203.94C210.182 204.256 209.477 204.487 208.776 204.632C208.084 204.777 207.264 204.85 206.315 204.85C204.965 204.85 203.786 204.577 202.778 204.03C201.778 203.474 201.001 202.663 200.446 201.595C199.89 200.527 199.612 199.219 199.612 197.673C199.612 196.161 199.865 194.853 200.369 193.751C200.881 192.64 201.599 191.786 202.522 191.188C203.453 190.59 204.547 190.291 205.803 190.291ZM205.777 192.034C204.641 192.034 203.735 192.405 203.06 193.149C202.385 193.892 201.984 194.93 201.855 196.263H209.289C209.28 195.426 209.148 194.691 208.891 194.059C208.644 193.418 208.263 192.922 207.751 192.572C207.238 192.213 206.58 192.034 205.777 192.034ZM224.22 200.749C224.22 201.646 223.993 202.402 223.54 203.017C223.096 203.624 222.455 204.081 221.618 204.389C220.789 204.696 219.798 204.85 218.645 204.85C217.662 204.85 216.812 204.773 216.094 204.619C215.377 204.466 214.749 204.248 214.21 203.966V202.005C214.783 202.287 215.466 202.543 216.261 202.774C217.055 203.005 217.867 203.12 218.696 203.12C219.909 203.12 220.789 202.923 221.336 202.53C221.883 202.137 222.156 201.603 222.156 200.928C222.156 200.544 222.045 200.206 221.823 199.916C221.61 199.617 221.246 199.331 220.734 199.057C220.221 198.775 219.512 198.468 218.606 198.134C217.709 197.793 216.932 197.455 216.274 197.122C215.624 196.78 215.12 196.366 214.761 195.879C214.411 195.392 214.236 194.759 214.236 193.982C214.236 192.794 214.714 191.884 215.671 191.252C216.637 190.611 217.901 190.291 219.465 190.291C220.311 190.291 221.101 190.376 221.836 190.547C222.579 190.709 223.271 190.932 223.912 191.214L223.194 192.918C222.613 192.67 221.994 192.461 221.336 192.29C220.678 192.119 220.007 192.034 219.324 192.034C218.341 192.034 217.585 192.196 217.055 192.521C216.534 192.845 216.274 193.29 216.274 193.854C216.274 194.289 216.393 194.648 216.633 194.93C216.88 195.212 217.273 195.477 217.812 195.725C218.35 195.973 219.059 196.263 219.939 196.596C220.819 196.921 221.58 197.259 222.22 197.609C222.861 197.951 223.353 198.369 223.694 198.865C224.045 199.352 224.22 199.98 224.22 200.749ZM236.728 200.749C236.728 201.646 236.502 202.402 236.049 203.017C235.605 203.624 234.964 204.081 234.127 204.389C233.298 204.696 232.307 204.85 231.153 204.85C230.171 204.85 229.321 204.773 228.603 204.619C227.885 204.466 227.257 204.248 226.719 203.966V202.005C227.291 202.287 227.975 202.543 228.77 202.774C229.564 203.005 230.376 203.12 231.205 203.12C232.418 203.12 233.298 202.923 233.845 202.53C234.392 202.137 234.665 201.603 234.665 200.928C234.665 200.544 234.554 200.206 234.332 199.916C234.118 199.617 233.755 199.331 233.242 199.057C232.73 198.775 232.021 198.468 231.115 198.134C230.218 197.793 229.44 197.455 228.782 197.122C228.133 196.78 227.629 196.366 227.27 195.879C226.92 195.392 226.745 194.759 226.745 193.982C226.745 192.794 227.223 191.884 228.18 191.252C229.145 190.611 230.41 190.291 231.974 190.291C232.819 190.291 233.61 190.376 234.345 190.547C235.088 190.709 235.78 190.932 236.421 191.214L235.703 192.918C235.122 192.67 234.503 192.461 233.845 192.29C233.187 192.119 232.516 192.034 231.833 192.034C230.85 192.034 230.094 192.196 229.564 192.521C229.043 192.845 228.782 193.29 228.782 193.854C228.782 194.289 228.902 194.648 229.141 194.93C229.389 195.212 229.782 195.477 230.32 195.725C230.859 195.973 231.568 196.263 232.448 196.596C233.328 196.921 234.088 197.259 234.729 197.609C235.37 197.951 235.861 198.369 236.203 198.865C236.553 199.352 236.728 199.98 236.728 200.749ZM249.096 184.652V189.637C249.096 190.21 249.079 190.765 249.045 191.303C249.019 191.842 248.998 192.26 248.981 192.559H249.096C249.481 191.927 250.036 191.393 250.762 190.957C251.489 190.521 252.416 190.304 253.543 190.304C255.304 190.304 256.705 190.915 257.747 192.136C258.798 193.35 259.324 195.157 259.324 197.558C259.324 199.138 259.084 200.471 258.606 201.556C258.127 202.641 257.452 203.462 256.581 204.017C255.709 204.572 254.68 204.85 253.492 204.85C252.381 204.85 251.467 204.645 250.749 204.235C250.04 203.816 249.493 203.308 249.109 202.71H248.942L248.507 204.594H246.969V184.652H249.096ZM253.197 192.085C252.181 192.085 251.373 192.286 250.775 192.687C250.177 193.08 249.746 193.679 249.481 194.482C249.224 195.276 249.096 196.285 249.096 197.506V197.622C249.096 199.39 249.391 200.745 249.98 201.684C250.57 202.616 251.642 203.081 253.197 203.081C254.505 203.081 255.483 202.603 256.132 201.646C256.79 200.689 257.119 199.322 257.119 197.545C257.119 195.733 256.794 194.371 256.145 193.456C255.504 192.542 254.522 192.085 253.197 192.085ZM274.639 190.547V204.594H272.896L272.588 202.62H272.473C272.183 203.107 271.807 203.517 271.345 203.85C270.884 204.184 270.363 204.431 269.782 204.594C269.209 204.765 268.598 204.85 267.949 204.85C266.838 204.85 265.907 204.671 265.155 204.312C264.403 203.953 263.835 203.398 263.45 202.646C263.074 201.894 262.886 200.928 262.886 199.749V190.547H265.04V199.595C265.04 200.766 265.304 201.642 265.834 202.223C266.364 202.795 267.171 203.081 268.257 203.081C269.299 203.081 270.128 202.885 270.743 202.492C271.367 202.099 271.815 201.522 272.089 200.762C272.362 199.993 272.499 199.053 272.499 197.942V190.547H274.639ZM288.224 200.749C288.224 201.646 287.998 202.402 287.545 203.017C287.101 203.624 286.46 204.081 285.623 204.389C284.794 204.696 283.803 204.85 282.649 204.85C281.667 204.85 280.816 204.773 280.099 204.619C279.381 204.466 278.753 204.248 278.215 203.966V202.005C278.787 202.287 279.471 202.543 280.265 202.774C281.06 203.005 281.872 203.12 282.7 203.12C283.914 203.12 284.794 202.923 285.341 202.53C285.887 202.137 286.161 201.603 286.161 200.928C286.161 200.544 286.05 200.206 285.828 199.916C285.614 199.617 285.251 199.331 284.738 199.057C284.226 198.775 283.516 198.468 282.611 198.134C281.714 197.793 280.936 197.455 280.278 197.122C279.629 196.78 279.125 196.366 278.766 195.879C278.416 195.392 278.24 194.759 278.24 193.982C278.24 192.794 278.719 191.884 279.676 191.252C280.641 190.611 281.906 190.291 283.469 190.291C284.315 190.291 285.106 190.376 285.84 190.547C286.584 190.709 287.276 190.932 287.917 191.214L287.199 192.918C286.618 192.67 285.999 192.461 285.341 192.29C284.683 192.119 284.012 192.034 283.328 192.034C282.346 192.034 281.59 192.196 281.06 192.521C280.539 192.845 280.278 193.29 280.278 193.854C280.278 194.289 280.398 194.648 280.637 194.93C280.885 195.212 281.278 195.477 281.816 195.725C282.354 195.973 283.064 196.263 283.944 196.596C284.824 196.921 285.584 197.259 286.225 197.609C286.866 197.951 287.357 198.369 287.699 198.865C288.049 199.352 288.224 199.98 288.224 200.749ZM289.429 190.547H291.71L294.812 198.698C294.991 199.177 295.158 199.638 295.312 200.082C295.465 200.518 295.602 200.937 295.722 201.338C295.841 201.74 295.935 202.129 296.004 202.505H296.093C296.213 202.077 296.384 201.518 296.606 200.826C296.828 200.125 297.068 199.412 297.324 198.685L300.259 190.547H302.553L296.44 206.657C296.115 207.52 295.735 208.272 295.299 208.913C294.872 209.554 294.35 210.045 293.735 210.387C293.12 210.737 292.377 210.912 291.505 210.912C291.104 210.912 290.749 210.887 290.442 210.835C290.134 210.793 289.869 210.741 289.647 210.681V208.977C289.835 209.02 290.061 209.058 290.326 209.092C290.6 209.126 290.882 209.144 291.172 209.144C291.702 209.144 292.159 209.041 292.543 208.836C292.936 208.639 293.274 208.349 293.556 207.964C293.838 207.58 294.081 207.123 294.286 206.593L295.055 204.619L289.429 190.547ZM304.475 203.261C304.475 202.663 304.621 202.24 304.911 201.992C305.202 201.736 305.556 201.608 305.975 201.608C306.411 201.608 306.778 201.736 307.077 201.992C307.376 202.24 307.526 202.663 307.526 203.261C307.526 203.85 307.376 204.282 307.077 204.555C306.778 204.82 306.411 204.953 305.975 204.953C305.556 204.953 305.202 204.82 304.911 204.555C304.621 204.282 304.475 203.85 304.475 203.261Z" fill="#767676"/>
<mask id="mask0_787_2340" style="mask-type:alpha" maskUnits="userSpaceOnUse" x="417" y="0" width="195" height="280">
<rect x="417.914" width="194" height="280" fill="#D9D9D9"/>
</mask>
<g mask="url(#mask0_787_2340)">
<g clip-path="url(#clip0_787_2340)">
<path d="M551.43 53.7007L563.956 57.8191V39.7852H552.589L551.43 53.7007Z" fill="#F8A8AB"/>
<path d="M562.404 44.7734C569.298 44.7734 574.887 39.1848 574.887 32.291C574.887 25.3972 569.298 19.8086 562.404 19.8086C555.51 19.8086 549.922 25.3972 549.922 32.291C549.922 39.1848 555.51 44.7734 562.404 44.7734Z" fill="#F8A8AB"/>
<path d="M559.22 33.2704L560.941 35.359L564.052 29.9102C564.052 29.9102 568.024 30.1156 568.024 27.1662C568.024 24.2168 571.668 24.1336 571.668 24.1336C571.668 24.1336 576.828 15.124 566.141 17.4962C566.141 17.4962 558.726 12.4192 555.043 16.7577C555.043 16.7577 543.739 22.451 546.972 32.3607L552.348 42.5784L553.565 40.2649C553.565 40.2649 552.827 30.5558 559.22 33.2606V33.2704Z" fill="#2F2E43"/>
<path d="M557.914 240.867H547.672V255.399H557.914V240.867Z" fill="#F8A8AB"/>
<path d="M556.774 263.724C555.023 263.881 546.258 264.575 545.818 262.565C545.417 260.721 546.009 258.794 546.092 258.53C546.933 250.146 547.246 250.053 547.437 249.999C547.735 249.911 548.606 250.327 550.019 251.237L550.107 251.295L550.127 251.398C550.151 251.53 550.777 254.607 553.746 254.132C555.781 253.809 556.442 253.359 556.652 253.139C556.481 253.061 556.265 252.924 556.114 252.689C555.894 252.347 555.855 251.907 556.001 251.379C556.383 249.985 557.527 247.925 557.576 247.842L557.708 247.607L569.349 255.463L576.54 257.517C577.082 257.674 577.518 258.06 577.738 258.578C578.041 259.302 577.855 260.144 577.268 260.672C575.962 261.846 573.37 263.856 570.646 264.106C569.922 264.174 568.963 264.198 567.887 264.198C563.392 264.198 556.828 263.734 556.779 263.724H556.774Z" fill="#2F2E43"/>
<path d="M570.992 115.581L544.125 114.207C544.125 114.207 540.006 129.82 545.211 146.088L545.837 244.054H561.019L575.331 142.997L570.992 115.581Z" fill="#2F2E43"/>
<path d="M566.463 50.2322L551.716 42.4062C551.716 42.4062 535.825 65.6298 538.021 78.21C540.222 90.7902 544.125 114.209 544.125 114.209L576.657 115.584L570.978 69.4645L566.463 50.2322Z" fill="#E2E3E4"/>
<path d="M565.203 240.867H554.961V255.399H565.203V240.867Z" fill="#F8A8AB"/>
<path d="M564.063 263.724C562.312 263.881 553.547 264.575 553.107 262.565C552.706 260.721 553.298 258.794 553.381 258.53C554.222 250.146 554.535 250.053 554.726 249.999C555.024 249.911 555.895 250.327 557.308 251.237L557.396 251.295L557.416 251.398C557.44 251.53 558.067 254.607 561.036 254.132C563.07 253.809 563.731 253.359 563.941 253.139C563.77 253.061 563.555 252.924 563.403 252.689C563.183 252.347 563.144 251.907 563.29 251.379C563.672 249.985 564.816 247.925 564.865 247.842L564.997 247.607L576.639 255.463L583.829 257.517C584.372 257.674 584.807 258.06 585.027 258.578C585.33 259.302 585.144 260.144 584.557 260.672C583.251 261.846 580.659 263.856 577.935 264.106C577.211 264.174 576.252 264.198 575.176 264.198C570.681 264.198 564.117 263.734 564.068 263.724H564.063Z" fill="#2F2E43"/>
<path d="M576.656 115.581L544.125 114.207C544.125 114.207 540.006 129.82 545.211 146.088L551.501 244.054H566.683L580.995 142.997L576.656 115.581Z" fill="#2F2E43"/>
<path d="M573.261 179.568C570.987 179.568 568.507 179.011 566.056 178.463C564.242 178.057 562.642 177.954 561.361 177.876C559.414 177.754 557.873 177.656 557.017 176.516C556.171 175.391 556.171 173.479 557.017 169.708C558.142 164.699 560.647 156.697 563.709 150.114C567.666 141.622 571.466 137.714 575.012 138.512C579.762 139.578 581.655 147.506 582.364 152.134C583.352 158.595 583.264 166.274 582.149 171.244C580.671 177.822 577.282 179.564 573.256 179.564H573.261V179.568ZM574.127 139.886C571.52 139.886 568.321 143.691 565.044 150.735C562.026 157.216 559.561 165.095 558.451 170.031C557.741 173.2 557.663 174.927 558.191 175.636C558.641 176.233 559.82 176.311 561.449 176.409C562.784 176.492 564.447 176.595 566.374 177.03C574.034 178.747 578.822 179.373 580.715 170.926C582.745 161.877 581.2 141.407 574.689 139.945C574.504 139.901 574.313 139.881 574.122 139.881H574.127V139.886Z" fill="#DFDFE0"/>
<path d="M604.239 240.392L531.286 240.872L519.953 235.658L526.556 168.301L533.199 168.638L601.544 172.116L604.239 240.392Z" fill="#B8322E"/>
<path opacity="0.2" d="M531.286 240.872L519.953 235.658L526.556 168.301L533.199 168.638L531.286 240.872Z" fill="#272223"/>
<path d="M574.359 167.146C573.004 167.146 571.522 166.814 570.065 166.486C568.984 166.241 568.03 166.183 567.262 166.134C566.103 166.06 565.183 166.002 564.675 165.322C564.171 164.652 564.171 163.512 564.675 161.262C565.345 158.274 566.837 153.505 568.666 149.582C571.024 144.52 573.293 142.191 575.406 142.666C578.238 143.302 579.368 148.027 579.789 150.79C580.376 154.644 580.327 159.223 579.661 162.182C578.781 166.104 576.761 167.141 574.359 167.141V167.146ZM574.878 143.487C573.322 143.487 571.415 145.757 569.463 149.959C567.663 153.823 566.191 158.518 565.536 161.463C565.11 163.351 565.066 164.383 565.384 164.803C565.653 165.16 566.352 165.204 567.326 165.263C568.123 165.312 569.111 165.376 570.26 165.635C574.824 166.657 577.68 167.029 578.81 161.996C580.018 156.601 579.099 144.397 575.22 143.527C575.108 143.502 574.995 143.487 574.883 143.487H574.878Z" fill="#DFDFE0"/>
<path d="M592.823 203.414L549.33 203.697L542.57 200.591L546.508 160.43L550.47 160.63L591.218 162.704L592.823 203.414Z" fill="#E2E3E4"/>
<path opacity="0.2" d="M549.33 203.697L542.57 200.591L546.508 160.43L550.47 160.63L549.33 203.697Z" fill="#272223"/>
<path d="M576.907 140.039C577.636 143.619 576.301 146.891 573.933 147.346C571.566 147.801 569.057 145.262 568.333 141.682C568.025 140.254 568.074 138.777 568.475 137.368L565.594 122.151L573.038 120.973L575.088 136.096C576.012 137.251 576.633 138.601 576.907 140.039Z" fill="#F8A8AB"/>
<path d="M547.703 49.9467C547.703 49.9467 558.591 48.5674 559.892 51.8201C561.193 55.0727 576.483 132.496 576.483 132.496H566.397L547.703 49.9467Z" fill="#E2E3E4"/>
<path d="M472.054 66.5199L461.117 70.1149V54.375H471.041L472.054 66.5199Z" fill="#F8A8AB"/>
<path d="M462.476 58.7328C468.494 58.7328 473.373 53.8537 473.373 47.8351C473.373 41.8165 468.494 36.9375 462.476 36.9375C456.457 36.9375 451.578 41.8165 451.578 47.8351C451.578 53.8537 456.457 58.7328 462.476 58.7328Z" fill="#F8A8AB"/>
<path d="M465.465 46.7545C463.641 46.7007 462.443 44.8567 461.733 43.1741C461.024 41.4916 460.295 39.5595 458.603 38.865C457.219 38.2976 454.778 42.1372 453.687 41.1149C452.548 40.0487 453.658 34.5754 454.866 33.5922C456.074 32.6091 457.728 32.4184 459.283 32.345C463.079 32.1689 466.899 32.477 470.621 33.2548C472.925 33.7341 475.292 34.458 476.955 36.121C479.058 38.234 479.596 41.4182 479.748 44.397C479.904 47.4442 479.728 50.6333 478.246 53.299C476.764 55.9647 473.663 57.931 470.689 57.2511C470.391 55.637 470.694 53.9789 470.812 52.3354C470.924 50.6968 470.807 48.9262 469.804 47.6203C468.801 46.3143 466.664 45.7958 465.5 46.9551" fill="#2F2E43"/>
<path d="M478.877 50.5297C479.967 49.7325 481.273 49.0624 482.614 49.2287C484.061 49.4048 485.289 50.5982 485.661 52.0118C486.032 53.4253 485.617 54.9807 484.717 56.1351C483.822 57.2894 482.486 58.0524 481.078 58.4339C480.261 58.654 479.366 58.747 478.588 58.4144C477.444 57.9204 476.822 56.4579 477.272 55.2938" fill="#2F2E43"/>
<path d="M468.445 241.674H458.203V256.206H468.445V241.674Z" fill="#F8A8AB"/>
<path d="M448.229 264.999C447.153 264.999 446.194 264.975 445.47 264.906C442.751 264.657 440.154 262.647 438.848 261.473C438.261 260.944 438.075 260.103 438.378 259.379C438.598 258.861 439.034 258.469 439.576 258.318L446.767 256.263L458.408 248.408L458.54 248.643C458.589 248.731 459.733 250.79 460.115 252.179C460.261 252.708 460.222 253.148 460.002 253.49C459.851 253.725 459.635 253.862 459.464 253.94C459.674 254.16 460.335 254.61 462.37 254.933C465.339 255.403 465.965 252.326 465.989 252.199L466.009 252.096L466.097 252.037C467.51 251.128 468.381 250.712 468.679 250.8C468.865 250.854 469.178 250.952 470.024 259.33C470.107 259.594 470.699 261.522 470.298 263.366C469.863 265.371 461.098 264.681 459.342 264.525C459.293 264.53 452.729 264.999 448.234 264.999H448.229Z" fill="#2F2E43"/>
<path d="M497.612 230.248L488.922 235.668L496.612 247.998L505.302 242.578L497.612 230.248Z" fill="#F8A8AB"/>
<path d="M486.064 263.01C484.86 263.01 483.755 262.863 482.967 262.726C482.195 262.589 481.588 261.973 481.461 261.2C481.373 260.642 481.534 260.08 481.916 259.664L486.929 254.117L492.652 241.293L492.887 241.42C492.975 241.469 495.034 242.608 496.095 243.587C496.501 243.958 496.702 244.354 496.692 244.76C496.687 245.044 496.58 245.269 496.472 245.43C496.766 245.509 497.563 245.538 499.461 244.736C502.229 243.567 501.133 240.622 501.085 240.5L501.045 240.402L501.089 240.309C501.808 238.788 502.322 237.976 502.625 237.893C502.816 237.839 503.129 237.756 508.28 244.423C508.49 244.599 510.011 245.925 510.647 247.7C511.337 249.632 503.535 253.687 501.965 254.479C501.916 254.518 493.753 260.451 490.397 262.139C489.067 262.809 487.492 263.014 486.059 263.014L486.064 263.01Z" fill="#2F2E43"/>
<path d="M475.99 120.152H447.313L444.711 146.829L456.098 245.397H470.737L464.882 188.468L488.629 239.865L501.64 230.757L483.097 182.775C483.097 182.775 489.72 140.974 484.516 130.561C479.311 120.147 475.99 120.152 475.99 120.152Z" fill="#2F2E43"/>
<path d="M490.253 121.775H444.711L458.372 62.8945H478.216L490.253 121.775Z" fill="#B8322E"/>
<path d="M433.394 61.7352C432.666 58.1548 434.001 54.8826 436.368 54.4277C438.736 53.9728 441.245 56.5114 441.969 60.0918C442.277 61.52 442.228 62.9971 441.827 64.4058L444.708 79.6224L437.263 80.8012L435.214 65.6775C434.289 64.5232 433.668 63.1732 433.394 61.7352Z" fill="#F8A8AB"/>
<path d="M477.73 62.8955H460.229L448.432 86.4908L443.981 68.809L434.203 69.8459C434.203 69.8459 436.517 104.393 446.627 103.224C456.737 102.055 480.318 70.9318 477.725 62.8906H477.73V62.8955Z" fill="#B8322E"/>
<path d="M494.258 174.81C492.903 174.81 491.421 174.478 489.963 174.15C488.882 173.905 487.929 173.847 487.161 173.798C486.001 173.725 485.082 173.666 484.573 172.986C484.069 172.316 484.069 171.176 484.573 168.926C485.243 165.938 486.735 161.169 488.564 157.246C490.922 152.184 493.191 149.855 495.304 150.33C498.137 150.966 499.266 155.691 499.687 158.454C500.274 162.308 500.225 166.887 499.56 169.846C498.679 173.769 496.659 174.805 494.258 174.805V174.81ZM494.776 151.152C493.221 151.152 491.313 153.421 489.362 157.623C487.562 161.487 486.089 166.182 485.434 169.127C485.008 171.015 484.964 172.047 485.282 172.467C485.551 172.825 486.251 172.869 487.224 172.927C488.021 172.976 489.01 173.04 490.159 173.299C494.722 174.321 497.579 174.693 498.709 169.66C499.917 164.265 498.997 152.061 495.119 151.191C495.006 151.166 494.894 151.152 494.781 151.152H494.776Z" fill="#DFDFE0"/>
<path d="M512.729 211.074L469.236 211.358L462.477 208.252L466.414 168.09L470.376 168.29L511.125 170.364L512.729 211.074Z" fill="#E2E3E4"/>
<path opacity="0.2" d="M469.236 211.358L462.477 208.252L466.414 168.09L470.376 168.29L469.236 211.358Z" fill="#272223"/>
<path d="M497.274 152.625C498.003 156.205 496.668 159.477 494.3 159.932C491.933 160.387 489.424 157.848 488.7 154.268C488.392 152.84 488.441 151.363 488.842 149.954L485.961 134.737L493.405 133.559L495.455 148.682C496.379 149.837 497 151.187 497.274 152.625Z" fill="#F8A8AB"/>
<path d="M467.75 62.894C467.75 62.894 477.694 62.4733 478.212 62.894C480.927 65.1097 496.848 145.086 496.848 145.086H486.762L467.75 62.894Z" fill="#B8322E"/>
</g>
</g>
<defs>
<clipPath id="clip0_787_2340">
<rect width="357.876" height="250" fill="white" transform="translate(335.914 15)"/>
</clipPath>
</defs>
</svg>
