<svg width="40" height="40" viewBox="0 0 40 40" fill="none" xmlns="http://www.w3.org/2000/svg">
<path d="M19.0968 13.4503L5.8218 27.3828C5.60019 27.6152 5.47656 27.9241 5.47656 28.2453C5.47656 28.5664 5.60019 28.8753 5.8218 29.1077L5.8368 29.1228C5.94423 29.2358 6.07355 29.3259 6.21688 29.3874C6.36022 29.449 6.51457 29.4807 6.67055 29.4807C6.82653 29.4807 6.98089 29.449 7.12422 29.3874C7.26755 29.3259 7.39687 29.2358 7.5043 29.1228L20.0043 16.0028L32.4993 29.1228C32.6067 29.2358 32.736 29.3259 32.8794 29.3874C33.0227 29.449 33.1771 29.4807 33.333 29.4807C33.489 29.4807 33.6434 29.449 33.7867 29.3874C33.9301 29.3259 34.0594 29.2358 34.1668 29.1228L34.1818 29.1077C34.4034 28.8753 34.527 28.5664 34.527 28.2453C34.527 27.9241 34.4034 27.6152 34.1818 27.3828L20.9068 13.4503C20.7901 13.3277 20.6496 13.2302 20.4941 13.1635C20.3385 13.0969 20.171 13.0625 20.0018 13.0625C19.8326 13.0625 19.6651 13.0969 19.5095 13.1635C19.354 13.2302 19.2135 13.3277 19.0968 13.4503Z" fill="black"/>
</svg>
